<?xml version="1.0" standalone="no"?>
<!DOCTYPE svg PUBLIC "-//W3C//DTD SVG 20010904//EN"
 "http://www.w3.org/TR/2001/REC-SVG-20010904/DTD/svg10.dtd">
<svg version="1.0" xmlns="http://www.w3.org/2000/svg"
 width="356.000000pt" height="356.000000pt" viewBox="0 0 356.000000 356.000000"
 preserveAspectRatio="xMidYMid meet">
<metadata>
Created by potrace 1.11, written by Peter Selinger 2001-2013
</metadata>
<g transform="translate(0.000000,356.000000) scale(0.100000,-0.100000)"
fill="#000000" stroke="none">
<path d="M1247 2804 c-1 -1 -38 -4 -82 -7 -146 -11 -213 -35 -277 -98 -53 -53
-84 -133 -97 -251 -8 -78 -6 -426 3 -478 37 -206 121 -286 331 -314 22 -3 352
-5 733 -6 l692 0 -2 -307 -3 -308 -757 0 c-499 0 -759 3 -761 10 -2 5 -3 79
-2 163 0 98 -3 152 -10 152 -5 0 -78 -16 -161 -36 l-151 -35 4 -102 c2 -56 5
-109 7 -117 1 -8 6 -33 11 -55 13 -67 54 -143 98 -180 51 -44 144 -75 252 -84
107 -8 1407 -6 1465 3 204 33 279 106 313 309 13 83 16 459 3 552 -25 184 -94
273 -241 309 -100 25 -118 25 -831 26 l-691 0 1 287 1 288 722 0 c474 0 724
-3 726 -10 2 -5 3 -72 2 -147 0 -76 3 -138 8 -138 11 0 178 46 241 67 l49 16
-6 96 c-7 115 -12 143 -37 199 -52 117 -133 164 -325 188 -39 5 -1222 13
-1228 8z"/>
</g>
</svg>
