<svg width="1135" height="620" viewBox="0 0 1135 620" xmlns="http://www.w3.org/2000/svg"><title>Artboard Copy</title><g fill="#008489" fill-rule="evenodd" fill-opacity=".3"><path d="M852.5 4.5a5.1 5.1 0 0 1 2 2 5.105 5.105 0 0 1 2-2 5.108 5.108 0 0 1-2-2 5.108 5.108 0 0 1-2 2m2 4.5a.695.695 0 0 1-.688-.593 3.838 3.838 0 0 0-3.217-3.218h-.003a.697.697 0 0 1 0-1.377 3.836 3.836 0 0 0 3.22-3.217.697.697 0 0 1 1.376-.002 3.838 3.838 0 0 0 3.217 3.219.696.696 0 0 1 .003 1.377 3.836 3.836 0 0 0-3.219 3.216.697.697 0 0 1-.689.595" fill-rule="nonzero"/><path d="M890.628 155.608l-5.093 2.31a.911.911 0 0 0 .753 1.66l5.06-2.296c1.436.54 4.715 1.744 5.593 1.823a.91.91 0 0 0 .165-1.815c-.422-.038-2.535-.758-4.557-1.506l1.582-3.496a.911.911 0 1 0-1.66-.752l-1.843 4.072z"/><path d="M691.28 226.115a3.42 3.42 0 0 0 2.154.76c.631 0 1.26-.173 1.808-.51a3.423 3.423 0 0 0 3.22 2.245 3.435 3.435 0 0 0 2.68-1.28 3.443 3.443 0 0 0-.52-4.836 3.41 3.41 0 0 0-2.526-.74 3.421 3.421 0 0 0-1.437.494 3.413 3.413 0 0 0-1.064-1.489 3.443 3.443 0 0 0-4.836.52 3.444 3.444 0 0 0 .52 4.836zm6.982-2.822a1.88 1.88 0 0 1 1.388.407c.812.654.94 1.847.287 2.658a1.893 1.893 0 0 1-3.352-.983 1.886 1.886 0 0 1 .055-.688c.02-.051.036-.104.053-.156a1.855 1.855 0 0 1 1.57-1.238zm-6.297-1.041a1.888 1.888 0 0 1 1.474-.704c.417 0 .835.136 1.184.417.598.482.822 1.255.639 1.954a2.817 2.817 0 0 0-.061.176c-.07.186-.16.366-.291.529a1.893 1.893 0 0 1-2.659.286 1.893 1.893 0 0 1-.286-2.658zm406.287 133.314c5.926 5.926 15.57 5.926 21.496 0a.8.8 0 1 0-1.131-1.132c-5.303 5.303-13.93 5.303-19.234 0a.8.8 0 1 0-1.131 1.132zm32.818 263.572a3.072 3.072 0 0 0 3.068-3.07 3.072 3.072 0 0 0-3.069-3.068 3.073 3.073 0 0 0-3.069 3.069 3.073 3.073 0 0 0 3.07 3.069zm0-4.59c.837 0 1.52.682 1.52 1.52a1.522 1.522 0 0 1-3.042.001c0-.839.682-1.52 1.521-1.52zm-11.07-65.13a1.209 1.209 0 1 1 0-2.418 1.209 1.209 0 0 1 0 2.418zm-7.791 0a1.209 1.209 0 1 1 0-2.418 1.209 1.209 0 0 1 0 2.418zm15.582 0a1.209 1.209 0 1 1 0-2.418 1.209 1.209 0 0 1 0 2.418zm-7.791 7.791a1.209 1.209 0 1 1 0-2.418 1.209 1.209 0 0 1 0 2.418zm-7.791 0a1.209 1.209 0 1 1 0-2.418 1.209 1.209 0 0 1 0 2.418zm15.582 0a1.209 1.209 0 1 1 0-2.418 1.209 1.209 0 0 1 0 2.418zM1120 565a1.209 1.209 0 1 1 0-2.418 1.209 1.209 0 0 1 0 2.418zm-7.791 0a1.209 1.209 0 1 1 0-2.418 1.209 1.209 0 0 1 0 2.418zm15.582 0a1.209 1.209 0 1 1 0-2.418 1.209 1.209 0 0 1 0 2.418zM.8 170c8.381 0 15.2-6.819 15.2-15.2a.8.8 0 1 0-1.6 0c0 7.5-6.1 13.6-13.6 13.6a.8.8 0 1 0 0 1.6zm13.15 365.142a.84.84 0 0 0 .22.25l-.092 4.289a.855.855 0 0 0 .84.869h.015a.855.855 0 0 0 .854-.84l.074-4.226c.42-.594 2.449-2.477 4.204-3.98a.854.854 0 1 0-1.113-1.298c-2.046 1.754-3.201 2.86-3.864 3.575-.773-1.044-2.271-2.637-2.614-2.999a.854.854 0 1 0-1.24 1.177c.891.938 2.416 2.632 2.716 3.183zm340.717-381.809h-8a.666.666 0 1 1 0-1.333h8a.666.666 0 1 1 0 1.333zM360 157h-8a.666.666 0 1 1 0-1.333h8a.666.666 0 1 1 0 1.333zm-83.017 37.862a.495.495 0 0 1 .045.087 2.022 2.022 0 0 0 1.883 1.305c.832 0 1.59-.524 1.882-1.3a.692.692 0 1 1 1.297.486 3.41 3.41 0 0 1-3.179 2.2 3.408 3.408 0 0 1-2.53-1.136 3.409 3.409 0 0 1-2.531 1.136c-.99 0-1.924-.439-2.563-1.173a3.409 3.409 0 0 1-2.562 1.173 3.41 3.41 0 0 1-3.181-2.205.694.694 0 0 1 1.298-.485 2.022 2.022 0 0 0 1.883 1.304 2.02 2.02 0 0 0 1.882-1.302.687.687 0 0 1 .656-.444.687.687 0 0 1 .704.442 2.022 2.022 0 0 0 1.883 1.304 2.022 2.022 0 0 0 1.888-1.315.656.656 0 0 1 .113-.187l.027-.033a.702.702 0 0 1 .238-.163c-.074.037-.074.037-.083.045.017-.015.017-.015.107-.059a.57.57 0 0 1 .179-.034c.298-.011.536.125.658.343l.005.01-.01-.017c.012.018.017.028.043.078l-.032-.06zM31.07 378.138a3.072 3.072 0 0 0 3.068-3.07A3.072 3.072 0 0 0 31.069 372 3.073 3.073 0 0 0 28 375.069a3.073 3.073 0 0 0 3.07 3.069zm0-4.59c.837 0 1.52.682 1.52 1.52a1.522 1.522 0 0 1-3.042.001c0-.839.682-1.52 1.521-1.52z" fill-rule="nonzero"/></g></svg>