<svg width="300" height="308" viewBox="0 0 300 308" xmlns="http://www.w3.org/2000/svg"><title>Components/Graphics/Halftone - Square</title><path d="M299.128 9.585c-.616 0-.872-.255-.872-.871 0-.617.253-.872.872-.872.616 0 .872.255.872.872 0 .616-.259.871-.872.871zm-30.698-.871a1.655 1.655 0 1 1 3.31 0 1.655 1.655 0 0 1-3.31 0zm-29.828 0a2.44 2.44 0 1 1 4.88 0 2.44 2.44 0 0 1-4.88 0zm-29.823 0a3.223 3.223 0 1 1 6.446 0 3.223 3.223 0 0 1-6.446 0zm-29.825 0a4.009 4.009 0 1 1 8.017 0 4.009 4.009 0 0 1-8.017 0zm-29.823 0a4.791 4.791 0 1 1 9.583 0 4.791 4.791 0 0 1-9.583 0zm-29.825 0a5.574 5.574 0 1 1 11.147 0 5.574 5.574 0 0 1-11.147 0zm-29.826 0a6.36 6.36 0 1 1 12.719 0 6.36 6.36 0 0 1-12.72 0zm-29.826 0a7.145 7.145 0 1 1 14.29 0 7.145 7.145 0 0 1-14.29 0zm-29.825 0a7.928 7.928 0 1 1 15.855 0 7.928 7.928 0 0 1-15.855 0zM0 8.714a8.714 8.714 0 1 1 17.427 0A8.714 8.714 0 0 1 0 8.714zm283.343 14.521a1.263 1.263 0 1 1 2.527 0 1.263 1.263 0 0 1-2.527 0zm-29.828 0a2.049 2.049 0 1 1 4.098 0 2.049 2.049 0 0 1-4.098 0zm-29.823 0a2.832 2.832 0 1 1 5.663 0 2.832 2.832 0 0 1-5.663 0zm-29.822 0a3.614 3.614 0 1 1 7.228 0 3.614 3.614 0 0 1-7.228 0zm-29.83 0a4.4 4.4 0 1 1 8.8 0 4.4 4.4 0 0 1-8.8 0zm-29.825 0a5.183 5.183 0 1 1 10.365 0 5.183 5.183 0 0 1-10.365 0zm-29.825 0a5.968 5.968 0 1 1 11.936 0 5.968 5.968 0 0 1-11.936 0zm-29.823 0a6.75 6.75 0 1 1 13.502 0 6.75 6.75 0 0 1-13.502 0zm-29.826 0a7.537 7.537 0 1 1 15.074 0 7.537 7.537 0 0 1-15.074 0zm-29.825-.003a8.32 8.32 0 1 1 16.638 0 8.32 8.32 0 0 1-16.638 0zm284.212 15.393c-.616 0-.872-.252-.872-.868 0-.617.256-.87.872-.87s.872.253.872.87c0 .616-.259.868-.872.868zm-30.7-.872a1.658 1.658 0 1 1 3.315 0 1.658 1.658 0 0 1-3.316 0zm-29.826 0a2.44 2.44 0 1 1 4.88 0 2.44 2.44 0 0 1-4.88 0zm-29.823 0a3.223 3.223 0 1 1 6.446 0 3.223 3.223 0 0 1-6.446 0zm-29.825 0a4.009 4.009 0 1 1 8.017 0 4.009 4.009 0 0 1-8.017 0zm-29.823 0a4.791 4.791 0 1 1 9.583 0 4.791 4.791 0 0 1-9.583 0zm-29.829 0a5.577 5.577 0 1 1 11.154 0 5.577 5.577 0 0 1-11.154 0zm-29.822 0a6.36 6.36 0 1 1 12.719 0 6.36 6.36 0 0 1-12.72 0zm-29.826.004a7.145 7.145 0 1 1 14.29 0 7.145 7.145 0 0 1-14.29 0zm-29.825-.004a7.928 7.928 0 1 1 15.855 0 7.928 7.928 0 0 1-15.855 0zM0 37.753a8.714 8.714 0 1 1 17.427 0 8.714 8.714 0 0 1-17.427 0zm283.343 14.522a1.263 1.263 0 1 1 2.527 0 1.263 1.263 0 0 1-2.527 0zm-29.828 0a2.049 2.049 0 1 1 4.098 0 2.049 2.049 0 0 1-4.098 0zm-29.823 0a2.832 2.832 0 1 1 5.663 0 2.832 2.832 0 0 1-5.663 0zm-29.826 0a3.617 3.617 0 1 1 7.235 0 3.617 3.617 0 0 1-7.235 0zm-29.825 0a4.4 4.4 0 1 1 8.8 0 4.4 4.4 0 0 1-8.8 0zm-29.826 0a5.183 5.183 0 1 1 10.365 0 5.183 5.183 0 0 1-10.365 0zm-29.825 0a5.968 5.968 0 1 1 11.936 0 5.968 5.968 0 0 1-11.936 0zm-29.823 0a6.75 6.75 0 1 1 13.502 0 6.75 6.75 0 0 1-13.502 0zm-29.826 0a7.537 7.537 0 1 1 15.074 0 7.537 7.537 0 0 1-15.074 0zm-29.825 0a8.32 8.32 0 1 1 16.638 0 8.32 8.32 0 0 1-16.638 0zm284.212 15.39c-.616 0-.872-.255-.872-.869 0-.619.256-.872.872-.872s.872.256.872.872c-.003.617-.259.87-.872.87zm-30.698-.872a1.655 1.655 0 1 1 3.31 0 1.655 1.655 0 0 1-3.31 0zm-29.828.003a2.44 2.44 0 1 1 4.88 0 2.44 2.44 0 0 1-4.88 0zm-29.823-.003a3.223 3.223 0 1 1 6.446 0 3.223 3.223 0 0 1-6.446 0zm-29.825.003a4.009 4.009 0 1 1 8.017 0 4.009 4.009 0 0 1-8.017 0zm-29.823 0a4.791 4.791 0 1 1 9.583 0 4.791 4.791 0 0 1-9.583 0zm-29.829 0a5.577 5.577 0 1 1 11.154 0 5.577 5.577 0 0 1-11.154 0zm-29.822 0a6.36 6.36 0 1 1 12.719 0 6.36 6.36 0 0 1-12.72 0zm-29.826 0a7.145 7.145 0 1 1 14.29 0 7.145 7.145 0 0 1-14.29 0zm-29.825-.003a7.928 7.928 0 1 1 15.855 0 7.928 7.928 0 0 1-15.855 0zM0 66.796a8.714 8.714 0 1 1 17.427 0 8.714 8.714 0 0 1-17.427 0zm283.343 14.519a1.263 1.263 0 1 1 2.527 0 1.263 1.263 0 0 1-2.527 0zm-29.825 0a2.046 2.046 0 1 1 4.091 0 2.046 2.046 0 0 1-4.091 0zm-29.826 0a2.832 2.832 0 1 1 5.663 0 2.832 2.832 0 0 1-5.663 0zm-29.826 0a3.617 3.617 0 1 1 7.235 0 3.617 3.617 0 0 1-7.235 0zm-29.822 0a4.397 4.397 0 1 1 8.794 0 4.397 4.397 0 0 1-8.794 0zm-29.832 0a5.186 5.186 0 1 1 10.371 0 5.186 5.186 0 0 1-10.37 0zm-29.822 0a5.968 5.968 0 1 1 11.936 0 5.968 5.968 0 0 1-11.936 0zm-29.823 0a6.75 6.75 0 1 1 13.502 0 6.75 6.75 0 0 1-13.502 0zm-29.826.003a7.537 7.537 0 1 1 15.074 0 7.537 7.537 0 0 1-15.074 0zm-29.825-.003a8.32 8.32 0 1 1 16.638 0 8.32 8.32 0 0 1-16.638 0zm284.212 15.393c-.616 0-.872-.255-.872-.872 0-.616.256-.872.872-.872s.872.256.872.872c-.003.617-.259.872-.872.872zm-30.698-.872a1.655 1.655 0 1 1 3.31 0 1.655 1.655 0 0 1-3.31 0zm-29.828 0a2.44 2.44 0 1 1 4.88 0 2.44 2.44 0 0 1-4.88 0zm-29.826 0a3.226 3.226 0 1 1 6.452 0 3.226 3.226 0 0 1-6.452 0zm-29.82 0a4.006 4.006 0 1 1 8.012 0 4.006 4.006 0 0 1-8.011 0zm-29.825 0a4.791 4.791 0 1 1 9.583 0 4.791 4.791 0 0 1-9.583 0zm-29.829 0a5.577 5.577 0 1 1 11.154 0 5.577 5.577 0 0 1-11.154 0zm-29.822 0a6.36 6.36 0 1 1 12.719 0 6.36 6.36 0 0 1-12.72 0zm-29.823 0a7.142 7.142 0 1 1 14.285 0 7.142 7.142 0 0 1-14.285 0zm-29.828 0a7.928 7.928 0 1 1 15.855 0 7.928 7.928 0 0 1-15.855 0zm-29.826 0a8.71 8.71 0 1 1 17.42 0 8.71 8.71 0 0 1-17.42 0zm283.34 14.522a1.263 1.263 0 1 1 2.527 0 1.263 1.263 0 0 1-2.527 0zm-29.828-.003a2.049 2.049 0 1 1 4.098 0 2.049 2.049 0 0 1-4.098 0zm-29.823.003a2.832 2.832 0 1 1 5.663 0 2.832 2.832 0 0 1-5.663 0zm-29.826 0a3.617 3.617 0 1 1 7.235 0 3.617 3.617 0 0 1-7.235 0zm-29.825 0a4.4 4.4 0 1 1 8.8 0 4.4 4.4 0 0 1-8.8 0zm-29.829 0a5.186 5.186 0 1 1 10.371 0 5.186 5.186 0 0 1-10.37 0zm-29.822 0a5.968 5.968 0 1 1 11.936 0 5.968 5.968 0 0 1-11.936 0zm-29.823 0a6.75 6.75 0 1 1 13.502 0 6.75 6.75 0 0 1-13.502 0zm-29.826 0a7.537 7.537 0 1 1 15.074 0 7.537 7.537 0 0 1-15.074 0zm-29.825 0a8.32 8.32 0 1 1 16.638 0 8.32 8.32 0 0 1-16.638 0zm284.212 15.39c-.616 0-.872-.256-.872-.872s.256-.872.872-.872.872.256.872.872-.259.872-.872.872zm-30.7-.872a1.658 1.658 0 1 1 3.315 0 1.658 1.658 0 0 1-3.316 0zm-29.826 0a2.44 2.44 0 1 1 4.88 0 2.44 2.44 0 0 1-4.88 0zm-29.823.003a3.223 3.223 0 1 1 6.446 0 3.223 3.223 0 0 1-6.446 0zm-29.825-.003a4.009 4.009 0 1 1 8.017 0 4.009 4.009 0 0 1-8.017 0zm-29.823 0a4.791 4.791 0 1 1 9.583 0 4.791 4.791 0 0 1-9.583 0zm-29.829.003a5.577 5.577 0 1 1 11.154 0 5.577 5.577 0 0 1-11.154 0zm-29.822 0a6.36 6.36 0 1 1 12.719 0 6.36 6.36 0 0 1-12.72 0zm-29.826-.003a7.145 7.145 0 1 1 14.29 0 7.145 7.145 0 0 1-14.29 0zm-29.825.003a7.928 7.928 0 1 1 15.855 0 7.928 7.928 0 0 1-15.855 0zm-29.826 0a8.71 8.71 0 1 1 17.42 0 8.71 8.71 0 0 1-17.42 0zm283.34 14.519a1.263 1.263 0 1 1 2.527 0 1.263 1.263 0 0 1-2.527 0zm-29.828 0a2.049 2.049 0 1 1 4.098 0 2.049 2.049 0 0 1-4.098 0zm-29.823 0a2.832 2.832 0 1 1 5.663 0 2.832 2.832 0 0 1-5.663 0zm-29.822 0a3.614 3.614 0 1 1 7.228 0 3.614 3.614 0 0 1-7.228 0zm-29.83 0a4.4 4.4 0 1 1 8.8 0 4.4 4.4 0 0 1-8.8 0zm-29.825 0a5.183 5.183 0 1 1 10.365 0 5.183 5.183 0 0 1-10.365 0zm-29.825 0a5.968 5.968 0 1 1 11.936 0 5.968 5.968 0 0 1-11.936 0zm-29.823 0a6.75 6.75 0 1 1 13.502 0 6.75 6.75 0 0 1-13.502 0zm-29.826 0a7.537 7.537 0 1 1 15.074 0 7.537 7.537 0 0 1-15.074 0zm-29.825 0a8.32 8.32 0 1 1 16.638 0 8.32 8.32 0 0 1-16.638 0zm284.212 15.39c-.616 0-.872-.253-.872-.869s.256-.872.872-.872.872.256.872.872c-.003.616-.259.87-.872.87zm-30.698-.869a1.655 1.655 0 1 1 3.31 0 1.655 1.655 0 0 1-3.31 0zm-29.828 0a2.44 2.44 0 1 1 4.88 0 2.44 2.44 0 0 1-4.88 0zm-29.823 0a3.223 3.223 0 1 1 6.446 0 3.223 3.223 0 0 1-6.446 0zm-29.825 0a4.009 4.009 0 1 1 8.017 0 4.009 4.009 0 0 1-8.017 0zm-29.823 0a4.791 4.791 0 1 1 9.583 0 4.791 4.791 0 0 1-9.583 0zm-29.825 0a5.574 5.574 0 1 1 11.147 0 5.574 5.574 0 0 1-11.147 0zm-29.826 0a6.36 6.36 0 1 1 12.719 0 6.36 6.36 0 0 1-12.72 0zm-29.826 0a7.145 7.145 0 1 1 14.29 0 7.145 7.145 0 0 1-14.29 0zm-29.825 0a7.928 7.928 0 1 1 15.855 0 7.928 7.928 0 0 1-15.855 0zM0 153.92a8.714 8.714 0 1 1 17.427 0 8.714 8.714 0 0 1-17.427 0zm283.343 14.519a1.263 1.263 0 1 1 2.527 0 1.263 1.263 0 0 1-2.527 0zm-29.828 0a2.049 2.049 0 1 1 4.098 0 2.049 2.049 0 0 1-4.098 0zm-29.823.003a2.832 2.832 0 1 1 5.663 0 2.832 2.832 0 0 1-5.663 0zm-29.822-.003a3.614 3.614 0 1 1 7.228 0 3.614 3.614 0 0 1-7.228 0zm-29.83 0a4.4 4.4 0 1 1 8.8 0 4.4 4.4 0 0 1-8.8 0zm-29.825 0a5.183 5.183 0 1 1 10.365 0 5.183 5.183 0 0 1-10.365 0zm-29.825 0a5.968 5.968 0 1 1 11.936 0 5.968 5.968 0 0 1-11.936 0zm-29.826 0a6.754 6.754 0 1 1 13.508 0 6.754 6.754 0 0 1-13.508 0zm-29.823 0a7.537 7.537 0 1 1 15.074 0 7.537 7.537 0 0 1-15.074 0zm-29.825 0a8.32 8.32 0 1 1 16.638 0 8.32 8.32 0 0 1-16.638 0zm284.212 15.396c-.616 0-.872-.256-.872-.875 0-.616.256-.869.872-.869s.872.256.872.87c-.003.615-.259.874-.872.874zm-30.698-.875a1.655 1.655 0 1 1 3.31 0 1.655 1.655 0 0 1-3.31 0zm-29.828 0a2.44 2.44 0 1 1 4.88 0 2.44 2.44 0 0 1-4.88 0zm-29.823 0a3.223 3.223 0 1 1 6.446 0 3.223 3.223 0 0 1-6.446 0zm-29.825 0a4.009 4.009 0 1 1 8.017 0 4.009 4.009 0 0 1-8.017 0zm-29.823 0a4.791 4.791 0 1 1 9.583 0 4.791 4.791 0 0 1-9.583 0zm-29.829 0a5.577 5.577 0 1 1 11.154 0 5.577 5.577 0 0 1-11.154 0zm-29.822 0a6.36 6.36 0 1 1 12.719 0 6.36 6.36 0 0 1-12.72 0zm-29.826.003a7.145 7.145 0 1 1 14.29 0 7.145 7.145 0 0 1-14.29 0zm-29.825-.003a7.928 7.928 0 1 1 15.855 0 7.928 7.928 0 0 1-15.855 0zm-29.826 0a8.71 8.71 0 1 1 17.42 0 8.71 8.71 0 0 1-17.42 0zm283.34 14.522a1.263 1.263 0 1 1 2.527 0 1.263 1.263 0 0 1-2.527 0zm-29.828 0a2.049 2.049 0 1 1 4.098 0 2.049 2.049 0 0 1-4.098 0zm-29.823 0a2.832 2.832 0 1 1 5.663 0 2.832 2.832 0 0 1-5.663 0zm-29.826 0a3.617 3.617 0 1 1 7.235 0 3.617 3.617 0 0 1-7.235 0zm-29.825 0a4.4 4.4 0 1 1 8.8 0 4.4 4.4 0 0 1-8.8 0zm-29.826 0a5.183 5.183 0 1 1 10.365 0 5.183 5.183 0 0 1-10.365 0zm-29.825 0a5.968 5.968 0 1 1 11.936 0 5.968 5.968 0 0 1-11.936 0zm-29.823 0a6.75 6.75 0 1 1 13.502 0 6.75 6.75 0 0 1-13.502 0zm-29.826 0a7.537 7.537 0 1 1 15.074 0 7.537 7.537 0 0 1-15.074 0zm-29.825 0a8.32 8.32 0 1 1 16.638 0 8.32 8.32 0 0 1-16.638 0zm284.212 15.39c-.616 0-.872-.256-.872-.872s.256-.869.872-.869.872.256.872.87c-.003.615-.259.871-.872.871zM268.43 212a1.655 1.655 0 1 1 3.31 0 1.655 1.655 0 0 1-3.31 0zm-29.828 0a2.44 2.44 0 1 1 4.88 0 2.44 2.44 0 0 1-4.88 0zm-29.823 0a3.223 3.223 0 1 1 6.446 0 3.223 3.223 0 0 1-6.446 0zm-29.825 0a4.009 4.009 0 1 1 8.017 0 4.009 4.009 0 0 1-8.017 0zm-29.823.003a4.791 4.791 0 1 1 9.583 0 4.791 4.791 0 0 1-9.583 0zM119.302 212a5.577 5.577 0 1 1 11.154 0 5.577 5.577 0 0 1-11.154 0zm-29.822 0a6.36 6.36 0 1 1 12.719 0 6.36 6.36 0 0 1-12.72 0zm-29.826 0a7.145 7.145 0 1 1 14.29 0 7.145 7.145 0 0 1-14.29 0zm-29.825.003a7.928 7.928 0 1 1 15.855 0 7.928 7.928 0 0 1-15.855 0zM.003 212a8.71 8.71 0 1 1 17.42 0 8.71 8.71 0 0 1-17.42 0zm283.34 14.522a1.263 1.263 0 1 1 2.527 0 1.263 1.263 0 0 1-2.527 0zm-29.825 0a2.046 2.046 0 1 1 4.091 0 2.046 2.046 0 0 1-4.091 0zm-29.826 0a2.832 2.832 0 1 1 5.663 0 2.832 2.832 0 0 1-5.663 0zm-29.826 0a3.617 3.617 0 1 1 7.235 0 3.617 3.617 0 0 1-7.235 0zm-29.825 0a4.4 4.4 0 1 1 8.8 0 4.4 4.4 0 0 1-8.8 0zm-29.826 0a5.183 5.183 0 1 1 10.365 0 5.183 5.183 0 0 1-10.365 0zm-29.825.003a5.968 5.968 0 1 1 11.936 0 5.968 5.968 0 0 1-11.936 0zm-29.823-.003a6.75 6.75 0 1 1 13.502 0 6.75 6.75 0 0 1-13.502 0zm-29.826 0a7.537 7.537 0 1 1 15.074 0 7.537 7.537 0 0 1-15.074 0zm-29.825.003a8.32 8.32 0 1 1 16.638 0 8.32 8.32 0 0 1-16.638 0zm284.212 15.39c-.616 0-.872-.256-.872-.872 0-.62.256-.872.872-.872s.872.256.872.872c-.003.616-.259.872-.872.872zm-30.698-.872a1.655 1.655 0 1 1 3.31 0 1.655 1.655 0 0 1-3.31 0zm-29.828-.003a2.44 2.44 0 1 1 4.88 0 2.44 2.44 0 0 1-4.88 0zm-29.823.003a3.223 3.223 0 1 1 6.446 0 3.223 3.223 0 0 1-6.446 0zm-29.825 0a4.009 4.009 0 1 1 8.017 0 4.009 4.009 0 0 1-8.017 0zm-29.823 0a4.791 4.791 0 1 1 9.583 0 4.791 4.791 0 0 1-9.583 0zm-29.829 0a5.577 5.577 0 1 1 11.154 0 5.577 5.577 0 0 1-11.154 0zm-29.822 0a6.36 6.36 0 1 1 12.719 0 6.36 6.36 0 0 1-12.72 0zm-29.826 0a7.145 7.145 0 1 1 14.29 0 7.145 7.145 0 0 1-14.29 0zm-29.825 0a7.928 7.928 0 1 1 15.855 0 7.928 7.928 0 0 1-15.855 0zm-29.829 0a8.714 8.714 0 1 1 17.427 0 8.714 8.714 0 0 1-17.427 0zm283.343 14.522a1.263 1.263 0 1 1 2.527 0 1.263 1.263 0 0 1-2.527 0zm-29.828-.004a2.049 2.049 0 1 1 4.098 0 2.049 2.049 0 0 1-4.098 0zm-29.823 0a2.832 2.832 0 1 1 5.663 0 2.832 2.832 0 0 1-5.663 0zm-29.826.004a3.617 3.617 0 1 1 7.235 0 3.617 3.617 0 0 1-7.235 0zm-29.825 0a4.4 4.4 0 1 1 8.8 0 4.4 4.4 0 0 1-8.8 0zm-29.826 0a5.183 5.183 0 1 1 10.365 0 5.183 5.183 0 0 1-10.365 0zm-29.825-.004a5.968 5.968 0 1 1 11.936 0 5.968 5.968 0 0 1-11.936 0zm-29.826.004a6.754 6.754 0 1 1 13.508 0 6.754 6.754 0 0 1-13.508 0zm-29.823 0a7.537 7.537 0 1 1 15.074 0 7.537 7.537 0 0 1-15.074 0zm-29.825-.004a8.32 8.32 0 1 1 16.638 0 8.32 8.32 0 0 1-16.638 0zm284.212 15.39c-.616 0-.872-.252-.872-.871 0-.616.256-.869.872-.869s.872.256.872.869c-.003.62-.259.872-.872.872zm-30.698-.868a1.655 1.655 0 1 1 3.31 0 1.655 1.655 0 0 1-3.31 0zm-29.828 0a2.44 2.44 0 1 1 4.88 0 2.44 2.44 0 0 1-4.88 0zm-29.823 0a3.223 3.223 0 1 1 6.446 0 3.223 3.223 0 0 1-6.446 0zm-29.825 0a4.009 4.009 0 1 1 8.017 0 4.009 4.009 0 0 1-8.017 0zm-29.823 0a4.791 4.791 0 1 1 9.583 0 4.791 4.791 0 0 1-9.583 0zm-29.829 0a5.577 5.577 0 1 1 11.154 0 5.577 5.577 0 0 1-11.154 0zm-29.822 0a6.36 6.36 0 1 1 12.719 0 6.36 6.36 0 0 1-12.72 0zm-29.826 0a7.145 7.145 0 1 1 14.29 0 7.145 7.145 0 0 1-14.29 0zm-29.825 0a7.928 7.928 0 1 1 15.855 0 7.928 7.928 0 0 1-15.855 0zm-29.829 0a8.714 8.714 0 1 1 17.427 0 8.714 8.714 0 0 1-17.427 0zm283.343 14.521a1.263 1.263 0 1 1 2.527 0 1.263 1.263 0 0 1-2.527 0zm-29.828 0a2.049 2.049 0 1 1 4.098 0 2.049 2.049 0 0 1-4.098 0zm-29.823 0a2.832 2.832 0 1 1 5.663 0 2.832 2.832 0 0 1-5.663 0zm-29.826 0a3.617 3.617 0 1 1 7.235 0 3.617 3.617 0 0 1-7.235 0zm-29.825 0a4.4 4.4 0 1 1 8.8 0 4.4 4.4 0 0 1-8.8 0zm-29.826 0a5.183 5.183 0 1 1 10.365 0 5.183 5.183 0 0 1-10.365 0zm-29.825 0a5.968 5.968 0 1 1 11.936 0 5.968 5.968 0 0 1-11.936 0zm-29.823 0a6.75 6.75 0 1 1 13.502 0 6.75 6.75 0 0 1-13.502 0zm-29.826 0a7.537 7.537 0 1 1 15.074 0 7.537 7.537 0 0 1-15.074 0zm-29.825 0a8.32 8.32 0 1 1 16.638 0 8.32 8.32 0 0 1-16.638 0zm284.212 15.39c-.616 0-.872-.255-.872-.868 0-.616.256-.875.872-.875s.872.256.872.875c-.003.613-.259.869-.872.869zm-30.698-.868a1.655 1.655 0 1 1 3.31 0 1.655 1.655 0 0 1-3.31 0zm-29.828 0a2.44 2.44 0 1 1 4.88 0 2.44 2.44 0 0 1-4.88 0zm-29.823-.003a3.223 3.223 0 1 1 6.446 0 3.223 3.223 0 0 1-6.446 0zm-29.825 0a4.009 4.009 0 1 1 8.017 0 4.009 4.009 0 0 1-8.017 0zm-29.823.003a4.791 4.791 0 1 1 9.583 0 4.791 4.791 0 0 1-9.583 0zm-29.829 0a5.577 5.577 0 1 1 11.154 0 5.577 5.577 0 0 1-11.154 0zm-29.822 0a6.36 6.36 0 1 1 12.719 0 6.36 6.36 0 0 1-12.72 0zm-29.826-.003a7.145 7.145 0 1 1 14.29 0 7.145 7.145 0 0 1-14.29 0zm-29.825 0a7.928 7.928 0 1 1 15.855 0 7.928 7.928 0 0 1-15.855 0zM0 299.125a8.714 8.714 0 1 1 17.427 0 8.714 8.714 0 0 1-17.427 0z" fill="#7CADD3" fill-opacity=".15"/></svg>