<svg width="329" height="300" viewBox="0 0 329 300" xmlns="http://www.w3.org/2000/svg"><title>Components/Graphics/Halftone - Trio</title><path d="M248.484 64.948a3.096 3.096 0 0 0-6.192 0 3.095 3.095 0 0 0 6.192 0m0 30.93a3.096 3.096 0 0 0-6.192 0 3.092 3.092 0 0 0 3.094 3.09 3.095 3.095 0 0 0 3.098-3.09M194.849 3.09A3.092 3.092 0 0 0 191.754 0a3.093 3.093 0 1 0 0 6.184 3.093 3.093 0 0 0 3.095-3.094m26.819 15.467a3.096 3.096 0 0 0-3.098-3.094 3.093 3.093 0 0 0 0 6.184 3.093 3.093 0 0 0 3.098-3.09m-107.27 0a3.096 3.096 0 0 0-6.192 0 3.092 3.092 0 0 0 3.094 3.09 3.093 3.093 0 0 0 3.097-3.09M141.213 3.09A3.092 3.092 0 0 0 138.12 0a3.095 3.095 0 0 0-3.098 3.09 3.096 3.096 0 0 0 6.192 0M87.582 95.877a3.096 3.096 0 0 0-3.098-3.094 3.096 3.096 0 0 0-3.098 3.094 3.095 3.095 0 0 0 3.098 3.09 3.095 3.095 0 0 0 3.098-3.09m0-30.929a3.096 3.096 0 0 0-3.098-3.094 3.096 3.096 0 0 0-3.098 3.094 3.098 3.098 0 0 0 6.196 0m135.631 46.392a4.641 4.641 0 0 0-4.643-4.641 4.641 4.641 0 1 0 0 9.282 4.641 4.641 0 0 0 4.643-4.641m0-61.858a4.638 4.638 0 0 0-4.643-4.637 4.638 4.638 0 1 0 0 9.278 4.641 4.641 0 0 0 4.643-4.641m-53.631-30.925a4.645 4.645 0 0 0-4.647-4.641 4.641 4.641 0 0 0-4.643 4.64 4.64 4.64 0 0 0 4.643 4.638 4.644 4.644 0 0 0 4.647-4.637m-53.636 30.925a4.641 4.641 0 0 0-4.646-4.637 4.638 4.638 0 1 0 0 9.278 4.645 4.645 0 0 0 4.646-4.641m53.636 92.787a4.645 4.645 0 0 0-4.647-4.641 4.641 4.641 0 0 0-4.643 4.64 4.64 4.64 0 0 0 4.643 4.638 4.644 4.644 0 0 0 4.647-4.637m-53.636-30.93a4.645 4.645 0 0 0-4.646-4.64 4.641 4.641 0 1 0 0 9.282 4.645 4.645 0 0 0 4.646-4.641m29.914-15.463c0-4.273-3.466-7.731-7.74-7.731a7.732 7.732 0 1 0 0 15.462c4.274 0 7.74-3.465 7.74-7.73m26.816 15.462c0-4.27-3.466-7.732-7.741-7.732-4.275 0-7.74 3.462-7.74 7.732s3.465 7.731 7.74 7.731 7.74-3.462 7.74-7.731m26.82-15.463c0-4.273-3.47-7.731-7.74-7.731-4.276 0-7.741 3.458-7.741 7.731 0 4.266 3.465 7.731 7.74 7.731 4.272 0 7.741-3.465 7.741-7.73m-53.635-30.93c0-4.27-3.466-7.735-7.74-7.735a7.737 7.737 0 0 0-7.742 7.735c0 4.27 3.463 7.732 7.741 7.732 4.275 0 7.74-3.462 7.74-7.732m26.817-15.466c0-4.27-3.466-7.731-7.741-7.731-4.275 0-7.74 3.461-7.74 7.73 0 4.274 3.465 7.732 7.74 7.732s7.74-3.458 7.74-7.731m26.82 15.466c0-4.27-3.47-7.735-7.74-7.735-4.276 0-7.741 3.465-7.741 7.735 0 4.27 3.465 7.732 7.74 7.732 4.272 0 7.741-3.462 7.741-7.732m-25.27 15.463c0-5.125-4.159-9.278-9.29-9.278-5.131 0-9.29 4.153-9.29 9.278 0 5.125 4.159 9.278 9.29 9.278 5.131 0 9.29-4.153 9.29-9.278m-29.914 46.391a6.19 6.19 0 0 0-6.192-6.184 6.185 6.185 0 0 0 0 12.369 6.187 6.187 0 0 0 6.192-6.185m53.635 0a6.19 6.19 0 0 0-6.192-6.184c-3.422 0-6.195 2.77-6.195 6.184a6.188 6.188 0 0 0 6.195 6.185 6.187 6.187 0 0 0 6.192-6.185m26.816-46.391a6.19 6.19 0 0 0-6.192-6.184 6.19 6.19 0 0 0-6.192 6.184 6.187 6.187 0 0 0 6.192 6.184 6.187 6.187 0 0 0 6.192-6.184m-26.816-46.392a6.187 6.187 0 0 0-6.192-6.184 6.188 6.188 0 0 0-6.195 6.184 6.194 6.194 0 0 0 6.195 6.188 6.193 6.193 0 0 0 6.192-6.188m-53.635 0a6.187 6.187 0 0 0-6.192-6.184 6.185 6.185 0 1 0 0 12.372 6.193 6.193 0 0 0 6.192-6.188m-26.816 46.392c0-3.414-2.773-6.184-6.195-6.184a6.19 6.19 0 0 0-6.192 6.184 6.187 6.187 0 0 0 6.192 6.184 6.188 6.188 0 0 0 6.195-6.184m211.44 123.712a3.097 3.097 0 0 0-6.192 0 3.09 3.09 0 0 0 3.098 3.09 3.092 3.092 0 0 0 3.094-3.09m0 30.929a3.095 3.095 0 0 0-3.094-3.094 3.093 3.093 0 1 0 0 6.188 3.097 3.097 0 0 0 3.094-3.094M275.3 142.269a3.093 3.093 0 0 0-3.094-3.094 3.093 3.093 0 1 0 0 6.184 3.092 3.092 0 0 0 3.094-3.09m26.82 15.462a3.098 3.098 0 0 0-3.099-3.094 3.092 3.092 0 0 0-3.094 3.094 3.092 3.092 0 0 0 3.094 3.094 3.098 3.098 0 0 0 3.098-3.094m-107.27 0a3.096 3.096 0 1 0-6.192 0 3.096 3.096 0 0 0 6.192 0m26.819-15.462a3.096 3.096 0 0 0-3.098-3.094 3.093 3.093 0 1 0 0 6.184 3.095 3.095 0 0 0 3.098-3.09M275.3 296.906a3.096 3.096 0 1 0-6.192 0 3.093 3.093 0 0 0 3.098 3.094 3.093 3.093 0 0 0 3.094-3.094m26.82-15.463a3.096 3.096 0 0 0-3.099-3.094 3.09 3.09 0 0 0-3.094 3.094 3.092 3.092 0 0 0 3.094 3.094 3.098 3.098 0 0 0 3.098-3.094m-80.451 15.463a3.098 3.098 0 0 0-6.196 0A3.093 3.093 0 0 0 218.57 300a3.096 3.096 0 0 0 3.098-3.094m-26.82-15.463a3.093 3.093 0 0 0-3.094-3.094 3.093 3.093 0 1 0 0 6.188 3.095 3.095 0 0 0 3.095-3.094m108.819-30.929a4.641 4.641 0 0 0-4.647-4.637 4.638 4.638 0 1 0 0 9.275 4.641 4.641 0 0 0 4.647-4.638m0-61.854a4.645 4.645 0 0 0-4.647-4.64 4.641 4.641 0 0 0-4.643 4.64 4.64 4.64 0 0 0 4.643 4.638 4.644 4.644 0 0 0 4.647-4.638m-53.635-30.929a4.645 4.645 0 0 0-4.647-4.64 4.641 4.641 0 1 0 0 9.281 4.645 4.645 0 0 0 4.647-4.64m-53.636 30.928a4.641 4.641 0 0 0-4.643-4.64 4.642 4.642 0 0 0-4.646 4.64 4.641 4.641 0 0 0 4.646 4.638 4.64 4.64 0 0 0 4.643-4.638m53.636 92.783a4.641 4.641 0 0 0-4.647-4.637 4.638 4.638 0 1 0 0 9.275 4.641 4.641 0 0 0 4.647-4.638m-53.636-30.929a4.638 4.638 0 0 0-4.643-4.637 4.64 4.64 0 0 0-4.646 4.637 4.64 4.64 0 0 0 4.646 4.638 4.638 4.638 0 0 0 4.643-4.638m29.914-15.462c0-4.27-3.466-7.732-7.74-7.732-4.276 0-7.742 3.462-7.742 7.732s3.466 7.731 7.741 7.731c4.275 0 7.741-3.461 7.741-7.731m26.816 15.462c0-4.27-3.466-7.73-7.74-7.73-4.272 0-7.742 3.46-7.742 7.73 0 4.274 3.47 7.732 7.741 7.732 4.275 0 7.74-3.458 7.74-7.732m26.82-15.462c0-4.27-3.466-7.732-7.74-7.732-4.275 0-7.741 3.462-7.741 7.732s3.466 7.731 7.74 7.731c4.275 0 7.741-3.461 7.741-7.731m-53.635-30.93c0-4.269-3.466-7.73-7.74-7.73-4.276 0-7.742 3.461-7.742 7.73 0 4.274 3.466 7.732 7.741 7.732 4.275 0 7.741-3.458 7.741-7.731m26.816-15.463a7.737 7.737 0 0 0-7.74-7.735c-4.272 0-7.742 3.462-7.742 7.735 0 4.27 3.47 7.732 7.741 7.732 4.275 0 7.74-3.462 7.74-7.732m26.82 15.463c0-4.27-3.466-7.731-7.74-7.731-4.275 0-7.741 3.461-7.741 7.73 0 4.274 3.466 7.732 7.74 7.732 4.275 0 7.741-3.458 7.741-7.731m-25.27 15.466c0-5.125-4.155-9.282-9.29-9.282-5.131 0-9.286 4.157-9.286 9.282 0 5.122 4.155 9.278 9.286 9.278 5.135 0 9.29-4.156 9.29-9.278m-29.914 46.392a6.193 6.193 0 0 0-12.384 0 6.19 6.19 0 0 0 6.192 6.184 6.19 6.19 0 0 0 6.192-6.184m53.635 0a6.19 6.19 0 0 0-6.191-6.188 6.19 6.19 0 0 0-6.192 6.188 6.187 6.187 0 0 0 6.192 6.184 6.19 6.19 0 0 0 6.191-6.184m26.816-46.392a6.188 6.188 0 0 0-6.192-6.188 6.19 6.19 0 0 0-6.192 6.188 6.19 6.19 0 0 0 6.192 6.184 6.187 6.187 0 0 0 6.192-6.184m-26.816-46.395a6.19 6.19 0 0 0-6.191-6.184 6.185 6.185 0 0 0 0 12.369 6.187 6.187 0 0 0 6.191-6.185m-53.635 0a6.19 6.19 0 0 0-6.192-6.184 6.19 6.19 0 0 0-6.192 6.184 6.187 6.187 0 0 0 6.192 6.184 6.187 6.187 0 0 0 6.192-6.184m-26.816 46.395a6.19 6.19 0 0 0-6.192-6.188 6.191 6.191 0 0 0-6.195 6.188c0 3.414 2.773 6.184 6.195 6.184a6.19 6.19 0 0 0 6.192-6.184m-29.913-15.466a3.095 3.095 0 1 0-6.192 0 3.09 3.09 0 0 0 3.094 3.09c1.71 0 3.098-1.38 3.098-3.09m0 30.929a3.096 3.096 0 0 0-6.192 0 3.095 3.095 0 0 0 6.192 0m-53.636-92.783a3.093 3.093 0 0 0-3.097-3.094 3.093 3.093 0 1 0 0 6.184 3.093 3.093 0 0 0 3.097-3.09m26.816 15.462a3.095 3.095 0 1 0-6.19.002 3.095 3.095 0 0 0 6.19-.002m-107.267 0a3.095 3.095 0 1 0-3.098 3.094 3.098 3.098 0 0 0 3.098-3.094m26.816-15.462a3.093 3.093 0 0 0-3.094-3.094 3.093 3.093 0 1 0 0 6.184 3.092 3.092 0 0 0 3.094-3.09m53.635 154.637a3.096 3.096 0 0 0-6.191 0A3.093 3.093 0 0 0 111.3 300a3.093 3.093 0 0 0 3.097-3.094m26.816-15.463a3.096 3.096 0 1 0-6.192 0 3.095 3.095 0 1 0 6.192 0M7.127 235.052a3.096 3.096 0 1 0-6.192 0 3.095 3.095 0 1 0 6.192 0m0-30.93a3.095 3.095 0 0 0-6.192 0 3.092 3.092 0 0 0 3.098 3.091 3.09 3.09 0 0 0 3.094-3.09m53.635 92.783a3.096 3.096 0 1 0-6.192 0A3.093 3.093 0 0 0 57.668 300a3.093 3.093 0 0 0 3.094-3.094m-26.816-15.463a3.096 3.096 0 0 0-6.192 0 3.095 3.095 0 0 0 6.192 0m108.816-30.929a4.638 4.638 0 0 0-4.643-4.637 4.641 4.641 0 0 0-4.647 4.637 4.641 4.641 0 0 0 4.647 4.638 4.638 4.638 0 0 0 4.643-4.638m0-61.854a4.641 4.641 0 0 0-4.643-4.64 4.645 4.645 0 0 0-4.647 4.64 4.644 4.644 0 0 0 4.647 4.638 4.64 4.64 0 0 0 4.643-4.638m-53.635-30.929a4.641 4.641 0 0 0-4.643-4.64 4.641 4.641 0 1 0 0 9.281 4.641 4.641 0 0 0 4.643-4.64M35.495 188.66a4.645 4.645 0 0 0-9.29 0 4.643 4.643 0 0 0 4.644 4.638 4.644 4.644 0 0 0 4.646-4.638m53.632 92.783a4.638 4.638 0 0 0-4.643-4.637 4.638 4.638 0 1 0 0 9.275 4.638 4.638 0 0 0 4.643-4.638m-53.632-30.929a4.641 4.641 0 0 0-4.646-4.637 4.64 4.64 0 0 0-4.643 4.637 4.64 4.64 0 0 0 4.643 4.638 4.641 4.641 0 0 0 4.646-4.638m29.914-15.462c0-4.27-3.466-7.732-7.741-7.732a7.733 7.733 0 0 0 0 15.463c4.275 0 7.74-3.461 7.74-7.731m26.817 15.462c0-4.27-3.466-7.73-7.741-7.73-4.275 0-7.741 3.46-7.741 7.73 0 4.274 3.466 7.732 7.74 7.732 4.276 0 7.742-3.458 7.742-7.732m26.815-15.462a7.734 7.734 0 0 0-7.74-7.732c-4.275 0-7.741 3.462-7.741 7.732s3.466 7.731 7.74 7.731a7.733 7.733 0 0 0 7.741-7.731m-53.631-30.93c0-4.269-3.466-7.73-7.741-7.73a7.732 7.732 0 0 0 0 15.463c4.275 0 7.74-3.459 7.74-7.732m26.817-15.463a7.737 7.737 0 0 0-7.741-7.735 7.737 7.737 0 0 0-7.741 7.735c0 4.27 3.466 7.732 7.74 7.732 4.276 0 7.742-3.462 7.742-7.732m26.815 15.463c0-4.27-3.462-7.731-7.74-7.731-4.275 0-7.741 3.461-7.741 7.73 0 4.274 3.466 7.732 7.74 7.732a7.732 7.732 0 0 0 7.741-7.731m-25.266 15.466c0-5.125-4.159-9.282-9.29-9.282-5.132 0-9.29 4.157-9.29 9.282 0 5.122 4.158 9.278 9.29 9.278 5.131 0 9.29-4.156 9.29-9.278M63.86 265.981a6.19 6.19 0 0 0-6.192-6.188 6.194 6.194 0 0 0-6.196 6.188c0 3.414 2.774 6.184 6.196 6.184a6.19 6.19 0 0 0 6.192-6.184m53.635 0a6.191 6.191 0 0 0-6.195-6.188 6.193 6.193 0 0 0-6.192 6.188 6.19 6.19 0 0 0 6.192 6.184c3.422 0 6.195-2.77 6.195-6.184m26.816-46.392a6.19 6.19 0 0 0-6.192-6.188 6.187 6.187 0 0 0 0 12.372 6.19 6.19 0 0 0 6.192-6.184m-26.816-46.395c0-3.414-2.773-6.184-6.195-6.184a6.19 6.19 0 0 0-6.192 6.184 6.187 6.187 0 0 0 6.192 6.184 6.188 6.188 0 0 0 6.195-6.184m-53.635 0a6.19 6.19 0 0 0-6.192-6.184c-3.422 0-6.196 2.77-6.196 6.184a6.188 6.188 0 0 0 6.196 6.184 6.187 6.187 0 0 0 6.192-6.184m-26.82 46.395a6.188 6.188 0 0 0-6.191-6.188 6.19 6.19 0 0 0-6.192 6.188 6.19 6.19 0 0 0 6.192 6.184 6.187 6.187 0 0 0 6.191-6.184" fill="#7CADD3" fill-rule="evenodd" fill-opacity=".15"/></svg>