<svg width="344" height="200" viewBox="0 0 344 200" xmlns="http://www.w3.org/2000/svg"><title>Components/Graphics/Halftone - Peak</title><path d="M340.464 0A3.537 3.537 0 0 1 344 3.538a3.537 3.537 0 1 1-7.071 0A3.534 3.534 0 0 1 340.464 0m-42.117 0a3.533 3.533 0 0 1 3.532 3.538 3.533 3.533 0 0 1-3.532 3.538 3.538 3.538 0 1 1 0-7.076m-42.114 0a3.533 3.533 0 0 1 3.532 3.538 3.533 3.533 0 0 1-3.532 3.538 3.538 3.538 0 1 1 0-7.076m-42.117 0a3.533 3.533 0 0 1 3.531 3.538 3.533 3.533 0 0 1-3.531 3.538 3.538 3.538 0 1 1 0-7.076m-42.114 0a3.537 3.537 0 0 1 3.535 3.538 3.537 3.537 0 1 1-7.07 0A3.534 3.534 0 0 1 172.001 0zm126.345 0a3.533 3.533 0 0 1 3.532 3.538 3.533 3.533 0 0 1-3.532 3.538 3.538 3.538 0 1 1 0-7.076m-42.114 0a3.533 3.533 0 0 1 3.532 3.538 3.533 3.533 0 0 1-3.532 3.538 3.538 3.538 0 1 1 0-7.076m-42.117 0a3.533 3.533 0 0 1 3.531 3.538 3.533 3.533 0 0 1-3.531 3.538 3.538 3.538 0 1 1 0-7.076m-42.114 0a3.537 3.537 0 0 1 3.535 3.538 3.537 3.537 0 1 1-7.07 0A3.534 3.534 0 0 1 172.001 0M3.536 0A3.537 3.537 0 0 1 7.07 3.538a3.537 3.537 0 1 1-7.071 0A3.534 3.534 0 0 1 3.536 0M129.88 0a3.534 3.534 0 0 1 3.535 3.538 3.537 3.537 0 0 1-7.071 0A3.537 3.537 0 0 1 129.881 0m168.466 0a3.533 3.533 0 0 1 3.532 3.538 3.533 3.533 0 0 1-3.532 3.538 3.538 3.538 0 1 1 0-7.076m-42.114 0a3.533 3.533 0 0 1 3.532 3.538 3.533 3.533 0 0 1-3.532 3.538 3.538 3.538 0 1 1 0-7.076m-42.117 0a3.533 3.533 0 0 1 3.531 3.538 3.533 3.533 0 0 1-3.531 3.538 3.538 3.538 0 1 1 0-7.076m-42.114 0a3.537 3.537 0 0 1 3.535 3.538 3.537 3.537 0 1 1-7.07 0A3.534 3.534 0 0 1 172.001 0M129.88 0a3.534 3.534 0 0 1 3.535 3.538 3.537 3.537 0 0 1-7.071 0A3.537 3.537 0 0 1 129.881 0M87.763 0A3.534 3.534 0 0 1 91.3 3.538a3.537 3.537 0 0 1-7.071 0A3.537 3.537 0 0 1 87.762 0zm42.118 0a3.534 3.534 0 0 1 3.535 3.538 3.537 3.537 0 0 1-7.071 0A3.537 3.537 0 0 1 129.881 0zM45.649 0a3.537 3.537 0 0 1 3.536 3.538 3.537 3.537 0 1 1-7.071 0A3.534 3.534 0 0 1 45.649 0m273.96 7.96a4.421 4.421 0 0 1 0 8.842 4.419 4.419 0 0 1-4.418-4.421 4.419 4.419 0 0 1 4.418-4.422m-42.117 0a4.418 4.418 0 0 1 4.415 4.422 4.418 4.418 0 1 1-8.834 0 4.419 4.419 0 0 1 4.419-4.422m-42.118 0a4.419 4.419 0 0 1 4.419 4.422 4.418 4.418 0 0 1-8.833 0 4.418 4.418 0 0 1 4.414-4.422m-42.113 0a4.419 4.419 0 0 1 4.418 4.422 4.419 4.419 0 1 1-8.837 0 4.421 4.421 0 0 1 4.419-4.422m126.348 0a4.421 4.421 0 0 1 0 8.843 4.419 4.419 0 0 1-4.418-4.421 4.419 4.419 0 0 1 4.418-4.422m-42.117 0a4.418 4.418 0 0 1 4.415 4.422 4.418 4.418 0 1 1-8.834 0 4.419 4.419 0 0 1 4.419-4.422m-42.118 0a4.419 4.419 0 0 1 4.419 4.422 4.418 4.418 0 0 1-8.833 0 4.418 4.418 0 0 1 4.414-4.422m-42.113 0a4.419 4.419 0 0 1 4.418 4.422 4.419 4.419 0 1 1-8.837 0 4.421 4.421 0 0 1 4.419-4.422m-168.467 0a4.422 4.422 0 1 1 0 8.843 4.421 4.421 0 0 1 0-8.843m126.353 0a4.421 4.421 0 1 1-.005 8.843 4.421 4.421 0 0 1 .005-8.843m168.462 0a4.421 4.421 0 0 1 0 8.843 4.419 4.419 0 0 1-4.418-4.421 4.419 4.419 0 0 1 4.418-4.422m-42.117 0a4.418 4.418 0 0 1 4.415 4.422 4.418 4.418 0 1 1-8.834 0 4.419 4.419 0 0 1 4.419-4.422m-42.118 0a4.419 4.419 0 0 1 4.419 4.422 4.418 4.418 0 0 1-8.833 0 4.418 4.418 0 0 1 4.414-4.422m-42.113 0a4.419 4.419 0 0 1 4.418 4.422 4.419 4.419 0 1 1-8.837 0 4.421 4.421 0 0 1 4.419-4.422m-42.114 0a4.421 4.421 0 1 1-.005 8.843 4.421 4.421 0 0 1 .005-8.843m-42.114 0a4.418 4.418 0 0 1 4.415 4.422 4.418 4.418 0 1 1-8.833 0 4.419 4.419 0 0 1 4.418-4.422zm42.114 0a4.421 4.421 0 1 1-.005 8.843 4.421 4.421 0 0 1 .005-8.843zm-84.239 0a4.419 4.419 0 0 1 4.419 4.422 4.418 4.418 0 0 1-8.833 0 4.418 4.418 0 0 1 4.414-4.422m231.654 9.946a5.521 5.521 0 0 1 5.517 5.524 5.521 5.521 0 0 1-5.517 5.524 5.522 5.522 0 0 1-5.52-5.524 5.522 5.522 0 0 1 5.52-5.524m-42.121 0a5.522 5.522 0 0 1 5.52 5.524 5.522 5.522 0 0 1-5.52 5.524 5.521 5.521 0 0 1-5.517-5.524 5.521 5.521 0 0 1 5.517-5.524m-42.114 0a5.52 5.52 0 0 1 5.52 5.524 5.52 5.52 0 1 1-11.04 0 5.525 5.525 0 0 1 5.52-5.524m84.235 0a5.521 5.521 0 0 1 5.517 5.524 5.521 5.521 0 0 1-5.517 5.524 5.522 5.522 0 0 1-5.52-5.524 5.522 5.522 0 0 1 5.52-5.524m-42.121 0a5.522 5.522 0 0 1 5.52 5.524 5.522 5.522 0 0 1-5.52 5.524 5.521 5.521 0 0 1-5.517-5.524 5.521 5.521 0 0 1 5.517-5.524m-42.114 0a5.52 5.52 0 0 1 5.52 5.524 5.52 5.52 0 1 1-11.04 0 5.525 5.525 0 0 1 5.52-5.524m-168.466 0a5.525 5.525 0 0 1 5.524 5.524 5.525 5.525 0 0 1-5.524 5.524 5.525 5.525 0 0 1 0-11.048m126.352 0a5.521 5.521 0 0 1 5.517 5.524 5.521 5.521 0 0 1-5.517 5.524 5.525 5.525 0 0 1-5.524-5.524 5.525 5.525 0 0 1 5.524-5.524m126.349 0a5.521 5.521 0 0 1 5.517 5.524 5.521 5.521 0 0 1-5.517 5.524 5.522 5.522 0 0 1-5.52-5.524 5.522 5.522 0 0 1 5.52-5.524m-42.121 0a5.522 5.522 0 0 1 5.52 5.524 5.522 5.522 0 0 1-5.52 5.524 5.521 5.521 0 0 1-5.517-5.524 5.521 5.521 0 0 1 5.517-5.524m-42.114 0a5.52 5.52 0 0 1 5.52 5.524 5.52 5.52 0 1 1-11.04 0 5.525 5.525 0 0 1 5.52-5.524m-42.114 0a5.521 5.521 0 0 1 5.517 5.524 5.521 5.521 0 0 1-5.517 5.524 5.525 5.525 0 0 1-5.524-5.524 5.525 5.525 0 0 1 5.524-5.524m-42.114 0a5.519 5.519 0 0 1 5.517 5.524 5.519 5.519 0 1 1-11.037 0 5.52 5.52 0 0 1 5.52-5.524zm42.114 0a5.521 5.521 0 0 1 5.517 5.524 5.521 5.521 0 0 1-5.517 5.524 5.525 5.525 0 0 1-5.524-5.524 5.525 5.525 0 0 1 5.524-5.524zm-84.239 0a5.52 5.52 0 0 1 5.52 5.524 5.519 5.519 0 0 1-11.037 0 5.519 5.519 0 0 1 5.517-5.524M277.5 30.335a6.907 6.907 0 0 1 0 13.812 6.907 6.907 0 0 1-6.905-6.906 6.907 6.907 0 0 1 6.905-6.906m-42.117 0a6.902 6.902 0 0 1 6.901 6.906 6.902 6.902 0 0 1-6.901 6.906 6.907 6.907 0 0 1 0-13.812m42.117 0a6.907 6.907 0 0 1 0 13.812 6.907 6.907 0 0 1-6.905-6.906 6.907 6.907 0 0 1 6.905-6.906m-42.117 0a6.902 6.902 0 0 1 6.901 6.906 6.902 6.902 0 0 1-6.901 6.906 6.907 6.907 0 0 1 0-13.812m-168.466 0a6.902 6.902 0 0 1 6.901 6.906 6.902 6.902 0 0 1-6.901 6.906 6.907 6.907 0 0 1 0-13.812m126.352 0a6.902 6.902 0 0 1 6.902 6.906 6.902 6.902 0 1 1-13.803 0 6.904 6.904 0 0 1 6.901-6.906zm42.114 0a6.902 6.902 0 0 1 6.901 6.906 6.902 6.902 0 0 1-6.901 6.906 6.907 6.907 0 0 1 0-13.812m-42.114 0a6.902 6.902 0 0 1 6.902 6.906 6.902 6.902 0 1 1-13.803 0 6.904 6.904 0 0 1 6.901-6.906m-42.114 0a6.904 6.904 0 0 1 6.902 6.906 6.902 6.902 0 0 1-13.803 0 6.902 6.902 0 0 1 6.901-6.906m126.345 0a6.907 6.907 0 0 1 0 13.812 6.907 6.907 0 0 1-6.905-6.906 6.907 6.907 0 0 1 6.905-6.906zm-84.23 0a6.902 6.902 0 0 1 6.9 6.906 6.902 6.902 0 1 1-13.802 0 6.904 6.904 0 0 1 6.901-6.906zm-84.236 0a6.904 6.904 0 0 1 6.901 6.906 6.904 6.904 0 1 1-13.806 0 6.905 6.905 0 0 1 6.905-6.906m147.404 15.537a8.63 8.63 0 0 1 8.63 8.632 8.632 8.632 0 0 1-8.63 8.631c-4.762 0-8.626-3.866-8.626-8.631 0-4.77 3.864-8.632 8.626-8.632zm-168.466 0a8.63 8.63 0 0 1 8.63 8.632 8.632 8.632 0 0 1-8.63 8.631c-4.762 0-8.626-3.866-8.626-8.631 0-4.77 3.864-8.632 8.626-8.632m126.352 0c4.766 0 8.626 3.863 8.626 8.632 0 4.765-3.86 8.631-8.626 8.631-4.762 0-8.626-3.866-8.626-8.631 0-4.77 3.864-8.632 8.626-8.632m42.114 0a8.63 8.63 0 0 1 8.63 8.632 8.632 8.632 0 0 1-8.63 8.631c-4.762 0-8.626-3.866-8.626-8.631 0-4.77 3.864-8.632 8.626-8.632m-42.114 0c4.766 0 8.626 3.863 8.626 8.632 0 4.765-3.86 8.631-8.626 8.631-4.762 0-8.626-3.866-8.626-8.631 0-4.77 3.864-8.632 8.626-8.632zm42.114 0a8.63 8.63 0 0 1 8.63 8.632 8.632 8.632 0 0 1-8.63 8.631c-4.762 0-8.626-3.866-8.626-8.631 0-4.77 3.864-8.632 8.626-8.632m-42.114 0c4.766 0 8.626 3.863 8.626 8.632 0 4.765-3.86 8.631-8.626 8.631-4.762 0-8.626-3.866-8.626-8.631 0-4.77 3.864-8.632 8.626-8.632m-42.114 0c4.762 0 8.622 3.863 8.622 8.632 0 4.765-3.86 8.631-8.622 8.631-4.765 0-8.625-3.866-8.625-8.631 0-4.77 3.86-8.632 8.625-8.632m-42.117 0c4.762 0 8.626 3.863 8.626 8.632 0 4.765-3.864 8.631-8.626 8.631a8.632 8.632 0 0 1-8.63-8.631 8.63 8.63 0 0 1 8.63-8.632m-21.059 19.423c5.954 0 10.78 4.829 10.78 10.791 0 5.958-4.826 10.791-10.78 10.791-5.958 0-10.784-4.833-10.784-10.791 0-5.962 4.826-10.791 10.784-10.791m126.345 0c5.958 0 10.788 4.829 10.788 10.791 0 5.958-4.83 10.791-10.788 10.791-5.954 0-10.78-4.833-10.78-10.791 0-5.962 4.826-10.791 10.78-10.791m0 0c5.958 0 10.788 4.829 10.788 10.791 0 5.958-4.83 10.791-10.788 10.791-5.954 0-10.78-4.833-10.78-10.791 0-5.962 4.826-10.791 10.78-10.791m-42.117 0c5.958 0 10.787 4.829 10.787 10.791 0 5.958-4.83 10.791-10.787 10.791-5.955 0-10.78-4.833-10.78-10.791 0-5.962 4.825-10.791 10.78-10.791m42.117 0c5.958 0 10.788 4.829 10.788 10.791 0 5.958-4.83 10.791-10.788 10.791-5.954 0-10.78-4.833-10.78-10.791 0-5.962 4.826-10.791 10.78-10.791zm-84.231 0c5.954 0 10.784 4.829 10.784 10.791 0 5.958-4.83 10.791-10.784 10.791-5.958 0-10.784-4.833-10.784-10.791 0-5.962 4.826-10.791 10.784-10.791m-21.059 24.278c7.445 0 13.478 6.041 13.478 13.491 0 7.45-6.033 13.491-13.478 13.491-7.448 0-13.486-6.041-13.486-13.49 0-7.45 6.038-13.492 13.486-13.492m84.235 0c7.449 0 13.486 6.041 13.486 13.491 0 7.45-6.037 13.491-13.486 13.491-7.44 0-13.482-6.041-13.482-13.49 0-7.45 6.041-13.492 13.482-13.492zm-42.117 0c7.444 0 13.478 6.041 13.478 13.491 0 7.45-6.034 13.491-13.478 13.491-7.449 0-13.486-6.041-13.486-13.49 0-7.45 6.037-13.492 13.486-13.492m-21.063 30.35c9.301 0 16.844 7.548 16.844 16.855s-7.543 16.851-16.844 16.851c-9.305 0-16.848-7.544-16.848-16.85 0-9.308 7.543-16.856 16.848-16.856m42.118 0c9.305 0 16.844 7.548 16.844 16.855s-7.54 16.851-16.844 16.851c-9.302 0-16.844-7.544-16.844-16.85 0-9.308 7.542-16.856 16.844-16.856m-21.055 37.932c11.629 0 21.055 9.435 21.055 21.072 0 11.641-9.426 21.073-21.055 21.073-11.633 0-21.06-9.432-21.06-21.073 0-11.637 9.427-21.072 21.06-21.072" fill="#7CADD3" fill-rule="evenodd" fill-opacity=".15"/></svg>