<svg width="301" height="196" viewBox="0 0 301 196" xmlns="http://www.w3.org/2000/svg"><title>Components/Graphics/Halftone - Shift</title><path d="M214.31 132.544a5.254 5.254 0 0 1-5.25-5.257 5.254 5.254 0 0 1 5.25-5.256 5.254 5.254 0 0 1 5.25 5.256 5.254 5.254 0 0 1-5.25 5.257m-12.75-87.111c-3.315 0-6-2.692-6-6.008a6.002 6.002 0 0 1 6-6.007c3.315 0 6 2.688 6 6.007a6.005 6.005 0 0 1-6 6.008m-48.75-27.035c-4.556 0-8.25-3.698-8.25-8.26 0-4.562 3.694-8.26 8.25-8.26s8.25 3.698 8.25 8.26c0 4.562-3.694 8.26-8.25 8.26m25.5 56.322c-3.311 0-6-2.688-6-6.007a6.005 6.005 0 0 1 6-6.008c3.315 0 6 2.688 6 6.008a6.002 6.002 0 0 1-6 6.007m-12.75-28.16a7.129 7.129 0 0 1-7.125-7.135c0-3.938 3.191-7.134 7.125-7.134s7.125 3.196 7.125 7.134a7.129 7.129 0 0 1-7.125 7.134m23.25-29.287a7.129 7.129 0 0 1-7.125-7.134c0-3.939 3.191-7.134 7.125-7.134 3.937 0 7.125 3.195 7.125 7.134a7.126 7.126 0 0 1-7.125 7.134m48.75 27.41a5.254 5.254 0 0 1-5.25-5.257 5.254 5.254 0 0 1 5.25-5.256 5.254 5.254 0 0 1 5.25 5.256 5.254 5.254 0 0 1-5.25 5.257m-23.25 29.287a5.254 5.254 0 0 1-5.25-5.256 5.254 5.254 0 0 1 5.25-5.257 5.254 5.254 0 0 1 5.25 5.257 5.254 5.254 0 0 1-5.25 5.256m23.25 87.862a5.254 5.254 0 0 1-5.25-5.256 5.254 5.254 0 0 1 5.25-5.257 5.254 5.254 0 0 1 5.25 5.257 5.254 5.254 0 0 1-5.25 5.256m-10.125-59.7A4.128 4.128 0 0 1 223.31 98a4.128 4.128 0 0 1 4.125-4.13A4.128 4.128 0 0 1 231.56 98a4.128 4.128 0 0 1-4.125 4.13m-2.625-85.984c-3.311 0-6-2.689-6-6.008a6.005 6.005 0 0 1 6-6.008c3.315 0 6 2.689 6 6.008a6.002 6.002 0 0 1-6 6.008M11.06 108.138C5.469 108.138.935 103.598.935 98S5.469 87.862 11.06 87.862c5.595 0 10.125 4.54 10.125 10.138s-4.53 10.138-10.125 10.138m36-1.127c-4.969 0-9-4.036-9-9.011s4.031-9.011 9-9.011 9 4.036 9 9.011-4.031 9.011-9 9.011m-12.75-28.16c-5.591 0-10.125-4.54-10.125-10.138 0-5.599 4.534-10.138 10.125-10.138 5.595 0 10.125 4.54 10.125 10.138S39.905 78.85 34.31 78.85m23.25-29.288c-5.595 0-10.125-4.54-10.125-10.138 0-5.602 4.53-10.138 10.125-10.138 5.591 0 10.125 4.536 10.125 10.138 0 5.599-4.534 10.138-10.125 10.138m-23.25 87.862c-5.591 0-10.125-4.54-10.125-10.138s4.534-10.138 10.125-10.138c5.595 0 10.125 4.54 10.125 10.138 0 5.599-4.53 10.138-10.125 10.138m216.375-6.007a4.13 4.13 0 1 1 0-8.26 4.128 4.128 0 0 1 4.125 4.13 4.125 4.125 0 0 1-4.125 4.13M80.81 20.276c-5.591 0-10.125-4.54-10.125-10.138S75.219 0 80.81 0s10.125 4.54 10.125 10.138-4.534 10.138-10.125 10.138m36-1.127c-4.973 0-9-4.036-9-9.011s4.027-9.012 9-9.012c4.972 0 9 4.037 9 9.012 0 4.975-4.028 9.011-9 9.011m12.75 28.537c-4.556 0-8.25-3.695-8.25-8.26 0-4.563 3.694-8.261 8.25-8.261s8.25 3.698 8.25 8.26c0 4.566-3.694 8.26-8.25 8.26m12.75 28.162c-3.938 0-7.125-3.196-7.125-7.134a7.128 7.128 0 0 1 7.125-7.134c3.934 0 7.125 3.195 7.125 7.134 0 3.938-3.191 7.134-7.125 7.134m-72 1.877c-4.969 0-9-4.033-9-9.011 0-4.975 4.031-9.012 9-9.012s9 4.037 9 9.012c0 4.978-4.031 9.011-9 9.011m36-.75c-4.556 0-8.25-3.7-8.25-8.261 0-4.562 3.694-8.26 8.25-8.26 4.56 0 8.25 3.698 8.25 8.26 0 4.562-3.69 8.26-8.25 8.26M93.56 48.437c-4.969 0-9-4.033-9-9.012 0-4.975 4.031-9.011 9-9.011s9 4.036 9 9.011c0 4.98-4.031 9.012-9 9.012m167.25-33.042a5.254 5.254 0 0 1-5.25-5.257 5.252 5.252 0 0 1 5.25-5.257c2.899 0 5.25 2.35 5.25 5.257a5.254 5.254 0 0 1-5.25 5.257m-144 179.479c-4.973 0-9-4.037-9-9.012 0-4.975 4.027-9.011 9-9.011 4.972 0 9 4.036 9 9.011s-4.028 9.012-9 9.012m12.75-30.039c-4.556 0-8.25-3.698-8.25-8.26 0-4.562 3.694-8.26 8.25-8.26s8.25 3.698 8.25 8.26c0 4.562-3.694 8.26-8.25 8.26m12.75-30.414c-3.938 0-7.125-3.195-7.125-7.134 0-3.938 3.187-7.134 7.125-7.134 3.934 0 7.125 3.196 7.125 7.134 0 3.94-3.191 7.134-7.125 7.134m12.75-30.413c-3.315 0-6-2.689-6-6.008a6.005 6.005 0 0 1 6-6.008c3.315 0 6 2.693 6 6.008a6.002 6.002 0 0 1-6 6.008m-36 1.126A7.126 7.126 0 0 1 111.935 98a7.126 7.126 0 0 1 7.125-7.134A7.126 7.126 0 0 1 126.185 98a7.126 7.126 0 0 1-7.125 7.134m-25.5 60.452c-4.969 0-9-4.032-9-9.011 0-4.975 4.031-9.012 9-9.012s9 4.037 9 9.012c0 4.979-4.031 9.011-9 9.011M70.31 136.3c-4.969 0-9-4.037-9-9.012 0-4.978 4.031-9.011 9-9.011s9 4.033 9 9.011c0 4.975-4.031 9.012-9 9.012m-12.75 30.414c-5.595 0-10.125-4.54-10.125-10.138 0-5.599 4.53-10.138 10.125-10.138 5.591 0 10.125 4.54 10.125 10.138s-4.534 10.138-10.125 10.138M80.81 196c-5.591 0-10.125-4.54-10.125-10.138s4.534-10.138 10.125-10.138 10.125 4.54 10.125 10.138S86.401 196 80.81 196m72-1.877c-4.556 0-8.25-3.699-8.25-8.26 0-4.563 3.694-8.261 8.25-8.261s8.25 3.698 8.25 8.26c0 4.562-3.694 8.26-8.25 8.26m-69.75-87.861c-4.556 0-8.25-3.699-8.25-8.261 0-4.562 3.694-8.26 8.25-8.26s8.25 3.698 8.25 8.26c0 4.562-3.694 8.26-8.25 8.26m23.25 29.288c-4.556 0-8.25-3.699-8.25-8.26 0-4.563 3.694-8.261 8.25-8.261 4.56 0 8.25 3.698 8.25 8.26 0 4.562-3.69 8.26-8.25 8.26m72-2.252c-3.311 0-6-2.688-6-6.008a6.005 6.005 0 0 1 6-6.007c3.315 0 6 2.688 6 6.007a6.002 6.002 0 0 1-6 6.008m95.25-89.74a4.128 4.128 0 0 1-4.125-4.13 4.125 4.125 0 1 1 8.25 0c0 2.28-1.845 4.13-4.125 4.13m0 117.15a4.128 4.128 0 0 1-4.125-4.13 4.125 4.125 0 1 1 8.25 0 4.128 4.128 0 0 1-4.125 4.13m-108 3.004c-3.934 0-7.125-3.196-7.125-7.134 0-3.94 3.191-7.134 7.125-7.134s7.125 3.195 7.125 7.134c0 3.938-3.191 7.134-7.125 7.134m95.25 27.41a5.254 5.254 0 0 1-5.25-5.257 5.254 5.254 0 0 1 5.25-5.257 5.254 5.254 0 0 1 5.25 5.257 5.254 5.254 0 0 1-5.25 5.257m36-1.127a4.13 4.13 0 1 1 0-8.26 4.13 4.13 0 0 1 0 8.26m-46.125-117.15a4.13 4.13 0 0 1 0-8.26 4.128 4.128 0 0 1 4.125 4.13c0 2.28-1.845 4.13-4.125 4.13M188.81 192.997a7.129 7.129 0 0 1-7.125-7.134c0-3.939 3.191-7.134 7.125-7.134 3.937 0 7.125 3.195 7.125 7.134a7.126 7.126 0 0 1-7.125 7.134m2.625-89.74a5.254 5.254 0 0 1-5.25-5.256 5.254 5.254 0 0 1 5.25-5.257 5.254 5.254 0 0 1 5.25 5.257 5.254 5.254 0 0 1-5.25 5.257m10.125 59.325c-3.315 0-6-2.688-6-6.007a6.005 6.005 0 0 1 6-6.008c3.315 0 6 2.692 6 6.008a6.002 6.002 0 0 1-6 6.007m23.25 29.288c-3.311 0-6-2.692-6-6.008a6.005 6.005 0 0 1 6-6.008c3.315 0 6 2.689 6 6.008a6.005 6.005 0 0 1-6 6.008m72-177.602a4.13 4.13 0 0 1 0-8.26 4.13 4.13 0 1 1 0 8.26" fill="#7CADD3" fill-rule="evenodd" fill-opacity=".15"/></svg>