<svg width="172" height="400" viewBox="0 0 172 400" xmlns="http://www.w3.org/2000/svg"><title>Components/Graphics/Halftone - Swoosh</title><path d="M2.211 189.155a2.213 2.213 0 0 1 0-4.423 2.213 2.213 0 0 1 0 4.423m0 26.36a2.213 2.213 0 0 1 0-4.423 2.213 2.213 0 0 1 0 4.423m0 26.355a2.213 2.213 0 1 1 .002-4.42 2.213 2.213 0 0 1-.002 4.42m0 26.356a2.213 2.213 0 0 1 0-4.423 2.213 2.213 0 0 1 0 4.423m0 26.356a2.213 2.213 0 0 1 0-4.423 2.213 2.213 0 0 1 0 4.423zm0-79.067a2.213 2.213 0 0 1 0-4.423 2.213 2.213 0 0 1 0 4.423m0 26.355a2.213 2.213 0 1 1 .002-4.42 2.213 2.213 0 0 1-.002 4.42m0 26.356a2.213 2.213 0 0 1 0-4.423 2.213 2.213 0 0 1 0 4.423m0 26.356a2.213 2.213 0 0 1 0-4.423 2.213 2.213 0 0 1 0 4.423m0 105.418a2.213 2.213 0 0 1 0-4.423 2.213 2.213 0 0 1 0 4.423m0-79.063a2.213 2.213 0 0 1 0-4.423 2.213 2.213 0 0 1 0 4.423m0-105.422a2.213 2.213 0 0 1 0-4.423 2.213 2.213 0 0 1 0 4.423m0 26.355a2.213 2.213 0 1 1 .002-4.42 2.213 2.213 0 0 1-.002 4.42m0 26.356a2.213 2.213 0 0 1 0-4.423 2.213 2.213 0 0 1 0 4.423m0 26.356a2.213 2.213 0 0 1 0-4.423 2.213 2.213 0 0 1 0 4.423m0 26.355a2.213 2.213 0 0 1 0-4.423 2.213 2.213 0 0 1 0 4.423m0 26.352a2.213 2.213 0 1 1 .002-4.42 2.213 2.213 0 0 1-.002 4.42zm0-26.352a2.213 2.213 0 0 1 0-4.423 2.213 2.213 0 0 1 0 4.423zm0 52.707a2.213 2.213 0 0 1 0-4.423 2.213 2.213 0 0 1 0 4.423M7.738 176.41a2.765 2.765 0 1 1-.001-5.53 2.765 2.765 0 0 1 0 5.53m0 26.351a2.765 2.765 0 1 1 0-5.53 2.765 2.765 0 0 1 0 5.53m0 26.36a2.765 2.765 0 1 1 0-5.53 2.765 2.765 0 0 1 0 5.53m0 26.351a2.765 2.765 0 1 1 0-5.53 2.765 2.765 0 0 1 0 5.53m0 26.352a2.765 2.765 0 1 1 0-5.53 2.765 2.765 0 0 1 0 5.53zm0-79.063a2.765 2.765 0 1 1 0-5.53 2.765 2.765 0 0 1 0 5.53m0 26.36a2.765 2.765 0 1 1 0-5.53 2.765 2.765 0 0 1 0 5.53m0 26.351a2.765 2.765 0 1 1 0-5.53 2.765 2.765 0 0 1 0 5.53m0 26.352a2.765 2.765 0 1 1 0-5.53 2.765 2.765 0 0 1 0 5.53m0 105.427a2.765 2.765 0 1 1 0-5.53 2.765 2.765 0 0 1 0 5.53m0-79.067a2.765 2.765 0 1 1 0-5.53 2.765 2.765 0 0 1 0 5.53m0-105.423a2.765 2.765 0 1 1 0-5.53 2.765 2.765 0 0 1 0 5.53m0 26.36a2.765 2.765 0 1 1 0-5.53 2.765 2.765 0 0 1 0 5.53m0 26.351a2.765 2.765 0 1 1 0-5.53 2.765 2.765 0 0 1 0 5.53m0 26.352a2.765 2.765 0 1 1 0-5.53 2.765 2.765 0 0 1 0 5.53m0 26.36a2.765 2.765 0 1 1 0-5.53 2.765 2.765 0 0 1 0 5.53m0 26.355a2.765 2.765 0 1 1 0-5.53 2.765 2.765 0 0 1 0 5.53zm0-26.355a2.765 2.765 0 1 1 0-5.53 2.765 2.765 0 0 1 0 5.53zm0 52.711a2.765 2.765 0 1 1 0-5.53 2.765 2.765 0 0 1 0 5.53m6.912-196.98a3.457 3.457 0 1 1 0-6.915 3.457 3.457 0 1 1 0 6.916m0 26.355a3.46 3.46 0 0 1-3.458-3.457 3.46 3.46 0 0 1 3.458-3.458 3.46 3.46 0 0 1 3.458 3.458 3.46 3.46 0 0 1-3.458 3.457m0 26.36a3.46 3.46 0 0 1-3.458-3.458 3.46 3.46 0 0 1 3.458-3.457 3.46 3.46 0 0 1 3.458 3.457 3.46 3.46 0 0 1-3.458 3.458m0 26.352a3.457 3.457 0 1 1 0-6.916 3.457 3.457 0 1 1 0 6.916m0 26.355a3.46 3.46 0 0 1-3.458-3.458 3.46 3.46 0 0 1 3.458-3.457 3.46 3.46 0 0 1 3.458 3.457 3.46 3.46 0 0 1-3.458 3.458zm0-79.067a3.46 3.46 0 0 1-3.458-3.457 3.46 3.46 0 0 1 3.458-3.458 3.46 3.46 0 0 1 3.458 3.458 3.46 3.46 0 0 1-3.458 3.457m0 26.36a3.46 3.46 0 0 1-3.458-3.458 3.46 3.46 0 0 1 3.458-3.457 3.46 3.46 0 0 1 3.458 3.457 3.46 3.46 0 0 1-3.458 3.458m0 26.352a3.457 3.457 0 1 1 0-6.916 3.457 3.457 0 1 1 0 6.916m0 26.355a3.46 3.46 0 0 1-3.458-3.458 3.46 3.46 0 0 1 3.458-3.457 3.46 3.46 0 0 1 3.458 3.457 3.46 3.46 0 0 1-3.458 3.458m0 105.419a3.46 3.46 0 0 1-3.458-3.458 3.46 3.46 0 0 1 3.458-3.458 3.46 3.46 0 0 1 3.458 3.458 3.46 3.46 0 0 1-3.458 3.458m0-79.067a3.46 3.46 0 0 1-3.458-3.458 3.46 3.46 0 0 1 3.458-3.458 3.46 3.46 0 0 1 3.458 3.458 3.46 3.46 0 0 1-3.458 3.458m0-105.419a3.46 3.46 0 0 1-3.458-3.457 3.46 3.46 0 0 1 3.458-3.458 3.46 3.46 0 0 1 3.458 3.458 3.46 3.46 0 0 1-3.458 3.457m0 26.36a3.46 3.46 0 0 1-3.458-3.458 3.46 3.46 0 0 1 3.458-3.457 3.46 3.46 0 0 1 3.458 3.457 3.46 3.46 0 0 1-3.458 3.458m0 26.352a3.457 3.457 0 1 1 0-6.916 3.457 3.457 0 1 1 0 6.916m0 26.355a3.46 3.46 0 0 1-3.458-3.458 3.46 3.46 0 0 1 3.458-3.457 3.46 3.46 0 0 1 3.458 3.457 3.46 3.46 0 0 1-3.458 3.458m0 26.352a3.46 3.46 0 0 1-3.458-3.458 3.46 3.46 0 0 1 3.458-3.458 3.46 3.46 0 0 1 3.458 3.458 3.46 3.46 0 0 1-3.458 3.458m0 26.36a3.457 3.457 0 1 1 0-6.916 3.457 3.457 0 1 1 0 6.916zm0-26.36a3.46 3.46 0 0 1-3.458-3.458 3.46 3.46 0 0 1 3.458-3.458 3.46 3.46 0 0 1 3.458 3.458 3.46 3.46 0 0 1-3.458 3.458zm0 52.71a3.46 3.46 0 0 1-3.458-3.457 3.46 3.46 0 0 1 3.458-3.458 3.46 3.46 0 0 1 3.458 3.458 3.46 3.46 0 0 1-3.458 3.458m8.638-196.798a4.317 4.317 0 0 1-4.319-4.319 4.32 4.32 0 1 1 4.319 4.319m0 26.352a4.317 4.317 0 0 1-4.319-4.32 4.32 4.32 0 1 1 4.319 4.319m0 26.36a4.317 4.317 0 0 1-4.319-4.318 4.32 4.32 0 1 1 4.319 4.319m0 26.355a4.317 4.317 0 0 1-4.319-4.319 4.32 4.32 0 1 1 4.319 4.319m0 26.356a4.317 4.317 0 0 1-4.319-4.319 4.32 4.32 0 1 1 4.319 4.319zm0-79.071a4.317 4.317 0 0 1-4.319-4.32 4.32 4.32 0 1 1 4.319 4.319m0 26.36a4.317 4.317 0 0 1-4.319-4.318 4.32 4.32 0 1 1 4.319 4.319m0 26.355a4.317 4.317 0 0 1-4.319-4.319 4.32 4.32 0 1 1 4.319 4.319m0 26.356a4.317 4.317 0 0 1-4.319-4.319 4.32 4.32 0 1 1 4.319 4.319m0 105.418a4.317 4.317 0 0 1-4.319-4.319 4.32 4.32 0 1 1 4.319 4.319m0-79.067a4.317 4.317 0 0 1-4.319-4.319 4.32 4.32 0 1 1 4.319 4.319m0-105.422a4.317 4.317 0 0 1-4.319-4.32 4.32 4.32 0 1 1 4.319 4.319m0 26.36a4.317 4.317 0 0 1-4.319-4.318 4.32 4.32 0 1 1 4.319 4.319m0 26.355a4.317 4.317 0 0 1-4.319-4.319 4.32 4.32 0 1 1 4.319 4.319m0 26.356a4.317 4.317 0 0 1-4.319-4.319 4.32 4.32 0 1 1 4.319 4.319m0 26.351a4.317 4.317 0 0 1-4.319-4.319 4.32 4.32 0 1 1 4.319 4.319m0 26.356a4.315 4.315 0 0 1-4.319-4.32 4.32 4.32 0 1 1 4.319 4.319zm0-26.356a4.317 4.317 0 0 1-4.319-4.319 4.32 4.32 0 1 1 4.319 4.319zm0 52.712a4.317 4.317 0 0 1-4.319-4.32 4.32 4.32 0 1 1 4.319 4.319m10.794-196.585a5.395 5.395 0 0 1-5.397-5.396 5.395 5.395 0 0 1 5.397-5.397 5.395 5.395 0 0 1 5.396 5.397 5.395 5.395 0 0 1-5.396 5.396m0 26.36a5.398 5.398 0 1 1 .002-10.791 5.398 5.398 0 0 1-.002 10.791m0 26.351a5.395 5.395 0 0 1-5.397-5.396 5.395 5.395 0 0 1 5.397-5.397 5.395 5.395 0 0 1 5.396 5.397 5.395 5.395 0 0 1-5.396 5.396m0 26.356a5.395 5.395 0 0 1-5.397-5.397 5.395 5.395 0 0 1 5.397-5.396 5.395 5.395 0 0 1 5.396 5.396 5.395 5.395 0 0 1-5.396 5.397m0 26.356a5.398 5.398 0 1 1 .002-10.791 5.398 5.398 0 0 1-.002 10.79zm0-79.063a5.398 5.398 0 1 1 .002-10.791 5.398 5.398 0 0 1-.002 10.791m0 26.351a5.395 5.395 0 0 1-5.397-5.396 5.395 5.395 0 0 1 5.397-5.397 5.395 5.395 0 0 1 5.396 5.397 5.395 5.395 0 0 1-5.396 5.396m0 26.356a5.395 5.395 0 0 1-5.397-5.397 5.395 5.395 0 0 1 5.397-5.396 5.395 5.395 0 0 1 5.396 5.396 5.395 5.395 0 0 1-5.396 5.397m0 26.356a5.398 5.398 0 1 1 .002-10.791 5.398 5.398 0 0 1-.002 10.79m0 105.42a5.398 5.398 0 1 1 .002-10.791 5.398 5.398 0 0 1-.002 10.79m0-79.063a5.398 5.398 0 1 1 .002-10.791 5.398 5.398 0 0 1-.002 10.791m0-105.418a5.398 5.398 0 1 1 .002-10.791 5.398 5.398 0 0 1-.002 10.791m0 26.351a5.395 5.395 0 0 1-5.397-5.396 5.395 5.395 0 0 1 5.397-5.397 5.395 5.395 0 0 1 5.396 5.397 5.395 5.395 0 0 1-5.396 5.396m0 26.356a5.395 5.395 0 0 1-5.397-5.397 5.395 5.395 0 0 1 5.397-5.396 5.395 5.395 0 0 1 5.396 5.396 5.395 5.395 0 0 1-5.396 5.397m0 26.356a5.398 5.398 0 1 1 .002-10.791 5.398 5.398 0 0 1-.002 10.79m0 26.356a5.398 5.398 0 1 1 .002-10.791 5.398 5.398 0 0 1-.002 10.791m0 26.352a5.395 5.395 0 0 1-5.397-5.397 5.395 5.395 0 0 1 5.397-5.397 5.395 5.395 0 0 1 5.396 5.397 5.395 5.395 0 0 1-5.396 5.397zm0-26.352a5.398 5.398 0 1 1 .002-10.791 5.398 5.398 0 0 1-.002 10.791zm0 52.712a5.398 5.398 0 1 1 .002-10.791 5.398 5.398 0 0 1-.002 10.79m13.498-196.316a6.747 6.747 0 1 1 0-13.494 6.747 6.747 0 0 1 0 13.494m0 26.36a6.747 6.747 0 1 1 0-13.494 6.747 6.747 0 0 1 0 13.494m0 26.355a6.747 6.747 0 1 1 0-13.494 6.747 6.747 0 0 1 0 13.494m0 26.352a6.747 6.747 0 1 1 0-13.494 6.747 6.747 0 0 1 0 13.494m0 26.355a6.747 6.747 0 1 1 0-13.494 6.747 6.747 0 0 1 0 13.494zm0-79.062a6.747 6.747 0 1 1 0-13.494 6.747 6.747 0 0 1 0 13.494m0 26.355a6.747 6.747 0 1 1 0-13.494 6.747 6.747 0 0 1 0 13.494m0 26.352a6.747 6.747 0 1 1 0-13.494 6.747 6.747 0 0 1 0 13.494m0 26.355a6.747 6.747 0 1 1 0-13.494 6.747 6.747 0 0 1 0 13.494m0 105.423a6.747 6.747 0 1 1 0-13.494 6.747 6.747 0 0 1 0 13.494m0-79.067a6.747 6.747 0 1 1 0-13.494 6.747 6.747 0 0 1 0 13.494m0-105.418a6.747 6.747 0 1 1 0-13.494 6.747 6.747 0 0 1 0 13.494m0 26.355a6.747 6.747 0 1 1 0-13.494 6.747 6.747 0 0 1 0 13.494m0 26.352a6.747 6.747 0 1 1 0-13.494 6.747 6.747 0 0 1 0 13.494m0 26.355a6.747 6.747 0 1 1 0-13.494 6.747 6.747 0 0 1 0 13.494m0 26.356a6.747 6.747 0 1 1 0-13.494 6.747 6.747 0 0 1 0 13.494m0 26.351a6.747 6.747 0 1 1 0-13.494 6.747 6.747 0 0 1 0 13.494zm0-26.351a6.747 6.747 0 1 1 0-13.494 6.747 6.747 0 0 1 0 13.494zm0 52.711a6.747 6.747 0 1 1 0-13.494 6.747 6.747 0 0 1 0 13.494M64.448 116.19a8.434 8.434 0 1 1 0-16.87 8.434 8.434 0 1 1 0 16.87m0 26.351a8.434 8.434 0 0 1-8.435-8.434c0-4.657 3.778-8.43 8.435-8.43s8.435 3.773 8.435 8.43a8.434 8.434 0 0 1-8.435 8.434m-8.43 17.926c0-4.666 3.773-8.444 8.43-8.444s8.435 3.778 8.435 8.444c0 4.647-3.778 8.426-8.435 8.426s-8.43-3.779-8.43-8.426m8.43 34.786a8.434 8.434 0 1 1 0-16.87 8.434 8.434 0 1 1 0 16.87m0 26.355a8.437 8.437 0 0 1-8.435-8.435 8.437 8.437 0 0 1 8.435-8.434 8.437 8.437 0 0 1 8.435 8.434 8.437 8.437 0 0 1-8.435 8.435zm0-79.067a8.434 8.434 0 0 1-8.435-8.434c0-4.657 3.778-8.43 8.435-8.43s8.435 3.773 8.435 8.43a8.434 8.434 0 0 1-8.435 8.434m-8.43 17.926c0-4.666 3.773-8.444 8.43-8.444s8.435 3.778 8.435 8.444c0 4.647-3.778 8.426-8.435 8.426s-8.43-3.779-8.43-8.426m8.43 34.786a8.434 8.434 0 1 1 0-16.87 8.434 8.434 0 1 1 0 16.87m0 26.355a8.437 8.437 0 0 1-8.435-8.435 8.437 8.437 0 0 1 8.435-8.434 8.437 8.437 0 0 1 8.435 8.434 8.437 8.437 0 0 1-8.435 8.435m0 105.423a8.434 8.434 0 1 1 0-16.87 8.434 8.434 0 1 1 0 16.87m0-79.067a8.434 8.434 0 1 1 0-16.87 8.434 8.434 0 1 1 0 16.87m0-105.423a8.434 8.434 0 0 1-8.435-8.434c0-4.657 3.778-8.43 8.435-8.43s8.435 3.773 8.435 8.43a8.434 8.434 0 0 1-8.435 8.434m-8.43 17.926c0-4.666 3.773-8.444 8.43-8.444s8.435 3.778 8.435 8.444c0 4.647-3.778 8.426-8.435 8.426s-8.43-3.779-8.43-8.426m8.43 34.786a8.434 8.434 0 1 1 0-16.87 8.434 8.434 0 1 1 0 16.87m0 26.355a8.437 8.437 0 0 1-8.435-8.435 8.437 8.437 0 0 1 8.435-8.434 8.437 8.437 0 0 1 8.435 8.434 8.437 8.437 0 0 1-8.435 8.435m0 26.356a8.434 8.434 0 1 1 0-16.87 8.434 8.434 0 1 1 0 16.87m0 26.36a8.434 8.434 0 1 1 0-16.87 8.434 8.434 0 1 1 0 16.87zm0-26.36a8.434 8.434 0 1 1 0-16.87 8.434 8.434 0 1 1 0 16.87zm0 52.707a8.434 8.434 0 1 1 0-16.87 8.434 8.434 0 1 1 0 16.87m21.085-195.547A10.539 10.539 0 0 1 74.99 94.582c0-5.821 4.717-10.543 10.543-10.543 5.82 0 10.542 4.722 10.542 10.543 0 5.825-4.722 10.542-10.542 10.542m0 26.347a10.539 10.539 0 0 1-10.543-10.542c0-5.821 4.717-10.543 10.543-10.543 5.82 0 10.542 4.722 10.542 10.543 0 5.825-4.722 10.542-10.542 10.542m0 26.36c-5.826 0-10.543-4.722-10.543-10.542 0-5.821 4.717-10.543 10.543-10.543 5.82 0 10.542 4.722 10.542 10.543 0 5.82-4.722 10.542-10.542 10.542m0 26.356a10.539 10.539 0 0 1-10.543-10.543c0-5.82 4.717-10.542 10.543-10.542 5.82 0 10.542 4.722 10.542 10.542 0 5.825-4.722 10.543-10.542 10.543m0 26.35a10.539 10.539 0 0 1-10.543-10.541c0-5.821 4.717-10.543 10.543-10.543 5.82 0 10.542 4.722 10.542 10.543 0 5.825-4.722 10.542-10.542 10.542m0-79.067a10.539 10.539 0 0 1-10.543-10.542c0-5.821 4.717-10.543 10.543-10.543 5.82 0 10.542 4.722 10.542 10.543 0 5.825-4.722 10.542-10.542 10.542m0 26.36c-5.826 0-10.543-4.722-10.543-10.542 0-5.821 4.717-10.543 10.543-10.543 5.82 0 10.542 4.722 10.542 10.543 0 5.82-4.722 10.542-10.542 10.542m0 26.356a10.539 10.539 0 0 1-10.543-10.543c0-5.82 4.717-10.542 10.543-10.542 5.82 0 10.542 4.722 10.542 10.542 0 5.825-4.722 10.543-10.542 10.543m0 26.35a10.539 10.539 0 0 1-10.543-10.541c0-5.821 4.717-10.543 10.543-10.543 5.82 0 10.542 4.722 10.542 10.543 0 5.825-4.722 10.542-10.542 10.542m0 26.356c-5.826 0-10.543-4.722-10.543-10.543 0-5.82 4.717-10.542 10.543-10.542 5.82 0 10.542 4.722 10.542 10.542 0 5.821-4.722 10.543-10.542 10.543m0-79.063c-5.826 0-10.543-4.722-10.543-10.542 0-5.821 4.717-10.543 10.543-10.543 5.82 0 10.542 4.722 10.542 10.543 0 5.82-4.722 10.542-10.542 10.542m0 26.356a10.539 10.539 0 0 1-10.543-10.543c0-5.82 4.717-10.542 10.543-10.542 5.82 0 10.542 4.722 10.542 10.542 0 5.825-4.722 10.543-10.542 10.543m0 26.35a10.539 10.539 0 0 1-10.543-10.541c0-5.821 4.717-10.543 10.543-10.543 5.82 0 10.542 4.722 10.542 10.543 0 5.825-4.722 10.542-10.542 10.542m0 26.356c-5.826 0-10.543-4.722-10.543-10.543 0-5.82 4.717-10.542 10.543-10.542 5.82 0 10.542 4.722 10.542 10.542 0 5.821-4.722 10.543-10.542 10.543m0 26.355a10.539 10.539 0 0 1-10.543-10.542c0-5.82 4.717-10.542 10.543-10.542 5.82 0 10.542 4.721 10.542 10.542 0 5.825-4.722 10.542-10.542 10.542m83.32-47.985a2.213 2.213 0 0 1 0-4.423 2.213 2.213 0 0 1 0 4.423m0-26.36a2.213 2.213 0 0 1 0-4.423 2.213 2.213 0 0 1 0 4.423m0-26.356a2.213 2.213 0 1 1 .002-4.42 2.213 2.213 0 0 1-.001 4.42m0-26.351a2.213 2.213 0 1 1 .002-4.42 2.213 2.213 0 0 1-.002 4.42m0-26.356a2.209 2.209 0 0 1-2.212-2.207c0-1.225.991-2.216 2.212-2.216 1.22 0 2.211.991 2.211 2.216 0 1.22-.991 2.207-2.211 2.207zm0 79.063a2.213 2.213 0 0 1 0-4.423 2.213 2.213 0 0 1 0 4.423m0-26.356a2.213 2.213 0 1 1 .002-4.42 2.213 2.213 0 0 1-.002 4.42m0-26.351a2.213 2.213 0 1 1 .002-4.42 2.213 2.213 0 0 1-.002 4.42m0-26.356a2.209 2.209 0 0 1-2.212-2.207c0-1.225.991-2.216 2.212-2.216 1.22 0 2.211.991 2.211 2.216 0 1.22-.991 2.207-2.211 2.207m0-105.418a2.213 2.213 0 0 1 0-4.423 2.213 2.213 0 0 1 0 4.423m0 79.063a2.213 2.213 0 0 1 0-4.423 2.213 2.213 0 0 1 0 4.423m0 105.418a2.213 2.213 0 0 1 0-4.423 2.213 2.213 0 0 1 0 4.423m0-26.356a2.213 2.213 0 1 1 .002-4.42 2.213 2.213 0 0 1-.002 4.42m0-26.351a2.213 2.213 0 1 1 .002-4.42 2.213 2.213 0 0 1-.002 4.42m0-26.356a2.209 2.209 0 0 1-2.212-2.207c0-1.225.991-2.216 2.212-2.216 1.22 0 2.211.991 2.211 2.216 0 1.22-.991 2.207-2.211 2.207m0-26.355a2.213 2.213 0 0 1 0-4.423 2.213 2.213 0 0 1 0 4.423m0-26.352a2.213 2.213 0 1 1 2.211-2.216c0 1.22-.991 2.216-2.211 2.216zm0 26.352a2.213 2.213 0 0 1 0-4.423 2.213 2.213 0 0 1 0 4.423zm0-52.712a2.213 2.213 0 0 1 0-4.423 2.213 2.213 0 0 1 0 4.423m-5.527 198.343a2.765 2.765 0 1 1 0-5.53 2.765 2.765 0 0 1 0 5.53m0-26.352a2.765 2.765 0 1 1 0-5.53 2.765 2.765 0 0 1 0 5.53m0-26.36a2.765 2.765 0 1 1 0-5.53 2.765 2.765 0 0 1 0 5.53m0-26.35a2.765 2.765 0 1 1 0-5.53 2.765 2.765 0 0 1 0 5.53m0-26.357a2.765 2.765 0 1 1 0-5.53 2.765 2.765 0 0 1 0 5.53zm0 79.067a2.765 2.765 0 1 1 0-5.53 2.765 2.765 0 0 1 0 5.53m0-26.36a2.765 2.765 0 1 1 0-5.53 2.765 2.765 0 0 1 0 5.53m0-26.35a2.765 2.765 0 1 1 0-5.53 2.765 2.765 0 0 1 0 5.53m0-26.357a2.765 2.765 0 1 1 0-5.53 2.765 2.765 0 0 1 0 5.53m0-105.418a2.765 2.765 0 1 1 0-5.53 2.765 2.765 0 0 1 0 5.53m0 79.071a2.769 2.769 0 0 1 0-5.535 2.769 2.769 0 0 1 0 5.535m0 105.414a2.765 2.765 0 1 1 0-5.53 2.765 2.765 0 0 1 0 5.53m0-26.36a2.765 2.765 0 1 1 0-5.53 2.765 2.765 0 0 1 0 5.53m0-26.35a2.765 2.765 0 1 1 0-5.53 2.765 2.765 0 0 1 0 5.53m0-26.357a2.765 2.765 0 1 1 0-5.53 2.765 2.765 0 0 1 0 5.53m0-26.347a2.769 2.769 0 0 1 0-5.535 2.769 2.769 0 0 1 0 5.535m0-26.36a2.765 2.765 0 1 1 0-5.53 2.765 2.765 0 0 1 0 5.53zm0 26.36a2.769 2.769 0 0 1 0-5.535 2.769 2.769 0 0 1 0 5.535zm0-52.715a2.765 2.765 0 0 1-2.765-2.766 2.761 2.761 0 0 1 2.765-2.76 2.761 2.761 0 0 1 2.766 2.76 2.765 2.765 0 0 1-2.766 2.766m-6.911 198.36a3.457 3.457 0 0 1-3.458-3.458 3.457 3.457 0 1 1 6.916 0 3.46 3.46 0 0 1-3.458 3.458m0-26.356a3.454 3.454 0 0 1-3.458-3.458 3.457 3.457 0 1 1 6.916 0 3.457 3.457 0 0 1-3.458 3.458m0-26.36a3.457 3.457 0 0 1-3.458-3.458 3.457 3.457 0 1 1 6.916 0 3.46 3.46 0 0 1-3.458 3.458m0-26.347a3.457 3.457 0 0 1-3.458-3.458 3.457 3.457 0 1 1 6.916 0 3.46 3.46 0 0 1-3.458 3.458m0-26.356a3.46 3.46 0 0 1 0-6.92 3.46 3.46 0 0 1 0 6.92zm0 79.063a3.454 3.454 0 0 1-3.458-3.458 3.457 3.457 0 1 1 6.916 0 3.457 3.457 0 0 1-3.458 3.458m0-26.36a3.457 3.457 0 0 1-3.458-3.458 3.457 3.457 0 1 1 6.916 0 3.46 3.46 0 0 1-3.458 3.458m0-26.347a3.457 3.457 0 0 1-3.458-3.458 3.457 3.457 0 1 1 6.916 0 3.46 3.46 0 0 1-3.458 3.458m0-26.356a3.46 3.46 0 0 1 0-6.92 3.46 3.46 0 0 1 0 6.92m0-105.418a3.454 3.454 0 0 1-3.458-3.458 3.457 3.457 0 1 1 6.916 0 3.457 3.457 0 0 1-3.458 3.458m0 79.063a3.457 3.457 0 0 1-3.458-3.458 3.454 3.454 0 0 1 3.458-3.458 3.457 3.457 0 1 1 0 6.916m0 105.418a3.454 3.454 0 0 1-3.458-3.458 3.457 3.457 0 1 1 6.916 0 3.457 3.457 0 0 1-3.458 3.458m0-26.36a3.457 3.457 0 0 1-3.458-3.458 3.457 3.457 0 1 1 6.916 0 3.46 3.46 0 0 1-3.458 3.458m0-26.347a3.457 3.457 0 0 1-3.458-3.458 3.457 3.457 0 1 1 6.916 0 3.46 3.46 0 0 1-3.458 3.458m0-26.356a3.46 3.46 0 0 1 0-6.92 3.46 3.46 0 0 1 0 6.92m0-26.355a3.457 3.457 0 0 1-3.458-3.458 3.454 3.454 0 0 1 3.458-3.458 3.457 3.457 0 1 1 0 6.916m0-26.356a3.457 3.457 0 0 1-3.458-3.458 3.457 3.457 0 1 1 6.916 0 3.46 3.46 0 0 1-3.458 3.458zm0 26.356a3.457 3.457 0 0 1-3.458-3.458 3.454 3.454 0 0 1 3.458-3.458 3.457 3.457 0 1 1 0 6.916zm0-52.712a3.454 3.454 0 0 1-3.458-3.457 3.457 3.457 0 1 1 6.916 0 3.457 3.457 0 0 1-3.458 3.457m-8.634 198.525a4.32 4.32 0 0 1 0-8.638 4.32 4.32 0 0 1 0 8.638m0-26.356a4.32 4.32 0 0 1 0-8.638 4.32 4.32 0 0 1 0 8.638m0-26.36a4.32 4.32 0 0 1 0-8.638 4.32 4.32 0 0 1 0 8.638m0-26.351a4.32 4.32 0 0 1 0-8.638 4.32 4.32 0 0 1 0 8.638m0-26.356a4.32 4.32 0 0 1 0-8.638 4.32 4.32 0 0 1 0 8.638zm0 79.067a4.32 4.32 0 0 1 0-8.638 4.32 4.32 0 0 1 0 8.638m0-26.36a4.32 4.32 0 0 1 0-8.638 4.32 4.32 0 0 1 0 8.638m0-26.351a4.32 4.32 0 0 1 0-8.638 4.32 4.32 0 0 1 0 8.638m0-26.356a4.32 4.32 0 0 1 0-8.638 4.32 4.32 0 0 1 0 8.638m0-105.418a4.32 4.32 0 0 1 0-8.638 4.32 4.32 0 0 1 0 8.638m0 79.062a4.32 4.32 0 1 1 .002-8.636 4.32 4.32 0 0 1-.002 8.636m0 105.423a4.32 4.32 0 0 1 0-8.638 4.32 4.32 0 0 1 0 8.638m0-26.36a4.32 4.32 0 0 1 0-8.638 4.32 4.32 0 0 1 0 8.638m0-26.351a4.32 4.32 0 0 1 0-8.638 4.32 4.32 0 0 1 0 8.638m0-26.356a4.32 4.32 0 0 1 0-8.638 4.32 4.32 0 0 1 0 8.638m0-26.356a4.32 4.32 0 1 1 .002-8.636 4.32 4.32 0 0 1-.002 8.636m0-26.35a4.32 4.32 0 1 1 .002-8.636 4.32 4.32 0 0 1-.002 8.635zm0 26.35a4.32 4.32 0 1 1 .002-8.636 4.32 4.32 0 0 1-.002 8.636zm0-52.707a4.32 4.32 0 0 1 0-8.638 4.32 4.32 0 0 1 0 8.638m-10.798 198.737a5.395 5.395 0 0 1-5.396-5.397 5.395 5.395 0 0 1 5.396-5.397 5.395 5.395 0 0 1 5.397 5.397 5.395 5.395 0 0 1-5.397 5.397m0-26.36a5.398 5.398 0 1 1 .002-10.791 5.398 5.398 0 0 1-.002 10.79m0-26.35a5.395 5.395 0 0 1-5.396-5.397 5.395 5.395 0 0 1 5.396-5.397 5.395 5.395 0 0 1 5.397 5.397 5.395 5.395 0 0 1-5.397 5.396m0-26.355a5.395 5.395 0 0 1-5.396-5.397 5.395 5.395 0 0 1 5.396-5.396 5.395 5.395 0 0 1 5.397 5.396 5.395 5.395 0 0 1-5.397 5.397m0-26.352a5.398 5.398 0 1 1 .002-10.791 5.398 5.398 0 0 1-.002 10.791zm0 79.059a5.398 5.398 0 1 1 .002-10.791 5.398 5.398 0 0 1-.002 10.79m0-26.35a5.395 5.395 0 0 1-5.396-5.397 5.395 5.395 0 0 1 5.396-5.397 5.395 5.395 0 0 1 5.397 5.397 5.395 5.395 0 0 1-5.397 5.396m0-26.355a5.395 5.395 0 0 1-5.396-5.397 5.395 5.395 0 0 1 5.396-5.396 5.395 5.395 0 0 1 5.397 5.396 5.395 5.395 0 0 1-5.397 5.397m0-26.352a5.398 5.398 0 1 1 .002-10.791 5.398 5.398 0 0 1-.002 10.791m0-105.422a5.398 5.398 0 1 1 .002-10.791 5.398 5.398 0 0 1-.002 10.79m0 79.064a5.395 5.395 0 0 1-5.396-5.397 5.395 5.395 0 0 1 5.396-5.397 5.395 5.395 0 0 1 5.397 5.397 5.395 5.395 0 0 1-5.397 5.397m0 105.418a5.398 5.398 0 1 1 .002-10.791 5.398 5.398 0 0 1-.002 10.79m0-26.35a5.395 5.395 0 0 1-5.396-5.397 5.395 5.395 0 0 1 5.396-5.397 5.395 5.395 0 0 1 5.397 5.397 5.395 5.395 0 0 1-5.397 5.396m0-26.355a5.395 5.395 0 0 1-5.396-5.397 5.395 5.395 0 0 1 5.396-5.396 5.395 5.395 0 0 1 5.397 5.396 5.395 5.395 0 0 1-5.397 5.397m0-26.352a5.398 5.398 0 1 1 .002-10.791 5.398 5.398 0 0 1-.002 10.791m0-26.36a5.395 5.395 0 0 1-5.396-5.396 5.395 5.395 0 0 1 5.396-5.397 5.395 5.395 0 0 1 5.397 5.397 5.395 5.395 0 0 1-5.397 5.397m0-26.352a5.395 5.395 0 0 1-5.396-5.396 5.395 5.395 0 0 1 5.396-5.397 5.395 5.395 0 0 1 5.397 5.397 5.395 5.395 0 0 1-5.397 5.396zm0 26.352a5.395 5.395 0 0 1-5.396-5.397 5.395 5.395 0 0 1 5.396-5.397 5.395 5.395 0 0 1 5.397 5.397 5.395 5.395 0 0 1-5.397 5.397zm0-52.703a5.398 5.398 0 1 1 .002-10.791 5.398 5.398 0 0 1-.002 10.79M123.486 285.81a6.747 6.747 0 1 1 0-13.493 6.747 6.747 0 0 1 0 13.493m0-26.355a6.747 6.747 0 1 1 0-13.494 6.747 6.747 0 0 1 0 13.494m0-26.356a6.747 6.747 0 1 1 0-13.494 6.747 6.747 0 0 1 0 13.494m0-26.351a6.747 6.747 0 1 1 0-13.494 6.747 6.747 0 0 1 0 13.494m0-26.351a6.747 6.747 0 1 1 0-13.494 6.747 6.747 0 0 1 0 13.494zm0 79.058a6.747 6.747 0 1 1 0-13.494 6.747 6.747 0 0 1 0 13.494m0-26.356a6.747 6.747 0 1 1 0-13.494 6.747 6.747 0 0 1 0 13.494m0-26.351a6.747 6.747 0 1 1 0-13.494 6.747 6.747 0 0 1 0 13.494m0-26.351a6.747 6.747 0 1 1 0-13.494 6.747 6.747 0 0 1 0 13.494m0-105.423a6.747 6.747 0 0 1-6.746-6.747 6.743 6.743 0 0 1 6.746-6.742 6.743 6.743 0 0 1 6.747 6.742 6.747 6.747 0 0 1-6.747 6.747m0 79.063a6.747 6.747 0 1 1 0-13.494 6.747 6.747 0 0 1 0 13.494m0 105.418a6.747 6.747 0 1 1 0-13.494 6.747 6.747 0 0 1 0 13.494m0-26.356a6.747 6.747 0 1 1 0-13.494 6.747 6.747 0 0 1 0 13.494m0-26.351a6.747 6.747 0 1 1 0-13.494 6.747 6.747 0 0 1 0 13.494m0-26.351a6.747 6.747 0 1 1 0-13.494 6.747 6.747 0 0 1 0 13.494m0-26.36a6.747 6.747 0 1 1 0-13.494 6.747 6.747 0 0 1 0 13.494m0-26.356a6.747 6.747 0 1 1 0-13.494 6.747 6.747 0 0 1 0 13.494zm0 26.356a6.747 6.747 0 1 1 0-13.494 6.747 6.747 0 0 1 0 13.494zm0-52.703a6.75 6.75 0 0 1 0-13.498 6.75 6.75 0 0 1 0 13.498m-16.869 199.342a8.434 8.434 0 0 1-8.435-8.435 8.434 8.434 0 1 1 16.87 0 8.437 8.437 0 0 1-8.435 8.435m0-26.351a8.431 8.431 0 0 1-8.435-8.435 8.434 8.434 0 1 1 16.87 0 8.434 8.434 0 0 1-8.435 8.435m8.435-34.795c0 4.665-3.778 8.443-8.435 8.443s-8.435-3.778-8.435-8.443c0-4.648 3.778-8.426 8.435-8.426s8.435 3.774 8.435 8.426m-8.435-17.917a8.434 8.434 0 0 1-8.435-8.434 8.434 8.434 0 1 1 16.87 0 8.437 8.437 0 0 1-8.435 8.434m0-26.355a8.431 8.431 0 0 1-8.435-8.435 8.434 8.434 0 1 1 16.87 0 8.434 8.434 0 0 1-8.435 8.435zm0 79.067a8.431 8.431 0 0 1-8.435-8.435 8.434 8.434 0 1 1 16.87 0 8.434 8.434 0 0 1-8.435 8.435m8.435-34.795c0 4.665-3.778 8.443-8.435 8.443s-8.435-3.778-8.435-8.443c0-4.648 3.778-8.426 8.435-8.426s8.435 3.774 8.435 8.426m-8.435-17.917a8.434 8.434 0 0 1-8.435-8.434 8.434 8.434 0 1 1 16.87 0 8.437 8.437 0 0 1-8.435 8.434m0-26.355a8.431 8.431 0 0 1-8.435-8.435 8.434 8.434 0 1 1 16.87 0 8.434 8.434 0 0 1-8.435 8.435m0-105.414a8.434 8.434 0 0 1-8.435-8.435 8.434 8.434 0 1 1 16.87 0 8.437 8.437 0 0 1-8.435 8.435m0 79.063a8.431 8.431 0 0 1-8.435-8.435 8.434 8.434 0 1 1 16.87 0 8.434 8.434 0 0 1-8.435 8.435m0 105.418a8.431 8.431 0 0 1-8.435-8.435 8.434 8.434 0 1 1 16.87 0 8.434 8.434 0 0 1-8.435 8.435m8.435-34.795c0 4.665-3.778 8.443-8.435 8.443s-8.435-3.778-8.435-8.443c0-4.648 3.778-8.426 8.435-8.426s8.435 3.774 8.435 8.426m-8.435-17.917a8.434 8.434 0 0 1-8.435-8.434 8.434 8.434 0 1 1 16.87 0 8.437 8.437 0 0 1-8.435 8.434m0-26.355a8.431 8.431 0 0 1-8.435-8.435 8.434 8.434 0 1 1 16.87 0 8.434 8.434 0 0 1-8.435 8.435m0-26.351a8.431 8.431 0 0 1-8.435-8.435 8.434 8.434 0 1 1 16.87 0 8.434 8.434 0 0 1-8.435 8.435m0-26.36a8.431 8.431 0 0 1-8.435-8.435 8.43 8.43 0 0 1 8.435-8.43c4.657 0 8.435 3.773 8.435 8.43a8.434 8.434 0 0 1-8.435 8.435zm0 26.36a8.431 8.431 0 0 1-8.435-8.435 8.434 8.434 0 1 1 16.87 0 8.434 8.434 0 0 1-8.435 8.435zm0-52.716a8.431 8.431 0 0 1-8.435-8.435 8.434 8.434 0 1 1 16.87 0 8.434 8.434 0 0 1-8.435 8.435M85.533 315.96c-5.826 0-10.543-4.721-10.543-10.542 0-5.82 4.717-10.542 10.543-10.542 5.82 0 10.542 4.722 10.542 10.542 0 5.821-4.722 10.543-10.542 10.543m0-26.356a10.539 10.539 0 0 1-10.543-10.542c0-5.821 4.717-10.543 10.543-10.543 5.82 0 10.542 4.722 10.542 10.543 0 5.825-4.722 10.542-10.542 10.542m0-26.356a10.539 10.539 0 0 1-10.543-10.542c0-5.82 4.717-10.542 10.543-10.542 5.82 0 10.542 4.721 10.542 10.542 0 5.825-4.722 10.542-10.542 10.542m0-26.355c-5.826 0-10.543-4.722-10.543-10.543 0-5.82 4.717-10.542 10.543-10.542 5.82 0 10.542 4.722 10.542 10.542 0 5.821-4.722 10.543-10.542 10.543m0-26.352A10.539 10.539 0 0 1 74.99 200c0-5.82 4.717-10.542 10.543-10.542 5.82 0 10.542 4.721 10.542 10.542 0 5.825-4.722 10.542-10.542 10.542zm0 79.063a10.539 10.539 0 0 1-10.543-10.542c0-5.821 4.717-10.543 10.543-10.543 5.82 0 10.542 4.722 10.542 10.543 0 5.825-4.722 10.542-10.542 10.542m0-26.356a10.539 10.539 0 0 1-10.543-10.542c0-5.82 4.717-10.542 10.543-10.542 5.82 0 10.542 4.721 10.542 10.542 0 5.825-4.722 10.542-10.542 10.542m0-26.355c-5.826 0-10.543-4.722-10.543-10.543 0-5.82 4.717-10.542 10.543-10.542 5.82 0 10.542 4.722 10.542 10.542 0 5.821-4.722 10.543-10.542 10.543m0-26.352A10.539 10.539 0 0 1 74.99 200c0-5.82 4.717-10.542 10.543-10.542 5.82 0 10.542 4.721 10.542 10.542 0 5.825-4.722 10.542-10.542 10.542zm0-26.351a10.539 10.539 0 0 1-10.543-10.542c0-5.821 4.717-10.543 10.543-10.543 5.82 0 10.542 4.722 10.542 10.543 0 5.825-4.722 10.542-10.542 10.542m0 105.414a10.539 10.539 0 0 1-10.543-10.542c0-5.821 4.717-10.543 10.543-10.543 5.82 0 10.542 4.722 10.542 10.543 0 5.825-4.722 10.542-10.542 10.542m0-26.356a10.539 10.539 0 0 1-10.543-10.542c0-5.82 4.717-10.542 10.543-10.542 5.82 0 10.542 4.721 10.542 10.542 0 5.825-4.722 10.542-10.542 10.542m0-26.355c-5.826 0-10.543-4.722-10.543-10.543 0-5.82 4.717-10.542 10.543-10.542 5.82 0 10.542 4.722 10.542 10.542 0 5.821-4.722 10.543-10.542 10.543m0-26.352A10.539 10.539 0 0 1 74.99 200c0-5.82 4.717-10.542 10.543-10.542 5.82 0 10.542 4.721 10.542 10.542 0 5.825-4.722 10.542-10.542 10.542m0-26.351a10.539 10.539 0 0 1-10.543-10.542c0-5.821 4.717-10.543 10.543-10.543 5.82 0 10.542 4.722 10.542 10.543 0 5.825-4.722 10.542-10.542 10.542m0-26.36c-5.826 0-10.543-4.722-10.543-10.542 0-5.821 4.717-10.543 10.543-10.543 5.82 0 10.542 4.722 10.542 10.543 0 5.82-4.722 10.542-10.542 10.542m0 105.418a10.539 10.539 0 0 1-10.543-10.542c0-5.82 4.717-10.542 10.543-10.542 5.82 0 10.542 4.721 10.542 10.542 0 5.825-4.722 10.542-10.542 10.542zm0-52.707A10.539 10.539 0 0 1 74.99 200c0-5.82 4.717-10.542 10.543-10.542 5.82 0 10.542 4.721 10.542 10.542 0 5.825-4.722 10.542-10.542 10.542zm0-52.711c-5.826 0-10.543-4.722-10.543-10.542 0-5.821 4.717-10.543 10.543-10.543 5.82 0 10.542 4.722 10.542 10.543 0 5.82-4.722 10.542-10.542 10.542m0-26.356a10.539 10.539 0 0 1-10.543-10.542c0-5.82 4.717-10.542 10.543-10.542 5.82 0 10.542 4.721 10.542 10.542 0 5.825-4.722 10.542-10.542 10.542" fill="#7CADD3" fill-rule="evenodd" fill-opacity=".1"/></svg>