<svg width="301" height="143" viewBox="0 0 301 143" xmlns="http://www.w3.org/2000/svg"><title>Components/Graphics/Halftone - Arrow</title><path d="M181.21 83.531c4.559 0 8.257 3.696 8.257 8.25 0 4.558-3.698 8.25-8.257 8.25a8.25 8.25 0 1 1 0-16.5m0-40.562c4.559 0 8.257 3.695 8.257 8.25 0 4.558-3.698 8.25-8.257 8.25a8.25 8.25 0 1 1 0-16.5m22.019 61.875c5.133 0 9.292 4.156 9.292 9.281 0 5.129-4.16 9.285-9.292 9.285-5.13 0-9.29-4.156-9.29-9.285 0-5.125 4.16-9.281 9.29-9.281M181.21 1.03c5.13 0 9.29 4.156 9.29 9.281 0 5.126-4.16 9.282-9.29 9.282-5.13 0-9.289-4.156-9.289-9.282 0-5.125 4.16-9.28 9.29-9.28m-22.016 23.374a8.25 8.25 0 0 1 0 16.5c-4.565 0-8.26-3.692-8.26-8.25 0-4.554 3.695-8.25 8.26-8.25M137.518 44a7.22 7.22 0 0 1 7.224 7.219 7.22 7.22 0 0 1-7.224 7.218c-3.988 0-7.225-3.23-7.225-7.218S133.53 44 137.518 44m0-41.938c4.558 0 8.256 3.696 8.256 8.25 0 4.559-3.698 8.25-8.256 8.25-4.559 0-8.257-3.691-8.257-8.25 0-4.554 3.698-8.25 8.257-8.25m21.677 64.282a7.22 7.22 0 0 1 7.222 7.219 7.22 7.22 0 0 1-7.222 7.218 7.222 7.222 0 0 1-7.228-7.219 7.222 7.222 0 0 1 7.228-7.218m-21.677 18.219a7.22 7.22 0 0 1 7.224 7.218A7.22 7.22 0 0 1 137.518 99a7.223 7.223 0 0 1-7.225-7.219c0-3.987 3.237-7.219 7.225-7.219m21.677 21.313a8.25 8.25 0 0 1 0 16.5c-4.565 0-8.26-3.692-8.26-8.25 0-4.555 3.695-8.25 8.26-8.25m44.034-40.563a8.25 8.25 0 0 1 0 16.5c-4.559 0-8.257-3.691-8.257-8.25 0-4.554 3.698-8.25 8.257-8.25m43.696-1.03c5.13 0 9.285 4.155 9.285 9.28 0 5.126-4.156 9.282-9.285 9.282-5.133 0-9.293-4.156-9.293-9.281 0-5.126 4.16-9.282 9.293-9.282m0-41.937c5.697 0 10.32 4.616 10.32 10.312s-4.623 10.313-10.32 10.313c-5.704 0-10.321-4.617-10.321-10.313 0-5.696 4.617-10.312 10.32-10.312m21.672 59.125c5.7 0 10.32 4.616 10.32 10.312s-4.62 10.313-10.32 10.313c-5.701 0-10.322-4.617-10.322-10.313 0-5.696 4.62-10.312 10.322-10.312m0-40.563c5.7 0 10.32 4.617 10.32 10.313 0 5.696-4.62 10.312-10.32 10.312-5.701 0-10.322-4.616-10.322-10.312s4.62-10.313 10.322-10.313m22.018 22.344c5.7 0 10.321 4.617 10.321 10.313 0 5.695-4.62 10.312-10.321 10.312-5.697 0-10.321-4.617-10.321-10.313 0-5.695 4.624-10.312 10.32-10.312m-43.688 40.563c5.697 0 10.32 4.616 10.32 10.312s-4.623 10.313-10.32 10.313c-5.704 0-10.321-4.617-10.321-10.313 0-5.696 4.617-10.313 10.32-10.313M224.904 82.5c5.13 0 9.289 4.156 9.289 9.281 0 5.129-4.16 9.281-9.29 9.281-5.129 0-9.288-4.152-9.288-9.28 0-5.126 4.16-9.282 9.289-9.282m0 39.875c5.7 0 10.32 4.62 10.32 10.313 0 5.695-4.62 10.312-10.32 10.312s-10.321-4.617-10.321-10.313c0-5.692 4.62-10.312 10.32-10.312m0-80.438c5.13 0 9.29 4.156 9.29 9.282 0 5.125-4.16 9.281-9.29 9.281-5.129 0-9.288-4.156-9.288-9.281 0-5.126 4.16-9.282 9.289-9.282M203.23 23.375c5.133 0 9.292 4.156 9.292 9.281 0 5.126-4.16 9.282-9.292 9.282-5.13 0-9.29-4.156-9.29-9.282 0-5.125 4.16-9.281 9.29-9.281M224.903 0c5.7 0 10.32 4.617 10.32 10.313 0 5.695-4.62 10.312-10.32 10.312s-10.321-4.617-10.321-10.313c0-5.695 4.62-10.312 10.32-10.312M181.21 123.41c5.13 0 9.29 4.156 9.29 9.278 0 5.125-4.16 9.28-9.29 9.28-5.13 0-9.289-4.155-9.289-9.28 0-5.122 4.16-9.278 9.29-9.278M49.787 126.5a6.19 6.19 0 0 1 6.193 6.188 6.194 6.194 0 0 1-12.385 0 6.19 6.19 0 0 1 6.192-6.188m-21.674-99a5.156 5.156 0 1 1 0 10.313 5.158 5.158 0 0 1-5.16-5.157 5.16 5.16 0 0 1 5.16-5.156m21.674 59.125a5.16 5.16 0 0 1 5.16 5.156 5.158 5.158 0 0 1-5.16 5.156 5.158 5.158 0 0 1-5.16-5.156 5.16 5.16 0 0 1 5.16-5.156m0-82.5a6.19 6.19 0 0 1 6.193 6.188 6.19 6.19 0 0 1-6.193 6.187 6.19 6.19 0 0 1-6.192-6.188 6.19 6.19 0 0 1 6.192-6.187M28.114 68.406a5.156 5.156 0 1 1 0 10.313 5.158 5.158 0 0 1-5.16-5.156 5.16 5.16 0 0 1 5.16-5.157m21.674-22.344a5.16 5.16 0 0 1 5.16 5.157 5.158 5.158 0 0 1-5.16 5.156 5.158 5.158 0 0 1-5.16-5.156 5.16 5.16 0 0 1 5.16-5.157M6.096 86.626a5.156 5.156 0 1 1 0 10.313A5.158 5.158 0 0 1 .935 91.78a5.16 5.16 0 0 1 5.16-5.156m0 40.906a5.156 5.156 0 1 1 0 10.313 5.158 5.158 0 0 1-5.16-5.157 5.16 5.16 0 0 1 5.16-5.156m0-122.375a5.156 5.156 0 1 1 0 10.313 5.158 5.158 0 0 1-5.16-5.157 5.16 5.16 0 0 1 5.16-5.156m22.02 103.815a5.156 5.156 0 1 1 0 10.313 5.158 5.158 0 0 1-5.16-5.157 5.16 5.16 0 0 1 5.16-5.156M6.096 46.063a5.156 5.156 0 1 1 0 10.313 5.158 5.158 0 0 1-5.161-5.157 5.16 5.16 0 0 1 5.16-5.157m87.73-1.03a6.19 6.19 0 0 1 6.193 6.187 6.19 6.19 0 0 1-6.193 6.187 6.19 6.19 0 0 1-6.193-6.187 6.19 6.19 0 0 1 6.193-6.188m43.693 79.406c4.558 0 8.256 3.696 8.256 8.25 0 4.559-3.698 8.25-8.256 8.25-4.559 0-8.257-3.691-8.257-8.25 0-4.554 3.698-8.25 8.257-8.25m-22.019-17.53a7.22 7.22 0 0 1 7.225 7.218 7.22 7.22 0 0 1-7.225 7.219 7.22 7.22 0 0 1-7.225-7.219 7.22 7.22 0 0 1 7.225-7.219M93.825 3.094a7.223 7.223 0 0 1 7.225 7.219 7.22 7.22 0 0 1-7.225 7.218 7.22 7.22 0 0 1-7.225-7.218 7.223 7.223 0 0 1 7.225-7.22m21.674 22.345a7.223 7.223 0 0 1 7.225 7.218 7.22 7.22 0 0 1-7.225 7.219 7.22 7.22 0 0 1-7.225-7.219 7.223 7.223 0 0 1 7.225-7.218m-43.692 82.5a6.188 6.188 0 0 1 0 12.375 6.188 6.188 0 1 1 0-12.376m43.692-40.562a6.188 6.188 0 1 1 0 12.375 6.19 6.19 0 0 1-6.192-6.188 6.19 6.19 0 0 1 6.192-6.187m-43.692 1.031a5.156 5.156 0 1 1 0 10.313 5.158 5.158 0 0 1-5.161-5.156 5.16 5.16 0 0 1 5.16-5.157m0-41.937A6.19 6.19 0 0 1 78 32.656a6.19 6.19 0 0 1-6.192 6.188 6.19 6.19 0 0 1-6.193-6.188 6.19 6.19 0 0 1 6.193-6.187m22.018 59.125a6.188 6.188 0 0 1 0 12.375 6.188 6.188 0 1 1 0-12.375m0 39.875a7.223 7.223 0 0 1 7.225 7.219 7.22 7.22 0 0 1-7.225 7.218 7.22 7.22 0 0 1-7.225-7.219 7.223 7.223 0 0 1 7.225-7.218" fill="#7CADD3" fill-rule="evenodd" fill-opacity=".15"/></svg>