<svg xmlns="http://www.w3.org/2000/svg" width="169" height="40" viewBox="0 0 169 40"><path d="M122.94 40v-5.882l-6.772-7.606h2.766l5.22 6.012 4.989-6.012h2.714l-6.694 7.554V40h-2.222zm-12.766-11.684h-10.44v9.802h10.44V34.17h-5.402v-1.724h7.624v4.365c0 1.238-.22 2.078-.659 2.522-.44.445-1.262.667-2.468.667h-8.633c-1.205 0-2.028-.222-2.468-.667-.438-.444-.658-1.284-.658-2.522V29.7c0-1.237.22-2.079.658-2.523.44-.444 1.263-.666 2.468-.666h8.633c1.172 0 1.985.21 2.442.631.457.42.685 1.213.685 2.375v.34l-2.222.444v-1.986zm-22.304-.052h-7.65v4.73h7.65c.534 0 .909-.095 1.125-.287.215-.191.323-.558.323-1.098v-1.96c0-.523-.108-.884-.323-1.085-.216-.2-.59-.3-1.125-.3zM77.998 40V26.512h10.73c.98 0 1.694.205 2.141.614.448.41.671 1.077.671 2v3.006c0 .924-.223 1.59-.67 2-.448.409-1.161.614-2.14.614h-1.962l6.1 5.254H89.56l-5.422-5.254h-3.917V40h-2.223zm-18.246 0V26.512h12.844v1.804H61.974v3.763h6.487v1.778h-6.487v4.287H72.7V40H59.752zm-21.658 0V26.512h1.396l9.977 9.018c.483.436.992 1.002 1.526 1.7-.14-.837-.21-1.944-.21-3.32v-7.398h2.068V40h-1.24L41.35 30.615a36.492 36.492 0 0 1-.646-.6 4.396 4.396 0 0 1-.698-.915c.104.802.156 1.786.156 2.954V40h-2.068zm-13.206 0v-5.882l-6.771-7.606h2.765l5.22 6.012 4.988-6.012h2.714l-6.694 7.554V40h-2.222zM11.94 28.316H2.507v3.79h8.4c1.205 0 2.024.226 2.455.68.43.453.646 1.29.646 2.509v1.516c0 1.238-.216 2.078-.646 2.522-.431.445-1.25.667-2.455.667h-7.78C1.921 40 1.1 39.778.66 39.333.219 38.89 0 38.05 0 36.811v-.366l2.067-.497v2.17h9.925v-4.052H3.618c-1.188 0-2.003-.222-2.442-.666-.44-.445-.659-1.286-.659-2.523v-1.176c0-1.255.22-2.1.66-2.536.438-.435 1.253-.653 2.441-.653h7.107c1.137 0 1.943.206 2.417.618.474.412.71 1.182.71 2.309v.288l-1.912.55v-1.961zM85.094 7.219a.064.064 0 0 1-.065.064.064.064 0 1 1 0-.128c.036 0 .065.03.065.064m1.142-.263c0 .036-.03.064-.065.064a.064.064 0 1 1 0-.128c.035 0 .065.03.065.064m-.118-.178a.065.065 0 0 1-.129 0 .064.064 0 0 1 .129 0m1.044-.056a.094.094 0 0 1-.094.093.094.094 0 0 1-.096-.093c0-.052.043-.094.096-.094.052 0 .094.042.094.094m-.181-.294a.094.094 0 0 1-.095.093.094.094 0 0 1-.095-.093c0-.052.042-.094.095-.094s.095.042.095.094m.971.14a.094.094 0 0 1-.095.093.094.094 0 0 1-.095-.094.095.095 0 0 1 .19 0m-.182-.444a.094.094 0 0 1-.095.094.094.094 0 0 1-.094-.094c0-.052.042-.093.094-.093.053 0 .095.041.095.093m.997.25a.094.094 0 0 1-.095.092.094.094 0 1 1 0-.187c.053 0 .095.042.095.094m-.221-.189a.094.094 0 0 1-.095-.093c0-.052.042-.094.095-.094s.095.042.095.094a.094.094 0 0 1-.095.093m-.123-.293a.093.093 0 0 1 0-.187c.052 0 .095.042.095.094a.094.094 0 0 1-.095.093m1.347.31a.12.12 0 0 1-.12.118.12.12 0 0 1-.12-.118.12.12 0 0 1 .12-.119.12.12 0 0 1 .12.12m-.28-.24a.119.119 0 0 1-.12-.119c0-.065.053-.118.12-.118a.12.12 0 0 1 .12.118.12.12 0 0 1-.12.119m-.156-.371a.12.12 0 0 1-.12-.119.12.12 0 0 1 .12-.118.12.12 0 0 1 .12.118.12.12 0 0 1-.12.119m1.442.44a.12.12 0 0 1-.121.118.12.12 0 0 1-.12-.118.12.12 0 0 1 .12-.119.12.12 0 0 1 .12.119m-.261-.19a.12.12 0 0 1-.12-.119.12.12 0 0 1 .12-.118.12.12 0 0 1 .12.118.12.12 0 0 1-.12.119m-.138-.298a.12.12 0 0 1-.12-.12.12.12 0 0 1 .12-.117c.067 0 .12.053.12.118a.119.119 0 0 1-.12.119m-.124-.32a.12.12 0 0 1-.12-.119.12.12 0 0 1 .12-.118.12.12 0 0 1 .12.118.12.12 0 0 1-.12.119m1.57.63a.14.14 0 0 1-.142.138.14.14 0 0 1-.14-.138.14.14 0 0 1 .14-.14.14.14 0 0 1 .141.14m-.306-.223a.14.14 0 0 1-.14-.139.14.14 0 0 1 .14-.138.14.14 0 0 1 .14.138.14.14 0 0 1-.14.14m-.162-.35a.14.14 0 0 1-.14-.14.14.14 0 0 1 .14-.138.14.14 0 0 1 .141.139.14.14 0 0 1-.14.138m-.146-.374a.14.14 0 0 1-.141-.138.14.14 0 0 1 .141-.14.14.14 0 0 1 .14.14.14.14 0 0 1-.14.138m1.727.776c0 .09-.074.162-.165.162a.163.163 0 0 1-.165-.162c0-.09.074-.162.165-.162.091 0 .165.073.165.162m-.358-.26a.164.164 0 0 1-.165-.163c0-.09.074-.162.165-.162.09 0 .165.073.165.162 0 .09-.074.163-.165.163m-.19-.41a.163.163 0 0 1-.164-.161c0-.09.074-.163.165-.163.091 0 .165.073.165.163 0 .09-.074.162-.165.162m-.17-.438a.163.163 0 0 1-.165-.162c0-.09.073-.163.164-.163a.163.163 0 0 1 0 .325m1.885.946a.185.185 0 0 1-.186.183.185.185 0 0 1-.186-.183c0-.1.083-.183.186-.183s.186.082.186.183m-.404-.294a.185.185 0 0 1-.187-.184.186.186 0 0 1 .372 0 .185.185 0 0 1-.185.184m-.214-.462a.185.185 0 0 1-.186-.183c0-.101.083-.183.186-.183s.186.082.186.183a.184.184 0 0 1-.186.183m-.192-.494a.185.185 0 0 1-.186-.183c0-.101.083-.183.186-.183.102 0 .185.082.185.183 0 .1-.083.183-.185.183m2.143 1.104c0 .12-.1.217-.222.217a.22.22 0 0 1-.22-.217.22.22 0 0 1 .22-.218.22.22 0 0 1 .222.218m-.48-.35a.219.219 0 0 1-.221-.217.22.22 0 0 1 .22-.218.22.22 0 0 1 .221.218c0 .12-.099.217-.22.217m-.254-.547a.219.219 0 0 1-.22-.217.22.22 0 0 1 .22-.218.22.22 0 0 1 .22.218c0 .12-.098.217-.22.217m-.228-.587a.22.22 0 0 1-.221-.218c0-.12.099-.217.221-.217.121 0 .22.097.22.217s-.099.218-.22.218m2.313 1.344c0 .135-.11.245-.248.245a.246.246 0 0 1-.248-.245c0-.135.111-.244.248-.244s.248.11.248.244m-.54-.392a.247.247 0 0 1-.248-.245c0-.135.111-.244.249-.244.136 0 .248.109.248.244a.247.247 0 0 1-.248.245m-.286-.617a.246.246 0 0 1-.248-.244c0-.135.112-.244.248-.244.138 0 .249.109.249.244a.246.246 0 0 1-.249.244m-.256-.66a.246.246 0 0 1-.249-.244c0-.135.112-.244.249-.244s.248.11.248.244a.246.246 0 0 1-.248.245M98.23 5.12a.275.275 0 0 1-.277.274.275.275 0 0 1-.277-.274c0-.15.124-.272.277-.272.153 0 .277.122.277.272m-.603-.438a.275.275 0 0 1-.277-.273c0-.15.124-.273.277-.273.153 0 .278.123.278.273a.276.276 0 0 1-.278.273m-.317-.688a.275.275 0 0 1-.278-.272c0-.151.125-.274.278-.274.153 0 .277.123.277.274 0 .15-.124.272-.277.272m-.287-.737a.275.275 0 0 1-.278-.272c0-.152.124-.273.278-.273.153 0 .277.121.277.273 0 .15-.124.272-.277.272m2.82 1.821a.319.319 0 0 1-.322.316.318.318 0 0 1-.32-.316c0-.174.143-.316.32-.316.178 0 .321.142.321.316m-.697-.507a.318.318 0 0 1-.321-.316c0-.174.143-.316.32-.316.178 0 .321.142.321.316a.318.318 0 0 1-.32.316m-.368-.796a.318.318 0 0 1-.321-.315c0-.175.144-.317.32-.317a.32.32 0 0 1 .322.317.318.318 0 0 1-.321.315m-.332-.852a.32.32 0 0 1-.321-.316c0-.174.144-.316.321-.316.177 0 .32.142.32.316a.319.319 0 0 1-.32.316m3.106 2.068c0 .195-.16.353-.358.353a.355.355 0 0 1-.358-.353c0-.194.16-.352.358-.352.197 0 .358.158.358.352m-.779-.565a.355.355 0 0 1-.357-.353c0-.194.16-.352.357-.352.198 0 .358.158.358.352 0 .195-.16.353-.358.353m-.41-.888a.355.355 0 0 1-.357-.352c0-.195.16-.353.358-.353.197 0 .357.158.357.353 0 .195-.16.352-.357.352m-.37-.95a.355.355 0 0 1-.358-.353c0-.194.16-.352.358-.352.197 0 .357.158.357.352 0 .195-.16.352-.357.352m3.322 2.385c0 .216-.177.39-.396.39a.393.393 0 0 1-.396-.39c0-.215.177-.39.396-.39.219 0 .396.175.396.39m-.861-.626a.393.393 0 0 1-.396-.39c0-.215.177-.39.396-.39.219 0 .396.175.396.39 0 .216-.177.39-.396.39m-.454-.98a.393.393 0 0 1-.396-.39c0-.216.177-.39.396-.39.22 0 .396.174.396.39 0 .215-.177.39-.396.39m-.41-1.053a.393.393 0 0 1-.395-.39c0-.215.177-.39.396-.39.218 0 .396.175.396.39 0 .216-.178.39-.396.39m3.603 2.67a.434.434 0 0 1-.438.432.434.434 0 0 1-.437-.431c0-.238.195-.431.437-.431s.438.193.438.43m-.952-.69a.434.434 0 0 1-.438-.431c0-.238.197-.431.438-.431s.437.193.437.43a.434.434 0 0 1-.437.431m-.501-1.084a.434.434 0 0 1-.438-.432c0-.237.196-.43.438-.43.241 0 .437.193.437.43a.435.435 0 0 1-.437.432m-.89-1.594c0-.238.196-.43.437-.43.242 0 .438.192.438.43s-.196.43-.438.43a.434.434 0 0 1-.437-.43m4.406 3.475c0 .265-.219.48-.489.48a.485.485 0 0 1-.488-.48c0-.266.219-.481.488-.481.27 0 .489.215.489.48m-1.062-.771a.485.485 0 0 1-.488-.481c0-.265.219-.48.488-.48.27 0 .488.215.488.48s-.218.48-.488.48m-.56-1.21a.485.485 0 0 1-.488-.481c0-.265.22-.48.489-.48.27 0 .487.215.487.48 0 .266-.218.48-.487.48m-.994-1.777c0-.266.22-.48.489-.48s.488.214.488.48c0 .265-.219.48-.488.48a.485.485 0 0 1-.489-.48m4.55 3.872a.527.527 0 0 1-.532.523.527.527 0 0 1-.531-.523c0-.29.238-.524.531-.524.294 0 .532.234.532.524m-1.156-.841a.527.527 0 0 1-.531-.524c0-.289.238-.523.53-.523.295 0 .532.234.532.523 0 .29-.237.524-.531.524m-.61-1.318a.527.527 0 0 1-.53-.524c0-.289.237-.523.53-.523.294 0 .532.234.532.523 0 .29-.238.524-.531.524m-1.082-1.937c0-.289.238-.523.531-.523.294 0 .532.234.532.523 0 .29-.238.524-.532.524a.528.528 0 0 1-.531-.524m4.97 4.263a.57.57 0 0 1-.575.567.571.571 0 0 1-.576-.567.57.57 0 0 1 .576-.566.57.57 0 0 1 .575.566m-1.25-.91a.57.57 0 0 1-.576-.565.57.57 0 0 1 .575-.567.57.57 0 0 1 .576.567.571.571 0 0 1-.576.566m-.659-1.427a.57.57 0 0 1-.575-.565.57.57 0 0 1 .575-.567.57.57 0 0 1 .575.567.57.57 0 0 1-.575.565m-1.17-2.094c0-.313.258-.567.575-.567a.57.57 0 0 1 .575.567.57.57 0 0 1-.575.566.57.57 0 0 1-.575-.566m5.043 4.598a.61.61 0 0 1-.615.607.61.61 0 0 1-.615-.607.61.61 0 0 1 .615-.605.61.61 0 0 1 .615.605m-1.337-.972a.61.61 0 0 1-.616-.606.61.61 0 0 1 .616-.606.61.61 0 0 1 .615.606.61.61 0 0 1-.615.606m-.705-2.738a.61.61 0 0 1 .615.607.61.61 0 0 1-.615.605.61.61 0 0 1-.615-.605.61.61 0 0 1 .615-.607M109.985.796A.61.61 0 0 1 110.6.19a.61.61 0 0 1 .615.606.61.61 0 0 1-.615.606.61.61 0 0 1-.615-.606m5.216 4.968a.648.648 0 0 1-.653.644.648.648 0 0 1-.653-.644c0-.354.292-.642.653-.642.36 0 .653.288.653.642m-1.42-1.031a.648.648 0 0 1-.653-.644c0-.354.292-.643.653-.643.36 0 .652.289.652.643a.648.648 0 0 1-.652.644m-.748-2.905c.36 0 .652.287.652.643a.648.648 0 0 1-.652.643.648.648 0 0 1-.653-.643c0-.356.292-.643.653-.643M111.704.735c0-.355.293-.642.653-.642.36 0 .653.287.653.642a.648.648 0 0 1-.653.643.648.648 0 0 1-.653-.643m5.392 5.26c0 .393-.322.71-.72.71a.715.715 0 0 1-.72-.71c0-.39.322-.708.72-.708.398 0 .72.318.72.709m-1.502-1.054a.714.714 0 0 1-.72-.71c0-.391.322-.708.72-.708.398 0 .72.317.72.709a.715.715 0 0 1-.72.709m-.783-3.183c.398 0 .72.317.72.709a.715.715 0 0 1-.72.709.714.714 0 0 1-.72-.71c0-.391.323-.708.72-.708m-1.4-1.037c0-.392.322-.71.72-.71.397 0 .72.318.72.71a.715.715 0 0 1-.72.709.715.715 0 0 1-.72-.71m5.529 5.397a.8.8 0 0 1-.806.794.8.8 0 0 1-.806-.794c0-.439.36-.793.806-.793a.8.8 0 0 1 .806.793m-1.607-2.595a.8.8 0 0 1 .806.794.8.8 0 0 1-.806.793.8.8 0 0 1-.806-.793.8.8 0 0 1 .806-.794m.026-.959a.8.8 0 0 1-.806.794.8.8 0 0 1-.806-.794.8.8 0 0 1 .806-.794.8.8 0 0 1 .806.794m-2.33-1.758a.8.8 0 0 1 .806-.793.8.8 0 0 1 .806.793.8.8 0 0 1-.806.794.8.8 0 0 1-.805-.794m1.647.002c0-.446.367-.808.82-.808.453 0 .82.362.82.808a.814.814 0 0 1-.82.808.814.814 0 0 1-.82-.808m7.853 5.723a.971.971 0 0 0-.159-.406 1.023 1.023 0 0 0 .551-.037 1.02 1.02 0 0 0-.392.443m-1.327-.784a.995.995 0 0 0 .375-.416c.028.138.084.266.162.378a1.015 1.015 0 0 0-.206-.021.98.98 0 0 0-.33.06m-.645.687v-.002a.952.952 0 0 0-.202-.584c.099.03.202.052.31.052.117 0 .227-.023.331-.059a.993.993 0 0 0-.439.593m-1.313-.919a.976.976 0 0 0 .417-.54c.015.2.087.382.204.532a.983.983 0 0 0-.297-.05.988.988 0 0 0-.324.058m2.573-1.249c.207 0 .4-.061.56-.165l.015.04a1.024 1.024 0 0 0-.736.564.99.99 0 0 0-.39-.599c.159.1.347.16.55.16m-.496-3.906a1.055 1.055 0 0 0-.213-.022l-.012.001-.095-.01.006.018a1.022 1.022 0 0 0-.824.568 1.006 1.006 0 0 0-.97-.73c-.438 0-.807.275-.948.658a.987.987 0 0 0-.967-.77.983.983 0 0 0-.99.975c0 .539.444.975.99.975a.986.986 0 0 0 .925-.637c.096.452.503.79.99.79.4 0 .743-.23.907-.562.118.43.514.748.988.748.205 0 .395-.06.556-.162l.02.055a1.021 1.021 0 0 0-.792.566 1.008 1.008 0 0 0-.98-.763c-.447 0-.821.286-.956.68a.983.983 0 0 0-.975-.831.985.985 0 0 0-.935.67.814.814 0 0 0-.819-.787.815.815 0 0 0-.82.808c0 .446.367.808.82.808a.82.82 0 0 0 .765-.521.981.981 0 0 0 .99.97c.434 0 .8-.277.932-.66.07.483.488.855.997.855.401 0 .745-.231.908-.565.057.238.197.44.39.581a1.007 1.007 0 0 0-1.506.553.99.99 0 1 0-1.89-.314.816.816 0 0 0-.806-.66.814.814 0 0 0-.82.809c0 .446.367.808.82.808a.82.82 0 0 0 .736-.456.982.982 0 0 0 1.3.802.973.973 0 0 0-.43.58.816.816 0 0 0-.805-.665.814.814 0 0 0-.82.808c0 .446.367.808.82.808a.817.817 0 0 0 .784-.581.98.98 0 0 0 .977.848c.46 0 .843-.311.954-.73l-.001.007c0 .55.452.997 1.011.997.41 0 .762-.242.921-.588.073.48.485.85.989.86-.008.007-.015.016-.025.019 12.026 1.552 24.832 1.849 42.949-6.402l.168-.118c-18.129 4.558-30.734.225-45.214-1.091M48.416 16.52a.064.064 0 0 1-.065.064.065.065 0 0 1-.065-.064c0-.035.029-.064.065-.064.036 0 .065.03.065.064m1.142-.262c0 .035-.03.063-.066.063a.064.064 0 1 1 0-.128c.036 0 .066.03.066.065m-.118-.18a.065.065 0 0 1-.13 0 .065.065 0 0 1 .13.001m1.044-.056a.094.094 0 0 1-.095.094.094.094 0 0 1-.095-.094c0-.052.043-.094.095-.094.052 0 .095.042.095.094m-.182-.294a.094.094 0 0 1-.094.094.094.094 0 0 1-.095-.094c0-.052.042-.094.095-.094.052 0 .094.042.094.094m.972.14a.094.094 0 0 1-.095.093.094.094 0 0 1-.095-.093c0-.052.043-.094.095-.094.052 0 .095.042.095.094m-.182-.445a.094.094 0 0 1-.095.094.094.094 0 0 1-.095-.094c0-.052.043-.093.095-.093.053 0 .095.041.095.093m.997.25a.094.094 0 0 1-.095.092.094.094 0 0 1-.095-.093c0-.052.042-.094.095-.094.052 0 .095.042.095.094m-.221-.189a.094.094 0 0 1-.095-.093c0-.052.042-.094.095-.094a.094.094 0 1 1 0 .187m-.123-.292a.094.094 0 0 1-.095-.094c0-.052.042-.093.095-.093.052 0 .094.041.094.093a.094.094 0 0 1-.094.094m1.347.31a.12.12 0 0 1-.12.117.12.12 0 0 1-.12-.118.12.12 0 0 1 .12-.119.12.12 0 0 1 .12.12m-.28-.24a.12.12 0 0 1-.12-.119c0-.065.053-.118.12-.118a.12.12 0 0 1 .12.118.12.12 0 0 1-.12.119m-.156-.37a.12.12 0 0 1-.12-.12.12.12 0 0 1 .12-.118.12.12 0 0 1 .12.119.12.12 0 0 1-.12.118m1.441.44a.12.12 0 0 1-.12.118.12.12 0 0 1-.12-.118.12.12 0 0 1 .12-.118.12.12 0 0 1 .12.118m-.262-.19a.12.12 0 0 1-.12-.118.12.12 0 0 1 .12-.12.12.12 0 0 1 .12.12.12.12 0 0 1-.12.118m-.137-.298a.12.12 0 0 1-.12-.12c0-.064.053-.117.12-.117a.12.12 0 0 1 .12.118.12.12 0 0 1-.12.119m-.125-.32a.12.12 0 0 1-.12-.118.12.12 0 0 1 .12-.119.12.12 0 0 1 .12.119.12.12 0 0 1-.12.118m1.57.63a.14.14 0 0 1-.14.139.14.14 0 0 1-.142-.139.14.14 0 0 1 .141-.14.14.14 0 0 1 .141.14m-.306-.223a.14.14 0 0 1-.141-.138.14.14 0 0 1 .14-.14.14.14 0 0 1 .142.14.14.14 0 0 1-.141.138m-.162-.349a.14.14 0 0 1-.14-.14.14.14 0 0 1 .14-.138.14.14 0 0 1 .141.139.14.14 0 0 1-.14.139m-.146-.374a.14.14 0 0 1-.141-.14.14.14 0 0 1 .14-.138.14.14 0 0 1 .141.139.14.14 0 0 1-.14.139m1.727.775c0 .09-.074.163-.165.163a.164.164 0 0 1-.165-.163c0-.09.074-.162.165-.162.091 0 .165.073.165.162m-.359-.26a.164.164 0 0 1-.165-.162c0-.09.074-.163.165-.163.091 0 .165.073.165.163 0 .09-.074.162-.165.162m-.189-.409a.163.163 0 0 1-.164-.162c0-.09.073-.163.164-.163a.163.163 0 0 1 0 .325m-.17-.438a.163.163 0 0 1-.165-.162c0-.09.074-.163.165-.163.091 0 .165.073.165.163 0 .09-.074.162-.165.162m1.885.946a.185.185 0 0 1-.187.183.185.185 0 0 1-.185-.183c0-.1.083-.183.185-.183.103 0 .187.082.187.183m-.405-.294a.185.185 0 0 1-.186-.183c0-.101.083-.184.186-.184s.186.083.186.184a.185.185 0 0 1-.186.183m-.213-.462a.185.185 0 0 1-.187-.183c0-.1.084-.183.187-.183.102 0 .186.082.186.183a.185.185 0 0 1-.186.183m-.193-.494a.185.185 0 0 1-.186-.183c0-.101.083-.183.186-.183s.186.082.186.183a.184.184 0 0 1-.186.183m2.143 1.104a.22.22 0 0 1-.221.217.219.219 0 0 1-.22-.217c0-.12.098-.218.22-.218a.22.22 0 0 1 .221.218m-.48-.35a.22.22 0 0 1-.221-.217.22.22 0 0 1 .221-.217.22.22 0 0 1 .22.217.22.22 0 0 1-.22.218m-.253-.548a.219.219 0 0 1-.221-.217.22.22 0 0 1 .22-.218.22.22 0 0 1 .221.218c0 .12-.099.217-.22.217m-.229-.587a.219.219 0 0 1-.22-.217.22.22 0 0 1 .22-.218.22.22 0 0 1 .221.218c0 .12-.099.217-.22.217m2.313 1.344a.247.247 0 0 1-.248.245.247.247 0 0 1-.249-.245c0-.135.111-.244.249-.244.137 0 .248.11.248.244m-.54-.392a.246.246 0 0 1-.248-.245c0-.135.11-.244.248-.244.137 0 .248.11.248.244 0 .136-.11.245-.248.245m-.285-.616a.247.247 0 0 1-.248-.245c0-.135.111-.244.248-.244s.249.11.249.244a.247.247 0 0 1-.25.245m-.256-.66a.246.246 0 0 1-.248-.245c0-.135.111-.244.248-.244.138 0 .248.11.248.244 0 .136-.11.245-.248.245m2.527 1.556c0 .15-.124.273-.277.273a.275.275 0 0 1-.278-.273c0-.151.124-.273.278-.273.153 0 .277.122.277.273m-.603-.439a.275.275 0 0 1-.277-.272c0-.151.124-.274.277-.274.153 0 .277.123.277.274 0 .15-.124.272-.277.272m-.318-.688a.275.275 0 0 1-.277-.272c0-.15.124-.274.277-.274.153 0 .277.123.277.274 0 .15-.124.272-.277.272m-.286-.737a.275.275 0 0 1-.278-.272c0-.151.124-.273.278-.273.153 0 .276.122.276.273 0 .15-.123.272-.276.272m2.819 1.821a.319.319 0 0 1-.321.316.318.318 0 0 1-.32-.316c0-.174.143-.316.32-.316.177 0 .32.142.32.316m-.697-.507a.318.318 0 0 1-.32-.316c0-.174.143-.316.32-.316.177 0 .32.142.32.316a.318.318 0 0 1-.32.316m-.367-.796a.318.318 0 0 1-.321-.315c0-.175.143-.316.32-.316.178 0 .321.141.321.316a.318.318 0 0 1-.32.315m-.332-.852a.319.319 0 0 1-.321-.316c0-.174.143-.316.32-.316.178 0 .321.142.321.316a.318.318 0 0 1-.32.316m3.105 2.068c0 .195-.16.353-.358.353a.355.355 0 0 1-.358-.353c0-.194.16-.352.358-.352.197 0 .358.158.358.352m-.778-.565a.355.355 0 0 1-.358-.353c0-.194.16-.352.358-.352.197 0 .358.158.358.352 0 .195-.16.353-.358.353m-.41-.888a.355.355 0 0 1-.358-.352c0-.194.16-.352.358-.352.197 0 .358.158.358.352 0 .195-.16.352-.358.352m-.37-.95a.355.355 0 0 1-.358-.353c0-.194.16-.352.358-.352.198 0 .357.158.357.352 0 .195-.16.353-.357.353m3.323 2.385c0 .215-.178.39-.396.39a.393.393 0 0 1-.396-.39c0-.216.177-.39.396-.39.218 0 .396.174.396.39m-.861-.626a.393.393 0 0 1-.396-.39c0-.215.177-.39.396-.39.218 0 .396.175.396.39 0 .215-.178.39-.396.39m-.454-.982a.393.393 0 0 1-.396-.39c0-.215.177-.39.396-.39.218 0 .396.175.396.39 0 .215-.178.39-.396.39m-.41-1.052a.392.392 0 0 1-.395-.39c0-.215.176-.39.395-.39.22 0 .396.175.396.39 0 .215-.177.39-.396.39m3.603 2.67a.434.434 0 0 1-.438.43.434.434 0 0 1-.437-.43c0-.238.196-.43.437-.43.242 0 .438.192.438.43m-.951-.691a.435.435 0 0 1-.438-.431c0-.238.196-.43.438-.43.241 0 .437.192.437.43a.434.434 0 0 1-.437.43m-.502-1.084a.435.435 0 0 1-.437-.431c0-.238.196-.43.437-.43.242 0 .438.192.438.43a.434.434 0 0 1-.438.43m-.89-1.592c0-.238.196-.432.438-.432.241 0 .437.194.437.432 0 .237-.196.43-.437.43a.434.434 0 0 1-.438-.43m4.406 3.474c0 .265-.219.48-.488.48a.485.485 0 0 1-.488-.48c0-.266.219-.481.488-.481.27 0 .488.215.488.48m-1.061-.771a.485.485 0 0 1-.488-.48c0-.266.218-.482.488-.482s.488.216.488.481-.219.481-.488.481m-.56-1.211a.485.485 0 0 1-.488-.48c0-.266.219-.481.488-.481.27 0 .488.215.488.48 0 .266-.218.48-.488.48m-.993-1.777c0-.266.219-.48.488-.48.27 0 .489.214.489.48s-.22.48-.489.48a.484.484 0 0 1-.488-.48m4.55 3.872c0 .29-.239.523-.532.523a.527.527 0 0 1-.531-.523c0-.29.237-.524.53-.524.294 0 .533.235.533.524m-1.157-.84a.528.528 0 0 1-.531-.524c0-.29.238-.524.531-.524.294 0 .532.235.532.524 0 .29-.238.523-.532.523m-.609-1.318a.528.528 0 0 1-.531-.524c0-.289.238-.523.531-.523.294 0 .531.234.531.523 0 .29-.237.524-.531.524m-1.081-1.937c0-.289.238-.523.531-.523.294 0 .532.234.532.523 0 .29-.238.524-.532.524a.528.528 0 0 1-.531-.524m4.97 4.263a.571.571 0 0 1-.576.567.571.571 0 0 1-.575-.567.57.57 0 0 1 .575-.566.57.57 0 0 1 .575.566m-1.25-.909a.571.571 0 0 1-.576-.566.57.57 0 0 1 .575-.566.57.57 0 0 1 .576.566.571.571 0 0 1-.576.566m-.658-1.426a.571.571 0 0 1-.576-.566.57.57 0 0 1 .576-.567.57.57 0 0 1 .575.567.57.57 0 0 1-.575.566m-1.17-2.095a.57.57 0 0 1 .574-.566.57.57 0 0 1 .576.566.57.57 0 0 1-.576.566.57.57 0 0 1-.574-.566m5.043 4.599a.61.61 0 0 1-.615.606.61.61 0 0 1-.615-.606.61.61 0 0 1 .615-.606.61.61 0 0 1 .615.606m-1.338-.972a.61.61 0 0 1-.615-.607.61.61 0 0 1 .615-.605.61.61 0 0 1 .616.605.611.611 0 0 1-.616.607m-.705-2.738a.61.61 0 0 1 .615.606.61.61 0 0 1-.615.605.61.61 0 0 1-.615-.605.61.61 0 0 1 .615-.606m-1.251-1.03a.61.61 0 0 1 .615-.605.61.61 0 0 1 .615.606.61.61 0 0 1-.615.606.61.61 0 0 1-.615-.606m5.215 4.968a.648.648 0 0 1-.653.643.648.648 0 0 1-.653-.643c0-.355.293-.643.653-.643.36 0 .653.288.653.643m-1.42-1.032a.648.648 0 0 1-.652-.643c0-.355.292-.643.652-.643.36 0 .653.288.653.643a.648.648 0 0 1-.653.643m-.748-2.905c.36 0 .653.287.653.643a.648.648 0 0 1-.653.643.648.648 0 0 1-.653-.643c0-.356.293-.643.653-.643m-1.328-1.092c0-.356.292-.643.653-.643.36 0 .652.287.652.643a.648.648 0 0 1-.652.642.648.648 0 0 1-.653-.642m5.392 5.26c0 .392-.323.71-.72.71a.715.715 0 0 1-.72-.71c0-.391.322-.708.72-.708.397 0 .72.317.72.708m-1.503-1.054a.715.715 0 0 1-.72-.71c0-.39.323-.708.72-.708.398 0 .72.318.72.709 0 .391-.322.71-.72.71m-.782-3.184c.397 0 .72.317.72.709a.715.715 0 0 1-.72.709.714.714 0 0 1-.72-.709c0-.392.322-.71.72-.71m-1.402-1.036c0-.392.323-.709.72-.709.398 0 .72.317.72.709a.714.714 0 0 1-.72.709.715.715 0 0 1-.72-.71m5.53 5.397a.8.8 0 0 1-.806.794.8.8 0 0 1-.806-.794.8.8 0 0 1 .806-.793.8.8 0 0 1 .806.793m-1.607-2.595a.8.8 0 0 1 .806.794.8.8 0 0 1-.806.794.8.8 0 0 1-.805-.794.8.8 0 0 1 .805-.794m.027-.958a.8.8 0 0 1-.806.793.8.8 0 0 1-.806-.793.8.8 0 0 1 .806-.794.8.8 0 0 1 .806.794m-2.33-1.759a.8.8 0 0 1 .806-.793.8.8 0 0 1 .805.793.8.8 0 0 1-.805.794.8.8 0 0 1-.806-.794m1.647.003c0-.447.367-.809.82-.809.454 0 .821.362.821.809a.814.814 0 0 1-.82.807.814.814 0 0 1-.821-.807m7.854 5.722a.978.978 0 0 0-.16-.406 1.023 1.023 0 0 0 .551-.037c-.17.106-.308.26-.391.443m-1.327-.784a.998.998 0 0 0 .375-.416.992.992 0 0 0 .162.378 1.019 1.019 0 0 0-.537.038m-.645.688v-.002a.955.955 0 0 0-.201-.584c.098.031.201.053.31.053.116 0 .226-.024.33-.06a.992.992 0 0 0-.439.593m-1.313-.919a.974.974 0 0 0 .417-.54c.015.2.088.382.204.532a.986.986 0 0 0-.297-.05.987.987 0 0 0-.324.058m2.574-1.248c.206 0 .398-.062.56-.165l.015.04a1.023 1.023 0 0 0-.736.563.994.994 0 0 0-.391-.599c.16.1.348.16.552.16m-.497-3.906a1.06 1.06 0 0 0-.214-.022l-.011.002a6.687 6.687 0 0 0-.095-.01.257.257 0 0 1 .006.018 1.024 1.024 0 0 0-.824.567 1.006 1.006 0 0 0-.97-.73c-.439 0-.808.275-.949.659a.986.986 0 0 0-.966-.77.983.983 0 0 0-.99.975c0 .538.443.974.99.974a.986.986 0 0 0 .925-.637c.096.452.502.791.99.791.4 0 .742-.231.906-.563.118.43.514.748.988.748.206 0 .396-.06.557-.162l.02.056a1.02 1.02 0 0 0-.792.566 1.007 1.007 0 0 0-.982-.764c-.446 0-.82.287-.954.68a.983.983 0 0 0-.975-.83.985.985 0 0 0-.936.67.814.814 0 0 0-.818-.788.814.814 0 0 0-.82.808c0 .446.366.808.82.808a.82.82 0 0 0 .765-.521.982.982 0 0 0 .989.972c.435 0 .8-.279.933-.662a1.01 1.01 0 1 0 1.905.29c.056.238.197.441.39.581a1.007 1.007 0 0 0-1.506.553.98.98 0 0 0-.983-.902.989.989 0 0 0-.908.588.817.817 0 0 0-.806-.659.814.814 0 0 0-.82.808c0 .446.367.808.82.808a.82.82 0 0 0 .736-.456.98.98 0 0 0 1.301.802.975.975 0 0 0-.43.58.816.816 0 0 0-.806-.665.814.814 0 0 0-.82.808c0 .446.368.808.82.808a.816.816 0 0 0 .784-.581.98.98 0 0 0 .977.848c.46 0 .843-.31.954-.73v.007c0 .55.452.997 1.01.997.411 0 .763-.242.921-.588.073.48.485.85.99.86-.009.007-.016.016-.026.02 12.027 1.551 24.832 1.848 42.95-6.402l.167-.119c-18.129 4.558-30.734.226-45.213-1.09" fill="#FFF" fill-rule="evenodd"/></svg>