<svg id="Layer_1" xmlns="http://www.w3.org/2000/svg" width="364" height="86" viewBox="0 0 364 86"><style>.st0{fill:#fff}</style><path class="st0" d="M265.3 86.2V73.5l-14.6-16.4h6l11.3 13 10.8-13h5.9l-14.5 16.3v12.8h-4.9zM237.7 61h-22.6v21.2h22.6v-8.5H226V70h16.5v9.4c0 2.7-.5 4.5-1.4 5.4-1 1-2.7 1.4-5.3 1.4h-18.6c-2.6 0-4.4-.5-5.3-1.4-.9-1-1.4-2.8-1.4-5.4V64c0-2.7.5-4.5 1.4-5.4 1-1 2.7-1.4 5.3-1.4h18.6c2.5 0 4.3.5 5.3 1.4 1 .9 1.5 2.6 1.5 5.1v.7l-4.8 1V61zm-48.2-.2H173V71h16.5c1.2 0 2-.2 2.4-.6.5-.4.7-1.2.7-2.4v-4.2c0-1.1-.2-1.9-.7-2.3-.4-.4-1.2-.7-2.4-.7zm-21.3 25.4V57.1h23.2c2.1 0 3.7.4 4.6 1.3 1 .9 1.4 2.3 1.4 4.3v6.5c0 2-.5 3.4-1.4 4.3-1 .9-2.5 1.3-4.6 1.3h-4.2l13.2 11.3h-7.1l-11.7-11.3H173v11.3h-4.8zm-39.4 0V57.1h27.7V61h-22.9v8.1h14v3.8h-14v9.3h23.2v4h-28zm-46.8 0V57.1h3l21.5 19.5c1 .9 2.1 2.2 3.3 3.7-.3-1.8-.5-4.2-.5-7.2v-16h4.5v29.1h-2.7l-22-20.3c-.8-.8-1.3-1.2-1.4-1.3-.6-.6-1.1-1.3-1.5-2 .2 1.7.3 3.9.3 6.4v17.2H82zm-28.5 0V73.5L38.9 57.1h6l11.3 13 10.8-13h5.9L58.3 73.4v12.8h-4.8zM25.6 61H5.2v8.2h18.1c2.6 0 4.4.5 5.3 1.5.9 1 1.4 2.8 1.4 5.4v3.3c0 2.7-.5 4.5-1.4 5.4-.9 1-2.7 1.4-5.3 1.4H6.5c-2.6 0-4.4-.5-5.3-1.4-.9-1-1.4-2.8-1.4-5.4v-.8l4.5-1.1v4.7h21.4v-8.8H7.6c-2.6 0-4.3-.5-5.3-1.4-.9-1-1.4-2.8-1.4-5.4V64c0-2.7.5-4.5 1.4-5.5.9-.9 2.7-1.4 5.3-1.4h15.3c2.5 0 4.2.4 5.2 1.3s1.5 2.6 1.5 5v.6l-4.1 1.2V61zm158-45.6c0 .1-.1.1-.1.1-.1 0-.1-.1-.1-.1 0-.1.1-.1.1-.1s.1 0 .1.1m2.4-.6c0 .1-.1.1-.1.1-.1 0-.1-.1-.1-.1 0-.1.1-.1.1-.1.1 0 .1.1.1.1m-.2-.4c0 .1-.1.1-.1.1-.1 0-.1-.1-.1-.1l.1-.1.1.1m2.2-.1c0 .1-.1.2-.2.2s-.2-.1-.2-.2.1-.2.2-.2.2.1.2.2m-.4-.6c0 .1-.1.2-.2.2s-.2-.1-.2-.2.1-.2.2-.2.2.1.2.2m2.1.3c0 .1-.1.2-.2.2s-.2-.1-.2-.2.1-.2.2-.2.2.1.2.2m-.4-1c0 .1-.1.2-.2.2s-.2-.1-.2-.2.1-.2.2-.2.2.1.2.2m2.2.6c0 .1-.1.2-.2.2s-.2-.1-.2-.2.1-.2.2-.2.2.1.2.2m-.5-.4c-.1 0-.2-.1-.2-.2s.1-.2.2-.2.2.1.2.2-.1.2-.2.2m-.3-.7c-.1 0-.2-.1-.2-.2s.1-.2.2-.2.2.1.2.2 0 .2-.2.2m3 .7c0 .1-.1.3-.3.3s-.3-.1-.3-.3c0-.1.1-.3.3-.3s.3.2.3.3m-.7-.5c-.1 0-.3-.1-.3-.3 0-.1.1-.3.3-.3.1 0 .3.1.3.3 0 .2-.1.3-.3.3m-.3-.8c-.1 0-.3-.1-.3-.3 0-.1.1-.3.3-.3.1 0 .3.1.3.3 0 .2-.1.3-.3.3m3.1.9c0 .1-.1.3-.3.3-.1 0-.3-.1-.3-.3s.1-.3.3-.3c.2.1.3.2.3.3m-.5-.4c-.1 0-.3-.1-.3-.3 0-.1.1-.3.3-.3.1 0 .3.1.3.3-.1.2-.2.3-.3.3m-.3-.6c-.1 0-.3-.1-.3-.3 0-.1.1-.3.3-.3.1 0 .3.1.3.3-.1.2-.2.3-.3.3m-.3-.7c-.1 0-.3-.1-.3-.3 0-.1.1-.3.3-.3.1 0 .3.1.3.3 0 .2-.2.3-.3.3m3.4 1.3c0 .2-.1.3-.3.3-.2 0-.3-.1-.3-.3 0-.2.1-.3.3-.3.1 0 .3.2.3.3m-.7-.4c-.2 0-.3-.1-.3-.3 0-.2.1-.3.3-.3.2 0 .3.1.3.3 0 .1-.1.3-.3.3m-.3-.8c-.2 0-.3-.1-.3-.3 0-.2.1-.3.3-.3.2 0 .3.1.3.3 0 .2-.2.3-.3.3m-.3-.8c-.2 0-.3-.1-.3-.3 0-.2.1-.3.3-.3.2 0 .3.1.3.3 0 .2-.2.3-.3.3m3.7 1.7c0 .2-.2.3-.4.3s-.4-.2-.4-.3c0-.2.2-.4.4-.4s.4.2.4.4m-.8-.6c-.2 0-.4-.2-.4-.4s.2-.3.4-.3.4.2.4.3c0 .3-.2.4-.4.4m-.4-.9c-.2 0-.4-.2-.4-.4s.2-.4.4-.4.4.2.4.4c0 .3-.2.4-.4.4m-.4-.9c-.2 0-.4-.2-.4-.4s.2-.4.4-.4.4.2.4.4-.2.4-.4.4m4.1 2c0 .2-.2.4-.4.4s-.4-.2-.4-.4.2-.4.4-.4.4.2.4.4m-.9-.6c-.2 0-.4-.2-.4-.4s.2-.4.4-.4.4.2.4.4-.1.4-.4.4m-.4-1c-.2 0-.4-.2-.4-.4s.2-.4.4-.4.4.2.4.4-.2.4-.4.4m-.4-1.1c-.2 0-.4-.2-.4-.4s.2-.4.4-.4.4.2.4.4-.2.4-.4.4m4.6 2.4c0 .3-.2.5-.5.5s-.5-.2-.5-.5.2-.5.5-.5.5.3.5.5m-1.1-.7c-.3 0-.5-.2-.5-.5s.2-.5.5-.5.5.2.5.5c0 .2-.2.5-.5.5m-.5-1.2c-.3 0-.5-.2-.5-.5s.2-.5.5-.5.5.2.5.5-.2.5-.5.5m-.5-1.3c-.3 0-.5-.2-.5-.5s.2-.5.5-.5.5.2.5.5-.2.5-.5.5m5 2.9c0 .3-.2.5-.5.5s-.5-.2-.5-.5.2-.5.5-.5.5.2.5.5m-1.2-.8c-.3 0-.5-.2-.5-.5s.2-.5.5-.5.5.2.5.5c.1.2-.2.5-.5.5m-.6-1.4c-.3 0-.5-.2-.5-.5s.2-.5.5-.5.5.2.5.5c.1.3-.2.5-.5.5m-.5-1.4c-.3 0-.5-.2-.5-.5s.2-.5.5-.5.5.2.5.5-.2.5-.5.5m5.4 3.4c0 .3-.3.6-.6.6s-.6-.3-.6-.6.3-.6.6-.6c.4 0 .6.2.6.6m-1.3-1c-.3 0-.6-.3-.6-.6s.3-.6.6-.6.6.3.6.6c0 .4-.2.6-.6.6m-.7-1.5c-.3 0-.6-.3-.6-.6s.3-.6.6-.6.6.3.6.6c0 .4-.2.6-.6.6m-.6-1.6c-.3 0-.6-.3-.6-.6s.3-.6.6-.6.6.3.6.6c0 .4-.3.6-.6.6m6.1 4c0 .4-.3.7-.7.7-.4 0-.7-.3-.7-.7 0-.4.3-.7.7-.7.4 0 .7.3.7.7m-1.5-1.1c-.4 0-.7-.3-.7-.7s.3-.7.7-.7c.4 0 .7.3.7.7s-.3.7-.7.7m-.8-1.7c-.4 0-.7-.3-.7-.7 0-.4.3-.7.7-.7.4 0 .7.3.7.7 0 .4-.3.7-.7.7m-.7-1.9c-.4 0-.7-.3-.7-.7 0-.4.3-.7.7-.7.4 0 .7.3.7.7 0 .4-.3.7-.7.7m6.7 4.5c0 .4-.3.8-.8.8-.4 0-.8-.3-.8-.8 0-.4.3-.8.8-.8s.8.4.8.8m-1.7-1.2c-.4 0-.8-.3-.8-.8 0-.4.3-.8.8-.8s.8.3.8.8c0 .4-.4.8-.8.8m-.9-2c-.4 0-.8-.3-.8-.8s.3-.8.8-.8c.4 0 .8.3.8.8s-.3.8-.8.8m-.8-2c-.4 0-.8-.3-.8-.8s.3-.8.8-.8.8.3.8.8-.3.8-.8.8m7.2 5.1c0 .5-.4.8-.9.8s-.9-.4-.9-.8c0-.5.4-.8.9-.8s.9.4.9.8M221 9.2c-.5 0-.9-.4-.9-.8 0-.5.4-.8.9-.8s.9.4.9.8-.4.8-.9.8m-.9-2.1c-.5 0-.9-.4-.9-.8 0-.5.4-.8.9-.8s.9.4.9.8c-.1.4-.5.8-.9.8m-.9-2.3c-.5 0-.9-.4-.9-.8 0-.5.4-.8.9-.8s.9.4.9.8c-.1.4-.4.8-.9.8m7.8 5.8c0 .5-.4.9-.9.9s-.9-.4-.9-.9.4-.9.9-.9.9.4.9.9m-2.1-1.5c-.5 0-.9-.4-.9-.9s.4-.9.9-.9.9.4.9.9-.4.9-.9.9m-1.1-2.4c-.5 0-.9-.4-.9-.9s.4-.9.9-.9.9.4.9.9c.1.5-.4.9-.9.9m-1.9-3.4c0-.5.4-.9.9-.9s.9.4.9.9-.4.9-.9.9-.9-.4-.9-.9m9.5 7.5c0 .6-.5 1-1.1 1-.6 0-1.1-.5-1.1-1 0-.6.5-1 1.1-1 .6 0 1.1.4 1.1 1m-2.3-1.7c-.6 0-1.1-.5-1.1-1 0-.6.5-1 1.1-1 .6 0 1.1.5 1.1 1 0 .6-.5 1-1.1 1m-1.2-2.6c-.6 0-1.1-.5-1.1-1 0-.6.5-1 1.1-1 .6 0 1.1.5 1.1 1s-.5 1-1.1 1m-2.1-3.8c0-.6.5-1 1.1-1 .6 0 1.1.5 1.1 1 0 .6-.5 1-1.1 1-.7 0-1.1-.5-1.1-1m9.8 8.3c0 .6-.5 1.1-1.1 1.1-.6 0-1.1-.5-1.1-1.1 0-.6.5-1.1 1.1-1.1.6 0 1.1.5 1.1 1.1m-2.5-1.8c-.6 0-1.1-.5-1.1-1.1 0-.6.5-1.1 1.1-1.1.6 0 1.1.5 1.1 1.1.1.6-.5 1.1-1.1 1.1m-1.3-2.8c-.6 0-1.1-.5-1.1-1.1s.5-1.1 1.1-1.1c.6 0 1.1.5 1.1 1.1s-.5 1.1-1.1 1.1m-2.3-4.2c0-.6.5-1.1 1.1-1.1.6 0 1.1.5 1.1 1.1s-.5 1.1-1.1 1.1c-.6 0-1.1-.5-1.1-1.1m10.7 9.2c0 .7-.6 1.2-1.2 1.2s-1.2-.5-1.2-1.2.6-1.2 1.2-1.2 1.2.5 1.2 1.2m-2.7-2c-.7 0-1.2-.5-1.2-1.2s.6-1.2 1.2-1.2c.7 0 1.2.5 1.2 1.2s-.5 1.2-1.2 1.2m-1.4-3c-.7 0-1.2-.5-1.2-1.2s.6-1.2 1.2-1.2c.7 0 1.2.5 1.2 1.2 0 .6-.6 1.2-1.2 1.2m-2.6-4.6c0-.7.6-1.2 1.2-1.2.7 0 1.2.5 1.2 1.2s-.6 1.2-1.2 1.2c-.6.1-1.2-.5-1.2-1.2m10.9 10c0 .7-.6 1.3-1.3 1.3-.7 0-1.3-.6-1.3-1.3 0-.7.6-1.3 1.3-1.3.7 0 1.3.5 1.3 1.3m-2.9-2.1c-.7 0-1.3-.6-1.3-1.3 0-.7.6-1.3 1.3-1.3.7 0 1.3.6 1.3 1.3.1.7-.5 1.3-1.3 1.3m-1.5-6c.7 0 1.3.6 1.3 1.3 0 .7-.6 1.3-1.3 1.3-.7 0-1.3-.6-1.3-1.3 0-.7.6-1.3 1.3-1.3m-2.7-2.2c0-.7.6-1.3 1.3-1.3.7 0 1.3.6 1.3 1.3s-.6 1.3-1.3 1.3c-.7 0-1.3-.6-1.3-1.3m11.3 10.8c0 .8-.6 1.4-1.4 1.4-.8 0-1.4-.6-1.4-1.4 0-.8.6-1.4 1.4-1.4.7 0 1.4.6 1.4 1.4m-3.1-2.3c-.8 0-1.4-.6-1.4-1.4 0-.8.6-1.4 1.4-1.4.8 0 1.4.6 1.4 1.4 0 .8-.6 1.4-1.4 1.4m-1.6-6.2c.8 0 1.4.6 1.4 1.4s-.6 1.4-1.4 1.4-1.4-.6-1.4-1.4.6-1.4 1.4-1.4M241 1.4c0-.8.6-1.4 1.4-1.4.8 0 1.4.6 1.4 1.4s-.6 1.4-1.4 1.4c-.7 0-1.4-.6-1.4-1.4m11.7 11.4c0 .8-.7 1.5-1.6 1.5s-1.6-.7-1.6-1.5.7-1.5 1.6-1.5 1.6.6 1.6 1.5m-3.3-2.3c-.9 0-1.6-.7-1.6-1.5s.7-1.5 1.6-1.5c.9 0 1.6.7 1.6 1.5s-.7 1.5-1.6 1.5m-1.7-6.9c.9 0 1.6.7 1.6 1.5s-.7 1.5-1.6 1.5c-.9 0-1.6-.7-1.6-1.5.1-.8.8-1.5 1.6-1.5m-3-2.2c0-.8.7-1.5 1.6-1.5.9 0 1.6.7 1.6 1.5s-.7 1.5-1.6 1.5c-.9 0-1.6-.7-1.6-1.5m12 11.6c0 .9-.8 1.7-1.7 1.7-1 0-1.7-.8-1.7-1.7s.8-1.7 1.7-1.7c.9 0 1.7.8 1.7 1.7m-3.5-5.6c1 0 1.7.8 1.7 1.7 0 .9-.8 1.7-1.7 1.7-1 0-1.7-.8-1.7-1.7-.1-.9.7-1.7 1.7-1.7m0-2.1c0 .9-.8 1.7-1.7 1.7-1 0-1.7-.8-1.7-1.7 0-.9.8-1.7 1.7-1.7 1 0 1.7.8 1.7 1.7m-5-3.8c0-.9.8-1.7 1.7-1.7 1 0 1.7.8 1.7 1.7 0 .9-.8 1.7-1.7 1.7-.9.1-1.7-.7-1.7-1.7m3.6.1c0-1 .8-1.7 1.8-1.7s1.8.8 1.8 1.7c0 1-.8 1.7-1.8 1.7s-1.8-.8-1.8-1.7m16.9 12.3l-.3-.9h.5c.3 0 .5-.1.7-.1-.4.3-.7.6-.9 1m-2.8-1.7c.4-.2.6-.5.8-.9.1.3.2.6.3.8h-.4c-.3 0-.5 0-.7.1m-1.4 1.5c0-.5-.2-.9-.4-1.3.2.1.4.1.7.1.3 0 .5-.1.7-.1-.5.3-.9.8-1 1.3m-2.9-2c.4-.3.8-.7.9-1.2 0 .4.2.8.4 1.1-.2-.1-.4-.1-.6-.1-.2.1-.4.1-.7.2m5.6-2.7c.4 0 .9-.1 1.2-.4v.1c-.7.1-1.3.6-1.6 1.2-.1-.5-.4-1-.8-1.3.3.3.7.4 1.2.4M266.1.6h-.7c-.8.1-1.5.6-1.8 1.2-.3-.9-1.1-1.6-2.1-1.6-.9 0-1.7.6-2 1.4-.2-.9-1.1-1.7-2.1-1.7-1.2 0-2.1.9-2.1 2.1 0 1.2 1 2.1 2.1 2.1.9 0 1.7-.6 2-1.4.2 1 1.1 1.7 2.1 1.7.9 0 1.6-.5 2-1.2.3.9 1.1 1.6 2.1 1.6.4 0 .9-.1 1.2-.4v.1c-.8.1-1.4.6-1.7 1.2-.2-.9-1.1-1.6-2.1-1.6s-1.8.6-2.1 1.5c-.2-1-1-1.8-2.1-1.8-.9 0-1.7.6-2 1.4 0-.9-.8-1.7-1.8-1.7s-1.8.8-1.8 1.7c0 1 .8 1.7 1.8 1.7.8 0 1.4-.5 1.7-1.1 0 1.2 1 2.1 2.1 2.1.9 0 1.7-.6 2-1.4.2 1 1.1 1.8 2.2 1.8.9 0 1.6-.5 2-1.2.1.5.4 1 .8 1.3-.3-.2-.7-.3-1.2-.3-1 0-1.8.6-2.1 1.5-.1-1.1-1-1.9-2.1-1.9-.9 0-1.6.5-2 1.3-.2-.8-.9-1.4-1.7-1.4-1 0-1.8.8-1.8 1.7 0 1 .8 1.7 1.8 1.7.7 0 1.3-.4 1.6-1 .1 1 1 1.9 2.1 1.9.2 0 .5 0 .7-.1-.5.3-.8.7-.9 1.3-.1-.8-.9-1.4-1.7-1.4-1 0-1.8.8-1.8 1.7 0 1 .8 1.7 1.8 1.7.8 0 1.5-.5 1.7-1.3.1 1 1 1.8 2.1 1.8 1 0 1.8-.7 2.1-1.6 0 1.2 1 2.2 2.2 2.2.9 0 1.6-.5 2-1.3.2 1 1 1.8 2.1 1.9h-.1c26 3.4 53.6 4 92.8-13.8l.4-.3c-39.2 10.1-66.4.7-97.7-2.1M104.3 35.5c0 .1-.1.1-.1.1-.1 0-.1-.1-.1-.1 0-.1.1-.1.1-.1.1-.1.1 0 .1.1m2.5-.6c0 .1-.1.1-.1.1-.1 0-.1-.1-.1-.1l.1-.1s.1 0 .1.1m-.3-.4c0 .1-.1.1-.1.1-.1 0-.1-.1-.1-.1l.1-.1c.1 0 .1.1.1.1m2.3-.1c0 .1-.1.2-.2.2s-.2-.1-.2-.2.1-.2.2-.2.2.1.2.2m-.4-.6c0 .1-.1.2-.2.2s-.2-.1-.2-.2.1-.2.2-.2.2.1.2.2m2.1.3c0 .1-.1.2-.2.2s-.2-.1-.2-.2.1-.2.2-.2.2.1.2.2m-.4-1c0 .1-.1.2-.2.2s-.2-.1-.2-.2.1-.2.2-.2.2.1.2.2m2.2.6c0 .1-.1.2-.2.2s-.2-.1-.2-.2.1-.2.2-.2.2 0 .2.2m-.5-.5c-.1 0-.2-.1-.2-.2s.1-.2.2-.2.2.1.2.2c0 .2-.1.2-.2.2m-.3-.6c-.1 0-.2-.1-.2-.2s.1-.2.2-.2.2.1.2.2-.1.2-.2.2m2.9.7c0 .1-.1.3-.3.3-.1 0-.3-.1-.3-.3 0-.1.1-.3.3-.3.2 0 .3.1.3.3m-.6-.5c-.1 0-.3-.1-.3-.3 0-.1.1-.3.3-.3.1 0 .3.1.3.3 0 .2-.1.3-.3.3m-.3-.8c-.1 0-.3-.1-.3-.3 0-.1.1-.3.3-.3.1 0 .3.1.3.3 0 .2-.2.3-.3.3m3.1.9c0 .1-.1.3-.3.3s-.3-.1-.3-.3c0-.1.1-.3.3-.3s.3.2.3.3m-.6-.4c-.1 0-.3-.1-.3-.3 0-.1.1-.3.3-.3.1 0 .3.1.3.3 0 .2-.1.3-.3.3m-.3-.6c-.1 0-.3-.1-.3-.3 0-.1.1-.3.3-.3s.3.1.3.3c0 .1-.1.3-.3.3m-.2-.7c-.1 0-.3-.1-.3-.3 0-.1.1-.3.3-.3.1 0 .3.1.3.3-.1.2-.2.3-.3.3m3.4 1.3c0 .2-.1.3-.3.3-.2 0-.3-.1-.3-.3 0-.2.1-.3.3-.3.1 0 .3.2.3.3m-.7-.4c-.2 0-.3-.1-.3-.3 0-.2.1-.3.3-.3.2 0 .3.1.3.3 0 .1-.1.3-.3.3m-.3-.8c-.2 0-.3-.1-.3-.3 0-.2.1-.3.3-.3.2 0 .3.1.3.3 0 .2-.2.3-.3.3m-.4-.8c-.2 0-.3-.1-.3-.3 0-.2.1-.3.3-.3s.3.1.3.3c0 .2-.1.3-.3.3m3.8 1.7c0 .2-.2.4-.4.4s-.4-.2-.4-.4.2-.4.4-.4.4.2.4.4m-.8-.6c-.2 0-.4-.2-.4-.4s.2-.4.4-.4.4.2.4.4-.2.4-.4.4m-.4-.9c-.2 0-.4-.2-.4-.4s.2-.4.4-.4.4.2.4.4c-.1.3-.2.4-.4.4m-.4-.9c-.2 0-.4-.2-.4-.4s.2-.4.4-.4.4.2.4.4-.2.4-.4.4m4.1 2c0 .2-.2.4-.4.4s-.4-.2-.4-.4.2-.4.4-.4.4.2.4.4m-.9-.6c-.2 0-.4-.2-.4-.4s.2-.4.4-.4.4.2.4.4-.2.4-.4.4m-.4-1c-.2 0-.4-.2-.4-.4s.2-.4.4-.4.4.2.4.4-.2.4-.4.4m-.5-1.1c-.2 0-.4-.2-.4-.4s.2-.4.4-.4.4.2.4.4-.1.4-.4.4m4.7 2.4c0 .3-.2.5-.5.5s-.5-.2-.5-.5.2-.5.5-.5.5.2.5.5m-1.1-.8c-.3 0-.5-.2-.5-.5s.2-.5.5-.5.5.2.5.5-.2.5-.5.5m-.5-1.1c-.3 0-.5-.2-.5-.5s.2-.5.5-.5.5.2.5.5-.3.5-.5.5m-.5-1.3c-.3 0-.5-.2-.5-.5s.2-.5.5-.5.5.2.5.5-.2.5-.5.5m5 2.9c0 .3-.2.5-.5.5s-.5-.2-.5-.5.2-.5.5-.5.5.2.5.5m-1.2-.8c-.3 0-.5-.2-.5-.5s.2-.5.5-.5.5.2.5.5c.1.2-.2.5-.5.5m-.6-1.4c-.3 0-.5-.2-.5-.5s.2-.5.5-.5.5.2.5.5-.2.5-.5.5m-.5-1.4c-.3 0-.5-.2-.5-.5s.2-.5.5-.5.5.2.5.5-.3.5-.5.5m5.4 3.4c0 .3-.3.6-.6.6s-.6-.3-.6-.6.3-.6.6-.6.6.2.6.6m-1.3-1c-.3 0-.6-.3-.6-.6s.3-.6.6-.6.6.3.6.6-.3.6-.6.6m-.7-1.5c-.3 0-.6-.3-.6-.6s.3-.6.6-.6.6.3.6.6-.2.6-.6.6m-.6-1.6c-.3 0-.6-.3-.6-.6s.3-.6.6-.6.6.3.6.6c0 .4-.3.6-.6.6m6.1 4c0 .4-.3.7-.7.7s-.7-.3-.7-.7c0-.4.3-.7.7-.7s.7.3.7.7m-1.5-1.1c-.4 0-.7-.3-.7-.7s.3-.7.7-.7.7.3.7.7-.3.7-.7.7m-.8-1.7c-.4 0-.7-.3-.7-.7 0-.4.3-.7.7-.7s.7.3.7.7c0 .3-.3.7-.7.7m-.7-1.9c-.4 0-.7-.3-.7-.7 0-.4.3-.7.7-.7.4 0 .7.3.7.7 0 .4-.3.7-.7.7m6.7 4.5c0 .4-.3.8-.8.8-.4 0-.8-.3-.8-.8s.3-.8.8-.8c.4 0 .8.4.8.8m-1.7-1.2c-.4 0-.8-.3-.8-.8 0-.4.3-.8.8-.8.4 0 .8.3.8.8 0 .4-.4.8-.8.8m-.9-2c-.4 0-.8-.3-.8-.8 0-.4.3-.8.8-.8.4 0 .8.3.8.8s-.4.8-.8.8m-.8-2c-.4 0-.8-.3-.8-.8 0-.4.3-.8.8-.8.4 0 .8.3.8.8 0 .4-.4.8-.8.8m7.2 5.1c0 .5-.4.8-.9.8s-.9-.4-.9-.8c0-.5.4-.8.9-.8s.9.4.9.8m-1.9-1.3c-.5 0-.9-.4-.9-.8 0-.5.4-.8.9-.8s.9.4.9.8-.4.8-.9.8m-.9-2.1c-.5 0-.9-.4-.9-.8 0-.5.4-.8.9-.8s.9.4.9.8c-.1.4-.5.8-.9.8m-.9-2.3c-.5 0-.9-.4-.9-.8 0-.5.4-.8.9-.8s.9.4.9.8c-.1.4-.5.8-.9.8m7.7 5.8c0 .5-.4.9-.9.9s-.9-.4-.9-.9.4-.9.9-.9c.5-.1.9.3.9.9m-2-1.5c-.5 0-.9-.4-.9-.9s.4-.9.9-.9.9.4.9.9-.4.9-.9.9m-1.1-2.4c-.5 0-.9-.4-.9-.9s.4-.9.9-.9.9.4.9.9c.1.5-.4.9-.9.9m-1.9-3.4c0-.5.4-.9.9-.9s.9.4.9.9-.4.9-.9.9-.9-.4-.9-.9m9.5 7.5c0 .6-.5 1-1.1 1-.6 0-1.1-.5-1.1-1 0-.6.5-1 1.1-1 .6-.1 1.1.4 1.1 1m-2.3-1.7c-.6 0-1.1-.5-1.1-1 0-.6.5-1 1.1-1 .6 0 1.1.5 1.1 1 0 .6-.5 1-1.1 1m-1.2-2.6c-.6 0-1.1-.5-1.1-1 0-.6.5-1 1.1-1 .6 0 1.1.5 1.1 1s-.5 1-1.1 1m-2.1-3.8c0-.6.5-1 1.1-1 .6 0 1.1.5 1.1 1 0 .6-.5 1-1.1 1-.7 0-1.1-.5-1.1-1m9.8 8.3c0 .6-.5 1.1-1.1 1.1-.6 0-1.1-.5-1.1-1.1 0-.6.5-1.1 1.1-1.1.6 0 1.1.5 1.1 1.1m-2.5-1.8c-.6 0-1.1-.5-1.1-1.1 0-.6.5-1.1 1.1-1.1.6 0 1.1.5 1.1 1.1 0 .6-.5 1.1-1.1 1.1m-1.3-2.8c-.6 0-1.1-.5-1.1-1.1 0-.6.5-1.1 1.1-1.1s1.1.5 1.1 1.1c0 .6-.5 1.1-1.1 1.1m-2.4-4.2c0-.6.5-1.1 1.1-1.1.6 0 1.1.5 1.1 1.1 0 .6-.5 1.1-1.1 1.1-.6 0-1.1-.5-1.1-1.1m10.8 9.2c0 .7-.6 1.2-1.2 1.2-.7 0-1.2-.5-1.2-1.2s.6-1.2 1.2-1.2 1.2.5 1.2 1.2m-2.7-2c-.7 0-1.2-.5-1.2-1.2s.6-1.2 1.2-1.2c.7 0 1.2.5 1.2 1.2s-.5 1.2-1.2 1.2m-1.5-3.1c-.7 0-1.2-.5-1.2-1.2s.6-1.2 1.2-1.2c.7 0 1.2.5 1.2 1.2.1.7-.5 1.2-1.2 1.2m-2.5-4.5c0-.7.6-1.2 1.2-1.2.7 0 1.2.5 1.2 1.2s-.6 1.2-1.2 1.2-1.2-.5-1.2-1.2m10.9 10c0 .7-.6 1.3-1.3 1.3s-1.3-.6-1.3-1.3c0-.7.6-1.3 1.3-1.3s1.3.5 1.3 1.3m-2.9-2.1c-.7 0-1.3-.6-1.3-1.3 0-.7.6-1.3 1.3-1.3.7 0 1.3.6 1.3 1.3 0 .7-.5 1.3-1.3 1.3m-1.5-6c.7 0 1.3.6 1.3 1.3 0 .7-.6 1.3-1.3 1.3-.7 0-1.3-.6-1.3-1.3 0-.7.6-1.3 1.3-1.3m-2.7-2.2c0-.7.6-1.3 1.3-1.3s1.3.6 1.3 1.3c0 .7-.6 1.3-1.3 1.3s-1.3-.6-1.3-1.3m11.3 10.7c0 .8-.6 1.4-1.4 1.4-.8 0-1.4-.6-1.4-1.4 0-.8.6-1.4 1.4-1.4.7.1 1.4.7 1.4 1.4m-3.1-2.2c-.8 0-1.4-.6-1.4-1.4 0-.8.6-1.4 1.4-1.4s1.4.6 1.4 1.4c0 .8-.6 1.4-1.4 1.4m-1.6-6.3c.8 0 1.4.6 1.4 1.4s-.6 1.4-1.4 1.4c-.8 0-1.4-.6-1.4-1.4s.6-1.4 1.4-1.4m-2.9-2.3c0-.8.6-1.4 1.4-1.4.8 0 1.4.6 1.4 1.4 0 .8-.6 1.4-1.4 1.4-.8 0-1.4-.6-1.4-1.4m11.7 11.3c0 .8-.7 1.5-1.6 1.5-.9 0-1.6-.7-1.6-1.5s.7-1.5 1.6-1.5c.9 0 1.6.7 1.6 1.5m-3.3-2.2c-.9 0-1.6-.7-1.6-1.5s.7-1.5 1.6-1.5c.9 0 1.6.7 1.6 1.5s-.7 1.5-1.6 1.5m-1.7-6.9c.9 0 1.6.7 1.6 1.5s-.7 1.5-1.6 1.5c-.9 0-1.6-.7-1.6-1.5.1-.8.8-1.5 1.6-1.5m-3-2.2c0-.8.7-1.5 1.6-1.5.9 0 1.6.7 1.6 1.5s-.7 1.5-1.6 1.5c-.9 0-1.6-.7-1.6-1.5m11.9 11.6c0 .9-.8 1.7-1.7 1.7-1 0-1.7-.8-1.7-1.7 0-.9.8-1.7 1.7-1.7 1 0 1.7.8 1.7 1.7m-3.4-5.6c1 0 1.7.8 1.7 1.7 0 .9-.8 1.7-1.7 1.7-1 0-1.7-.8-1.7-1.7-.1-.9.7-1.7 1.7-1.7m0-2.1c0 .9-.8 1.7-1.7 1.7-1 0-1.7-.8-1.7-1.7 0-.9.8-1.7 1.7-1.7.9 0 1.7.8 1.7 1.7m-5-3.8c0-.9.8-1.7 1.7-1.7 1 0 1.7.8 1.7 1.7 0 .9-.8 1.7-1.7 1.7-.9.1-1.7-.7-1.7-1.7m3.5 0c0-1 .8-1.7 1.8-1.7s1.8.8 1.8 1.7c0 1-.8 1.7-1.8 1.7-1 .1-1.8-.7-1.8-1.7m17 12.4l-.3-.9h.5c.3 0 .5-.1.7-.1-.4.3-.7.6-.9 1m-2.9-1.7c.4-.2.6-.5.8-.9.1.3.2.6.3.8h-.4c-.2 0-.4 0-.7.1m-1.3 1.5c0-.5-.2-.9-.4-1.3.2.1.4.1.7.1.3 0 .5-.1.7-.1-.6.3-.9.8-1 1.3m-2.9-2c.4-.3.8-.7.9-1.2 0 .4.2.8.4 1.1-.2-.1-.4-.1-.6-.1-.2.1-.5.1-.7.2m5.6-2.7c.4 0 .9-.1 1.2-.4v.1c-.7.1-1.3.6-1.6 1.2-.1-.5-.4-1-.8-1.3.3.3.7.4 1.2.4m-1.1-8.4h-.7c-.8.1-1.5.6-1.8 1.2-.3-.9-1.1-1.6-2.1-1.6-.9 0-1.7.6-2 1.4-.2-.9-1.1-1.7-2.1-1.7-1.2 0-2.1.9-2.1 2.1 0 1.2 1 2.1 2.1 2.1.9 0 1.7-.6 2-1.4.2 1 1.1 1.7 2.1 1.7.9 0 1.6-.5 2-1.2.3.9 1.1 1.6 2.1 1.6.4 0 .9-.1 1.2-.4v.1c-.8.1-1.4.6-1.7 1.2-.2-.9-1.1-1.6-2.1-1.6s-1.8.6-2.1 1.5c-.2-1-1-1.8-2.1-1.8-.9 0-1.7.6-2 1.4 0-.9-.8-1.7-1.8-1.7s-1.8.8-1.8 1.7c0 1 .8 1.7 1.8 1.7.8 0 1.4-.5 1.7-1.1 0 1.2 1 2.1 2.1 2.1.9 0 1.7-.6 2-1.4.2 1 1.1 1.8 2.2 1.8.9 0 1.6-.5 2-1.2.1.5.4 1 .8 1.3-.3-.2-.7-.3-1.2-.3-1 0-1.8.6-2.1 1.5-.1-1.1-1-1.9-2.1-1.9-.9 0-1.6.5-2 1.3-.2-.8-.9-1.4-1.7-1.4-1 0-1.8.8-1.8 1.7 0 1 .8 1.7 1.8 1.7.7 0 1.3-.4 1.6-1 .1 1 1 1.9 2.1 1.9.2 0 .5 0 .7-.1-.5.3-.8.7-.9 1.3-.1-.8-.9-1.4-1.7-1.4-1 0-1.8.8-1.8 1.7 0 1 .8 1.7 1.8 1.7.8 0 1.5-.5 1.7-1.3.1 1 1 1.8 2.1 1.8 1 0 1.8-.7 2.1-1.6 0 1.2 1 2.2 2.2 2.2.9 0 1.6-.5 2-1.3.2 1 1 1.8 2.1 1.9h-.1c26 3.4 53.6 4 92.8-13.8l.4-.3c-39.2 10.1-66.4.7-97.7-2.1"/></svg>