<svg width="1530" height="778" viewBox="0 0 1530 778" xmlns="http://www.w3.org/2000/svg"><path d="M686.337 416.628c-10.007 0-23.35-5.838-35.025-14.178-9.174-6.671-10.842-14.177-5.838-24.184 11.675-24.184 44.2-31.69 64.214-15.011 5.837 5.004 10.841 26.686 8.34 34.192-4.17 12.509-14.178 20.014-31.69 19.18zM369.438 133.086c-1.668 25.018-11.675 34.192-34.192 33.358-17.513-.834-29.188-14.177-27.52-31.69.834-14.177 15.011-26.686 30.022-25.852 21.683 1.667 32.524 10.007 31.69 24.184zm258.523 62.546c.834 16.679-10.841 29.188-25.852 31.69-15.845 2.502-30.856-5.838-33.358-19.18-.834-5.005 0-10.842 2.502-15.846 6.671-13.343 19.18-20.015 33.358-24.184 7.505-2.502 17.513 5.003 20.848 14.177 1.668 5.003 1.668 10.841 2.502 13.343zM221.83 541.719c-14.178 0-27.52-11.675-32.524-26.686-3.336-12.51 1.668-29.188 11.675-36.693 5.838-5.004 11.675-5.838 18.347 0 14.177 11.675 21.682 26.686 21.682 45.033-.834 11.675-8.34 18.346-19.18 18.346zm-26.687-283.541c-10.007-3.336-20.014-5.838-29.188-10.008-3.336-1.667-6.671-7.505-6.671-11.675-.834-10.007 11.675-26.686 30.856-30.856 11.675-2.502 24.184 2.502 30.856 15.011 4.17 8.34 6.671 17.513 0 26.687-5.838 7.505-12.51 10.007-25.853 10.84zM633.8 719.35c0 11.675-10.842 28.354-20.849 32.524-.834.834-2.502.834-3.336.834-11.675 2.501-30.856-15.845-33.357-31.69-1.668-10.842 10.007-25.019 22.516-27.52 10.841-1.668 35.026 15.844 35.026 25.852zm99.24-671.326c-2.503 13.343-2.503 29.188-16.68 35.025-14.177 5.838-25.018-6.671-35.86-14.177-7.505-5.004-5.837-12.509-2.501-20.015 7.505-13.343 20.849-19.18 34.192-22.516 11.675-2.502 20.848 9.173 20.848 21.683zM542.064 84.717c0 13.343-12.51 24.185-28.354 24.185-12.51 0-30.856-16.68-30.856-28.355 0-12.509 15.01-24.184 30.856-25.018 19.18 0 28.354 9.173 28.354 29.188zM298.553 659.306c1.667 10.841 4.17 20.014 4.17 30.022.833 13.343-9.174 23.35-22.517 24.184-15.011.834-31.69-10.007-31.69-22.516 0-4.17 1.668-10.008 4.17-13.343 11.675-13.344 24.184-22.517 45.867-18.347zm380.279-41.698c-17.513 0-24.185-8.339-23.35-21.682 2.501-25.019 29.187-38.362 50.036-25.019 2.502 1.668 5.838 7.506 5.004 10.008-2.502 9.173-4.17 20.848-10.008 26.686-5.003 7.506-16.678 8.34-21.682 10.007zm-314.398-72.553c-.834 18.347-18.347 30.022-35.025 21.683-2.502-1.668-5.004-3.336-8.34-4.17-15.01-7.505-18.347-14.177-8.34-27.52 5.004-6.672 12.51-12.51 19.181-15.845 12.51-6.672 33.358 10.841 32.524 25.852zM176.796 93.057c-15.01 0-23.35-7.506-22.516-20.85.834-15.01 13.343-29.187 27.52-29.187 11.675 0 27.52 14.177 27.52 25.018.834 15.011-13.343 25.853-32.524 25.019zM534.56 474.17c15.845 0 25.019 11.675 24.185 28.354 0 12.51-9.174 19.18-24.185 19.18-13.343 0-30.022-13.342-30.022-23.35 0-14.177 13.343-25.018 30.022-24.184zm-97.571 234.339c-1.668 0-6.672-.834-10.008-2.502-7.505-3.336-18.347-5.004-17.513-16.68.834-11.674 6.672-20.848 17.513-26.685 9.174-5.004 16.68-3.336 25.019 5.003 1.667 1.668 3.335 4.17 5.003 5.838 8.34 7.505 8.34 16.679 4.17 25.852-3.336 9.174-12.51 10.007-24.184 9.174zm1.667-376.11c-15.845 0-23.35-6.672-23.35-21.683 0-12.509 14.177-28.354 25.852-29.188 10.008-.834 21.683 14.177 20.849 28.354 0 14.178-9.173 22.517-23.35 22.517zM0 751.039c0-11.674 5.838-19.18 13.343-22.516 5.004-2.502 12.51 1.668 18.347 3.336 3.336.834 5.838 4.17 8.34 6.672 9.173 10.84 10.007 27.52 2.501 33.357-13.343 9.174-31.69 5.838-39.195-8.339C.834 758.545.834 753.542 0 751.039zm87.564-554.573c-10.007-.834-20.014-2.502-22.516-11.675-1.668-5.004.834-11.676 3.336-16.68 5.003-8.339 13.343-10.84 22.516-8.339 3.336.834 6.672 2.502 10.007 4.17 5.838 2.502 13.344 5.004 12.51 14.177-.834 8.34-6.672 13.343-13.344 15.845-4.17.834-9.173 1.668-12.509 2.502zm652.146 45.033c0 10.841-10.007 21.683-20.849 21.683-8.34 0-21.682-14.178-21.682-24.185 0-8.34 14.177-20.849 22.516-20.849 10.841.834 20.015 12.51 20.015 23.35zM320.235 382.436c0 10.841-8.34 19.18-18.347 19.18-15.01 0-27.52-9.173-26.686-20.014.834-9.174 14.177-19.18 26.686-19.18 11.676.833 18.347 8.339 18.347 20.014zM19.181 503.358c-10.008-10.007-9.174-21.683-8.34-32.524.834-7.506 5.838-15.011 13.343-15.011 5.004 0 10.842 5.004 14.178 9.173 7.505 8.34 10.84 17.513 5.837 30.856-6.671 1.668-15.845 4.17-25.018 7.506zm148.442-162.62c12.51 0 20.849 7.506 20.015 18.347-.834 10.842-10.008 20.015-20.015 19.181-13.343-.834-23.35-10.007-23.35-20.849-.834-10.84 8.34-17.512 23.35-16.679zm397.792 35.026c0 12.51-6.671 20.849-18.347 20.849-10.007 0-21.682-8.34-22.516-15.845-.834-10.007 12.51-25.019 23.35-25.852 10.008 0 17.513 9.173 17.513 20.848zM42.531 286.532c8.34 8.34 15.845 15.011 21.683 21.683 5.003 5.837 5.003 13.343 0 18.346-3.336 3.336-10.841 5.838-15.845 5.004-16.68-1.668-24.185-15.845-16.68-30.856 1.669-3.336 5.005-6.672 10.842-14.177zM553.816 584c15.011 0 30.023 22.517 24.185 34.192-4.17 8.34-20.015 10.007-29.188 2.502-8.34-6.672-9.174-25.853-1.668-33.358 1.668-1.668 5.004-2.502 6.671-3.336zM209.32 773.556c-13.343 1.668-26.686.834-30.856-11.675-5.837-17.513 10.842-21.683 20.015-30.856 16.679 12.51 19.18 21.683 10.841 42.531zM85.896 589.254c1.668-1.668 2.502-2.502 4.17-3.335 15.011-10.008 25.019-5.004 27.52 13.343.834 4.17 0 8.34-.834 12.509-1.667 8.34-5.837 15.845-14.177 13.343-6.671-1.668-12.509-9.173-15.845-15.845-3.335-5.004-.834-13.343-.834-20.015zm-46.7-508.707c-5.004.834-9.174 2.502-13.344 2.502-11.675.834-19.18-2.502-21.682-10.007C.834 62.2 5.004 47.19 13.343 43.02c2.502-1.668 7.506-1.668 10.007 0 6.672 3.336 15.845 25.852 15.845 37.527zm390.286 379.446c0 11.675-8.34 19.18-18.347 18.347-8.34-.834-13.343-6.672-13.343-14.178 0-8.339 10.841-20.848 20.015-21.682 6.671-.834 11.675 7.505 11.675 17.513zm689.792 260.4c0-10.504 6.127-24.509 14.88-36.763 7.003-9.63 14.881-11.38 25.385-6.128 25.385 12.255 33.263 46.392 15.756 67.4-5.252 6.128-28.01 11.38-35.888 8.754-13.13-4.377-21.008-14.881-20.133-33.263zm297.611-332.624c-26.26-1.75-35.888-12.254-35.013-35.888.875-18.382 14.88-30.636 33.262-28.886 14.88.876 28.01 15.756 27.135 31.512-1.75 22.758-10.503 34.138-25.384 33.262zm-65.65 271.351c-17.506.876-30.636-11.379-33.262-27.135-2.626-16.63 6.127-32.387 20.133-35.013 5.252-.875 11.379 0 16.63 2.626 14.006 7.003 21.009 20.133 25.385 35.013 2.626 7.878-5.252 18.382-14.88 21.883-5.252 1.751-11.38 1.751-14.005 2.626zm-363.26-426.283c0-14.88 12.255-28.886 28.01-34.138 13.13-3.501 30.637 1.75 38.515 12.255 5.252 6.127 6.127 12.254 0 19.257-12.255 14.88-28.01 22.758-47.268 22.758-12.254-.875-19.257-8.753-19.257-20.132zm297.611-28.01c3.501-10.505 6.127-21.009 10.504-30.637 1.75-3.501 7.878-7.003 12.255-7.003 10.503-.875 28.01 12.255 32.387 32.387 2.626 12.255-2.626 25.385-15.756 32.387-8.754 4.377-18.382 7.003-28.01 0-7.879-6.127-10.505-13.13-11.38-27.135zm-484.055 460.42c-12.255 0-29.761-11.379-34.138-21.882-.875-.876-.875-2.626-.875-3.502-2.626-12.254 16.631-32.387 33.262-35.013 11.38-1.75 26.26 10.504 28.886 23.634 1.75 11.38-16.631 36.764-27.135 36.764zm704.637 104.164c-14.005-2.626-30.636-2.626-36.763-17.506-6.128-14.88 7.002-26.26 14.88-37.64 5.252-7.877 13.13-6.126 21.008-2.625 14.005 7.878 20.132 21.883 23.634 35.888 2.626 12.255-9.629 21.883-22.759 21.883zm-38.514-200.45c-14.005 0-25.385-13.13-25.385-29.76 0-13.13 17.507-32.387 29.762-32.387 13.13 0 25.384 15.756 26.26 32.387 0 20.132-9.63 29.76-30.637 29.76zm-603.1-255.594c-11.379 1.75-21.007 4.376-31.511 4.376-14.006.876-24.51-9.628-25.385-23.634-.875-15.755 10.504-33.262 23.634-33.262 4.377 0 10.504 1.75 14.005 4.377 14.005 12.254 23.634 25.384 19.257 48.143zm43.767 399.148c0-18.382 8.753-25.384 22.758-24.509 26.26 2.626 40.265 30.637 26.26 52.52-1.75 2.626-7.878 6.127-10.504 5.252-9.629-2.626-21.883-4.377-28.01-10.504-7.878-5.252-8.754-17.507-10.504-22.759zm76.153-329.998c-19.257-.875-31.512-19.257-22.758-36.763 1.75-2.626 3.5-5.252 4.376-8.754 7.878-15.755 14.88-19.257 28.886-8.753 7.003 5.252 13.13 13.13 16.631 20.133 7.003 13.13-11.38 35.013-27.135 34.137zm474.427-196.948c0-15.756 7.878-24.509 21.883-23.634 15.756.876 30.636 14.005 30.636 28.886 0 12.255-14.88 28.886-26.26 28.886-15.755.875-27.135-14.005-26.26-34.138zm-400.024 375.515c0 16.631-12.255 26.26-29.761 25.384-13.13 0-20.133-9.628-20.133-25.384 0-14.005 14.005-31.512 24.51-31.512 14.88 0 26.259 14.005 25.384 31.512zM812.91 458.67c0-1.75.875-7.003 2.626-10.504 3.501-7.878 5.252-19.257 17.507-18.382 12.254.875 21.883 7.003 28.01 18.382 5.252 9.628 3.501 17.506-5.252 26.26-1.75 1.75-4.377 3.5-6.127 5.252-7.878 8.753-17.507 8.753-27.135 4.376-9.629-3.501-10.504-13.13-9.629-25.384zm394.772 1.75c0-16.63 7.003-24.509 22.759-24.509 13.13 0 29.76 14.88 30.636 27.135.875 10.504-14.88 22.759-29.761 21.884-14.88 0-23.634-9.63-23.634-24.51zM768.268 0c12.255 0 20.133 6.127 23.634 14.005 2.626 5.252-1.75 13.13-3.501 19.257-.875 3.502-4.377 6.128-7.003 8.754-11.379 9.628-28.885 10.504-35.013 2.626-9.628-14.006-6.127-33.263 8.754-41.14C760.39.874 765.643.874 768.269 0zm582.092 91.91c.876-10.505 2.626-21.009 12.255-23.635 5.252-1.75 12.254.876 17.506 3.502 8.754 5.252 11.38 14.005 8.754 23.634-.876 3.5-2.626 7.002-4.377 10.503-2.626 6.128-5.252 14.006-14.88 13.13-8.754-.875-14.006-7.002-16.632-14.005-.875-4.377-1.75-9.628-2.626-13.13zm-47.267 684.504c-11.38 0-22.759-10.504-22.759-21.883 0-8.753 14.88-22.759 25.385-22.759 8.753 0 21.883 14.881 21.883 23.634-.876 11.38-13.13 21.008-24.51 21.008zm-147.93-440.289c-11.38 0-20.133-8.753-20.133-19.257 0-15.756 9.629-28.886 21.008-28.01 9.628.875 20.132 14.88 20.132 28.01-.875 12.255-8.753 19.257-21.007 19.257zM1028.24 20.132c10.504-10.503 22.759-9.628 34.138-8.753 7.878.876 15.756 6.128 15.756 14.005 0 5.252-5.252 11.38-9.629 14.881-8.753 7.878-18.382 11.38-32.387 6.127-1.75-7.002-4.376-16.63-7.878-26.26zm170.69 155.808c0 13.13-7.878 21.884-19.257 21.008-11.38-.875-21.008-10.504-20.133-21.008.875-14.005 10.504-24.509 21.883-24.509 11.38-.875 18.382 8.754 17.507 24.51zm-36.764 417.53c-13.13 0-21.883-7.002-21.883-19.256 0-10.504 8.753-22.759 16.631-23.634 10.504-.875 26.26 13.13 27.135 24.51 0 10.503-9.628 18.38-21.883 18.38zm93.66-548.828c-8.753 8.753-15.756 16.63-22.758 22.758-6.128 5.252-14.006 5.252-19.258 0-3.5-3.501-6.127-11.38-5.252-16.631 1.751-17.507 16.632-25.385 32.387-17.507 3.502 1.751 7.003 5.252 14.881 11.38zM788.401 751.03c0 15.755-23.634 31.511-35.888 25.384-8.754-4.377-10.504-21.008-2.626-30.636 7.002-8.754 27.135-9.629 35.013-1.751 1.75 1.75 2.626 5.252 3.501 7.003zm-43.766-531.323c-1.751-14.005-.876-28.01 12.254-32.387 18.382-6.128 22.759 11.379 32.387 21.008-13.13 17.506-22.758 20.132-44.641 11.379zM938.082 90.159c1.75 1.75 2.626 2.626 3.501 4.376 10.504 15.756 5.252 26.26-14.005 28.886-4.377.875-8.753 0-13.13-.875-8.753-1.751-16.631-6.128-14.005-14.88 1.75-7.004 9.628-13.13 16.63-16.632 5.253-3.501 14.006-.875 21.009-.875zM1472.03 41.14c-.876-5.252-2.626-9.628-2.626-14.005-.876-12.254 2.626-20.132 10.503-22.758 11.38-3.502 27.136.875 31.512 9.628 1.75 2.626 1.75 7.878 0 10.504-3.501 7.003-27.135 16.631-39.39 16.631zm-398.274 409.653c-12.254 0-20.132-8.753-19.257-19.257.875-8.754 7.003-14.006 14.88-14.006 8.754 0 21.884 11.38 22.76 21.008.874 7.003-7.879 12.255-18.383 12.255z" style="mix-blend-mode:multiply" fill="#FDEEEE" opacity=".7"/></svg>