<svg width="1530px" height="778px" viewBox="0 0 1530 778" version="1.1" xmlns="http://www.w3.org/2000/svg" xmlns:xlink="http://www.w3.org/1999/xlink">
    <g id="Dashboard" stroke="none" stroke-width="1" fill="none" fill-rule="evenodd" opacity="0.699999988">
        <g id="splotches" fill-rule="nonzero" fill="#FDEEEE">
            <path d="M686.337348,416.627523 C676.329999,416.627523 662.986867,410.789903 651.311626,402.450446 C642.138223,395.77888 640.470332,388.273368 645.474006,378.266019 C657.149246,354.081593 689.67313,346.576081 709.687828,363.254996 C715.525449,368.25867 720.529123,389.94126 718.027286,397.446771 C713.857557,409.955957 703.850208,417.461469 686.337348,416.627523 Z M369.437965,133.08597 C367.770073,158.104343 357.762724,167.277746 335.246189,166.4438 C317.733329,165.609854 306.058088,152.266722 307.72598,134.753862 C308.559925,120.576784 322.737003,108.067598 337.748026,108.901544 C359.430616,110.569435 370.27191,118.908893 369.437965,133.08597 Z M627.961145,195.631901 C628.795091,212.310816 617.119851,224.820002 602.108827,227.321839 C586.263858,229.823677 571.252835,221.484219 568.750998,208.141087 C567.917052,203.137413 568.750998,197.299793 571.252835,192.296118 C577.924401,178.952986 590.433587,172.28142 604.610665,168.111692 C612.116176,165.609854 622.123525,173.115366 625.459308,182.288769 C627.1272,187.292444 627.1272,193.130064 627.961145,195.631901 Z M221.829568,541.719385 C207.65249,541.719385 194.309358,530.044145 189.305684,515.033121 C185.969901,502.523935 190.973575,485.84502 200.980924,478.339508 C206.818545,473.335834 212.656165,472.501888 219.327731,478.339508 C233.504808,490.014749 241.01032,505.025772 241.01032,523.372579 C240.176374,535.047819 232.670863,541.719385 221.829568,541.719385 Z M195.143304,258.177832 C185.135955,254.842049 175.128606,252.340212 165.955203,248.170483 C162.61942,246.502592 159.283637,240.664971 159.283637,236.495243 C158.449691,226.487894 170.958878,209.808979 190.13963,205.63925 C201.81487,203.137413 214.324056,208.141087 220.995622,220.650273 C225.165351,228.989731 227.667188,238.163134 220.995622,247.336537 C215.158002,254.842049 208.486436,257.343886 195.143304,258.177832 Z M633.798766,719.349829 C633.798766,731.025069 622.957471,747.703984 612.950122,751.873713 C612.116176,752.707658 610.448285,752.707658 609.614339,752.707658 C597.939099,755.209496 578.758346,736.862689 576.256509,721.01772 C574.588618,710.176425 586.263858,695.999348 598.773044,693.49751 C609.614339,691.829619 633.798766,709.34248 633.798766,719.349829 Z M733.038309,48.0235044 C730.536472,61.3666363 730.536472,77.2116055 716.359394,83.0492257 C702.182317,88.8868459 691.341022,76.3776597 680.499727,68.872148 C672.994216,63.8684736 674.662107,56.3629619 677.99789,48.8574502 C685.503402,35.5143183 698.846534,29.6766981 712.189666,26.3409151 C723.864906,23.8390778 733.038309,35.5143183 733.038309,48.0235044 Z M542.064734,84.7171172 C542.064734,98.0602491 529.555548,108.901544 513.710578,108.901544 C501.201392,108.901544 482.854586,92.2226289 482.854586,80.5473885 C482.854586,68.0382023 497.865609,56.3629619 513.710578,55.5290161 C532.891331,55.5290161 542.064734,64.7024193 542.064734,84.7171172 Z M298.552576,659.305735 C300.220468,670.14703 302.722305,679.320433 302.722305,689.327782 C303.556251,702.670914 293.548902,712.678263 280.20577,713.512208 C265.194747,714.346154 248.515832,703.504859 248.515832,690.995673 C248.515832,686.825945 250.183723,680.988324 252.685561,677.652541 C264.360801,664.309409 276.869987,655.136006 298.552576,659.305735 Z M678.831836,617.608448 C661.318975,617.608448 654.647409,609.26899 655.481355,595.925858 C657.983192,570.907486 684.669456,557.564354 705.5181,570.907486 C708.019937,572.575378 711.35572,578.412998 710.521774,580.914835 C708.019937,590.088238 706.352045,601.763479 700.514425,607.601099 C695.510751,615.106611 683.83551,615.940556 678.831836,617.608448 Z M364.43429,545.055168 C363.600344,563.401974 346.087484,575.077215 329.408569,566.737757 C326.906732,565.069866 324.404895,563.401974 321.069112,562.568029 C306.058088,555.062517 302.722305,548.390951 312.729654,535.047819 C317.733329,528.376253 325.23884,522.538633 331.910406,519.20285 C344.419592,512.531284 365.268236,530.044145 364.43429,545.055168 Z M176.796498,93.0565746 C161.785474,93.0565746 153.446017,85.5510629 154.279963,72.207931 C155.113908,57.1969076 167.623095,43.01983 181.800172,43.01983 C193.475413,43.01983 209.320382,57.1969076 209.320382,68.0382023 C210.154328,83.0492257 195.97725,93.8905204 176.796498,93.0565746 Z M534.559222,474.16978 C550.404191,474.16978 559.577594,485.84502 558.743649,502.523935 C558.743649,515.033121 549.570245,521.704687 534.559222,521.704687 C521.21609,521.704687 504.537175,508.361555 504.537175,498.354206 C504.537175,484.177129 517.880307,473.335834 534.559222,474.16978 Z M436.98757,708.508534 C435.319678,708.508534 430.316004,707.674588 426.980221,706.006697 C419.474709,702.670914 408.633415,701.003022 409.46736,689.327782 C410.301306,677.652541 416.138926,668.479138 426.980221,662.641518 C436.153624,657.637843 443.659136,659.305735 451.998593,667.645192 C453.666485,669.313084 455.334376,671.814921 457.002268,673.482813 C465.341725,680.988324 465.341725,690.161727 461.171997,699.335131 C457.836214,708.508534 448.66281,709.34248 436.98757,708.508534 Z M438.655461,332.399003 C422.810492,332.399003 415.304981,325.727437 415.304981,310.716414 C415.304981,298.207228 429.482058,282.362259 441.157299,281.528313 C451.164648,280.694367 462.839888,295.70539 462.005942,309.882468 C462.005942,324.059546 452.832539,332.399003 438.655461,332.399003 Z M0,751.039767 C0,739.364526 5.83762021,731.859015 13.3431319,728.523232 C18.3468064,726.021394 25.8523181,730.191123 31.6899383,731.859015 C35.0257213,732.69296 37.5275585,736.028743 40.0293957,738.530581 C49.2027989,749.371875 50.0367447,766.05079 42.531233,771.88841 C29.188101,781.061814 10.8412947,777.726031 3.33578298,763.548953 C0.833945744,758.545279 0.833945744,753.541604 0,751.039767 Z M87.5643031,196.465847 C77.5569542,195.631901 67.5496053,193.96401 65.0477681,184.790606 C63.3798766,179.786932 65.8817138,173.115366 68.383551,168.111692 C73.3872255,159.772234 81.7266829,157.270397 90.9000861,159.772234 C94.2358691,160.60618 97.5716521,162.274071 100.907435,163.941963 C106.745055,166.4438 114.250567,168.945637 113.416621,178.119041 C112.582675,186.458498 106.745055,191.462172 100.073489,193.96401 C95.9037606,194.797955 90.9000861,195.631901 87.5643031,196.465847 Z M739.709875,241.498917 C739.709875,252.340212 729.702526,263.181506 718.861232,263.181506 C710.521774,263.181506 697.178642,249.004429 697.178642,238.99708 C697.178642,230.657622 711.35572,218.148436 719.695177,218.148436 C730.536472,218.982382 739.709875,230.657622 739.709875,241.498917 Z M320.235166,382.435748 C320.235166,393.277043 311.895708,401.6165 301.888359,401.6165 C286.877336,401.6165 274.36815,392.443097 275.202096,381.601802 C276.036041,372.428399 289.379173,362.42105 301.888359,362.42105 C313.5636,363.254996 320.235166,370.760507 320.235166,382.435748 Z M19.1807521,503.357881 C9.17340319,493.350532 10.0073489,481.675291 10.8412947,470.833997 C11.6752404,463.328485 16.6789149,455.822973 24.1844266,455.822973 C29.188101,455.822973 35.0257213,460.826648 38.3615042,464.996377 C45.8670159,473.335834 49.2027989,482.509237 44.1991244,495.852369 C37.5275585,497.520261 28.3541553,500.022098 19.1807521,503.357881 Z M167.623095,340.738461 C180.132281,340.738461 188.471738,348.243972 187.637792,359.085267 C186.803847,369.926562 177.630444,379.099965 167.623095,378.266019 C154.279963,377.432073 144.272614,368.25867 144.272614,357.417376 C143.438668,346.576081 152.612071,339.904515 167.623095,340.738461 Z M565.415215,375.764182 C565.415215,388.273368 558.743649,396.612826 547.068408,396.612826 C537.061059,396.612826 525.385819,388.273368 524.551873,380.767856 C523.717927,370.760507 537.061059,355.749484 547.902354,354.915538 C557.909703,354.915538 565.415215,364.088941 565.415215,375.764182 Z M42.531233,286.531987 C50.8706904,294.871445 58.3762021,301.543011 64.2138223,308.214577 C69.2174968,314.052197 69.2174968,321.557709 64.2138223,326.561383 C60.8780393,329.897166 53.3725276,332.399003 48.3688532,331.565057 C31.6899383,329.897166 24.1844266,315.720088 31.6899383,300.709065 C33.3578298,297.373282 36.6936127,294.037499 42.531233,286.531987 Z M553.816466,584 C568.82749,584 583.838513,606.516535 578.000893,618.191776 C573.831164,626.531233 557.986195,628.199124 548.812792,620.693613 C540.473334,614.022047 539.639389,594.841295 547.1449,587.335783 C548.812792,585.667891 552.148575,584.833946 553.816466,584 Z M209.320382,773.556302 C195.97725,775.224193 182.634118,774.390248 178.464389,761.881061 C172.626769,744.368201 189.305684,740.198472 198.479087,731.025069 C215.158002,743.534255 217.659839,752.707658 209.320382,773.556302 Z M85.8964117,589.254292 C87.5643031,587.586401 88.3982489,586.752455 90.0661404,585.918509 C105.077164,575.911161 115.084513,580.914835 117.58635,599.261641 C118.420296,603.43137 117.58635,607.601099 116.752404,611.770828 C115.084513,620.110285 110.914784,627.615797 102.575327,625.113959 C95.9037606,623.446068 90.0661404,615.940556 86.7303574,609.26899 C83.3945744,604.265316 85.8964117,595.925858 85.8964117,589.254292 Z M39.19545,80.5473885 C34.1917755,81.3813342 30.0220468,83.0492257 25.8523181,83.0492257 C14.1770777,83.8831714 6.67156595,80.5473885 4.16972872,73.0418768 C0.833945744,62.2005821 5.00367447,47.1895587 13.3431319,43.01983 C15.8449691,41.3519385 20.8486436,41.3519385 23.3504808,43.01983 C30.0220468,46.3556129 39.19545,68.872148 39.19545,80.5473885 Z M429.482058,459.992702 C429.482058,471.667942 421.142601,479.173454 411.135252,478.339508 C402.795794,477.505563 397.79212,471.667942 397.79212,464.162431 C397.79212,455.822973 408.633415,443.313787 417.806818,442.479841 C424.478384,441.645896 429.482058,449.985353 429.482058,459.992702 Z M1119.27417,720.393191 C1119.27417,709.88928 1125.40145,695.884067 1134.15471,683.629504 C1141.15732,674.00092 1149.03525,672.250268 1159.53916,677.502223 C1184.92361,689.756785 1192.80154,723.894494 1175.29503,744.902315 C1170.04307,751.029596 1147.2846,756.281552 1139.40667,753.655574 C1126.27678,749.278945 1118.39885,738.775034 1119.27417,720.393191 Z M1416.88497,387.76936 C1390.62519,386.018709 1380.99661,375.514798 1381.87193,351.881 C1382.74726,333.499156 1396.75247,321.244594 1415.13432,322.995246 C1430.01486,323.870572 1443.14474,338.751112 1442.26942,354.506977 C1440.51877,377.26545 1431.76551,388.644686 1416.88497,387.76936 Z M1351.23553,659.12038 C1333.72901,659.995706 1320.59912,647.741144 1317.97314,631.985278 C1315.34717,615.354087 1324.10042,599.598221 1338.10564,596.972243 C1343.35759,596.096917 1349.48488,596.972243 1354.73683,599.598221 C1368.74204,606.600828 1375.74465,619.730716 1380.12128,634.611256 C1382.74726,642.489189 1374.86933,652.993099 1365.24074,656.494402 C1359.98879,658.245054 1353.8615,658.245054 1351.23553,659.12038 Z M987.975291,232.836681 C987.975291,217.956142 1000.22985,203.950928 1015.98572,198.698972 C1029.11561,195.197669 1046.62212,200.449624 1054.50006,210.953535 C1059.75201,217.080816 1060.62734,223.208097 1054.50006,230.210704 C1042.24549,245.091244 1026.48963,252.969176 1007.23246,252.969176 C994.977898,252.093851 987.975291,244.215918 987.975291,232.836681 Z M1285.58609,204.826254 C1289.08739,194.322343 1291.71337,183.818433 1296.09,174.189848 C1297.84065,170.688545 1303.96793,167.187241 1308.34456,167.187241 C1318.84847,166.311915 1336.35499,179.441803 1340.73162,199.574298 C1343.35759,211.828861 1338.10564,224.958749 1324.97575,231.961356 C1316.22249,236.337985 1306.59391,238.963962 1296.96532,231.961356 C1289.08739,225.834074 1286.46141,218.831467 1285.58609,204.826254 Z M801.53088,665.247661 C789.276318,665.247661 771.769801,653.868425 767.393172,643.364514 C766.517846,642.489189 766.517846,640.738537 766.517846,639.863211 C763.891868,627.608649 783.149037,607.476154 799.780229,604.850176 C811.159465,603.099524 826.040005,615.354087 828.665982,628.483975 C830.416634,639.863211 812.034791,665.247661 801.53088,665.247661 Z M1506.16821,769.41144 C1492.16299,766.785462 1475.5318,766.785462 1469.40452,751.904922 C1463.27724,737.024382 1476.40713,725.645146 1484.28506,714.26591 C1489.53701,706.387977 1497.41495,708.138629 1505.29288,711.639932 C1519.29809,719.517865 1525.42537,733.523079 1528.92668,747.528293 C1531.55266,759.782855 1519.29809,769.41144 1506.16821,769.41144 Z M1467.65387,568.961815 C1453.64865,568.961815 1442.26942,555.831927 1442.26942,539.200736 C1442.26942,526.070848 1459.77593,506.813679 1472.0305,506.813679 C1485.16038,506.813679 1497.41495,522.569544 1498.29027,539.200736 C1498.29027,559.333231 1488.66169,568.961815 1467.65387,568.961815 Z M864.554343,313.366661 C853.175107,315.117313 843.546522,317.743291 833.042612,317.743291 C819.037398,318.618617 808.533487,308.114706 807.658162,294.109492 C806.782836,278.353627 818.162072,260.847109 831.29196,260.847109 C835.668589,260.847109 841.79587,262.597761 845.297174,265.223739 C859.302388,277.478301 868.930972,290.608189 864.554343,313.366661 Z M908.320637,712.515258 C908.320637,694.133415 917.073895,687.130808 931.079109,688.006134 C957.338885,690.632111 971.344099,718.642539 957.338885,740.525686 C955.588234,743.151664 949.460952,746.652967 946.834975,745.777641 C937.20639,743.151664 924.951828,741.401012 918.824547,735.273731 C910.946614,730.021776 910.071288,717.767213 908.320637,712.515258 Z M984.473987,382.517405 C965.216818,381.642079 952.962256,363.260236 961.715515,345.753719 C963.466166,343.127741 965.216818,340.501763 966.092144,337.00046 C973.970077,321.244594 980.972684,317.743291 994.977898,328.247201 C1001.9805,333.499156 1008.10779,341.377089 1011.60909,348.379696 C1018.6117,361.509584 1000.22985,383.392731 984.473987,382.517405 Z M1458.90061,185.569084 C1458.90061,169.813219 1466.77854,161.05996 1480.78376,161.935286 C1496.53962,162.810612 1511.42016,175.9405 1511.42016,190.82104 C1511.42016,203.075602 1496.53962,219.706793 1485.16038,219.706793 C1469.40452,220.582119 1458.02528,205.701579 1458.90061,185.569084 Z M1058.87669,561.083883 C1058.87669,577.715074 1046.62212,587.343659 1029.11561,586.468333 C1015.98572,586.468333 1008.98311,576.839748 1008.98311,561.083883 C1008.98311,547.078669 1022.98833,529.572151 1033.49224,529.572151 C1048.37278,529.572151 1059.75201,543.577365 1058.87669,561.083883 Z M812.910117,458.670756 C812.910117,456.920104 813.785443,451.668149 815.536094,448.166845 C819.037398,440.288913 820.78805,428.909676 833.042612,429.785002 C845.297174,430.660328 854.925759,436.787609 861.05304,448.166845 C866.304995,457.79543 864.554343,465.673363 855.801084,474.426621 C854.050433,476.177273 851.424455,477.927925 849.673803,479.678577 C841.79587,488.431835 832.167286,488.431835 822.538701,484.055206 C812.910117,480.553903 812.034791,470.925318 812.910117,458.670756 Z M1207.68208,460.421408 C1207.68208,443.790216 1214.68469,435.912283 1230.44056,435.912283 C1243.57044,435.912283 1260.20164,450.792823 1261.07696,463.047385 C1261.95229,473.551296 1246.19642,485.805858 1231.31588,484.930532 C1216.43534,484.930532 1207.68208,475.301947 1207.68208,460.421408 Z M768.268497,1.33488117e-12 C780.52306,1.33713229e-12 788.400992,6.12728109 791.902296,14.0052139 C794.528273,19.2571691 790.151644,27.135102 788.400992,33.2623831 C787.525667,36.7636865 784.024363,39.3896641 781.398385,42.0156418 C770.019149,51.6442263 752.512632,52.5195522 746.385351,44.6416194 C736.756766,30.6364054 740.25807,11.3792363 755.138609,3.50130348 C760.390565,0.87532587 765.64252,0.87532587 768.268497,1.33488117e-12 Z M1350.3602,91.9092163 C1351.23553,81.4053059 1352.98618,70.9013955 1362.61476,68.2754179 C1367.86672,66.5247661 1374.86933,69.1507437 1380.12128,71.7767213 C1388.87454,77.0286766 1391.50052,85.7819353 1388.87454,95.4105198 C1387.99921,98.9118233 1386.24856,102.413127 1384.49791,105.91443 C1381.87193,112.041711 1379.24595,119.919644 1369.61737,119.044318 C1360.86411,118.168992 1355.61216,112.041711 1352.98618,105.039104 C1352.11085,100.662475 1351.23553,95.4105198 1350.3602,91.9092163 Z M1303.0926,776.414047 C1291.71337,776.414047 1280.33413,765.910136 1280.33413,754.5309 C1280.33413,745.777641 1295.21467,731.772427 1305.71858,731.772427 C1314.47184,731.772427 1327.60173,746.652967 1327.60173,755.406226 C1326.7264,766.785462 1314.47184,776.414047 1303.0926,776.414047 Z M1155.16253,336.125134 C1143.7833,336.125134 1135.03004,327.371875 1135.03004,316.867965 C1135.03004,301.112099 1144.65862,287.982211 1156.03786,288.857537 C1165.66644,289.732863 1176.17035,303.738077 1176.17035,316.867965 C1175.29503,329.122527 1167.41709,336.125134 1155.16253,336.125134 Z M1028.24028,20.132495 C1038.74419,9.62858457 1050.99875,10.5039104 1062.37799,11.3792363 C1070.25592,12.2545622 1078.13386,17.5065174 1078.13386,25.3844502 C1078.13386,30.6364054 1072.8819,36.7636865 1068.50527,40.26499 C1059.75201,48.1429228 1050.12343,51.6442263 1036.11821,46.3922711 C1034.36756,39.3896641 1031.74158,29.7610796 1028.24028,20.132495 Z M1198.92883,175.9405 C1198.92883,189.070388 1191.05089,197.823647 1179.67166,196.948321 C1168.29242,196.072995 1158.66384,186.44441 1159.53916,175.9405 C1160.41449,161.935286 1170.04307,151.431375 1181.42231,151.431375 C1192.80154,150.55605 1199.80415,160.184634 1198.92883,175.9405 Z M1162.16514,593.47094 C1149.03525,593.47094 1140.28199,586.468333 1140.28199,574.213771 C1140.28199,563.70986 1149.03525,551.455298 1156.91318,550.579972 C1167.41709,549.704646 1183.17296,563.70986 1184.04829,575.089097 C1184.04829,585.593007 1174.4197,593.47094 1162.16514,593.47094 Z M1255.82501,44.6416194 C1247.07175,53.3948781 1240.06914,61.2728109 1233.06653,67.400092 C1226.93925,72.6520472 1219.06132,72.6520472 1213.80937,67.400092 C1210.30806,63.8987885 1207.68208,56.0208557 1208.55741,50.7689005 C1210.30806,33.2623831 1225.1886,25.3844502 1240.94447,33.2623831 C1244.44577,35.0130348 1247.94707,38.5143383 1255.82501,44.6416194 Z M788.400992,751.029596 C788.400992,766.785462 764.767194,782.541328 752.512632,776.414047 C743.759373,772.037417 742.008721,755.406226 749.886654,745.777641 C756.889261,737.024382 777.021756,736.149057 784.899689,744.026989 C786.650341,745.777641 787.525667,749.278945 788.400992,751.029596 Z M744.634699,219.706793 C742.884047,205.701579 743.759373,191.696366 756.889261,187.319736 C775.271104,181.192455 779.647734,198.698972 789.276318,208.327557 C776.14643,225.834074 766.517846,228.460052 744.634699,219.706793 Z M938.081716,90.1585646 C939.832368,91.9092163 940.707694,92.7845422 941.58302,94.5351939 C952.08693,110.29106 946.834975,120.79497 927.577806,123.420948 C923.201176,124.296274 918.824547,123.420948 914.447918,122.545622 C905.694659,120.79497 897.816726,116.418341 900.442704,107.665082 C902.193355,100.662475 910.071288,94.5351939 917.073895,91.0338905 C922.32585,87.532587 931.079109,90.1585646 938.081716,90.1585646 Z M1472.0305,41.1403159 C1471.15517,35.8883607 1469.40452,31.5117313 1469.40452,27.135102 C1468.52919,14.8805398 1472.0305,7.00260696 1479.90843,4.37662935 C1491.28767,0.87532587 1507.04353,5.25195522 1511.42016,14.0052139 C1513.17081,16.6311915 1513.17081,21.8831467 1511.42016,24.5091244 C1507.91886,31.5117313 1484.28506,41.1403159 1472.0305,41.1403159 Z M1073.75723,450.792823 C1061.50266,450.792823 1053.62473,442.039564 1054.50006,431.535654 C1055.37538,422.782395 1061.50266,417.53044 1069.3806,417.53044 C1078.13386,417.53044 1091.26374,428.909676 1092.13907,438.538261 C1093.0144,445.540868 1084.26114,450.792823 1073.75723,450.792823 Z" id="Combined-Shape" style="mix-blend-mode: multiply;"></path>
        </g>
    </g>
</svg>