<svg xmlns="http://www.w3.org/2000/svg"><symbol viewBox="0 0 24 24" id="icon-arrow-down" xmlns="http://www.w3.org/2000/svg"><path fill-rule="evenodd" d="M17.707 14.707a.999.999 0 1 0-1.414-1.414L13 16.586V5a1 1 0 1 0-2 0v11.586l-3.293-3.293a.999.999 0 1 0-1.414 1.414l5 5a.999.999 0 0 0 1.414 0l5-5z"/></symbol><symbol viewBox="0 0 24 24" id="icon-arrow-external" xmlns="http://www.w3.org/2000/svg"><path d="M16.95 6.05H9.879a.999.999 0 1 0 0 2h4.657l-8.193 8.193a1 1 0 1 0 1.414 1.414l8.193-8.192v4.657a.999.999 0 1 0 2 0V7.05a1 1 0 0 0-1-1"/></symbol><symbol viewBox="0 0 24 24" id="icon-arrow-left" xmlns="http://www.w3.org/2000/svg"><path d="M4.293 12.707l5 5a.999.999 0 1 0 1.414-1.414L7.414 13H19a1 1 0 1 0 0-2H7.414l3.293-3.293a.999.999 0 1 0-1.414-1.414l-5 5a.999.999 0 0 0 0 1.414"/></symbol><symbol viewBox="0 0 24 24" id="icon-arrow-right" xmlns="http://www.w3.org/2000/svg"><path d="M19.707 11.293l-5-5a.999.999 0 1 0-1.414 1.414L16.586 11H5a1 1 0 1 0 0 2h11.586l-3.293 3.293a.999.999 0 1 0 1.414 1.414l5-5a.999.999 0 0 0 0-1.414"/></symbol><symbol viewBox="0 0 24 24" id="icon-arrow-up" xmlns="http://www.w3.org/2000/svg"><path fill-rule="evenodd" d="M6.293 9.293a.999.999 0 1 0 1.414 1.414L11 7.414V19a1 1 0 1 0 2 0V7.414l3.293 3.293a.999.999 0 1 0 1.414-1.414l-5-5a.999.999 0 0 0-1.414 0l-5 5z"/></symbol><symbol viewBox="0 0 24 24" id="icon-close" xmlns="http://www.w3.org/2000/svg"><path d="M12 10.509l-8.2-8.2a1.054 1.054 0 0 0-1.491 1.49l8.2 8.201-8.2 8.2a1.054 1.054 0 1 0 1.49 1.491l8.201-8.2 8.2 8.2a1.054 1.054 0 1 0 1.491-1.49L13.491 12l8.2-8.2a1.054 1.054 0 1 0-1.49-1.491L12 10.509z"/></symbol><symbol viewBox="0 0 24 24" id="icon-facebook" xmlns="http://www.w3.org/2000/svg"><path d="M16.642 9.505h-2.54V7.74c0-.662.412-.817.705-.817H16.6V4.011L14.13 4c-2.74 0-3.364 2.172-3.364 3.563v1.942H8v3h2.766V21h3.335v-8.494h2.25l.29-3.001z"/></symbol><symbol viewBox="0 0 24 24" id="icon-facebook-circle" xmlns="http://www.w3.org/2000/svg"><path d="M12 0C5.372 0 0 5.393 0 12.047c0 5.613 3.824 10.33 9 11.667V13.553H6.832v-3.449H9v-2.24c0-3.043 1.308-4.852 4.872-4.852h4.107v3.73h-3.355c-.996-.001-1.119.521-1.119 1.495l-.005 1.867H18l-.596 3.449H13.5V24c5.92-.74 10.5-5.81 10.5-11.953C24 5.393 18.628 0 12 0z"/></symbol><symbol viewBox="0 0 24 24" id="icon-instagram" xmlns="http://www.w3.org/2000/svg"><path d="M15.4 12c0 1.8-1.5 3.3-3.3 3.3S8.8 13.8 8.8 12s1.5-3.3 3.3-3.3 3.3 1.5 3.3 3.3zM20 8.1c.1 1 .1 1.3.1 3.9s0 2.9-.1 3.9c-.1.9-.2 1.5-.3 1.8-.2.5-.4.8-.7 1.1-.3.3-.7.5-1.1.7-.3.1-.9.3-1.8.3-1.1.2-1.4.2-4 .2s-2.9 0-3.9-.1c-.9-.1-1.5-.2-1.8-.3-.5-.2-.8-.4-1.1-.7-.3-.3-.5-.7-.7-1.1-.1-.3-.3-.9-.3-1.8-.1-1-.1-1.3-.1-3.9s0-2.9.1-3.9c.1-.9.2-1.5.3-1.8.2-.5.4-.8.7-1.1s.7-.5 1.1-.7c.3-.1.8-.3 1.8-.3S9.5 4 12.1 4s2.9 0 3.9.1c.9.1 1.5.2 1.8.3.5.2.8.4 1.1.7.3.3.5.7.7 1.1.2.4.4.9.4 1.9zM17.1 12c0-2.7-2.3-5-5-5s-5 2.3-5 5 2.3 5 5 5 5-2.3 5-5zm1.3-5.2c0-.7-.5-1.2-1.2-1.2S16 6.1 16 6.8 16.6 8 17.2 8c.8-.1 1.2-.5 1.2-1.2z"/></symbol><symbol viewBox="0 0 24 24" id="icon-instagram-circle" xmlns="http://www.w3.org/2000/svg"><path d="M17 12c0 2.7-2.2 4.9-4.9 4.9S7.2 14.7 7.2 12s2.2-4.9 4.9-4.9S17 9.3 17 12zm7-5.9c.1 1.5.1 2 .1 5.9 0 3.9 0 4.4-.1 5.9-.1 1.4-.3 2.2-.5 2.7-.3.7-.6 1.2-1.1 1.7-.5.5-1 .8-1.7 1.1-.5.2-1.3.4-2.7.5-1.6.1-2 .1-5.9.1s-4.4 0-5.9-.1c-1.4-.1-2.2-.3-2.7-.5-.7-.3-1.2-.6-1.7-1.1-.5-.5-.8-1-1.1-1.7-.2-.5-.4-1.3-.5-2.7-.1-1.5-.1-2-.1-5.9s0-4.4.1-5.9c.1-1.4.3-2.2.5-2.7.3-.7.6-1.2 1.1-1.7.5-.5 1-.8 1.7-1.1C4 .4 4.7.2 6.2.1c1.5-.1 2-.1 5.9-.1s4.4 0 5.9.1c1.4.1 2.2.3 2.7.5.7.3 1.2.6 1.7 1.1.5.5.8 1 1.1 1.7.2.5.4 1.3.5 2.7zM19.6 12c0-4.1-3.4-7.5-7.5-7.5S4.6 7.9 4.6 12s3.4 7.5 7.5 7.5 7.5-3.4 7.5-7.5zm2-7.8c0-1-.8-1.8-1.8-1.8S18 3.2 18 4.2 18.8 6 19.8 6c1.1-.1 1.8-.8 1.8-1.8z"/></symbol><symbol viewBox="0 0 24 24" id="icon-linkedin" xmlns="http://www.w3.org/2000/svg"><path d="M12.788 11.311V9.88H9.423c.045.949 0 10.12 0 10.12h3.365v-5.651c0-.303.021-.606.11-.823.244-.604.797-1.23 1.726-1.23 1.218 0 1.704.93 1.704 2.288V20h3.364v-5.803c0-3.11-1.659-4.555-3.873-4.555-1.785-.001-2.585.98-3.031 1.67v-.001zM4.198 20h3.364V9.879H4.198V20zM4 6.748c0 .971.73 1.75 1.86 1.75h.02c1.173 0 1.904-.779 1.904-1.75C7.762 5.755 7.054 5 5.904 5 4.752 5 4 5.755 4 6.748z"/></symbol><symbol viewBox="0 0 364 86" id="icon-logo" xmlns="http://www.w3.org/2000/svg"><title>Icons/Brand/Logo - Simple</title><path d="M264.795 86V73.355L250.21 57h5.957l11.244 12.927L278.154 57H284l-14.418 16.243V86h-4.787zm-27.497-25.121H214.81v21.075h22.488v-8.487h-11.635v-3.709h16.42v9.385c0 2.662-.471 4.469-1.418 5.424-.948.955-2.719 1.433-5.316 1.433h-18.595c-2.596 0-4.367-.478-5.314-1.433-.944-.955-1.419-2.762-1.419-5.424V63.857c0-2.66.475-4.469 1.419-5.424.947-.955 2.718-1.433 5.314-1.433h18.595c2.524 0 4.275.453 5.259 1.358.984.904 1.475 2.606 1.475 5.105v.73l-4.785.957v-4.271zm-48.039-.112h-16.476v10.17h16.476c1.15 0 1.957-.204 2.422-.618.464-.41.695-1.198.695-2.36v-4.214c0-1.125-.231-1.901-.695-2.333-.465-.43-1.272-.645-2.422-.645zM167.996 86V57h23.112c2.11 0 3.647.442 4.61 1.321.965.88 1.445 2.315 1.445 4.3v6.463c0 1.985-.48 3.42-1.444 4.299-.964.88-2.5 1.321-4.61 1.321h-4.223L200.022 86h-7.124L181.22 74.704h-8.438V86h-4.787zm-39.3 0V57h27.665v3.879h-22.878v8.092h13.971v3.822h-13.97v9.217h23.1V86h-27.888zm-46.647 0V57h3.007l21.49 19.39c1.038.936 2.134 2.154 3.285 3.653-.301-1.798-.45-4.177-.45-7.137V57h4.452v29h-2.672l-22.1-20.177a78.544 78.544 0 0 1-1.39-1.292 9.452 9.452 0 0 1-1.503-1.966c.223 1.723.334 3.84.334 6.35V86H82.05zm-28.445 0V73.355L39.021 57h5.956l11.244 12.927L66.964 57h5.845L58.392 73.243V86h-4.788zM25.717 60.879H5.4v8.148h18.09c2.597 0 4.36.487 5.288 1.461.928.976 1.391 2.774 1.391 5.396v3.26c0 2.66-.463 4.468-1.391 5.423-.928.955-2.69 1.433-5.288 1.433H6.735c-2.598 0-4.369-.478-5.316-1.433C.473 83.612 0 81.805 0 79.143v-.786l4.453-1.068v4.665h21.375v-8.711H7.793c-2.56 0-4.314-.478-5.26-1.433-.947-.956-1.42-2.765-1.42-5.424v-2.53c0-2.697.473-4.514 1.42-5.451.946-.936 2.7-1.405 5.26-1.405H23.1c2.45 0 4.185.444 5.205 1.33 1.021.886 1.532 2.542 1.532 4.964v.62l-4.12 1.18V60.88zm157.562-45.357a.138.138 0 0 1-.14.137.138.138 0 0 1-.139-.137.139.139 0 0 1 .279 0m2.46-.566a.138.138 0 0 1-.14.137.138.138 0 1 1 0-.274.14.14 0 0 1 .14.137m-.253-.384a.14.14 0 0 1-.14.138.138.138 0 0 1-.139-.138c0-.075.062-.136.139-.136.077 0 .14.06.14.136m2.248-.12c0 .111-.091.2-.204.2a.202.202 0 0 1-.205-.2c0-.11.092-.2.205-.2.113 0 .204.09.204.2m-.39-.632c0 .111-.092.2-.205.2a.202.202 0 0 1-.204-.2c0-.112.09-.201.204-.201.113 0 .204.09.204.201m2.093.3a.203.203 0 0 1-.205.2.203.203 0 0 1-.205-.2c0-.11.092-.2.205-.2.113 0 .205.09.205.2m-.392-.956c0 .111-.09.201-.205.201a.203.203 0 0 1-.203-.2c0-.112.092-.201.203-.201.114 0 .205.09.205.2m2.147.536c0 .11-.092.2-.204.2a.202.202 0 1 1 0-.402c.112 0 .204.09.204.202m-.477-.406a.202.202 0 0 1-.204-.201c0-.111.091-.2.204-.2.114 0 .205.089.205.2 0 .111-.091.2-.205.2m-.265-.629a.202.202 0 0 1-.203-.2.2.2 0 0 1 .203-.201c.113 0 .205.09.205.201 0 .11-.092.2-.205.2m2.902.666c0 .14-.115.253-.258.253a.257.257 0 0 1-.26-.253c0-.141.117-.255.26-.255.143 0 .258.114.258.255m-.604-.514a.256.256 0 0 1-.257-.256c0-.139.114-.253.257-.253.144 0 .26.114.26.253a.257.257 0 0 1-.26.256m-.335-.798a.257.257 0 0 1-.259-.255c0-.14.116-.254.259-.254.143 0 .258.114.258.254s-.115.255-.258.255m3.105.946c0 .14-.116.254-.26.254a.257.257 0 0 1-.259-.254c0-.14.117-.254.259-.254.144 0 .26.114.26.254m-.565-.409a.257.257 0 0 1-.257-.254c0-.141.116-.255.257-.255.144 0 .26.114.26.255 0 .14-.116.254-.26.254m-.295-.64a.257.257 0 0 1-.26-.256c0-.14.116-.254.26-.254.143 0 .257.114.257.254a.256.256 0 0 1-.257.255m-.269-.687a.257.257 0 0 1-.259-.255c0-.14.116-.254.26-.254.143 0 .259.114.259.254a.257.257 0 0 1-.26.255m3.38 1.354a.3.3 0 0 1-.303.298.302.302 0 0 1-.303-.298c0-.164.136-.298.303-.298.168 0 .304.134.304.298m-.66-.478a.3.3 0 0 1-.303-.299.3.3 0 0 1 .304-.298.3.3 0 0 1 .302.298.3.3 0 0 1-.302.299m-.349-.752a.302.302 0 0 1-.304-.299.3.3 0 0 1 .304-.297.3.3 0 0 1 .304.297.3.3 0 0 1-.304.299m-.313-.804a.302.302 0 0 1-.304-.299c0-.165.137-.298.304-.298a.3.3 0 0 1 .303.298.3.3 0 0 1-.303.299m3.72 1.668a.35.35 0 0 1-.355.347.351.351 0 0 1-.355-.347c0-.193.158-.35.355-.35.196 0 .355.157.355.35m-.771-.56a.352.352 0 0 1-.356-.35c0-.192.159-.348.356-.348.195 0 .354.156.354.348 0 .193-.159.35-.354.35m-.408-.88a.352.352 0 0 1-.354-.348c0-.194.158-.35.354-.35.197 0 .356.156.356.35a.352.352 0 0 1-.356.348m-.367-.941a.352.352 0 0 1-.355-.349c0-.193.159-.35.355-.35.196 0 .355.157.355.35a.352.352 0 0 1-.355.349m4.06 2.033c0 .218-.18.395-.402.395-.22 0-.4-.177-.4-.395 0-.216.18-.392.4-.392.222 0 .401.176.401.392m-.87-.631a.398.398 0 0 1-.402-.395c0-.217.18-.393.401-.393.221 0 .4.176.4.393a.397.397 0 0 1-.4.395m-.459-.993a.398.398 0 0 1-.401-.393c0-.218.18-.394.401-.394.22 0 .4.176.4.394 0 .217-.18.393-.4.393m-.414-1.063a.398.398 0 0 1-.402-.393c0-.218.18-.394.402-.394.22 0 .4.176.4.394a.397.397 0 0 1-.4.393m4.615 2.373c0 .26-.214.468-.477.468a.471.471 0 0 1-.475-.468c0-.258.213-.467.475-.467.263 0 .477.209.477.467m-1.035-.751a.471.471 0 0 1-.475-.466c0-.26.212-.469.475-.469s.475.21.475.469a.471.471 0 0 1-.475.466m-.545-1.177a.471.471 0 0 1-.476-.467c0-.259.213-.468.476-.468.262 0 .475.21.475.468a.471.471 0 0 1-.475.467m-.492-1.262a.472.472 0 0 1-.476-.467c0-.258.214-.468.476-.468s.475.21.475.468a.471.471 0 0 1-.475.467m4.983 2.89a.53.53 0 0 1-.535.526.53.53 0 0 1-.535-.525.53.53 0 0 1 .535-.526.53.53 0 0 1 .535.526m-1.163-.844a.53.53 0 0 1-.535-.526c0-.29.24-.525.535-.525a.53.53 0 0 1 .535.525.53.53 0 0 1-.535.526m-.614-1.325a.53.53 0 0 1-.534-.526c0-.29.24-.525.534-.525a.53.53 0 0 1 .535.525.53.53 0 0 1-.535.526m-.553-1.419a.53.53 0 0 1-.535-.525c0-.29.24-.526.535-.526a.53.53 0 0 1 .535.526.53.53 0 0 1-.535.525m5.442 3.345a.593.593 0 0 1-.598.588.592.592 0 0 1-.596-.588.59.59 0 0 1 .596-.586c.33 0 .598.262.598.586m-1.299-.942a.592.592 0 0 1-.597-.587c0-.324.268-.587.597-.587.33 0 .598.263.598.587a.592.592 0 0 1-.598.587m-.684-1.48a.593.593 0 0 1-.598-.585c0-.325.269-.588.598-.588.33 0 .597.263.597.588a.59.59 0 0 1-.597.586m-.618-1.585a.591.591 0 0 1-.597-.586c0-.325.267-.587.597-.587.33 0 .597.262.597.587a.592.592 0 0 1-.597.586m6.073 3.915c0 .375-.31.68-.69.68a.685.685 0 0 1-.692-.68c0-.375.309-.68.691-.68.382 0 .691.305.691.68m-1.502-1.091a.685.685 0 0 1-.692-.678c0-.376.31-.68.692-.68.38 0 .69.304.69.68 0 .375-.31.678-.69.678m-.793-1.71a.685.685 0 0 1-.69-.679c0-.375.309-.68.69-.68.383 0 .691.305.691.68a.685.685 0 0 1-.69.679m-.715-1.832a.687.687 0 0 1-.692-.68c0-.375.31-.68.692-.68.382 0 .69.305.69.68 0 .374-.308.68-.69.68m6.688 4.446a.765.765 0 0 1-.77.758.764.764 0 0 1-.77-.758c0-.418.344-.757.77-.757.425 0 .77.339.77.757m-1.675-1.215a.764.764 0 0 1-.77-.758c0-.418.344-.757.77-.757.425 0 .77.339.77.757a.765.765 0 0 1-.77.758m-.883-1.909a.764.764 0 0 1-.771-.757c0-.418.345-.758.77-.758.425 0 .77.34.77.758a.764.764 0 0 1-.77.757m-.796-2.044a.764.764 0 0 1-.771-.757c0-.418.345-.758.77-.758.426 0 .77.34.77.758a.763.763 0 0 1-.77.757m7.156 5.128a.845.845 0 0 1-.852.838.845.845 0 0 1-.852-.838c0-.463.381-.838.852-.838.47 0 .852.375.852.838m-1.854-1.346a.845.845 0 0 1-.852-.839c0-.462.381-.837.852-.837s.853.375.853.837a.845.845 0 0 1-.853.839m-.977-2.111a.845.845 0 0 1-.853-.838c0-.464.382-.838.853-.838s.852.374.852.838c0 .463-.38.838-.852.838m-.882-2.262a.845.845 0 0 1-.853-.839c0-.462.382-.837.853-.837.47 0 .853.375.853.837a.846.846 0 0 1-.853.839m7.76 5.74a.935.935 0 0 1-.943.927.934.934 0 0 1-.941-.926c0-.511.421-.926.941-.926s.943.415.943.926m-2.05-1.487a.935.935 0 0 1-.942-.926c0-.511.422-.926.943-.926.52 0 .942.415.942.926a.934.934 0 0 1-.942.926m-1.08-2.332a.935.935 0 0 1-.943-.927c0-.511.422-.925.943-.925.52 0 .942.414.942.925a.935.935 0 0 1-.942.927m-1.917-3.425c0-.513.422-.927.941-.927.522 0 .943.414.943.927 0 .51-.421.926-.943.926a.935.935 0 0 1-.941-.926m9.49 7.47c0 .57-.471 1.033-1.052 1.033-.58 0-1.052-.463-1.052-1.034s.471-1.033 1.052-1.033c.58 0 1.051.462 1.051 1.033m-2.286-1.659c-.58 0-1.051-.463-1.051-1.034 0-.57.471-1.034 1.051-1.034.582 0 1.05.464 1.05 1.034 0 .57-.468 1.034-1.05 1.034m-1.205-2.604c-.58 0-1.052-.462-1.052-1.034 0-.57.472-1.032 1.052-1.032.581 0 1.05.462 1.05 1.032a1.04 1.04 0 0 1-1.05 1.034m-2.14-3.822c0-.571.472-1.034 1.052-1.034.58 0 1.052.463 1.052 1.034 0 .57-.471 1.033-1.052 1.033-.58 0-1.051-.462-1.051-1.033m9.799 8.324c0 .622-.512 1.126-1.146 1.126a1.135 1.135 0 0 1-1.144-1.126c0-.622.512-1.125 1.144-1.125.634 0 1.146.503 1.146 1.125m-2.49-1.808a1.134 1.134 0 0 1-1.144-1.125c0-.621.512-1.125 1.143-1.125.633 0 1.146.504 1.146 1.125 0 .623-.513 1.125-1.146 1.125m-1.311-2.833a1.135 1.135 0 0 1-1.145-1.126c0-.622.512-1.125 1.145-1.125.632 0 1.144.503 1.144 1.125 0 .621-.512 1.126-1.144 1.126m-2.33-4.164c0-.621.513-1.125 1.144-1.125.634 0 1.146.504 1.146 1.125 0 .622-.512 1.126-1.146 1.126a1.136 1.136 0 0 1-1.144-1.126m10.704 9.165c0 .673-.554 1.219-1.238 1.219a1.23 1.23 0 0 1-1.24-1.219c0-.672.555-1.217 1.24-1.217.684 0 1.238.545 1.238 1.217m-2.694-1.954a1.228 1.228 0 0 1-1.238-1.218c0-.673.554-1.217 1.238-1.217.685 0 1.24.544 1.24 1.217a1.23 1.23 0 0 1-1.24 1.218m-1.419-3.068a1.23 1.23 0 0 1-1.24-1.216c0-.674.556-1.218 1.24-1.218.683 0 1.239.544 1.239 1.218 0 .671-.556 1.216-1.239 1.216m-2.52-4.503a1.23 1.23 0 0 1 1.238-1.218c.684 0 1.24.546 1.24 1.218 0 .673-.556 1.217-1.24 1.217a1.228 1.228 0 0 1-1.238-1.217m10.862 9.887c0 .72-.593 1.303-1.325 1.303a1.314 1.314 0 0 1-1.324-1.303c0-.72.593-1.302 1.324-1.302.732 0 1.325.583 1.325 1.302m-2.88-2.09a1.314 1.314 0 0 1-1.326-1.304c0-.718.593-1.302 1.325-1.302s1.325.584 1.325 1.302c0 .72-.593 1.303-1.325 1.303m-1.518-5.886c.731 0 1.324.584 1.324 1.304 0 .719-.593 1.302-1.324 1.302a1.313 1.313 0 0 1-1.325-1.302c0-.72.592-1.304 1.325-1.304m-2.695-2.212c0-.72.592-1.303 1.324-1.303.731 0 1.324.584 1.324 1.303 0 .72-.593 1.303-1.324 1.303a1.313 1.313 0 0 1-1.324-1.303m11.233 10.681c0 .765-.63 1.384-1.407 1.384a1.395 1.395 0 0 1-1.406-1.384c0-.762.63-1.38 1.406-1.38.777 0 1.407.618 1.407 1.38m-3.059-2.217c-.776 0-1.405-.62-1.405-1.384 0-.763.629-1.382 1.405-1.382.777 0 1.406.62 1.406 1.382 0 .764-.629 1.384-1.406 1.384m-1.61-6.247c.775 0 1.404.619 1.404 1.383 0 .763-.629 1.382-1.405 1.382a1.395 1.395 0 0 1-1.406-1.382c0-.764.63-1.383 1.406-1.383m-2.861-2.348c0-.764.63-1.382 1.406-1.382.776 0 1.406.618 1.406 1.382 0 .764-.63 1.382-1.406 1.382a1.395 1.395 0 0 1-1.406-1.382m11.613 11.31c0 .844-.694 1.526-1.551 1.526a1.538 1.538 0 0 1-1.551-1.526c0-.841.694-1.524 1.55-1.524.858 0 1.552.683 1.552 1.524m-3.235-2.266c-.857 0-1.55-.683-1.55-1.525 0-.842.693-1.524 1.55-1.524.857 0 1.55.682 1.55 1.524s-.693 1.525-1.55 1.525m-1.686-6.844c.856 0 1.551.682 1.551 1.525 0 .841-.695 1.524-1.55 1.524-.858 0-1.552-.683-1.552-1.524 0-.843.694-1.525 1.551-1.525m-3.018-2.23c0-.841.695-1.524 1.551-1.524s1.551.683 1.551 1.524c0 .843-.695 1.525-1.551 1.525s-1.551-.682-1.551-1.525m11.91 11.602c0 .943-.778 1.707-1.736 1.707-.959 0-1.735-.764-1.735-1.707 0-.942.776-1.705 1.735-1.705.958 0 1.735.763 1.735 1.705m-3.46-5.578c.959 0 1.736.765 1.736 1.706 0 .943-.777 1.707-1.736 1.707s-1.736-.764-1.736-1.707c0-.941.777-1.706 1.736-1.706m.056-2.062c0 .942-.776 1.706-1.735 1.706-.959 0-1.737-.764-1.737-1.706s.778-1.706 1.737-1.706c.959 0 1.735.764 1.735 1.706m-5.017-3.78c0-.942.776-1.706 1.735-1.706.959 0 1.736.764 1.736 1.706s-.777 1.706-1.736 1.706-1.735-.764-1.735-1.706m3.548.005c0-.96.79-1.738 1.768-1.738.974 0 1.766.778 1.766 1.738s-.792 1.737-1.766 1.737c-.977 0-1.768-.778-1.768-1.737m16.915 12.304a2.086 2.086 0 0 0-.343-.873c.15.03.305.048.464.048.255 0 .496-.05.724-.128-.37.228-.665.558-.845.953m-2.859-1.686c.351-.215.63-.525.808-.894.06.297.181.571.349.812a2.19 2.19 0 0 0-.443-.045c-.251 0-.488.05-.714.127m-1.387 1.479v-.005c0-.473-.165-.905-.434-1.255.212.067.433.113.668.113.25 0 .487-.051.712-.128a2.14 2.14 0 0 0-.946 1.275m-2.828-1.976a2.1 2.1 0 0 0 .899-1.16 2.1 2.1 0 0 0 .438 1.143 2.122 2.122 0 0 0-.64-.107c-.246 0-.477.049-.697.124m5.542-2.684c.446 0 .86-.132 1.207-.355l.032.086a2.205 2.205 0 0 0-1.585 1.212 2.128 2.128 0 0 0-.843-1.288c.345.216.75.345 1.189.345m-1.07-8.4a2.277 2.277 0 0 0-.46-.046l-.025.002-.204-.02.013.038c-.787.077-1.45.55-1.775 1.22a2.166 2.166 0 0 0-2.09-1.57c-.944 0-1.739.592-2.041 1.416A2.125 2.125 0 0 0 256.952.16c-1.177 0-2.13.94-2.13 2.096 0 1.158.953 2.095 2.13 2.095.917 0 1.691-.571 1.993-1.37a2.17 2.17 0 0 0 2.13 1.701c.863 0 1.601-.497 1.955-1.21a2.202 2.202 0 0 0 2.128 1.609c.442 0 .852-.13 1.198-.35l.044.12a2.2 2.2 0 0 0-1.707 1.217 2.17 2.17 0 0 0-2.113-1.641c-.96 0-1.767.615-2.056 1.463a2.115 2.115 0 0 0-2.1-1.788 2.12 2.12 0 0 0-2.015 1.442 1.751 1.751 0 0 0-1.764-1.694c-.975 0-1.767.777-1.767 1.738 0 .958.792 1.736 1.767 1.736.755 0 1.394-.466 1.648-1.12.003 1.155.956 2.088 2.13 2.088.937 0 1.723-.597 2.01-1.421a2.16 2.16 0 0 0 2.147 1.84c.864 0 1.604-.498 1.956-1.216.121.51.424.947.838 1.25a2.192 2.192 0 0 0-1.167-.34c-.985 0-1.807.645-2.077 1.527a2.11 2.11 0 0 0-2.115-1.939c-.876 0-1.628.521-1.956 1.265a1.756 1.756 0 0 0-1.734-1.417c-.976 0-1.767.777-1.767 1.737 0 .96.79 1.737 1.767 1.737.698 0 1.297-.401 1.584-.98a2.113 2.113 0 0 0 2.106 1.85c.246 0 .477-.05.697-.125-.454.28-.788.722-.926 1.246a1.756 1.756 0 0 0-1.736-1.43c-.976 0-1.767.778-1.767 1.738s.791 1.737 1.767 1.737a1.76 1.76 0 0 0 1.689-1.25 2.11 2.11 0 0 0 2.103 1.824c.99 0 1.816-.669 2.055-1.569l-.002.015c0 1.183.975 2.142 2.179 2.142.883 0 1.64-.52 1.983-1.262a2.192 2.192 0 0 0 2.13 1.848c-.017.015-.033.034-.055.04 25.904 3.337 53.486 3.976 92.506-13.763l.362-.255c-39.046 9.8-66.197.485-97.383-2.345M104.28 35.52a.138.138 0 0 1-.14.138.14.14 0 0 1-.14-.137.14.14 0 0 1 .14-.138c.078 0 .14.062.14.138m2.46-.565a.138.138 0 0 1-.141.137.137.137 0 1 1 0-.275.14.14 0 0 1 .14.138m-.253-.384a.14.14 0 0 1-.14.137.138.138 0 0 1-.139-.137c0-.076.062-.137.139-.137.077 0 .14.061.14.137m2.249-.12c0 .11-.092.201-.205.201a.202.202 0 0 1-.204-.201c0-.111.091-.201.204-.201.113 0 .205.09.205.2m-.392-.631c0 .11-.09.2-.203.2a.203.203 0 0 1-.205-.2c0-.112.092-.202.205-.202.112 0 .203.09.203.202m2.093.3c0 .11-.092.2-.205.2a.202.202 0 0 1-.204-.2c0-.111.092-.201.204-.201.113 0 .205.09.205.2m-.392-.954c0 .11-.09.2-.204.2a.203.203 0 0 1-.204-.2c0-.112.091-.202.204-.202.113 0 .204.09.204.202m2.147.535c0 .11-.092.2-.203.2a.202.202 0 0 1-.205-.2c0-.112.09-.203.205-.203.111 0 .203.09.203.203m-.476-.407a.203.203 0 0 1-.205-.201c0-.11.092-.2.205-.2.113 0 .204.09.204.2a.202.202 0 0 1-.204.201m-.265-.629a.202.202 0 0 1-.204-.2c0-.112.09-.202.204-.202.112 0 .204.09.204.202 0 .11-.092.2-.204.2m2.902.666a.256.256 0 0 1-.26.253.256.256 0 0 1-.258-.253c0-.142.116-.256.259-.256.144 0 .26.114.26.256m-.606-.515a.257.257 0 0 1-.257-.255c0-.14.115-.253.257-.253.144 0 .26.113.26.253a.257.257 0 0 1-.26.255m-.334-.797a.257.257 0 0 1-.26-.254c0-.142.116-.256.26-.256.141 0 .257.114.257.256 0 .14-.116.254-.257.254m3.104.946c0 .14-.116.254-.26.254a.257.257 0 0 1-.259-.254c0-.141.117-.255.26-.255.143 0 .259.114.259.255m-.564-.409a.257.257 0 0 1-.258-.254c0-.142.116-.256.258-.256.143 0 .259.114.259.256 0 .14-.116.254-.259.254m-.296-.641a.257.257 0 0 1-.259-.255c0-.14.116-.254.259-.254.143 0 .258.113.258.254a.257.257 0 0 1-.258.255m-.268-.687a.257.257 0 0 1-.26-.255c0-.14.116-.255.26-.255.143 0 .259.115.259.255s-.116.255-.259.255m3.38 1.354a.302.302 0 0 1-.303.299.302.302 0 0 1-.304-.299c0-.164.136-.299.304-.299.168 0 .304.135.304.3m-.66-.48a.302.302 0 0 1-.304-.298c0-.165.137-.299.304-.299a.3.3 0 0 1 .303.299.3.3 0 0 1-.303.298m-.348-.75a.302.302 0 0 1-.304-.3.3.3 0 0 1 .304-.298.3.3 0 0 1 .304.298c0 .165-.136.3-.304.3m-.314-.806a.3.3 0 0 1-.303-.298.3.3 0 0 1 .303-.299.3.3 0 0 1 .303.299.3.3 0 0 1-.303.298m3.72 1.668a.352.352 0 0 1-.354.349.352.352 0 0 1-.356-.349c0-.192.16-.35.356-.35.196 0 .354.158.354.35m-.771-.56a.353.353 0 0 1-.356-.349c0-.192.159-.348.356-.348.195 0 .354.156.354.348 0 .193-.159.35-.354.35m-.408-.88a.352.352 0 0 1-.354-.349c0-.193.158-.349.354-.349.197 0 .356.156.356.35a.352.352 0 0 1-.356.348m-.366-.942a.352.352 0 0 1-.355-.348c0-.193.159-.35.355-.35.196 0 .355.157.355.35a.352.352 0 0 1-.355.348m4.06 2.035c0 .218-.18.393-.402.393a.396.396 0 0 1-.4-.393c0-.217.179-.394.4-.394.221 0 .401.177.401.394m-.872-.633a.398.398 0 0 1-.401-.394c0-.217.18-.394.401-.394.221 0 .4.177.4.394a.397.397 0 0 1-.4.394m-.46-.992a.398.398 0 0 1-.4-.394c0-.217.18-.393.4-.393.222 0 .401.176.401.393 0 .217-.18.394-.4.394m-.415-1.062a.398.398 0 0 1-.401-.394c0-.218.18-.395.401-.395.221 0 .401.177.401.395 0 .217-.18.394-.4.394m4.614 2.372a.471.471 0 0 1-.476.468.471.471 0 0 1-.474-.468.47.47 0 0 1 .474-.468c.264 0 .476.21.476.468m-1.033-.75a.472.472 0 0 1-.477-.468c0-.258.213-.468.477-.468.261 0 .474.21.474.468a.472.472 0 0 1-.474.468m-.545-1.179a.471.471 0 0 1-.477-.466c0-.258.213-.468.477-.468.261 0 .474.21.474.468a.47.47 0 0 1-.474.466m-.493-1.261a.471.471 0 0 1-.475-.468c0-.257.212-.467.475-.467s.476.21.476.467a.471.471 0 0 1-.476.468m4.984 2.89a.53.53 0 0 1-.536.526.53.53 0 0 1-.535-.526c0-.29.24-.525.535-.525a.53.53 0 0 1 .536.525m-1.164-.843a.53.53 0 0 1-.534-.526.53.53 0 0 1 .534-.526.53.53 0 0 1 .534.526.53.53 0 0 1-.534.526m-.614-1.325a.53.53 0 0 1-.534-.526c0-.29.24-.525.534-.525a.53.53 0 0 1 .536.525c0 .29-.24.526-.536.526m-.552-1.418a.53.53 0 0 1-.535-.527.53.53 0 0 1 .535-.525.53.53 0 0 1 .534.525.53.53 0 0 1-.534.527m5.442 3.345a.593.593 0 0 1-.598.587.592.592 0 0 1-.597-.587c0-.325.267-.587.597-.587.33 0 .598.262.598.587m-1.3-.944a.59.59 0 0 1-.596-.586c0-.324.267-.587.596-.587.33 0 .598.263.598.587a.593.593 0 0 1-.598.586m-.684-1.478a.592.592 0 0 1-.597-.587c0-.324.268-.588.597-.588.33 0 .597.264.597.588a.592.592 0 0 1-.597.587m-.617-1.585a.591.591 0 0 1-.598-.586c0-.325.266-.587.598-.587a.59.59 0 0 1 .596.587.59.59 0 0 1-.596.586m6.072 3.914c0 .375-.31.68-.691.68a.685.685 0 0 1-.69-.68c0-.375.308-.679.69-.679.381 0 .691.304.691.68m-1.502-1.091a.685.685 0 0 1-.691-.679c0-.375.31-.68.691-.68.381 0 .69.305.69.68a.684.684 0 0 1-.69.679m-.792-1.71a.685.685 0 0 1-.691-.68c0-.374.31-.678.691-.678.381 0 .69.304.69.679a.684.684 0 0 1-.69.678m-.715-1.832a.686.686 0 0 1-.691-.68c0-.374.31-.678.69-.678.382 0 .691.304.691.678 0 .376-.309.68-.69.68m6.688 4.447a.765.765 0 0 1-.77.758.765.765 0 0 1-.77-.758c0-.418.345-.757.77-.757.425 0 .77.339.77.757m-1.676-1.216a.765.765 0 0 1-.77-.758c0-.418.346-.757.77-.757.426 0 .771.34.771.757a.765.765 0 0 1-.77.758m-.882-1.908a.763.763 0 0 1-.771-.757c0-.418.344-.758.77-.758.425 0 .77.34.77.758 0 .42-.345.757-.77.757m-.797-2.044a.764.764 0 0 1-.771-.757c0-.418.345-.758.77-.758.427 0 .77.34.77.758a.762.762 0 0 1-.77.757m7.157 5.128a.846.846 0 0 1-.853.838.846.846 0 0 1-.853-.838c0-.464.383-.838.853-.838s.853.374.853.838m-1.854-1.346a.846.846 0 0 1-.853-.839c0-.462.382-.837.853-.837.47 0 .852.375.852.837a.846.846 0 0 1-.852.839m-.978-2.11a.847.847 0 0 1-.853-.84c0-.462.383-.837.853-.837.471 0 .853.375.853.837 0 .464-.382.84-.853.84m-.882-2.263a.844.844 0 0 1-.852-.839c0-.462.38-.837.852-.837.471 0 .853.375.853.837a.845.845 0 0 1-.853.839m7.76 5.74a.935.935 0 0 1-.943.927.934.934 0 0 1-.942-.927c0-.51.422-.925.942-.925s.943.415.943.925m-2.05-1.485a.935.935 0 0 1-.942-.927c0-.512.422-.926.943-.926.52 0 .941.414.941.926a.934.934 0 0 1-.941.927m-1.08-2.333a.935.935 0 0 1-.943-.927c0-.51.423-.926.943-.926s.942.416.942.926a.934.934 0 0 1-.942.927m-1.917-3.425c0-.512.422-.927.942-.927s.943.415.943.927a.935.935 0 0 1-.943.925.934.934 0 0 1-.942-.925m9.49 7.469c0 .57-.471 1.034-1.052 1.034-.58 0-1.051-.464-1.051-1.034 0-.571.471-1.034 1.051-1.034s1.052.463 1.052 1.034m-2.286-1.66a1.043 1.043 0 0 1-1.052-1.033c0-.57.47-1.034 1.052-1.034.58 0 1.05.464 1.05 1.034 0 .57-.47 1.034-1.05 1.034m-1.205-2.604c-.58 0-1.052-.462-1.052-1.034 0-.57.471-1.033 1.052-1.033.58 0 1.05.463 1.05 1.033 0 .572-.47 1.034-1.05 1.034m-2.14-3.822c0-.571.47-1.034 1.052-1.034.58 0 1.052.463 1.052 1.034 0 .57-.472 1.033-1.052 1.033a1.042 1.042 0 0 1-1.052-1.033m9.8 8.324c0 .622-.514 1.126-1.146 1.126a1.134 1.134 0 0 1-1.144-1.126c0-.622.51-1.126 1.144-1.126.632 0 1.146.504 1.146 1.126m-2.491-1.807a1.135 1.135 0 0 1-1.145-1.125c0-.623.514-1.126 1.145-1.126.632 0 1.145.503 1.145 1.126 0 .621-.513 1.125-1.145 1.125m-1.312-2.834a1.136 1.136 0 0 1-1.145-1.126c0-.622.512-1.126 1.145-1.126.632 0 1.144.504 1.144 1.126 0 .621-.512 1.126-1.144 1.126m-2.33-4.164c0-.622.513-1.125 1.145-1.125s1.145.503 1.145 1.125c0 .621-.513 1.126-1.145 1.126a1.136 1.136 0 0 1-1.144-1.126m10.704 9.165a1.23 1.23 0 0 1-1.239 1.218 1.23 1.23 0 0 1-1.24-1.218c0-.673.555-1.218 1.24-1.218a1.23 1.23 0 0 1 1.239 1.218m-2.695-1.955a1.23 1.23 0 0 1-1.238-1.217c0-.673.555-1.218 1.238-1.218.684 0 1.24.545 1.24 1.218a1.23 1.23 0 0 1-1.24 1.217m-1.419-3.066a1.23 1.23 0 0 1-1.24-1.217c0-.674.556-1.218 1.24-1.218.684 0 1.238.544 1.238 1.218 0 .671-.554 1.217-1.238 1.217m-2.52-4.504c0-.672.555-1.218 1.238-1.218.685 0 1.239.546 1.239 1.218 0 .673-.554 1.217-1.24 1.217a1.227 1.227 0 0 1-1.237-1.217m10.862 9.887c0 .72-.593 1.303-1.324 1.303a1.315 1.315 0 0 1-1.325-1.303c0-.72.594-1.303 1.325-1.303.73 0 1.324.583 1.324 1.303m-2.881-2.09a1.315 1.315 0 0 1-1.324-1.304c0-.719.593-1.302 1.324-1.302.733 0 1.326.583 1.326 1.302 0 .72-.593 1.304-1.326 1.304m-1.518-5.887c.73 0 1.324.583 1.324 1.304 0 .719-.593 1.302-1.324 1.302a1.313 1.313 0 0 1-1.324-1.302c0-.72.592-1.304 1.324-1.304m-2.696-2.212c0-.72.593-1.303 1.325-1.303s1.325.584 1.325 1.303c0 .72-.593 1.303-1.325 1.303a1.313 1.313 0 0 1-1.325-1.303m11.234 10.682c0 .764-.63 1.382-1.408 1.382a1.394 1.394 0 0 1-1.405-1.382c0-.764.63-1.382 1.405-1.382.777 0 1.408.618 1.408 1.382m-3.058-2.219c-.776 0-1.407-.62-1.407-1.383s.63-1.382 1.407-1.382c.776 0 1.405.619 1.405 1.382 0 .764-.63 1.383-1.405 1.383m-1.612-6.246c.776 0 1.406.619 1.406 1.382 0 .764-.63 1.383-1.406 1.383a1.395 1.395 0 0 1-1.406-1.383c0-.763.63-1.382 1.406-1.382m-2.86-2.347c0-.765.629-1.383 1.406-1.383.776 0 1.405.618 1.405 1.383 0 .762-.63 1.381-1.405 1.381a1.394 1.394 0 0 1-1.407-1.381m11.613 11.31c0 .842-.695 1.524-1.55 1.524-.858 0-1.552-.682-1.552-1.524 0-.843.694-1.524 1.551-1.524.856 0 1.551.681 1.551 1.524m-3.235-2.267c-.856 0-1.55-.684-1.55-1.525 0-.841.694-1.525 1.55-1.525.856 0 1.55.684 1.55 1.525 0 .841-.694 1.525-1.55 1.525m-1.686-6.844c.856 0 1.55.682 1.55 1.525 0 .84-.694 1.523-1.55 1.523-.857 0-1.551-.682-1.551-1.523 0-.843.694-1.525 1.55-1.525m-3.017-2.23c0-.841.695-1.524 1.55-1.524.858 0 1.552.683 1.552 1.524 0 .843-.694 1.525-1.551 1.525-.856 0-1.551-.682-1.551-1.525m11.91 11.602c0 .942-.778 1.706-1.736 1.706s-1.735-.764-1.735-1.706c0-.943.777-1.705 1.735-1.705.958 0 1.735.762 1.735 1.705m-3.46-5.579c.958 0 1.736.765 1.736 1.708 0 .941-.778 1.705-1.736 1.705-.96 0-1.735-.764-1.735-1.705 0-.943.776-1.708 1.735-1.708m.057-2.06c0 .941-.777 1.705-1.736 1.705s-1.736-.764-1.736-1.705c0-.943.777-1.708 1.736-1.708s1.736.765 1.736 1.708m-5.018-3.781c0-.942.777-1.706 1.736-1.706.958 0 1.735.764 1.735 1.706s-.777 1.706-1.735 1.706c-.959 0-1.736-.764-1.736-1.706m3.547.005c0-.96.791-1.738 1.768-1.738.976 0 1.767.778 1.767 1.738 0 .959-.791 1.737-1.767 1.737-.977 0-1.768-.778-1.768-1.737M189.22 34.04a2.1 2.1 0 0 0-.343-.872c.15.03.304.048.464.048.255 0 .495-.05.723-.129-.37.229-.665.559-.844.953m-2.858-1.685c.35-.215.63-.526.808-.895.059.298.18.572.348.812a2.278 2.278 0 0 0-.443-.045c-.252 0-.488.051-.713.128m-1.388 1.478v-.005a2.05 2.05 0 0 0-.435-1.254c.212.066.435.113.669.113.25 0 .488-.05.713-.127a2.134 2.134 0 0 0-.947 1.273m-2.828-1.975c.428-.265.748-.676.898-1.16.031.428.19.82.44 1.142a2.128 2.128 0 0 0-.641-.106 2.13 2.13 0 0 0-.697.124m5.542-2.684c.446 0 .86-.133 1.208-.355l.032.086a2.202 2.202 0 0 0-1.585 1.212 2.136 2.136 0 0 0-.843-1.288c.343.216.749.345 1.188.345m-1.07-8.4a2.287 2.287 0 0 0-.46-.047c-.008 0-.016.003-.025.003a14.428 14.428 0 0 0-.204-.02.552.552 0 0 1 .013.038 2.205 2.205 0 0 0-1.775 1.22 2.166 2.166 0 0 0-2.09-1.57 2.17 2.17 0 0 0-2.042 1.416 2.123 2.123 0 0 0-2.081-1.654c-1.177 0-2.132.939-2.132 2.095 0 1.158.955 2.095 2.132 2.095.916 0 1.69-.571 1.991-1.37a2.171 2.171 0 0 0 2.132 1.701c.863 0 1.6-.497 1.953-1.21a2.2 2.2 0 0 0 2.128 1.609c.443 0 .853-.13 1.199-.35l.044.12a2.198 2.198 0 0 0-1.707 1.217 2.168 2.168 0 0 0-2.113-1.641c-.961 0-1.766.615-2.056 1.463a2.115 2.115 0 0 0-2.1-1.788 2.12 2.12 0 0 0-2.015 1.442 1.751 1.751 0 0 0-1.763-1.694c-.977 0-1.768.777-1.768 1.737 0 .96.791 1.737 1.768 1.737.754 0 1.393-.466 1.647-1.12.004 1.154.956 2.09 2.13 2.09.937 0 1.723-.599 2.01-1.424a2.16 2.16 0 0 0 2.147 1.84c.865 0 1.604-.497 1.956-1.214.12.51.425.946.839 1.248a2.192 2.192 0 0 0-1.168-.34c-.984 0-1.806.646-2.077 1.528a2.11 2.11 0 0 0-2.115-1.94 2.13 2.13 0 0 0-1.955 1.266 1.758 1.758 0 0 0-1.735-1.418c-.976 0-1.768.778-1.768 1.737 0 .96.792 1.738 1.768 1.738.699 0 1.297-.402 1.585-.98a2.11 2.11 0 0 0 2.105 1.849c.246 0 .477-.05.697-.125a2.102 2.102 0 0 0-.927 1.247 1.756 1.756 0 0 0-1.735-1.43c-.975 0-1.767.777-1.767 1.737 0 .96.792 1.737 1.767 1.737.804 0 1.474-.53 1.688-1.25a2.111 2.111 0 0 0 2.104 1.824c.99 0 1.816-.668 2.055-1.568l-.001.014c0 1.183.975 2.143 2.178 2.143.884 0 1.64-.52 1.982-1.263a2.192 2.192 0 0 0 2.132 1.849c-.018.014-.034.033-.055.04 25.903 3.337 53.485 3.975 92.505-13.763l.362-.254c-39.047 9.8-66.196.484-97.382-2.346" fill-rule="evenodd"/></symbol><symbol viewBox="0 0 24 24" id="icon-mail" xmlns="http://www.w3.org/2000/svg"><path d="M12 14.442l8-6.668V18H4V7.774l8 6.668zM4.08 6h15.84L12 12.581 4.08 6z"/></symbol><symbol viewBox="0 0 24 24" id="icon-menu" xmlns="http://www.w3.org/2000/svg"><path d="M.9 4h22.2c.5 0 .9-.4.9-1s-.4-1-.9-1H.9C.4 2 0 2.4 0 3s.4 1 .9 1zm0 9h22.2c.5 0 .9-.4.9-1s-.4-1-.9-1H.9c-.5 0-.9.4-.9 1s.4 1 .9 1zm0 9h22.2c.5 0 .9-.4.9-1s-.4-1-.9-1H.9c-.5 0-.9.4-.9 1s.4 1 .9 1z"/></symbol><symbol viewBox="0 0 24 24" id="icon-minus" xmlns="http://www.w3.org/2000/svg"><path d="M21 11H3a1 1 0 0 0 0 2h18a1 1 0 0 0 0-2z"/></symbol><symbol viewBox="0 0 24 24" id="icon-pinterest" xmlns="http://www.w3.org/2000/svg"><path d="M12.157 5C8.064 5 6 7.936 6 10.383c0 1.482.56 2.8 1.764 3.29.198.083.374.003.432-.214.04-.152.136-.534.175-.692.058-.216.034-.292-.124-.48-.346-.41-.568-.938-.568-1.69 0-2.178 1.628-4.126 4.24-4.126 2.314 0 3.586 1.414 3.586 3.3 0 2.485-1.1 4.583-2.732 4.583-.901 0-1.577-.746-1.36-1.661.26-1.091.762-2.27.762-3.057 0-.704-.379-1.292-1.164-1.292-.921 0-1.661.952-1.661 2.229 0 .814.275 1.363.275 1.363l-1.11 4.696c-.328 1.393-.049 3.102-.024 3.272.015.104.145.128.205.05.083-.11 1.182-1.464 1.554-2.819.107-.384.606-2.37.606-2.37.3.573 1.175 1.075 2.106 1.075 2.768 0 4.649-2.525 4.649-5.904C17.61 7.38 15.446 5 12.157 5"/></symbol><symbol viewBox="0 0 24 24" id="icon-plus" xmlns="http://www.w3.org/2000/svg"><path d="M13 13h8a1 1 0 0 0 0-2h-8V3a1 1 0 0 0-2 0v8H3a1 1 0 0 0 0 2h8v8a1 1 0 0 0 2 0v-8z"/></symbol><symbol viewBox="0 0 24 24" id="icon-toggle-down" xmlns="http://www.w3.org/2000/svg"><path d="M7 10l5 5 5-5z"/></symbol><symbol viewBox="0 0 24 24" id="icon-toggle-up" xmlns="http://www.w3.org/2000/svg"><path d="M17 15l-5-5-5 5z"/></symbol><symbol viewBox="0 0 24 24" id="icon-twitter" xmlns="http://www.w3.org/2000/svg"><path d="M20.229 6.658a7.092 7.092 0 0 1-2.03.557 3.554 3.554 0 0 0 1.555-1.956 7.105 7.105 0 0 1-2.245.858 3.535 3.535 0 0 0-6.024 3.224 10.042 10.042 0 0 1-7.286-3.693 3.514 3.514 0 0 0-.478 1.777 3.53 3.53 0 0 0 1.573 2.941 3.504 3.504 0 0 1-1.6-.442c-.002.015-.002.03-.002.044a3.539 3.539 0 0 0 2.835 3.467 3.55 3.55 0 0 1-1.595.06 3.537 3.537 0 0 0 3.302 2.454 7.092 7.092 0 0 1-4.39 1.513A6.93 6.93 0 0 1 3 17.413a10.002 10.002 0 0 0 5.419 1.59c6.5 0 10.057-5.387 10.057-10.058 0-.153-.003-.306-.01-.457a7.186 7.186 0 0 0 1.764-1.83h-.001z"/></symbol><symbol viewBox="0 0 24 24" id="icon-twitter-circle" xmlns="http://www.w3.org/2000/svg"><path d="M12 0C5.372 0 0 5.372 0 12s5.372 12 12 12 12-5.372 12-12S18.628 0 12 0zm6.896 8.463c.007.152.01.306.01.46 0 4.702-3.578 10.125-10.123 10.125-2.01 0-3.88-.589-5.455-1.6a7.141 7.141 0 0 0 5.268-1.474 3.562 3.562 0 0 1-3.324-2.47 3.583 3.583 0 0 0 1.607-.061 3.561 3.561 0 0 1-2.854-3.489v-.045c.48.266 1.028.427 1.611.445a3.557 3.557 0 0 1-1.101-4.75 10.104 10.104 0 0 0 7.334 3.717 3.563 3.563 0 0 1 3.466-4.369c1.023 0 1.948.432 2.597 1.124a7.142 7.142 0 0 0 2.26-.863 3.57 3.57 0 0 1-1.565 1.968 7.13 7.13 0 0 0 2.044-.56 7.235 7.235 0 0 1-1.776 1.842h.001z"/></symbol></svg>