<svg xmlns="http://www.w3.org/2000/svg"><symbol viewBox="0 0 24 24" id="icon-arrow-down"><path d="M16.912 9.79l-4.03 6a.454.454 0 0 1-.765 0l-4.029-6c-.222-.33 0-.79.383-.79h8.058c.382 0 .605.46.383.79z"/></symbol><symbol viewBox="0 0 24 24" id="icon-arrow-external"><path d="M16.637 7.322c.188.188.295.47.295.736l.005 5.237c0 .553-.439.959-.991.959h.02c-.553 0-.962-.363-.962-.916v-2.843l-6.257 6.217c-.196.195-.49.288-.746.288-.257 0-.513-.108-.708-.303a1.026 1.026 0 0 1 0-1.436l6.218-6.26h-2.84a1 1 0 1 1 0-2.001h5.256c.265 0 .522.134.71.322"/></symbol><symbol viewBox="0 0 24 24" id="icon-arrow-left"><path d="M.2 12.6c0 .1.1.1.1.1l4 4c.4.4 1 .4 1.4 0 .4-.4.4-1 0-1.4L3.4 13H23c.6 0 1-.4 1-1s-.4-1-1-1H3.4l2.3-2.3c.4-.4.4-1 0-1.4-.4-.4-1-.4-1.4 0l-4 4c-.1.1-.2.3-.3.5 0 .3 0 .5.2.8z"/></symbol><symbol viewBox="0 0 24 24" id="icon-arrow-right"><path d="M23.8 11.4c0-.1-.1-.1-.1-.1l-4-4c-.4-.4-1-.4-1.4 0-.4.4-.4 1 0 1.4l2.3 2.3H1c-.6 0-1 .4-1 1s.4 1 1 1h19.6l-2.3 2.3c-.4.4-.4 1 0 1.4.4.4 1 .4 1.4 0l4-4c.1-.1.2-.3.3-.5 0-.3 0-.5-.2-.8z"/></symbol><symbol viewBox="0 0 24 24" id="icon-arrow-up"><path d="M8.088 14.21l4.03-6a.454.454 0 0 1 .765 0l4.029 6c.222.33 0 .79-.383.79H8.471c-.382 0-.605-.46-.383-.79z"/></symbol><symbol viewBox="0 0 24 24" id="icon-close"><path d="M17.696 16.227a1.039 1.039 0 0 1-1.469 1.469L12 13.469l-4.227 4.227a1.035 1.035 0 0 1-1.469 0 1.039 1.039 0 0 1 0-1.469L10.531 12 6.304 7.773a1.039 1.039 0 0 1 1.469-1.469L12 10.531l4.227-4.227a1.039 1.039 0 0 1 1.469 1.469L13.469 12l4.227 4.227z"/></symbol><symbol viewBox="0 0 24 24" id="icon-copy"><path d="M18.818 14.748H9.696l2.404 2.404a.778.778 0 1 1-1.1 1.1L7.268 14.52a.778.778 0 0 1 0-1.1L11 9.688a.778.778 0 1 1 1.1 1.1l-2.404 2.404h9.122a.778.778 0 1 1 0 1.556zM15.04 5.667H8.596v-.89h2c.43 0 .777-.348.777-.777v-.111a.334.334 0 0 1 .667 0V4c0 .43.348.778.778.778h2.222v.889zm4.596-.445a.778.778 0 0 0-.778-.778h-2.262V4a.778.778 0 0 0-.778-.778h-2.344A1.892 1.892 0 0 0 11.707 2c-.807 0-1.498.509-1.768 1.222H7.818A.778.778 0 0 0 7.04 4v.444H4.778A.778.778 0 0 0 4 5.222v16c0 .43.348.778.778.778h14.08c.43 0 .778-.348.778-.778v-3.74a.778.778 0 0 0-1.556 0v2.962H5.556V6H7.04v.444c0 .43.348.778.778.778h8c.43 0 .778-.348.778-.778V6h1.484v4.518a.778.778 0 0 0 1.556 0V5.222z"/></symbol><symbol viewBox="0 0 24 24" id="icon-doodle-denied"><path class="aha" d="M24.36 12c-.41.35-.54-.05-.76-.16-.16.22-.08.41-.05.6a7.15 7.15 0 0 1 0 3.47c-.19.76-.41 1.54-.54 2.3a5.59 5.59 0 0 1-2.22 3.25A9 9 0 0 1 17 23.31a9.56 9.56 0 0 0-1.25.41 4.72 4.72 0 0 1-2.87.11c-.84-.24-1.71-.41-2.55-.62a10.39 10.39 0 0 1-5.06-2.71C4 19.25 2.78 18 1.59 16.71a6.3 6.3 0 0 1-.84-1.35 5.79 5.79 0 0 1-.75-3.5c.08-.51.05-1 .11-1.54a8.47 8.47 0 0 1 .72-2.71 27.66 27.66 0 0 1 2-4.25A5.86 5.86 0 0 1 6.16.62C6.79.41 7.41.24 8 .08A3.64 3.64 0 0 1 9 0c1 .05 2 .14 3 .22a10.37 10.37 0 0 1 4.7 1.57c1.22.76 2.41 1.52 3.55 2.38A9.82 9.82 0 0 1 24 9.1a9.35 9.35 0 0 1 .27 1.52c.01.54.03 1 .09 1.38zM2 9.18c-.27.22-.19.54-.19.84a7.76 7.76 0 0 0 .05 3.06q.32.93.73 1.87a2.15 2.15 0 0 0 .38.49 2.08 2.08 0 0 0-.22-.76 5.62 5.62 0 0 1-.62-2c-.05-.46-.05-.95-.11-1.41A2.2 2.2 0 0 0 1.83 10c.08-.3.14-.57.22-.87s.16-.62.22-.92a4.56 4.56 0 0 0 .62-2.01c-.24.49-.43 1-.65 1.52-.05.19-.19.38 0 .54a.89.89 0 0 0-.24.92zm19.33 2.3a6 6 0 0 0-.65-2.68c-.35-.68-.79-1.33-1.14-2a7.05 7.05 0 0 0-3-2.68c-.92-.51-1.87-1-2.79-1.44a3.88 3.88 0 0 0-2.68-.54c-.32.08-.68.08-1 .14a6.78 6.78 0 0 0-2.57.89c-.62.41-1.22.89-1.81 1.35a2.76 2.76 0 0 0-1 1.25l-.53 1.78a3.54 3.54 0 0 0-.3 1.14c0 1 0 1.95.05 2.9A6 6 0 0 0 5.08 15a12.3 12.3 0 0 0 4 3.79c1 .6 2 1.19 3 1.87a3.51 3.51 0 0 0 2 .7c.49 0 1 .08 1.49.11a3.37 3.37 0 0 0 3-1.08 2.51 2.51 0 0 1 .38-.38 2.4 2.4 0 0 0 1-2.08 1.15 1.15 0 0 1 .05-.3l.24-3.09a2.62 2.62 0 0 0-.08-.62q-.16.08-.16.16a3.85 3.85 0 0 1-1.27 2.3c-.87.79-1.76 1.54-2.63 2.33a3.13 3.13 0 0 1-2.3.81 20 20 0 0 1-2.17-.35 6.31 6.31 0 0 1-1.63-.33 9.79 9.79 0 0 1-2.9-2.17 14.34 14.34 0 0 1-2.17-3.52A4 4 0 0 1 5 9.45a2.63 2.63 0 0 0 .27-.89A4.84 4.84 0 0 1 8 4.74a11.78 11.78 0 0 1 5.74-1.49 3.54 3.54 0 0 1 2 .68 5.91 5.91 0 0 1 .57.6c.43.46.87.92 1.27 1.41s.89 1.16 1.35 1.73c.54.73 1.14 1.44 1.62 2.19a7.94 7.94 0 0 1 .83 1.62zm-12 5.36a5.31 5.31 0 0 0 2.25 1.41c.81.22 1.68.32 2.52.46a1.7 1.7 0 0 0 1.25-.3 9.77 9.77 0 0 0 2.17-1.92 3.55 3.55 0 0 0 .87-3c-.11-.68-.22-1.33-.38-2-.27-.95-.6-1.9-.89-2.84a2.31 2.31 0 0 0-.81-1.19 9.67 9.67 0 0 1-1-.81 4.44 4.44 0 0 0-2.17-.92 8.73 8.73 0 0 0-4.25.46 2 2 0 0 0-1.08 1c-.3.49-.57 1-.87 1.49a2.67 2.67 0 0 0-.32.76 1.75 1.75 0 0 0 .16 1.41 1.86 1.86 0 0 0 .41-.85 2.28 2.28 0 0 1 .87-1.3 9.42 9.42 0 0 1 1.38-.92A4.25 4.25 0 0 1 11.55 7c.46 0 .92.08 1.35.05a1.25 1.25 0 0 1 1.19.68 11.07 11.07 0 0 0 1.14 1.57 11.35 11.35 0 0 1 1.6 2.19 5.74 5.74 0 0 1 .81 2.27 2.36 2.36 0 0 1-.24 1.44 5.26 5.26 0 0 1-2.22 1.8 1.45 1.45 0 0 1-1.16.08 3.36 3.36 0 0 0-1.47-.08 6.34 6.34 0 0 1-2.76-.16 1.79 1.79 0 0 0-.4 0zm3.47-5.5a1.58 1.58 0 0 1 .81 2.17 4.45 4.45 0 0 1-.38.6 1.58 1.58 0 0 1-1.44.68 3 3 0 0 1-1.62-.65 7.31 7.31 0 0 1-1.9-1.87 3.68 3.68 0 0 0-.27-.33c-.32.62-.32.76.11 1.19.22.22.43.41.65.6a17.07 17.07 0 0 0 3.79 2.19 3.6 3.6 0 0 0 2.49.14c.43-.11.51-.19.54-.65a4.56 4.56 0 0 0-.46-2.22C14.64 12 14 11 13.5 9.88a1.94 1.94 0 0 0-1.22-1.08A10.68 10.68 0 0 0 11 8.42 1.47 1.47 0 0 0 9.39 9c-.22.3-.41.6-.62.87a1.06 1.06 0 0 0-.05 1.22 6.68 6.68 0 0 0 2.49 2.71 1.78 1.78 0 0 0 .79.2 1 1 0 0 0 1.06-1.19c-.06-.41-.13-.9-.21-1.47zm-6.34 7.8a1.2 1.2 0 0 0 .14.24 10.16 10.16 0 0 0 5.06 3c.84.22 1.68.43 2.55.62a1.87 1.87 0 0 0 .87 0c.92-.27 1.81-.57 2.71-.87a6.49 6.49 0 0 0 2.41-1.46 1.78 1.78 0 0 0 .57-1.27l-1 1a7 7 0 0 1-6.06 2 2.22 2.22 0 0 0-.6-.05 4.39 4.39 0 0 1-3-1 14 14 0 0 0-2.82-1.65zM3.37 5.23a.21.21 0 0 0 .11.05c.32-.3.62-.6.95-.87s.76-.51 1.11-.76.68-.54 1-.81.76-.49 1.16-.73.81-.24 1.16-.62a2.91 2.91 0 0 0-.57-.11 5.59 5.59 0 0 0-2.57.32 1.79 1.79 0 0 0-.89.65q-.65 1-1.22 2.11a4.94 4.94 0 0 0-.24.77zm4.31 8.53a1.56 1.56 0 0 0 .79 1.84 6.09 6.09 0 0 0 2.73.84 1.28 1.28 0 0 0 .38-.14c-.73-.43-1.38-.79-2-1.19s-1.22-.87-1.9-1.36zM13 4.49c-1.22-.73-4.36 0-4.9 1 .81-.22 1.6-.43 2.41-.62s1.66-.13 2.49-.38zM21.7 16h.11a2.85 2.85 0 0 0 0-1.9z"/></symbol><symbol viewBox="0 0 24 24" id="icon-doodle-empty"><path class="aist0" d="M16.653 7.756c.507-.347.961-.641 1.415-.961.908-.641 1.788-1.335 2.696-1.949a12.85 12.85 0 0 1 1.682-.934 1.42 1.42 0 0 1 .881-.027c.507.16.587.721.187 1.041-1.255 1.041-2.509 2.082-3.817 3.043-.507.4-1.148.641-1.735.934-.32.16-.561.027-.747-.214-.188-.266-.348-.56-.562-.933zm-2.242 7.206c.187.24.4.454.561.694 1.068 1.788 2.135 3.577 2.989 5.472.24.561.133 1.121.026 1.655-.026.133-.24.294-.4.347-.053.027-.24-.107-.32-.214-.854-1.415-1.708-2.829-2.536-4.271-.347-.614-.427-1.281-.4-2.002.027-.534-.026-1.094-.053-1.628.08.001.106-.026.133-.053zm-6.833-.266c.08.107.107.107.107.133-.534 1.708-1.281 3.23-3.123 3.924-.534.214-1.041.427-1.575.667-.294.133-.534.133-.774-.107s-.374-.534-.214-.827c.214-.374.427-.721.721-1.041.827-.854 1.922-1.255 2.936-1.842.4-.24.827-.427 1.255-.641.213-.106.453-.186.667-.266zm12.465-2.136c.32.08.934.24 1.521.427.24.08.534.187.641.374.24.427.427.881.534 1.361.08.32-.294.587-.694.534a14.844 14.844 0 0 1-4.377-1.335c-.4-.214-.694-.988-.587-1.441.08-.347.374-.427.667-.374.693.107 1.361.267 2.295.454zm-5.552-5.952c-.427-.454-.587-.801-.534-1.308.08-.641 0-1.281.053-1.895.107-.854.24-1.735.427-2.562.107-.48.56-.694 1.041-.667.454.027.934.294 1.041.721.08.374.16.827.053 1.174-.454 1.201-.988 2.349-1.495 3.523-.132.293-.346.587-.586 1.014zm-3.443 9.395c-.027 1.548-.133 3.043-.827 4.431-.4.827-.614 1.788-.908 2.669-.053.16-.08.32-.133.48-.08.24-.267.48-.507.4-.187-.053-.427-.294-.454-.454-.027-.587-.053-1.201.08-1.762.32-1.174.774-2.296 1.361-3.336.32-.561.534-1.148.827-1.735.16-.239.374-.452.561-.693zM10.22 5.487c-.64.347-.694.347-1.041-.054-1.148-1.254-2.215-2.562-3.043-4.057-.293-.534-.267-.881.107-1.201.347-.267.854-.24 1.201.16.267.32.48.694.694 1.068a290.977 290.977 0 0 1 2.082 4.084zM7.684 7.729c-.026.934-.747 1.201-1.548.907-1.041-.4-2.109-.854-3.15-1.281-.32-.133-.667-.294-.908-.534-.4-.4-.32-.667.187-.908.428-.213.828-.239 1.282-.053 1.281.561 2.616.988 3.817 1.708.107.027.214.108.32.161zm-.613 3.55c-.614.721-1.255 1.254-2.109 1.334-1.148.107-2.322.133-3.47.16a.468.468 0 0 1-.4-.747c.267-.4.587-.827 1.121-.908 1.441-.187 2.883-.347 4.297 0 .134.027.267.081.561.161z"/></symbol><symbol viewBox="0 0 24 24" id="icon-doodle-hatch"><path d="M23.949.363c.056.697.14 1.256.14 1.814 0 1.116 0 2.232-.029 3.349 0 .446-.083.893-.111 1.34-.028.25 0 .501 0 .753 0 .362.028.725.028 1.088 0 .307.028.586.028.893-.028.474-.028.949-.112 1.395-.056.419-.92.726-1.284.503-.25-.168-.25-.419-.195-.614.112-.391.056-.754-.056-1.144-.028-.056-.056-.112-.056-.196 0-.92.028-1.842.028-2.763 0-.781-.028-1.59-.028-2.372 0-1.06 0-2.093.056-3.153 0-.196.223-.475.419-.586.363-.112.725-.168 1.172-.307zM12.814.53c.14.419.335.81.446 1.256.14.698.224 1.395.335 2.093.084.558.168 1.088.28 1.647.223 1.06.306 2.148.223 3.237-.084.781-.196 1.563-.307 2.4-.196.084-.419.195-.642.307-.447.167-.698-.028-.698-.503 0-1.227.028-2.455 0-3.655-.028-.698-.223-1.396-.307-2.093-.111-1.06-.223-2.121-.279-3.182-.028-.363.112-.753.223-1.116.084-.307.335-.39.726-.39zm-3.907.837c-.726.14-1.451.252-2.205.391a1.426 1.426 0 0 1-.307.056c-1.228.056-2.483.14-3.711.167-.307 0-.614-.083-.921-.167-.475-.14-1.005-.112-1.507-.056-.447.084-.698-.056-.949-.363-.223-.25-.167-.474.14-.586A.772.772 0 0 1-.191.726C.48.642 1.177.53 1.847.474 2.544.42 3.27.447 3.967.363 5.837.112 7.735.223 9.605.335c.195 0 .39 0 .586.056.223.056.335.223.195.418-.223.391-.474.726-1.005.642-.14-.028-.307 0-.446 0 0-.028 0-.056-.028-.084zM20.488.474c.084.698.252 1.34.196 2.01-.112 1.283.056 2.511.111 3.767.056 1.256.028 2.512.028 3.796 0 .418-.586.837-1.004.725-.28-.084-.475-.279-.475-.614.028-.558.056-1.116.028-1.674-.056-1.2-.14-2.4-.195-3.572-.028-.391 0-.81 0-1.228 0-.335.028-.698.056-1.033.055-.502.083-1.032.195-1.507.14-.53.307-.614 1.06-.67zM6.48 10.828c-.335.028-.67.028-1.032.056-.084 0-.168.028-.252 0-1.842-.363-3.683-.419-5.525-.363-.447.028-.642-.14-.67-.502 0-.307.084-.53.419-.53.614-.056 1.255-.168 1.841-.112 1.507.167 2.987.083 4.493-.028.754-.056 1.507-.112 2.233-.112.39 0 .81.028 1.2.112.223.028.502.14.586.307.14.307-.251.307-.39.474-.475.558-1.145.53-1.759.67-.363.084-.753.056-1.144.084v-.056zm-4.326 12.81c-.558.167-.976 0-1.367-.224-.446-2.316-.642-4.66-.363-7.033.084-.753.028-1.534.028-2.316 0-.363-.084-.781.335-1.144.112.195.28.335.307.53.14.614.307 1.2.363 1.814.111 1.507.167 3.042.279 4.549.056.614.223 1.228.279 1.842.084.67.084 1.311.14 1.981zm10.242-.029c-.028-.111-.111-.279-.14-.446-.027-.223.057-.363.28-.419.028 0 .028 0 .056-.028.865-.111 1.73-.25 2.595-.335.977-.111 1.954-.167 2.93-.223.754-.028 1.507-.056 2.233-.056.502 0 .977.084 1.479.084.725 0 1.423.195 2.12.502-.306.503-.753.614-1.227.642-.977.056-1.954.028-2.958.056-.893.028-1.786.112-2.68.14-.39.027-.78.055-1.143-.028-1.06-.251-2.093-.084-3.126.111-.14.028-.251.028-.39.056.055-.028.055-.028-.029-.056zM16.386.363c.474 3.32.865 6.642.893 10.102-.251.028-.474.112-.698.112-.39 0-.614-.251-.614-.642-.055-1.312-.111-2.595-.167-3.907-.056-1.563-.167-3.126-.447-4.66-.139-.81.168-1.089 1.033-1.005zM4.749 13.088c.446 2.428.642 4.828.725 7.256.028.726-.027 1.451-.055 2.177 0 .726-.224.949-1.005 1.06a2.069 2.069 0 0 1-.223-1.088c.056-.726.056-1.451.028-2.177-.056-1.59-.168-3.209-.224-4.8a28.2 28.2 0 0 1-.055-1.535c.027-.614.14-.725.809-.893zm-5.61-6.446c.391-.112.754-.28 1.145-.307 3.097-.28 6.195-.642 9.293-.419.056 0 .111.028.167.028.084.558-.14.949-.642 1.033-.223.028-.474.028-.697.028-1.452-.056-2.903.083-4.354.223-1.311.112-2.623.112-3.907.167-.084 0-.195 0-.251-.028a12.568 12.568 0 0 1-.753-.558v-.167zm13.508 14.205c-.084-.642.027-.81.586-.894 1.311-.195 2.623-.418 3.934-.53.977-.083 1.982-.028 2.959-.028.865 0 1.758 0 2.623.028.307 0 .586.028.893.084.195.028.279.223.167.39-.167.252-.362.475-.697.475l-3.07.084c-.977.028-1.954.056-2.958.111-.447.028-.893.084-1.34.112-.279.028-.558 0-.837.084a5.127 5.127 0 0 1-2.26.084zM-.442 3.963c-.028-.614-.028-.642.475-.698a45.77 45.77 0 0 1 1.981-.195 45.828 45.828 0 0 1 7.06-.14c.419.028.838.14 1.228.196-.14.697-.39.92-1.004.92-.838 0-1.675-.055-2.512-.055-.949 0-1.87.056-2.819.083-1.255.028-2.511.28-3.767.084-.112-.028-.223-.028-.307-.056-.112-.055-.223-.111-.335-.14zm24.195 9.767c-.223.14-.362.251-.502.307-1.311.447-2.651.726-4.018.782-1.06.055-2.15.083-3.21.14h-3.349c-.25-.531-.167-.838.447-.978.726-.167 1.451-.39 2.205-.223.14.028.307.028.446.028 1.116-.028 2.233-.084 3.321-.112.223 0 .474 0 .698-.027.53-.028 1.06-.028 1.59-.056.614-.028 1.228-.028 1.87-.056.168.028.28.112.502.195zM7.68 13.172c.056 1.06.112 2.093.195 3.098.028.586.112 1.144.14 1.73.056.893.084 1.786.14 2.68l.083 1.534c.056.642-.14 1.2-.753 1.507-.14.056-.307.028-.475.056 0-.14-.083-.307-.028-.419.196-.39.196-.781.168-1.172-.028-.837 0-1.674-.028-2.512-.056-.976-.056-1.981-.28-2.93-.194-.81-.222-1.59-.278-2.4-.084-.81.195-1.116 1.116-1.172zm2.623.363c.028.14.112.279.112.418.056.894.112 1.787.14 2.68 0 .223-.028.474.027.697.196.81.168 1.647.14 2.484-.028 1.06 0 2.149.028 3.21 0 .306-.056.502-.39.557-.42.056-.503.028-.699-.362-.279-.586-.334-1.172-.25-1.786.11-.921.25-1.814.362-2.735v-.14c-.335-1.256.028-2.567-.14-3.823-.027-.28.028-.558.084-.81.112-.25.28-.418.586-.39zm13.619 3.125c-.474.363-1.005.614-1.619.614-.865 0-1.702.028-2.567.056-.14 0-.307 0-.447.056-1.34.419-2.707.335-4.074.307-.837-.028-1.702.084-2.567.112-.196-.475-.084-.754.446-.865.67-.112 1.367-.112 2.037-.168 1.48-.112 2.93-.251 4.41-.335.67-.056 1.367-.028 2.065-.056.586-.028 1.2-.028 1.786-.055.25-.028.474 0 .53.334z"/></symbol><symbol viewBox="0 0 24 24" id="icon-doodle-loop"><path d="M1.743 11.415c-.053.134-.133.214-.16.321-.16.455 0 .883.187 1.284a3.479 3.479 0 0 0 1.311 1.472c.214-.856-.508-2.515-1.338-3.077m14.074 10.702c-.615-1.07-3.505-2.836-4.602-2.836.642 1.07 3.559 2.863 4.602 2.836M6.613 6.867c.374-.375.482-.75.428-1.151a6.56 6.56 0 0 1-.054-.723c0-.508-.133-.99-.4-1.444a9.223 9.223 0 0 0-.536-.857 2.225 2.225 0 0 0-1.07-.856c-.428-.16-.723-.027-.883.375-.241.588-.241 1.177.08 1.712.428.696.856 1.392 1.365 2.034.294.374.695.615 1.07.91m10.22 6.394c0 .134 0 .214.028.294.24.616.454 1.258.775 1.847.375.722.91 1.337 1.552 1.819.562.428 1.178.615 1.9.375.294-.107.589-.134.856-.214.616-.161.776-.562.375-1.07-.214-.268-.455-.563-.75-.75-1.043-.722-2.113-1.418-3.29-1.9-.429-.214-.883-.428-1.445-.4m-.937-6.315c0-.455.054-.857.027-1.258-.053-1.124-.428-2.14-.91-3.157-.32-.669-.802-1.15-1.418-1.525-.669-.428-1.043-.268-1.31.481-.375 1.124-.054 2.114.588 2.997.749.99 1.766 1.712 2.782 2.408.054.027.08.027.241.054M7.71 9.917c.134 1.123.027 2.113.348 3.077.401 1.097.83 2.194 1.23 3.29.161.402.429.59.857.723 1.471.375 2.97.803 4.227 1.712a24.45 24.45 0 0 1 1.847 1.445c.588.482.91 1.177 1.31 1.793-.267.481-.481.936-.749 1.391-.374.616-.722.723-1.445.616-.561-.08-1.15-.134-1.685-.348a5.572 5.572 0 0 1-2.087-1.418 5.63 5.63 0 0 0-1.124-.99c-.482-.321-.803-.723-1.097-1.178-.268-.428-.482-.883-.75-1.31-.08-.134-.24-.322-.4-.348a15.228 15.228 0 0 1-2.997-.857c-.027.16-.054.295-.027.402.08.642.16 1.284.24 1.953.108.856.536 1.525 1.151 2.06.67.589.776.723.16 1.659-.32.482-.588.535-1.043.16-.91-.695-1.525-1.551-1.632-2.755-.107-1.231-.348-2.435-.508-3.666-.054-.375-.214-.589-.562-.75-.589-.24-1.15-.534-1.579-1.016-.642-.696-1.15-1.471-1.364-2.408-.027-.134-.054-.321 0-.428.401-.91.776-1.82 1.712-2.355.589-.347.856-.347 1.311.161.402.455.75.936 1.097 1.418.08.107.16.268.188.401.133.776.294 1.552.374 2.328.054.455.16.75.642.91.589.187 1.15.428 1.74.642.053.027.133 0 .267.027a1.897 1.897 0 0 0-.107-.455c-.134-.375-.294-.776-.428-1.15-.107-.295-.214-.616-.24-.91-.108-.963-.188-1.927-.268-2.89-.027-.455 0-.883.026-1.338.027-.32-.08-.508-.347-.695-.616-.455-1.178-.964-1.766-1.445-.107-.107-.241-.188-.295-.321-.428-.803-.883-1.579-1.284-2.408a1.984 1.984 0 0 1-.16-.964c.08-1.07.642-1.846 1.551-2.38.375-.215.75-.429 1.097-.643.348-.214.723-.24 1.07-.027.482.295.91.642 1.205 1.124.561.91.856 1.9.802 2.916-.026.723-.267 1.418-.401 2.14-.027.135-.08.295-.107.429-.054.348.053.589.348.803.749.535 1.578.856 2.408 1.177 1.472.562 2.97 1.15 4.441 1.712.16.054.348.107.535.16.054-.213.134-.374.161-.534.107-.67.187-1.338.268-2.007.026-.24.026-.455-.268-.535-1.07-.375-1.82-1.204-2.676-1.9-.776-.642-1.284-1.471-1.605-2.381-.321-.91-.134-1.793.401-2.569.241-.348.589-.615.91-.883.535-.401 1.07-.347 1.659-.026 1.043.561 1.525 1.498 1.927 2.515.187.455.294.91.454 1.391.295.91.241 1.846.321 2.783 0 .187.027.374.027.562.508.214 1.017.16 1.498.16.964 0 1.9-.027 2.863 0 .375 0 .75.107 1.097.214.348.107.616.348.696.75-.134 0-.24.026-.348 0-.696-.349-1.445-.456-2.22-.429-.964.027-1.954-.027-2.89.187-.241.054-.509 0-.83 0-.107.937-.4 1.82-.32 2.756.026.375.267.428.534.562.857.375 1.766.723 2.596 1.204 1.31.75 2.381 1.793 3.451 2.863.295.295.375.642.134 1.017-.107.16-.16.375-.24.562-.215.669-.67 1.07-1.312 1.284-.428.16-.883.294-1.31.455-.483.187-.937.107-1.419-.08-1.017-.402-1.74-1.15-2.274-2.06-.67-1.098-1.097-2.302-1.177-3.586-.027-.428-.188-.615-.59-.722-2.006-.535-3.932-1.285-5.832-2.114-.428-.294-.856-.428-1.418-.615"/></symbol><symbol viewBox="0 0 24 24" id="icon-doodle-success"><path d="M9.944 2.213c.533-.453 1.04-.906 1.68-1.44.133.96-.427 1.52-.8 2.187.533.267 1.146 0 1.706.24.134.88-.64.693-1.12.853.107.134.187.214.267.294.187.16.347.32.533.453.56.4.534.96.374 1.52-.107.347-.267.4-.56.187-.694-.454-1.44-.854-2-1.494-.08-.08-.187-.16-.294-.24-.24.24-.133.507-.133.747 0 .48.027.987 0 1.467 0 .16-.08.32-.187.426a.518.518 0 0 1-.426.134c-.107-.027-.187-.187-.214-.32-.08-.347-.186-.72-.213-1.067-.027-.347.027-.667.053-1.147-.24.214-.373.374-.533.507-.267.213-.507.4-.8.587-.133.08-.373.106-.427.053-.106-.107-.186-.373-.106-.48.213-.427.506-.827.773-1.253.08-.134.24-.214.4-.374-.293-.213-.587-.32-.907-.32-.373 0-.72-.026-1.093-.08-.48-.08-.533-.213-.32-.746h2.08c-.16-.294-.213-.534-.373-.72-.294-.374-.294-.72-.027-1.12.347-.054.587.186.853.373.267.187.534.373.827.56.267-.72.4-1.413.853-2 .374.747 0 1.467.08 2.16-.026 0 .027.027.054.053zm7.173 10.534c.614.213.8.826 1.2 1.226.56-.373.48-1.12.96-1.6.427.64-.053 1.28.16 1.92.267-.053.534-.133.827-.186.293-.054.56-.08.853-.134.08.667-.133 1.014-1.146 1.814l.48.32c.16.106.32.24.453.346-.16.587-.533.587-.987.454-.027.293.134.48.214.693.106.24.213.453.293.693.08.24.053.507-.107.72-.186.267-.427.347-.693.16-.213-.16-.4-.373-.534-.586-.213-.347-.4-.694-.586-1.04-.027-.054-.08-.054-.187-.134-.08.16-.213.294-.266.454l-.48 1.52c-.027.08-.054.186-.08.266-.08.187-.214.347-.4.294-.214-.054-.347-.214-.294-.454.054-.266.08-.533.16-.8.187-.613.4-1.226.587-1.813.027-.08.027-.187.053-.293-.346-.16-.64.053-.96.106-.347.054-.72.16-1.066.16-.454 0-.587-.24-.347-.64.213-.4.507-.746 1.013-.853a.76.76 0 0 0 .453-.24c-.16-.08-.32-.133-.48-.213-.586-.24-1.2-.48-1.653-.907a.799.799 0 0 1-.267-.453c-.026-.267.16-.4.427-.294.294.134.587.267.88.427.374.187.747.347 1.227.4-.027-.533-.027-.96.293-1.333zM9.17 18.933c-.106-.933.32-1.6.774-2.426.106.24.186.4.213.533l.08 1.92v.667c.613-.587 1.12-1.04 1.653-1.547.214.32.134.56-.026.827-.187.32-.374.666-.587 1.066.56.027 1.04.054 1.493.08.027.64.027.64-.746 1.147.106.347.586.533.48.987a5.897 5.897 0 0 0-.134.666c-.8.08-1.28-.506-1.946-.773-.054.134-.107.24-.107.373-.053.374-.08.72-.133 1.094-.054.293-.214.453-.454.453-.24 0-.373-.133-.4-.48-.053-.426-.106-.853-.186-1.28-.347-.053-.48.187-.64.347-.107.133-.187.293-.32.373-.107.08-.294.107-.4.054-.16-.054-.214-.24-.134-.427.134-.267.294-.507.427-.773.053-.08.08-.16.133-.24-.08-.054-.106-.107-.16-.08-.64.106-1.173-.187-1.626-.587a.503.503 0 0 1-.187-.347c.027-.107.16-.266.267-.293.4-.107.826-.16 1.28-.24-.32-.667-.827-1.307-.427-2.133.613.16 1.067.746 1.813 1.04zM20.344 3.547c.586-.24 1.093-.48 1.6-.694.266.427 0 1.28-.667 1.974.32.053.613.133.907.16.24 0 .426.053.453.346 0 .267-.107.4-.373.427-.08 0-.16.053-.24.107.08.32.16.586.213.88.053.24 0 .533-.213.613-.187.053-.48 0-.667-.107-.32-.186-.586-.426-.88-.666-.053-.054-.106-.08-.187-.134-.24.4-.16.827-.213 1.254-.053.373-.053.773-.106 1.146-.027.134-.054.294-.16.4-.08.054-.24.134-.347.134-.08 0-.24-.16-.24-.24-.053-.32-.107-.64-.08-.96.027-.48.16-.96.213-1.467.027-.16-.027-.347-.053-.613-.24.106-.427.186-.587.266-.32.214-.613.427-.933.667-.267.187-.48.107-.534-.24-.053-.347.08-.64.294-.907.106-.16.24-.293.427-.533-.294-.08-.534-.16-.774-.187-.213-.053-.4-.106-.373-.373.026-.24.186-.4.453-.373.267.026.507.08.747.106h.293c0-.266-.213-.346-.346-.48-.507-.506-.614-1.173-.214-1.84.614.16 1.014.72 1.573 1.04.4-.4.24-1.093.8-1.413.294.507.16 1.067.214 1.707zm-15.387 9.6c0 .106-.026.213 0 .32.187.506.054 1.013 0 1.52a.93.93 0 0 1-.053.266c-.053.214-.187.374-.4.374-.24 0-.293-.187-.373-.4-.134-.507-.267-1.014-.214-1.574 0-.106-.026-.213-.026-.32-.64-.026-.907.534-1.36.774-.267-.134-.32-.347-.24-.56.106-.267.24-.507.373-.774.107-.186.24-.4.4-.666-.293-.027-.48-.054-.667-.08-.373-.027-.613-.214-.613-.48 0-.267.24-.48.587-.534.16-.026.32-.026.48-.053a.45.45 0 0 0 .133-.053c.213-.534-.427-1.014-.053-1.6.506.133.933.426 1.413.773.133-.24.267-.453.373-.667.134-.213.24-.426.427-.613.347.667-.053 1.333.053 2.027.56-.214.907-.72 1.44-.88.294.426-.106.693-.186 1.066.186.08.373.16.586.24.134.667-.48.72-.853.96.133.4.453.64.693.934.214.266.48.506.667.8.267.373.133.64-.347.72-.666.106-1.12-.214-1.52-.667-.24-.24-.426-.533-.613-.827-.027-.053-.08-.053-.107-.026zm8.374-2c.186.213.32.373.48.506.293.294.293.32.053.747-.24-.107-.507-.187-.747-.293-.053-.027-.106 0-.186 0-.16.56-.027 1.226-.534 1.733-.4-.507-.32-1.147-.8-1.6-.32.32-.613.64-.906.96-.32-.16-.294-.4-.187-.613.16-.267.347-.507.507-.774l.186-.373c-.48-.027-.88-.053-1.306-.08-.107 0-.267-.053-.32-.133-.054-.08 0-.267.08-.347.106-.133.293-.213.426-.32.134-.08.267-.107.48-.213a36.809 36.809 0 0 1-1.013-.987c.027-.08.027-.16.053-.24.134-.427.214-.427.56-.187.4.294.987.587 1.44.694.027-.4.08-.827.107-1.254.427.134.64.347.667.747.026.24.08.507.106.773.507-.186.667-.773 1.28-.853-.133.4-.24.72-.32 1.067.4.24.454.24.987.213.053.427.053.427-1.093.827zm7.253 9.306c.187.08.427.16.667.267.106-.24.213-.453.346-.72.107.16.16.24.24.347.053.08.107.186.187.293.187-.187.373-.32.56-.507.267.374.027.694 0 1.067.24.053.48.107.773.16-.053.427-.106.827-.186 1.254-.24-.107-.427-.16-.64-.267-.16.48.08 1.093-.48 1.386-.24-.346-.454-.64-.667-1.013-.16.16-.267.294-.4.4-.187.133-.373.267-.587.107-.24-.16-.16-.374-.053-.587.027-.053.027-.133.08-.293h-.507c-.346-.027-.453-.24-.24-.507.107-.133.267-.213.427-.293.16-.054.347-.08.56-.107-.187-.32-.693-.64-.08-.987zm2.587-10c.053.054.08.107.106.134.374.506.347.613-.24.826-.053.027-.133.054-.213.107.107.133.186.267.266.373.267.347.267.347-.106.72-.213-.106-.4-.24-.667-.4-.027.267-.053.454-.08.667-.293-.107-.293-.107-.666-.827-.214.214-.4.427-.587.64-.08.08-.16.214-.267.267-.08.053-.24.053-.293 0-.053-.053-.107-.187-.08-.267.053-.16.133-.293.24-.426.16-.24.347-.454.48-.667-.133-.32-.347-.347-.56-.293-.267.053-.427-.027-.533-.267.24-.32.24-.32.986-.453a30.283 30.283 0 0 0-.373-.987c.506.08.72.507 1.12.667.027-.24 0-.427.053-.614.027-.133.107-.346.214-.4.213-.08.32.08.4.267.026.053.053.133.106.24.213-.08.4-.16.64-.24.32.267.107.613.054.933zM3.89 1.44c.106.08.213.16.4.293-.187.214-.347.4-.587.667.16.187.32.4.507.613-.32.374-.427.347-1.04-.08-.214.32.16.854-.4 1.014-.374-.16-.374-.614-.667-.88-.213.186-.4.373-.613.533-.134.107-.294.24-.427.053-.08-.106-.08-.346-.027-.426.187-.294.427-.534.667-.854-.16-.053-.293-.053-.4-.106a1.044 1.044 0 0 1-.267-.214c.08-.08.16-.186.267-.213.187-.053.373-.08.64-.107-.293-.346-.88-.506-.48-1.12.267.134.507.267.8.427.133-.24.24-.453.373-.667.454.214.107.64.4.934.267-.187.56-.374.854-.587.266.293-.027.48 0 .72zm.426 20.48c.134.16.267.373.4.56-.026.027-.026.053-.053.107-.24-.054-.453-.107-.747-.16 0 .213.027.373.027.56-.027.346-.187.427-.507.293-.32-.133-.56-.32-.56-.853-.266.346-.453.56-.586.773-.507-.213-.534-.32-.294-.613l.48-.56c-.186-.213-.533-.134-.533-.48 0-.32.267-.347.48-.454-.187-.32-.373-.613-.213-.986.346-.027.426.373.746.453.134-.213.267-.453.48-.827.08.24.134.374.16.507.027.107.08.24.107.4.293-.16.56-.293.88-.453.027.133.08.213.053.293-.106.24-.213.453-.026.747.053.133-.16.426-.294.693z"/></symbol><symbol viewBox="0 0 24 24" id="icon-doodle-swoosh"><path d="M6.992 18.746c-.346-.134-.64-.267-.96-.4-.266-.107-.426-.294-.373-.613.054-.32.347-.347.587-.347.586-.027 1.12.16 1.44.693.346.533.613 1.12.906 1.68.08.16.027.373 0 .56-.373 1.253-.987 2.32-2.133 2.986-.027 0-.027.026-.053.026-.454.24-.853.64-1.307.667-.8.026-1.6-.187-2.266-.693-.213-.16-.453-.347-.693-.427-.906-.267-1.253-1.013-1.573-1.733-.267-.586-.427-1.2-.533-1.84-.08-.426 0-.88.053-1.332.107-1.174.72-2.053 1.626-2.773.774-.613 1.52-1.227 2.293-1.813 1.36-1.04 2.906-1.68 4.586-1.973 1.12-.187 2.24-.32 3.386-.267.56.027 1.146-.133 1.706-.186.72-.08 1.44-.134 2.16-.187.64-.053 1.28-.133 1.892-.186.427-.027.854-.054 1.28-.027.693.027 1.36.08 2.053.107 1.013 0 1.68.533 2.32 1.413-.214 0-.32.026-.454.026-1.413-.053-2.826-.373-4.265-.08-.374.08-.774.027-1.147.08-.96.08-1.92.187-2.853.267-.32.026-.64.133-.96.106-1.412-.106-2.772.134-4.132.4-1.306.24-2.48.747-3.519 1.573-.906.72-1.76 1.493-2.693 2.133-.373.267-.693.507-.906.88-.8 1.36-.8 2.8-.24 4.239.027.08.133.187.213.24.613.48 1.627.48 2.266.027.267-.187.534-.374.8-.534.747-.56 1.413-1.68 1.493-2.692zM5.66 4.482c.24-.053.427-.133.587-.106.96.16 2.24-1.333 1.6-2.56-.08-.133-.214-.293-.374-.32-.346-.053-.746-.133-1.066-.053-.72.187-1.44.4-2.106.693-.774.32-1.334.907-1.68 1.68-.267.56-.56 1.093-.64 1.733-.133 1.093.16 1.6 1.2 1.946.96.32 1.973.373 2.96.373.319 0 .639.027.959.027.32 0 .64 0 .96-.027 1.28-.106 2.532-.213 3.812-.32.213-.026.427-.026.64-.053.64-.08 1.28-.16 1.893-.24.266-.027.56-.027.826-.133.8-.267 1.6-.24 2.4-.187.666.053 1.36.027 2.026-.053.613-.08 1.173-.08 1.76.133.373.16.773.267 1.146.427.32.133.587.373.72.72-.054.053-.107.106-.133.106-.907-.16-1.813-.053-2.747.053-.64.054-1.28 0-1.92 0-.426 0-.852.08-1.252.134-.587.08-1.173.213-1.76.32l-1.2.16c-.56.053-1.093.08-1.652.133l-3.253.32c-.267.026-.507.053-.773.053-.853-.027-1.706-.08-2.56-.133-1.652-.107-3.145-.72-4.505-1.68-.853-.586-1.04-1.466-1.173-2.4C.22 4.11.7 3.15 1.34 2.27c.107-.16.293-.266.453-.346C2.647 1.416 3.58 1.016 4.38.43c.88-.64 2.666-.533 3.412.107.747.64 1.333 1.386 1.866 2.159.294.427.294.986-.08 1.493-.213.293-.453.56-.72.826-.693.694-1.52.827-2.372.347-.294-.187-.693-.293-.827-.88zM23.63 17.04c-.187.027-.347.08-.534.054-.666-.08-1.333-.267-2.026-.294-.88-.053-1.786-.08-2.693 0a12.99 12.99 0 0 0-2.266.374c-1.173.32-2.133.986-2.693 2.08-.16.32-.213.719-.24 1.092-.026.374.054.773.107 1.147.053.346.213.453.587.426.506-.053 1.2-.533 1.493-1.066a8.188 8.188 0 0 1-.454-.827c-.106-.293 0-.453.32-.453.347 0 .694.027.933.347l.72.88c.214.266.24.586.16.906-.293 1.173-1.813 1.946-2.906 1.413-.773-.373-1.573-.773-2.133-1.493-.08-.107-.24-.24-.266-.347-.213-.933-.507-1.866-.213-2.826.16-.56.48-1.013.96-1.413 1.066-.853 2.292-1.306 3.625-1.413.56-.053 1.147-.106 1.706-.186 1.2-.16 2.373.08 3.573.213.693.08 1.253.373 1.76.8l.48.4v.186z"/></symbol><symbol viewBox="0 0 24 24" id="icon-dots"><path d="M17.616 13.24c.243-.243.384-.582.384-.928 0-.345-.14-.684-.384-.928a1.324 1.324 0 0 0-.928-.384c-.345 0-.685.14-.929.384a1.324 1.324 0 0 0-.384.928c0 .346.14.685.384.929.244.243.584.384.928.384.345 0 .685-.14.929-.384m-4.688 0c.244-.246.384-.583.384-.928 0-.346-.14-.685-.384-.929A1.324 1.324 0 0 0 12 11c-.345 0-.684.14-.928.384a1.324 1.324 0 0 0-.384.928c0 .346.14.685.384.929.244.243.583.384.928.384.345 0 .684-.14.928-.384m-5.616.384c-.345 0-.684-.14-.928-.384A1.324 1.324 0 0 1 6 12.313c0-.346.14-.685.384-.929.244-.243.583-.384.928-.384.345 0 .685.14.929.384.243.244.384.583.384.928 0 .346-.14.685-.384.929a1.324 1.324 0 0 1-.928.384"/></symbol><symbol viewBox="0 0 24 24" id="icon-dropdown"><path d="M9.707 10.42a1 1 0 0 0-1.414 1.414l2.873 2.873a1 1 0 0 0 1.415 0l3-3a1 1 0 0 0-1.415-1.414l-2.293 2.293-2.166-2.167z"/></symbol><symbol viewBox="0 0 24 24" id="icon-dropup"><path d="M14.2 14.6c.4.4 1 .4 1.4 0 .4-.4.4-1 0-1.4l-2.9-2.9c-.4-.4-1-.4-1.4 0l-3 3c-.4.4-.4 1 0 1.4.4.4 1 .4 1.4 0l2.3-2.3 2.2 2.2z"/></symbol><symbol viewBox="0 0 24 24" id="icon-event-anniversary"><path d="M4.409 11.647l-1.85 2.044a.414.414 0 0 1-.307.136h-.001a.413.413 0 0 1-.307-.137L.106 11.646a.413.413 0 1 1 .616-.553l1.096 1.219c-.003-.104-.01-.208-.01-.312 0-5.678 4.62-10.298 10.297-10.298a.414.414 0 1 1 0 .828c-5.222 0-9.47 4.248-9.47 9.47 0 .12.007.24.012.361l1.149-1.269a.413.413 0 1 1 .613.555m19.49.729l-1.79-2.072a.413.413 0 0 0-.618-.01l-1.899 2.071a.414.414 0 0 0 .611.559L21.4 11.62c.005.126.011.253.011.38 0 5.222-4.248 9.47-9.47 9.47a.414.414 0 1 0 0 .828c5.678 0 10.297-4.62 10.297-10.298 0-.097-.006-.194-.009-.29l1.043 1.207a.411.411 0 0 0 .584.042.412.412 0 0 0 .043-.583m-7.035-8.387a.52.52 0 1 0 .109-1.033.52.52 0 0 0-.109 1.033m1.643 1.121a.52.52 0 1 0 .109-1.033.52.52 0 0 0-.109 1.033m1.364 1.52a.52.52 0 1 0 .109-1.033.52.52 0 0 0-.109 1.033M4.236 17.421a.521.521 0 1 0 .1 1.038.521.521 0 0 0-.1-1.038m1.377 1.483a.52.52 0 1 0 .101 1.037.52.52 0 0 0-.101-1.037m1.676 1.123a.52.52 0 1 0 .096 1.034.52.52 0 0 0-.096-1.034M12 15.101a.925.925 0 0 1-.682-.3L9.2 12.495a2.107 2.107 0 0 1 2.799-3.129 2.102 2.102 0 0 1 2.77.182c.398.398.617.927.617 1.489 0 .552-.212 1.073-.597 1.469L12.682 14.8a.926.926 0 0 1-.682.301m.075-.864l2.114-2.302a1.28 1.28 0 0 0-.003-1.803c-.506-.506-1.408-.471-1.871.07a.414.414 0 0 1-.627 0 1.279 1.279 0 1 0-1.885 1.724l2.124 2.313c.063.069.081.07.148-.002"/></symbol><symbol viewBox="0 0 24 24" id="icon-event-birthday"><path d="M21.776 11.679h-5.362V4.044a1.664 1.664 0 0 0 1.276-1.638c0-.72-1.056-1.922-1.38-2.273a.412.412 0 0 0-.618.011c-.511.593-1.37 1.677-1.37 2.263 0 .802.53 1.45 1.263 1.634v7.638H12.35V9.517c.709-.192 1.217-.806 1.217-1.561 0-.701-1.061-1.851-1.386-2.187a.509.509 0 0 0-.304-.126.413.413 0 0 0-.3.136c-.628.695-1.377 1.637-1.377 2.177 0 .793.558 1.435 1.322 1.592v2.131H8.335V5.974a1.644 1.644 0 0 0 1.276-1.612c0-.713-1.058-1.891-1.383-2.235a.389.389 0 0 0-.308-.13.408.408 0 0 0-.304.14c-.512.582-1.372 1.646-1.372 2.224 0 .789.53 1.428 1.263 1.609v5.709H2.224a.414.414 0 0 0-.414.414v11.494a.415.415 0 0 0 .414.413h19.551a.414.414 0 0 0 .414-.414V12.092a.413.413 0 0 0-.413-.413zM15.151 2.41c.015-.15.293-.649.864-1.36.554.661.847 1.194.848 1.356a.851.851 0 0 1-.449.758v-.357a.414.414 0 1 0-.828 0v.351a.854.854 0 0 1-.435-.748zm-4.124 5.552c.021-.145.301-.619.865-1.286.585.662.842 1.149.847 1.281a.783.783 0 0 1-.389.675v-.35a.414.414 0 1 0-.828 0v.403a.795.795 0 0 1-.495-.723zM7.072 4.365c.018-.148.296-.636.864-1.327.55.642.844 1.163.847 1.323a.824.824 0 0 1-.449.735v-.444a.414.414 0 1 0-.828 0v.438a.826.826 0 0 1-.434-.725zm14.29 18.807H2.638V14.98h18.724v8.192zm0-9.02H2.638v-1.646h9.29l.008.002.008-.002h9.418v1.646z"/></symbol><symbol viewBox="0 0 24 24" id="icon-event-cause"><path d="M15.34 12.601a.407.407 0 0 1-.01.575c-.849.823-2.128 1.294-3.508 1.294-1.42 0-2.72-.493-3.569-1.354a.406.406 0 1 1 .58-.571c.686.696 1.804 1.112 2.989 1.112 1.154 0 2.254-.399 2.943-1.065a.407.407 0 0 1 .575.009m6.072.009l-8.245 8.976a1.572 1.572 0 0 1-1.168.522c-.443 0-.858-.185-1.168-.522l-8.257-8.99A6.143 6.143 0 0 1 .828 8.29 6.183 6.183 0 0 1 7 2.113c1.801 0 3.509.784 4.685 2.15a.412.412 0 0 0 .627 0 6.167 6.167 0 0 1 4.683-2.15c1.647 0 3.197.644 4.365 1.811a6.137 6.137 0 0 1 1.811 4.366 6.15 6.15 0 0 1-1.76 4.32m.534-9.27a6.958 6.958 0 0 0-4.95-2.054 6.99 6.99 0 0 0-4.997 2.095A7.004 7.004 0 0 0 7 1.286c-3.859 0-7 3.142-7 7.004 0 1.836.703 3.57 1.973 4.875l8.249 8.981a2.394 2.394 0 0 0 3.554 0l8.237-8.967A6.965 6.965 0 0 0 24 8.29c0-1.867-.73-3.626-2.054-4.95"/></symbol><symbol viewBox="0 0 24 24" id="icon-event-engagement"><path d="M13.872 3.938c.069-.111.125-.226.159-.346l.77-2.684c.074-.253.053-.483-.075-.667C14.604.086 14.389 0 14.123 0H9.88c-.271 0-.487.088-.615.256-.118.163-.141.394-.066.649l.773 2.688c.034.12.091.235.159.346-4.691.879-8.252 5.001-8.252 9.942C1.879 19.461 6.42 24 12.002 24c5.58 0 10.12-4.539 10.12-10.119-.001-4.941-3.56-9.063-8.25-9.943zM10.038.828h3.926l-.728 2.535c-.046.16-.195.325-.38.438-.282-.024-.566-.039-.854-.039s-.572.015-.854.039c-.185-.113-.335-.278-.381-.437L10.038.828zm1.964 22.344c-5.126 0-9.295-4.168-9.295-9.291 0-4.78 3.63-8.727 8.279-9.235l.045.019.965-.012-.001-.063h.011l.003.063.965.012.045-.019c4.647.508 8.275 4.455 8.275 9.235 0 5.123-4.169 9.291-9.292 9.291z"/></symbol><symbol viewBox="0 0 24 24" id="icon-event-moving"><path d="M23.981 15.245a.415.415 0 0 0-.52-.269l-11.043 3.525a2.815 2.815 0 0 0-3.072-1.492L5.113 3.98a.416.416 0 0 0-.212-.244L.596 1.631a.415.415 0 0 0-.364.744L4.38 4.402l4.187 12.891a2.819 2.819 0 0 0-1.476 2.476c0 1.553 1.263 2.816 2.816 2.816s2.815-1.263 2.815-2.816c0-.164-.017-.325-.044-.482l11.034-3.522a.415.415 0 0 0 .269-.52zM9.907 21.757c-1.096 0-1.988-.892-1.988-1.988s.892-1.988 1.988-1.988 1.988.892 1.988 1.988a1.99 1.99 0 0 1-1.988 1.988zm1.526-5.565a.414.414 0 0 0 .522.264l10.714-3.518a.412.412 0 0 0 .264-.522L19.416 1.701a.414.414 0 0 0-.522-.264L8.179 4.955a.412.412 0 0 0-.264.522l3.518 10.715zm1.845-12.041l1.013 3.127a.414.414 0 0 0 .788-.255l-1.015-3.129 4.695-1.542 3.259 9.929-9.928 3.259-3.26-9.928 4.448-1.461z"/></symbol><symbol viewBox="0 0 24 24" id="icon-event-newborn"><path d="M15.34 12.601a.407.407 0 0 1-.009.575c-.849.823-2.128 1.294-3.508 1.294-1.419 0-2.72-.493-3.569-1.354a.406.406 0 1 1 .579-.571c.687.696 1.804 1.112 2.989 1.112 1.154 0 2.254-.398 2.943-1.065a.406.406 0 0 1 .575.009m7.31-6.51l-2.327 2.801c-.167.203-.255.233-.502.052-.24-.176-.487-.342-.752-.52l-.361-.244a.407.407 0 0 0-.636.336v8.377c0 .353-.063.416-.423.423-2.098.04-3.628 1.342-3.995 3.398-.038.218-.049.43-.059.636l-.009.164c-.01.171-.096.257-.257.258-1.023.003-2.046.003-3.068 0-.177 0-.257-.081-.261-.261-.024-1.166-.35-2.094-.998-2.838-.7-.804-1.66-1.258-2.856-1.351a2.271 2.271 0 0 0-.185-.006l-.064-.001c-.305-.007-.384-.088-.384-.395V8.516a.407.407 0 0 0-.636-.336l-.36.243c-.262.177-.508.342-.748.517-.252.184-.334.155-.502-.046a1587.26 1587.26 0 0 1-2.34-2.817c-.201-.242-.09-.349-.024-.414C2.52 4.087 3.908 3.086 5.401 2.419a9.196 9.196 0 0 1 2.667-.739c.285-.034.321-.028.478.279.679 1.321 1.801 2.02 3.243 2.024h.01c1.423 0 2.54-.689 3.228-1.994.179-.34.216-.346.551-.303 1.658.212 3.238.866 4.695 1.947.676.501 1.326 1.073 1.955 1.628l.419.368c.139.121.209.214.003.462m.532-1.075l-.416-.366c-.641-.565-1.305-1.15-2.008-1.67-1.57-1.165-3.278-1.872-5.076-2.101-.682-.088-1.044.104-1.374.73-.546 1.035-1.39 1.56-2.509 1.56h-.008c-1.134-.002-1.983-.535-2.521-1.582-.261-.506-.566-.802-1.299-.715a10.016 10.016 0 0 0-2.902.804C3.484 2.384 2.024 3.434.336 5.08c-.434.421-.448 1.016-.035 1.516l2.341 2.818c.452.544 1.022.609 1.606.183.148-.107.297-.211.452-.316v7.639c.001.75.431 1.19 1.18 1.207l.076.001c.044 0 .088 0 .13.004.987.076 1.741.428 2.303 1.073.517.594.778 1.353.798 2.321.013.621.454 1.056 1.072 1.058l1.536.002 1.536-.002c.594-.001 1.033-.422 1.068-1.024l.009-.172c.009-.189.017-.367.047-.533.299-1.676 1.498-2.695 3.209-2.727.799-.015 1.221-.443 1.221-1.236v-7.61c.157.107.308.211.456.319.582.426 1.153.358 1.608-.189.775-.934 1.55-1.868 2.326-2.8.456-.55.421-1.146-.093-1.596"/></symbol><symbol viewBox="0 0 24 24" id="icon-event-recovery"><path d="M22.592 14.047c-.329-5.221-3.373-7.676-4.492-8.407l-.523 1.751a.416.416 0 0 1-.515.279.414.414 0 0 1-.278-.515l1.332-4.458C17.5 2.223 15.397.828 11.95.828c-.006 0-.011-.003-.017-.003s-.011.003-.016.003c-3.446 0-5.55 1.394-6.165 1.868l1.331 4.458a.414.414 0 0 1-.793.236l-.524-1.755c-1.125.72-4.158 3.135-4.489 8.411-.314 4.987 3.237 6.269 4.755 6.588-1.684-2.63-1.916-5.946-1.946-6.702-.155.003-.308.005-.459.005a.414.414 0 1 1 0-.828c2.575 0 5.511-.437 7.823-3.609a3.514 3.514 0 0 1-.325-1.438.414.414 0 1 1 .828 0c0 1.156.821 2.108 1.51 2.703 1.819 1.573 4.933 2.611 6.945 2.321a.414.414 0 0 1 .12.819 5.449 5.449 0 0 1-.75.053c-.05.79-.359 4.094-2.098 6.707 1.411-.261 5.237-1.45 4.912-6.618m-3.642-.127c-2.047-.205-4.479-1.186-6.029-2.526a6.315 6.315 0 0 1-1.025-1.114c-2.108 2.703-4.7 3.446-6.985 3.613.019.51.139 2.516.913 4.525 1.16 3.013 3.182 4.617 6.011 4.768 6.316-.337 7.041-8.062 7.115-9.266m-1.719 7.643l-.03.001a.414.414 0 0 1-.172-.041c-1.165 1.352-2.82 2.372-5.173 2.491l-.021.001-.021-.001c-2.334-.118-3.962-1.123-5.1-2.459-.017.002-.031.009-.048.009l-.029-.001c-.066-.004-6.629-.547-6.187-7.568.374-5.956 3.997-8.541 5.071-9.181l-.626-2.095-.001-.015a.41.41 0 0 1 .099-.455C5.091 2.157 7.444 0 11.918 0c.005 0 .01.003.016.003S11.944 0 11.95 0c4.474 0 6.826 2.158 6.924 2.249a.41.41 0 0 1 .099.455l-.001.014-.626 2.095c1.074.64 4.696 3.225 5.072 9.181.442 7.022-6.121 7.565-6.187 7.569m-3.319-2.619c-1.36.959-2.969.526-3.719-.001a.414.414 0 1 0-.476.678c.613.43 1.465.726 2.373.726.764 0 1.568-.21 2.299-.727a.414.414 0 0 0-.477-.676m-.021-14.757a.414.414 0 0 1-.414.414h-1.129V5.73a.414.414 0 1 1-.828-.001V4.601h-1.129a.414.414 0 1 1 0-.828h1.129v-1.13a.414.414 0 1 1 .828 0v1.13h1.129c.229 0 .414.185.414.414"/></symbol><symbol viewBox="0 0 24 24" id="icon-event-remembering"><path d="M19.786 14.731c-.118.032-.235.057-.353.084-1.454-1.76-3.471-2.943-5.38-3.134a2.246 2.246 0 0 0-1.338-1.424c.713-1.339 2.298-2.916 4.817-3.639 1.457-.418 4.701.781 5.611 2.798l.007.024c.261 2.195-1.899 4.897-3.364 5.291m-1.389 7.427l-.02.013c-1.999.948-5.249-.237-6.089-1.497-.068-.103-.129-.207-.192-.31 1.396-2.241 1.632-4.633 1.209-6.271.471-.374.788-.934.84-1.567 1.495.211 3.574 1.193 5.112 3.42.861 1.247.76 4.705-.86 6.212m-7.431-1.6c-.908 1.215-4.219 2.223-6.162 1.167l-.02-.014c-1.535-1.593-1.45-5.05-.523-6.248.076-.098.156-.189.235-.282.771.183 1.51.269 2.201.269 1.757 0 3.21-.515 4.154-1.142a2.225 2.225 0 0 0 1.698.179c.349 1.599.004 3.945-1.583 6.071M.875 8.708l.007-.023c1.017-1.964 4.322-2.989 5.755-2.492.115.04.227.085.339.129.245 2.7 1.534 4.659 2.738 5.654a2.22 2.22 0 0 0 .468 1.774c-1.21.708-3.336 1.226-5.795.555a9.145 9.145 0 0 1-.439-.132C2.508 13.702.497 10.887.875 8.708m11.042 2.226a1.41 1.41 0 0 1 1.409 1.409 1.41 1.41 0 1 1-1.409-1.409M11.958.827h.024c2.187.338 4.212 3.142 4.199 4.657a8.998 8.998 0 0 1-.041.753c-2.233.953-3.645 2.543-4.275 3.872a2.235 2.235 0 0 0-1.835 1.04c-1.175-1.092-2.249-3.136-2.27-5.665C7.746 3.97 9.771 1.165 11.958.827m12.01 8.477l-.055-.196c-1.098-2.496-4.84-3.794-6.61-3.286-.107.031-.208.066-.312.099.009-.143.016-.286.017-.429.016-1.839-2.237-5.098-4.937-5.488L12.042 0l-.174.005C9.202.39 6.975 3.57 6.936 5.421l-.028-.011c-1.74-.601-5.546.493-6.777 2.927l-.065.193c-.486 2.648 1.818 5.774 3.559 6.403l-.019.023.327.253-.327-.253c-1.125 1.455-1.303 5.413.61 7.356l.163.123c.714.396 1.552.563 2.405.563 1.96 0 3.996-.881 4.8-1.891l.015.024c.756 1.133 2.977 2.212 5.074 2.212.735 0 1.455-.132 2.092-.442l.168-.114c1.99-1.816 2.047-5.698 1.04-7.252a.246.246 0 0 0 .029-.007c1.777-.476 4.313-3.519 3.966-6.224"/></symbol><symbol viewBox="0 0 24 24" id="icon-event-retirement"><path d="M12.697 2.226l.086-1.831a.407.407 0 0 1 .432-.394.414.414 0 0 1 .394.433l-.086 1.831a.414.414 0 0 1-.413.394h-.02a.414.414 0 0 1-.393-.433zm5.526 2.97a.416.416 0 0 0 .276-.105l1.368-1.22a.414.414 0 0 0-.551-.617l-1.368 1.22a.414.414 0 0 0 .275.722zm1.357 4.986a.415.415 0 0 0 .386.441l1.826.122.028.001a.415.415 0 0 0 .028-.827l-1.826-.122a.425.425 0 0 0-.442.385zm-2.374 4.675a.413.413 0 0 0-.044.583l1.232 1.436a.414.414 0 0 0 .628-.539l-1.232-1.436a.415.415 0 0 0-.584-.044zm-5.525 2.059l-.161 1.858a.414.414 0 0 0 .824.072l.161-1.859a.414.414 0 0 0-.824-.071zm-4.908-2.683l-1.437 1.184a.414.414 0 0 0 .526.639l1.437-1.184a.413.413 0 1 0-.526-.639zM3.2 9.374l2.043.217a.414.414 0 0 0 .088-.823l-2.044-.217a.415.415 0 0 0-.087.823zm4.198-5.002a.414.414 0 1 0 .648-.514L6.852 2.349a.415.415 0 0 0-.649.514l1.195 1.509zm-.147 2.632a5.946 5.946 0 0 1 3.416-3.053 5.942 5.942 0 0 1 4.576.257 5.951 5.951 0 0 1 3.054 3.416c.528 1.509.437 3.134-.257 4.575s-1.907 2.526-3.416 3.054a5.961 5.961 0 0 1-4.575-.255 5.953 5.953 0 0 1-3.054-3.417 5.948 5.948 0 0 1 .256-4.577zm.525 4.302c.456 1.301 1.389 2.347 2.631 2.945s2.642.676 3.943.221c1.3-.455 2.346-1.39 2.944-2.632s.676-2.642.221-3.942a5.127 5.127 0 0 0-2.631-2.945 5.147 5.147 0 0 0-2.234-.514c-.574 0-1.151.097-1.709.293a5.127 5.127 0 0 0-2.944 2.632 5.12 5.12 0 0 0-.221 3.942zm14.895 9.584a.412.412 0 0 0-.533.241 3.166 3.166 0 0 1-2.95 2.041 3.168 3.168 0 0 1-2.952-2.045c-.002-.005-.007-.009-.009-.015-.005-.011-.013-.019-.019-.03a.404.404 0 0 0-.372-.218c-.007 0-.013.002-.019.003-.038.003-.076.004-.114.018-.009.003-.015.011-.024.014l-.01.007a.406.406 0 0 0-.119.084l-.01.015a.404.404 0 0 0-.074.118c-.001.003-.004.005-.005.009a3.166 3.166 0 0 1-2.949 2.041 3.168 3.168 0 0 1-2.952-2.045.408.408 0 0 0-.443-.257.41.41 0 0 0-.415.261 3.165 3.165 0 0 1-2.95 2.041A3.168 3.168 0 0 1 2.8 21.128a.414.414 0 1 0-.775.291A4.002 4.002 0 0 0 5.753 24a4.001 4.001 0 0 0 3.38-1.884A3.999 3.999 0 0 0 12.512 24a4.003 4.003 0 0 0 3.338-1.818A4 4 0 0 0 19.188 24a4 4 0 0 0 3.725-2.577.414.414 0 0 0-.242-.533z"/></symbol><symbol viewBox="0 0 24 24" id="icon-event-success"><path d="M23.892 2.881l-1.365-1.497a.415.415 0 0 0-.611-.001l-1.447 1.58a.415.415 0 0 0 .305.693.413.413 0 0 0 .305-.134l.729-.797v3.689H10.8a.414.414 0 0 0-.414.414v4.851H5.533a.414.414 0 0 0-.414.414V16.8H.414a.415.415 0 0 0-.414.415v5.123c0 .229.185.414.414.414h7.933a.414.414 0 0 0 .414-.414v-4.709h4.706a.414.414 0 0 0 .414-.414v-4.693h1.265c.025 0 .046-.01.07-.014h3.517a.414.414 0 0 0 .414-.414V7.243h3.074a.414.414 0 0 0 .414-.414V2.731l.645.707a.414.414 0 0 0 .612-.557zM.828 21.924v-4.295h4.706c.031 0 .059-.011.088-.018.018.002.035.011.054.011h2.258v4.302H.828zm12.225-5.123H9.739c-.012-.001-.022-.007-.034-.007H5.947v-4.286H10.8c.05 0 .096-.012.14-.028a.414.414 0 0 0 .175.042h1.939v4.279h-.001zm.414-5.121c-.025 0-.046.01-.07.014h-2.184V7.243h7.106v4.438l-4.852-.001z"/></symbol><symbol viewBox="0 0 24 24" id="icon-event-wedding"><path d="M16.619 7.382C16.142 3.233 12.614 0 8.341 0 3.741 0 0 3.741 0 8.339c0 4.273 3.232 7.801 7.38 8.279C7.857 20.767 11.386 24 15.661 24 20.259 24 24 20.259 24 15.662c0-4.274-3.233-7.803-7.381-8.28M.828 8.339c0-4.141 3.37-7.511 7.513-7.511 3.798 0 6.938 2.836 7.434 6.501-.038 0-.075-.006-.114-.006-4.599 0-8.34 3.741-8.34 8.339 0 .038.005.074.005.112C3.663 15.276.828 12.136.828 8.339m15.023 0c0 4.142-3.369 7.512-7.51 7.512-.062 0-.122-.008-.183-.01-.002-.06-.009-.119-.009-.179 0-4.142 3.37-7.512 7.513-7.512.061 0 .12.008.181.01 0 .06.008.118.008.179m-.19 14.833c-3.799 0-6.94-2.836-7.437-6.501.039.001.077.006.116.006 4.597 0 8.338-3.741 8.338-8.339 0-.038-.005-.074-.006-.112 3.664.497 6.5 3.637 6.5 7.435 0 4.142-3.369 7.511-7.511 7.511"/></symbol><symbol viewBox="0 0 24 24" id="icon-facebook"><path d="M15.12 9.463h-2.152V7.968c0-.56.35-.691.598-.691h1.519V4.809L12.993 4.8c-2.322 0-2.85 1.84-2.85 3.018v1.645H8.8v2.542h1.343V19.2h2.825v-7.195h1.905l.247-2.542z"/></symbol><symbol viewBox="0 0 24 24" id="icon-folio-error"><path d="M.634 19.615a.308.308 0 1 1-.595-.159c.261-.979 1.823-1.876 3.44-1.876 1.223 0 2.057.207 3.284.702l.294.119c.115.047.202.081.286.114.737.287 1.259.415 1.889.424.826.011 1.454-.22 1.92-.608.157-.131.283-.271.382-.409.056-.08.09-.138.102-.164a.308.308 0 0 1 .558 0c.012.026.045.084.102.164.098.138.225.278.382.409.465.388 1.093.619 1.92.608.63-.008 1.152-.136 1.889-.424l.286-.114.294-.119c1.228-.495 2.062-.702 3.284-.702 1.567 0 3.111.893 3.441 1.866a.307.307 0 1 1-.583.197c-.237-.697-1.535-1.448-2.858-1.448-1.131 0-1.893.19-3.054.657l-.293.119-.294.117c-.799.312-1.389.456-2.105.466-.975.013-1.745-.27-2.322-.751-.344-.287-.551-.578-.647-.786h.558c-.097.208-.303.499-.647.786-.576.481-1.346.763-2.322.751-.716-.009-1.305-.154-2.105-.466l-.294-.117-.293-.119c-1.161-.468-1.924-.657-3.054-.657-1.365.001-2.666.749-2.845 1.42zm9.946-7.437a.308.308 0 1 1-.355-.503 2.884 2.884 0 0 1 1.682-.532c.664 0 1.287.216 1.735.531a.307.307 0 1 1-.353.503c-.547-.382-1.719-.698-2.709.001zM.611 6.077a.307.307 0 1 1-.607-.103C.175 4.965 1.792 4 3.465 4c1.223 0 2.057.207 3.285.702l.294.119c.115.047.202.081.286.114.737.287 1.259.415 1.889.424.826.011 1.454-.22 1.92-.608.157-.131.283-.271.382-.409.056-.08.09-.138.102-.164a.308.308 0 0 1 .558 0c.012.026.045.084.102.164.098.138.225.278.382.409.465.388 1.093.619 1.92.608.63-.008 1.152-.136 1.889-.424l.286-.114.294-.119C18.281 4.207 19.115 4 20.337 4c1.599 0 3.177.934 3.459 1.923a.307.307 0 0 1-.212.38.307.307 0 0 1-.38-.212c-.198-.694-1.52-1.477-2.867-1.477-1.131 0-1.893.19-3.054.657l-.293.119-.294.117c-.799.312-1.389.456-2.105.466-.975.013-1.745-.27-2.322-.751-.344-.287-.551-.578-.647-.786h.558c-.097.208-.303.499-.647.786-.576.481-1.346.763-2.322.751-.715-.008-1.305-.152-2.104-.464-.088-.034-.177-.07-.294-.118l-.293-.118c-1.161-.468-1.924-.658-3.055-.658-1.405 0-2.742.799-2.854 1.462z"/></symbol><symbol viewBox="0 0 24 24" id="icon-folio-normal"><path d="M23.174 4.238a.308.308 0 1 1 .595.158c-.26.979-1.823 1.876-3.44 1.876-1.223 0-2.056-.207-3.284-.702l-.294-.119a24.17 24.17 0 0 0-.287-.114c-.736-.287-1.259-.415-1.889-.424-.826-.01-1.454.22-1.92.608a2.114 2.114 0 0 0-.483.573.308.308 0 0 1-.558 0 1.218 1.218 0 0 0-.102-.164 2.171 2.171 0 0 0-.381-.409c-.465-.388-1.093-.618-1.92-.608-.63.009-1.152.137-1.889.424l-.286.114-.294.12c-1.228.494-2.062.701-3.285.701-1.566 0-3.11-.893-3.44-1.865a.308.308 0 0 1 .582-.198c.237.697 1.535 1.448 2.858 1.448 1.131 0 1.894-.19 3.055-.657l.293-.12.294-.116c.8-.312 1.389-.457 2.104-.466.976-.012 1.746.27 2.322.75.344.288.55.579.647.787h-.558c.097-.208.303-.5.647-.786.577-.481 1.347-.763 2.322-.75.716.008 1.305.153 2.105.465l.294.117.293.119c1.16.467 1.923.657 3.054.657 1.365 0 2.666-.748 2.845-1.42zm-9.945 7.436a.308.308 0 0 1 .355.503 2.884 2.884 0 0 1-1.682.531 3.075 3.075 0 0 1-1.735-.53.307.307 0 1 1 .353-.504c.546.383 1.718.7 2.709 0zm9.968 6.102a.308.308 0 1 1 .607.103c-.171 1.008-1.788 1.974-3.461 1.974-1.223 0-2.057-.208-3.285-.702l-.294-.12a24.17 24.17 0 0 0-.286-.114c-.737-.287-1.26-.415-1.89-.423-.826-.01-1.453.22-1.919.608-.157.13-.283.27-.381.409-.057.08-.09.137-.102.164a.308.308 0 0 1-.558 0 1.218 1.218 0 0 0-.102-.164 2.171 2.171 0 0 0-.382-.41c-.465-.388-1.093-.618-1.92-.607-.63.008-1.152.136-1.888.423a24.17 24.17 0 0 0-.287.115l-.294.119c-1.228.494-2.061.702-3.284.702-1.6 0-3.177-.934-3.46-1.924a.308.308 0 0 1 .593-.168c.197.694 1.52 1.476 2.867 1.476 1.13 0 1.893-.19 3.054-.657l.294-.119.293-.117c.8-.312 1.389-.456 2.105-.466.975-.012 1.745.27 2.322.751.344.287.55.578.647.786h-.558c.096-.208.303-.499.647-.786.576-.48 1.346-.763 2.322-.75.715.009 1.305.153 2.104.465l.294.117.293.119c1.161.468 1.924.657 3.055.657 1.405 0 2.742-.798 2.854-1.46z"/></symbol><symbol viewBox="0 0 24 24" id="icon-folio-share"><path d="M23.207 17.66l.072.636a.277.277 0 0 0 .55-.062l-.13-1.158a.276.276 0 0 0-.29-.248l-1.165.052a.277.277 0 0 0 .024.553l.43-.019c-.112.647-1.403 1.417-2.759 1.417-1.088 0-1.823-.183-2.94-.633l-.282-.114a18.51 18.51 0 0 0-.282-.113c-.765-.299-1.33-.437-2.014-.446-.933-.012-1.668.258-2.218.717-.19.159-.345.33-.467.501a1.682 1.682 0 0 0-.15.248h.503a1.682 1.682 0 0 0-.15-.248 2.655 2.655 0 0 0-.467-.5c-.55-.46-1.285-.73-2.218-.718-.685.01-1.249.147-2.015.446l-.281.113-.282.114c-1.117.45-1.852.633-2.94.633-1.302 0-2.58-.756-2.772-1.432a.277.277 0 1 0-.533.152c.268.941 1.776 1.834 3.305 1.834 1.171 0 1.97-.199 3.147-.673l.283-.115.275-.11c.71-.276 1.213-.4 1.82-.408.799-.01 1.406.213 1.856.589.152.126.275.262.37.396.055.077.087.134.1.16a.277.277 0 0 0 .502 0 2.044 2.044 0 0 1 .469-.556c.45-.376 1.057-.599 1.855-.589.608.008 1.112.132 1.821.409.081.031.165.065.275.11l.283.114c1.177.474 1.976.673 3.147.673 1.513 0 2.976-.825 3.268-1.725zM1.056 4.583c.379.614 1.513 1.205 2.667 1.205 1.088 0 1.823-.183 2.94-.633l.282-.114c.112-.045.198-.08.282-.112.765-.299 1.33-.437 2.015-.446.932-.012 1.667.258 2.217.717.19.158.345.33.467.5.075.107.124.193.15.248h-.503c.026-.055.075-.141.15-.247.122-.172.277-.343.467-.501.55-.46 1.285-.729 2.218-.717.685.009 1.249.147 2.015.446l.281.112.282.114c1.117.45 1.852.633 2.94.633 1.318 0 2.576-.723 2.75-1.377a.277.277 0 0 1 .536.143c-.248.93-1.74 1.788-3.286 1.788-1.171 0-1.97-.198-3.147-.673l-.283-.114a23.23 23.23 0 0 0-.275-.11c-.71-.277-1.213-.4-1.82-.408-.799-.01-1.406.213-1.856.588a2.104 2.104 0 0 0-.37.396 1.184 1.184 0 0 0-.1.16.277.277 0 0 1-.502 0 1.184 1.184 0 0 0-.1-.16 2.104 2.104 0 0 0-.369-.396c-.45-.375-1.057-.598-1.855-.588-.608.008-1.112.131-1.821.408l-.275.11-.283.114c-1.177.475-1.976.673-3.147.673-1.303 0-2.59-.646-3.109-1.423l-.062.55a.277.277 0 1 1-.55-.062l.13-1.159A.276.276 0 0 1 .422 4l1.165.053a.277.277 0 0 1-.024.553l-.507-.023zm12.05 6.966a.296.296 0 0 1 .342.482 2.77 2.77 0 0 1-1.615.51 2.954 2.954 0 0 1-1.666-.51.295.295 0 1 1 .339-.483c.524.368 1.65.672 2.6 0z"/></symbol><symbol viewBox="0 0 24 24" id="icon-folio-smile"><path d="M0 12C0 5.373 5.371 0 12 0c6.627 0 12 5.371 12 12 0 6.627-5.371 12-12 12-6.627 0-12-5.371-12-12zm15.849-1.124c-2.816 1.988-6.148 1.088-7.7-.002a.873.873 0 1 0-1.004 1.431c1.273.895 3.044 1.51 4.932 1.51a8.2 8.2 0 0 0 4.781-1.512.874.874 0 1 0-1.01-1.427z"/></symbol><symbol viewBox="0 0 24 24" id="icon-instagram"><path d="M16.81 4.8H7.19A2.398 2.398 0 0 0 4.8 7.19v9.62a2.4 2.4 0 0 0 2.39 2.39h9.62a2.398 2.398 0 0 0 2.39-2.39V7.19a2.397 2.397 0 0 0-2.39-2.39zm-7.4 6.3h5.18A2.746 2.746 0 0 1 12 14.743 2.746 2.746 0 0 1 9.407 11.1h.001zm7.99 0v5.4c0 .495-.405.9-.9.9h-9a.903.903 0 0 1-.9-.9v-5.4h1.408A4.097 4.097 0 0 0 12 16.092a4.097 4.097 0 0 0 3.992-4.992H17.4zm0-3.15a.45.45 0 0 1-.45.45h-.9a.45.45 0 0 1-.45-.45v-.9a.45.45 0 0 1 .45-.45h.9a.45.45 0 0 1 .45.45v.9z"/></symbol><symbol viewBox="0 0 24 24" id="icon-lightbulb"><path d="M14.99 8.918a.682.682 0 0 1-.743.616.684.684 0 0 1-.611-.749c.108-1.12-.87-1.517-.981-1.559a.689.689 0 0 1-.408-.875.677.677 0 0 1 .862-.416c.726.256 2.054 1.207 1.881 2.983m-1.37 11.09a.781.781 0 0 1-.715.84l-1.94.15a.78.78 0 0 1-.835-.72.781.781 0 0 1 .716-.84l1.94-.151a.78.78 0 0 1 .835.72m1.702-2.471a.781.781 0 0 1-.72.837l-5.343.39a.78.78 0 0 1-.832-.724.781.781 0 0 1 .72-.837l5.343-.39a.78.78 0 0 1 .832.724m-1.112-5.052c-.253.136-.383.402-.383.69v1.195l-3.913.307v-1.5c0-.279-.113-.536-.353-.677-1.347-.79-1.985-1.957-1.985-3.566 0-2.408 1.928-4.368 4.287-4.368s4.297 1.96 4.297 4.368c0 1.563-.717 2.89-1.95 3.551M11.871 3C8.656 3 6 5.662 6 8.933c0 1.995.785 3.601 2.35 4.674v1.917c0 .219.129.427.288.575a.823.823 0 0 0 .619.205l5.382-.433c.404-.033.755-.372.755-.78V13.62c1.37-.993 2.347-2.71 2.347-4.687C17.74 5.662 15.088 3 11.87 3"/></symbol><symbol viewBox="0 0 76.955 77" id="icon-loading"><path class="bishadow" d="M13.284 35.857h20.379m9.802 5.357h20.379M64.122 2.5c-5.668 0-10.263 4.595-10.263 10.263l.01 30.351c0 5.668-4.595 10.936-10.263 10.936H12.738C7.084 54.05 2.5 58.634 2.5 64.288S7.178 74.5 12.832 74.5c5.668 0 10.263-4.595 10.263-10.263l-.01-31.293c0-5.668 4.595-9.994 10.263-9.994h30.869c5.654 0 10.238-4.584 10.238-10.238S69.777 2.5 64.122 2.5z"/><path class="bicrossbar bibar-left biicon" d="M13.284 35.857h20.379"/><path class="bicrossbar bibar-right biicon" d="M43.465 41.214h20.379"/><path class="biicon biloop" d="M64.122 2.5c-5.668 0-10.263 4.595-10.263 10.263l.01 30.351c0 5.668-4.595 10.936-10.263 10.936H12.738C7.084 54.05 2.5 58.634 2.5 64.288S7.178 74.5 12.832 74.5c5.668 0 10.263-4.595 10.263-10.263l-.01-31.293c0-5.668 4.595-9.994 10.263-9.994h30.869c5.654 0 10.238-4.584 10.238-10.238S69.777 2.5 64.122 2.5z"/></symbol><symbol viewBox="0 0 140 24" id="icon-logo"><path d="M8.045 8.078H3.922v2.974h3.23c.714 0 1.091.377 1.091 1.09v.793c0 .714-.377 1.09-1.09 1.09H3.922v4.163c0 .714-.377 1.09-1.09 1.09h-1.29c-.713 0-1.09-.376-1.09-1.09V6.195c0-.713.377-1.09 1.09-1.09h6.503c.713 0 1.09.377 1.09 1.09v.793c0 .714-.377 1.09-1.09 1.09zm5.51 4.024c0-4.063 3.014-7.235 7.414-7.235 4.401 0 7.414 3.172 7.414 7.235 0 4.163-3.013 7.414-7.414 7.414-4.4 0-7.413-3.25-7.413-7.414zm11.24 0c0-2.319-1.586-4.063-3.826-4.063s-3.826 1.744-3.826 4.063c0 2.419 1.586 4.242 3.826 4.242s3.826-1.823 3.826-4.242zm13.301.575c-.555-.931-1.19-2.418-1.19-2.418h-.039s.159 1.526.159 2.418v5.511c0 .714-.377 1.09-1.09 1.09h-1.289c-.714 0-1.09-.376-1.09-1.09V6.195c0-.713.376-1.09 1.09-1.09h1.546c.615 0 1.011.218 1.308.734l3.49 5.887c.554.932 1.189 2.418 1.189 2.418h.04s-.16-1.526-.16-2.418v-5.53c0-.714.378-1.091 1.091-1.091h1.289c.713 0 1.09.377 1.09 1.09v11.993c0 .714-.377 1.09-1.09 1.09h-1.546c-.595 0-.992-.218-1.289-.733l-3.509-5.868zM53.32 5.105h3.945c4.46 0 7.315 2.597 7.315 7.057 0 4.46-2.855 7.116-7.315 7.116H53.32c-.714 0-1.09-.376-1.09-1.09V6.195c0-.713.376-1.09 1.09-1.09zm7.671 7.057c0-2.696-1.526-4.084-3.865-4.084h-1.427v8.227h1.427c2.399 0 3.865-1.427 3.865-4.143zm16.394-4.084h-4.123v2.974h3.231c.714 0 1.09.377 1.09 1.09v.793c0 .714-.376 1.09-1.09 1.09h-3.231v4.163c0 .714-.377 1.09-1.09 1.09h-1.289c-.713 0-1.09-.376-1.09-1.09V6.195c0-.713.377-1.09 1.09-1.09h6.502c.714 0 1.09.377 1.09 1.09v.793c0 .714-.376 1.09-1.09 1.09zm5.114 4.024c0-4.063 3.013-7.235 7.414-7.235 4.4 0 7.414 3.172 7.414 7.235 0 4.163-3.013 7.414-7.414 7.414-4.4 0-7.414-3.25-7.414-7.414zm11.24 0c0-2.319-1.586-4.063-3.826-4.063s-3.826 1.744-3.826 4.063c0 2.419 1.586 4.242 3.826 4.242s3.826-1.823 3.826-4.242zm11.14-6.997c.714 0 1.09.377 1.09 1.09v10.11h4.699c.714 0 1.09.377 1.09 1.09v.793c0 .714-.376 1.09-1.09 1.09h-7.077c-.714 0-1.09-.376-1.09-1.09V6.195c0-.713.376-1.09 1.09-1.09h1.289zm12.568 0h1.288c.714 0 1.09.377 1.09 1.09v11.993c0 .714-.376 1.09-1.09 1.09h-1.288c-.714 0-1.09-.376-1.09-1.09V6.195c0-.713.376-1.09 1.09-1.09zm7.552 6.997c0-4.063 3.013-7.235 7.414-7.235 4.4 0 7.414 3.172 7.414 7.235 0 4.163-3.013 7.414-7.414 7.414-4.4 0-7.414-3.25-7.414-7.414zm11.24 0c0-2.319-1.586-4.063-3.826-4.063s-3.826 1.744-3.826 4.063c0 2.419 1.586 4.242 3.826 4.242s3.826-1.823 3.826-4.242z"/></symbol><symbol viewBox="0 0 180 24" id="icon-logo-full"><path d="M48.045 8.078h-4.123v2.974h3.23c.714 0 1.091.377 1.091 1.09v.793c0 .714-.377 1.09-1.09 1.09h-3.231v4.163c0 .714-.377 1.09-1.09 1.09h-1.29c-.713 0-1.09-.376-1.09-1.09V6.195c0-.713.377-1.09 1.09-1.09h6.503c.713 0 1.09.377 1.09 1.09v.793c0 .714-.377 1.09-1.09 1.09zm5.51 4.024c0-4.063 3.014-7.235 7.414-7.235 4.401 0 7.414 3.172 7.414 7.235 0 4.163-3.013 7.414-7.414 7.414-4.4 0-7.413-3.25-7.413-7.414zm11.24 0c0-2.319-1.586-4.063-3.826-4.063s-3.826 1.744-3.826 4.063c0 2.419 1.586 4.242 3.826 4.242s3.826-1.823 3.826-4.242zm13.301.575c-.555-.931-1.19-2.418-1.19-2.418h-.039s.159 1.526.159 2.418v5.511c0 .714-.377 1.09-1.09 1.09h-1.289c-.714 0-1.09-.376-1.09-1.09V6.195c0-.713.376-1.09 1.09-1.09h1.546c.615 0 1.011.218 1.308.734l3.49 5.887c.554.932 1.189 2.418 1.189 2.418h.04s-.16-1.526-.16-2.418v-5.53c0-.714.378-1.091 1.091-1.091h1.289c.713 0 1.09.377 1.09 1.09v11.993c0 .714-.377 1.09-1.09 1.09h-1.546c-.595 0-.992-.218-1.289-.733l-3.509-5.868zM93.32 5.105h3.945c4.46 0 7.315 2.597 7.315 7.057 0 4.46-2.855 7.116-7.315 7.116H93.32c-.714 0-1.09-.376-1.09-1.09V6.195c0-.713.376-1.09 1.09-1.09zm7.671 7.057c0-2.696-1.526-4.084-3.865-4.084h-1.427v8.227h1.427c2.399 0 3.865-1.427 3.865-4.143zm16.394-4.084h-4.123v2.974h3.231c.714 0 1.09.377 1.09 1.09v.793c0 .714-.376 1.09-1.09 1.09h-3.231v4.163c0 .714-.377 1.09-1.09 1.09h-1.289c-.713 0-1.09-.376-1.09-1.09V6.195c0-.713.377-1.09 1.09-1.09h6.502c.714 0 1.09.377 1.09 1.09v.793c0 .714-.376 1.09-1.09 1.09zm5.114 4.024c0-4.063 3.013-7.235 7.414-7.235 4.4 0 7.414 3.172 7.414 7.235 0 4.163-3.013 7.414-7.414 7.414-4.4 0-7.414-3.25-7.414-7.414zm11.24 0c0-2.319-1.586-4.063-3.826-4.063s-3.826 1.744-3.826 4.063c0 2.419 1.586 4.242 3.826 4.242s3.826-1.823 3.826-4.242zm11.14-6.997c.714 0 1.09.377 1.09 1.09v10.11h4.699c.714 0 1.09.377 1.09 1.09v.793c0 .714-.376 1.09-1.09 1.09h-7.077c-.714 0-1.09-.376-1.09-1.09V6.195c0-.713.376-1.09 1.09-1.09h1.289zm12.568 0h1.288c.714 0 1.09.377 1.09 1.09v11.993c0 .714-.376 1.09-1.09 1.09h-1.288c-.714 0-1.09-.376-1.09-1.09V6.195c0-.713.376-1.09 1.09-1.09zm7.552 6.997c0-4.063 3.013-7.235 7.414-7.235 4.4 0 7.414 3.172 7.414 7.235 0 4.163-3.013 7.414-7.414 7.414-4.4 0-7.414-3.25-7.414-7.414zm11.24 0c0-2.319-1.586-4.063-3.826-4.063s-3.826 1.744-3.826 4.063c0 2.419 1.586 4.242 3.826 4.242s3.826-1.823 3.826-4.242zM17.487 6.41V4.091c0-1.29 1.05-2.341 2.34-2.341 1.303 0 2.363 1.043 2.363 2.325a2.336 2.336 0 0 1-2.333 2.333h-2.37zm-4.03 7.28h2.373a2.704 2.704 0 0 1-.699 1.547c-.451.492-1.03.763-1.63.763H7.998l-.001-3.962h2.437a.824.824 0 0 0 0-1.648H7.996v-.075c0-1.266 1.029-2.257 2.341-2.257h5.503l.001 3.984h-2.384a.824.824 0 0 0 0 1.648zM4.01 22.307c-1.302 0-2.362-1.043-2.362-2.325a2.336 2.336 0 0 1 2.333-2.334h2.37v2.318a2.344 2.344 0 0 1-2.34 2.34zm19.828-18.23c0-2.192-1.799-3.974-4.01-3.974-2.2 0-3.99 1.79-3.99 3.99l.001 2.316h-5.502c-2.237 0-3.989 1.716-3.989 3.907v.074H4.15a.824.824 0 0 0 0 1.648h2.199L6.35 16H3.981A3.986 3.986 0 0 0 0 19.982c0 2.19 1.8 3.973 4.01 3.973 2.2 0 3.99-1.79 3.99-3.99l-.001-2.317H13.5c2.086 0 3.86-1.789 3.981-3.958h2.26a.824.824 0 1 0 0-1.648h-2.253l-.001-3.984h2.369a3.986 3.986 0 0 0 3.981-3.982z"/></symbol><symbol viewBox="0 0 24 24" id="icon-logo-icon"><path d="M17.487 6.41V4.091c0-1.29 1.05-2.341 2.34-2.341 1.303 0 2.363 1.043 2.363 2.325a2.336 2.336 0 0 1-2.333 2.333h-2.37zm-4.03 7.28h2.373a2.704 2.704 0 0 1-.699 1.547c-.451.492-1.03.763-1.63.763H7.998l-.001-3.962h2.437a.824.824 0 0 0 0-1.648H7.996v-.075c0-1.266 1.029-2.257 2.341-2.257h5.503l.001 3.984h-2.384a.824.824 0 0 0 0 1.648zM4.01 22.307c-1.302 0-2.362-1.043-2.362-2.325a2.336 2.336 0 0 1 2.333-2.334h2.37v2.318a2.344 2.344 0 0 1-2.34 2.34zm19.828-18.23c0-2.192-1.799-3.974-4.01-3.974-2.2 0-3.99 1.79-3.99 3.99l.001 2.316h-5.502c-2.237 0-3.989 1.716-3.989 3.907v.074H4.15a.824.824 0 0 0 0 1.648h2.199L6.35 16H3.981A3.986 3.986 0 0 0 0 19.982c0 2.19 1.8 3.973 4.01 3.973 2.2 0 3.99-1.79 3.99-3.99l-.001-2.317H13.5c2.086 0 3.86-1.789 3.981-3.958h2.26a.824.824 0 1 0 0-1.648h-2.253l-.001-3.984h2.369a3.986 3.986 0 0 0 3.981-3.982z"/></symbol><symbol viewBox="0 0 24 24" id="icon-mail"><path d="M5.391 16.37V9.435l6.194 5.387a.63.63 0 0 0 .415.16.63.63 0 0 0 .415-.16l6.194-5.387v6.935H5.39zm11.81-7.74L12 13.153 6.8 8.63h10.4zm2.797-.833c0-.03-.004-.06-.007-.09-.003-.024-.004-.047-.009-.07-.005-.026-.013-.051-.02-.077-.007-.025-.013-.051-.023-.076-.008-.02-.019-.04-.028-.061-.013-.027-.025-.054-.04-.079l-.008-.015c-.01-.015-.021-.026-.032-.04-.016-.022-.032-.045-.05-.065-.016-.018-.034-.034-.052-.05-.018-.016-.035-.032-.054-.046-.02-.015-.04-.027-.06-.039-.02-.011-.04-.023-.06-.032-.022-.01-.044-.017-.067-.025-.02-.006-.04-.013-.062-.018a.577.577 0 0 0-.077-.009c-.015 0-.03-.005-.045-.005H4.696c-.016 0-.03.004-.045.005a.479.479 0 0 0-.14.028c-.022.007-.044.014-.066.024a.583.583 0 0 0-.06.032c-.02.012-.04.024-.06.039-.02.014-.036.03-.054.046a.614.614 0 0 0-.052.05c-.018.02-.034.043-.05.065-.01.014-.022.025-.032.04l-.008.015c-.015.025-.027.052-.04.079-.01.02-.02.04-.028.061-.01.025-.016.05-.023.076-.007.026-.015.05-.02.077-.005.023-.006.046-.009.07-.003.03-.007.06-.007.09L4 7.815v9.37c0 .45.311.815.696.815h14.608c.385 0 .696-.365.696-.815v-9.37l-.002-.018z"/></symbol><symbol viewBox="0 0 24 24" id="icon-person"><path d="M18.18 19.564H5c.293-2.182 3.027-4.816 6.248-4.952 3.114-.132 6.374 2.123 6.931 4.952zM7.38 8.15C7.398 5.853 9.296 3.984 11.597 4a4.182 4.182 0 0 1 4.16 4.204 4.166 4.166 0 0 1-4.253 4.191C9.208 12.37 7.362 10.47 7.38 8.15z"/></symbol><symbol id="icon-play" viewBox="0 0 24 24"><style>.bost0{fill:#fff}</style><path id="bomedia-play" class="bost0" d="M17 11.3c.2.2.3.4.3.7 0 .3-.1.5-.3.7l-9.1 7.1c-.2.1-.3.2-.5.2-.1 0-.3 0-.4-.1-.3-.1-.5-.4-.5-.8V4.9c0-.3.2-.6.5-.8.3-.2.6-.1.9.1l9.1 7.1z"/></symbol><symbol viewBox="0 0 24 24" id="icon-plus"><path d="M13 11V5a1 1 0 0 0-2 0v6H5a1 1 0 0 0 0 2h6v6a1 1 0 0 0 2 0v-6h6a1 1 0 0 0 0-2h-6z"/></symbol><symbol viewBox="0 0 24 24" id="icon-search"><path d="M9.85 8.593a.807.807 0 0 1 .484-.373.802.802 0 1 1-.485.373M7.981 7.564a.702.702 0 1 1 .18 1.392c-1.05.136-1.277 1.409-1.286 1.463a.704.704 0 0 1-.806.578.7.7 0 0 1-.58-.8c.015-.096.394-2.36 2.492-2.633m5.293 1.821c.662 2.471-.842 5.028-3.354 5.701-2.511.673-5.093-.79-5.755-3.26-.662-2.47.843-5.028 3.354-5.7 2.511-.674 5.093.789 5.755 3.26M2.616 12.24c.89 3.325 4.353 5.296 7.72 4.394a6.335 6.335 0 0 0 3.41-2.284l7.33 4.164a.902.902 0 0 0 .89-1.57l-7.343-4.17c.45-1.18.55-2.5.2-3.805-.89-3.325-4.353-5.296-7.72-4.394-3.365.902-5.378 4.34-4.487 7.665"/></symbol><symbol viewBox="0 0 24 24" id="icon-tooltip"><path d="M18.609 12A6.616 6.616 0 0 0 12 5.391 6.616 6.616 0 0 0 5.391 12 6.616 6.616 0 0 0 12 18.609 6.616 6.616 0 0 0 18.609 12M20 12c0 4.411-3.589 8-8 8s-8-3.589-8-8 3.589-8 8-8 8 3.589 8 8m-8.045 2.786a.88.88 0 0 0-.616.256.875.875 0 0 0 0 1.23.88.88 0 0 0 .616.255c.23 0 .454-.094.615-.256a.875.875 0 0 0 0-1.23.877.877 0 0 0-.615-.255m2.64-6.352c.55.62.81 1.486.703 2.375-.2 1.67-1.422 2.265-2.508 2.265a.813.813 0 0 0-.094.003v.422a.696.696 0 0 1-1.392 0v-.56c0-.574.24-1.257 1.486-1.257.672 0 1.033-.35 1.116-1.039.028-.234.05-.828-.357-1.286-.33-.372-.867-.561-1.594-.561-1.574 0-1.62 1.017-1.62 1.133a.696.696 0 0 1-1.39 0c0-.702.54-2.524 3.01-2.524 1.423 0 2.223.56 2.64 1.029"/></symbol><symbol viewBox="0 0 24 24" id="icon-twitter"><path d="M19.566 7.02a6.056 6.056 0 0 1-1.74.477 3.038 3.038 0 0 0 1.332-1.676c-.586.348-1.234.6-1.924.736a3.03 3.03 0 0 0-5.162 2.763 8.601 8.601 0 0 1-6.244-3.166 3.028 3.028 0 0 0 .937 4.045 3.018 3.018 0 0 1-1.372-.379v.038a3.031 3.031 0 0 0 2.43 2.97 3.035 3.035 0 0 1-1.368.053 3.032 3.032 0 0 0 2.83 2.103A6.078 6.078 0 0 1 4.8 16.24a8.574 8.574 0 0 0 4.644 1.36c5.572 0 8.62-4.616 8.62-8.62a8.84 8.84 0 0 0-.01-.391 6.152 6.152 0 0 0 1.512-1.569z"/></symbol></svg>