<svg id="Layer_1" xmlns="http://www.w3.org/2000/svg" width="657.9" height="140.3" viewBox="0 0 657.9 140.3"><style>.st0{fill:#443f3d}.st1{opacity:.19}.st1,.st2{fill:#4f4a48}.st3{opacity:5e-2;fill:#fff}</style><path class="st3" d="M576.7 2.8c-.5-.1-1.1-.2-1.7-.2h-.1c-.2 0-.5 0-.7-.1v.1c-2.8.3-5.1 2-6.3 4.4-.9-3.2-3.9-5.6-7.5-5.6-3.3 0-6.2 2.1-7.3 5.1-.7-3.4-3.8-5.9-7.4-5.9-4.2 0-7.6 3.4-7.6 7.6s3.4 7.6 7.6 7.6c3.3 0 6-2.1 7.1-4.9.7 3.5 3.9 6.1 7.6 6.1 3 0 5.7-1.8 6.9-4.3.9 3.3 4 5.8 7.6 5.8 1.6 0 3-.5 4.3-1.3 0 .1.1.3.1.4-2.7.4-4.9 2-6.1 4.4-.8-3.4-3.9-5.9-7.5-5.9-3.4 0-6.3 2.2-7.3 5.2-.6-3.6-3.7-6.4-7.5-6.4-3.3 0-6.1 2.1-7.2 5.1-.1-3.4-2.9-6-6.3-6-3.5 0-6.3 2.8-6.3 6.3s2.8 6.3 6.3 6.3c2.7 0 5-1.7 5.9-4 0 4.2 3.4 7.5 7.6 7.5 3.3 0 6.1-2.1 7.1-5 .6 3.7 3.8 6.6 7.7 6.6 3.1 0 5.7-1.8 7-4.4.4 1.7 1.4 3.2 2.8 4.3-1.2-.7-2.5-1.1-3.9-1.1-3.4 0-6.4 2.2-7.4 5.4-.4-3.8-3.6-6.8-7.5-6.8-3.1 0-5.8 1.9-7 4.6-.5-2.9-3.1-5.1-6.2-5.1-3.5 0-6.3 2.8-6.3 6.3s2.8 6.3 6.3 6.3c2.5 0 4.6-1.4 5.6-3.5.5 3.7 3.7 6.6 7.5 6.6.8 0 1.6-.1 2.3-.4-1.5 1-2.6 2.6-3.1 4.4-.6-2.9-3.1-5.1-6.2-5.1-3.5 0-6.3 2.8-6.3 6.3s2.8 6.3 6.3 6.3c2.8 0 5.2-1.8 6-4.4.5 3.7 3.7 6.5 7.5 6.5 3.5 0 6.4-2.4 7.3-5.6 0 4.3 3.5 7.7 7.8 7.7 3.1 0 5.8-1.9 7-4.5.6 3.7 3.7 6.6 7.6 6.7-.1 0-.1.1-.2.1 21.3 2.8 42.9 5.1 65.2 6.1V13.7c-26.6-4.3-53.4-8.3-81.1-10.9zm3.8 30.4c1.6 0 3.1-.5 4.3-1.3 0 .1.1.2.1.3-2.5.5-4.6 2.1-5.6 4.4-.4-1.8-1.4-3.4-2.8-4.5 1.2.7 2.5 1.1 4 1.1zm-19.6 9.6c1.4-.9 2.5-2.3 3-3.9.1 1.5.7 2.8 1.5 3.9-.7-.2-1.4-.3-2.2-.3-.8 0-1.5.1-2.3.3zm9.9 7.2c0-1.7-.6-3.2-1.5-4.4.7.2 1.5.3 2.3.3.8 0 1.6-.1 2.4-.4-1.5 1.1-2.7 2.7-3.2 4.5zm5.1-5.4c1.2-.8 2.1-1.8 2.7-3.1.2 1.1.6 2 1.2 2.9-.5-.1-1-.2-1.6-.2-.7.1-1.5.2-2.3.4zm10 6.2c-.2-1.1-.6-2.2-1.2-3.1.5.1 1.1.2 1.6.2.8 0 1.6-.1 2.4-.4-1.2.8-2.1 1.9-2.8 3.3zM525.7 6.3c0-3.5 2.8-6.3 6.3-6.3s6.3 2.8 6.3 6.3-2.8 6.3-6.3 6.3-6.3-2.8-6.3-6.3zm-12.6 0c0-3.4 2.8-6.2 6.2-6.2 3.4 0 6.2 2.8 6.2 6.2 0 3.4-2.8 6.2-6.2 6.2-3.4 0-6.2-2.8-6.2-6.2zM531 20c0 3.4-2.8 6.2-6.2 6.2-3.4 0-6.2-2.8-6.2-6.2 0-3.4 2.8-6.2 6.2-6.2 3.4 0 6.2 2.7 6.2 6.2zm5.9 13.6c0 3.4-2.8 6.2-6.2 6.2-3.4 0-6.2-2.8-6.2-6.2 0-3.4 2.8-6.2 6.2-6.2 3.5 0 6.2 2.8 6.2 6.2zm0 7.8c3.4 0 6.2 2.8 6.2 6.2 0 3.4-2.8 6.2-6.2 6.2-3.4 0-6.2-2.8-6.2-6.2 0-3.4 2.8-6.2 6.2-6.2zM500.7 5.6c0-3 2.5-5.5 5.5-5.5s5.5 2.5 5.5 5.5-2.5 5.5-5.5 5.5-5.5-2.4-5.5-5.5zm5.2 13.6c0-3 2.5-5.5 5.5-5.5s5.5 2.5 5.5 5.5-2.5 5.5-5.5 5.5-5.5-2.4-5.5-5.5zm11.5 19.3c-3 0-5.5-2.5-5.5-5.5s2.5-5.5 5.5-5.5 5.5 2.5 5.5 5.5-2.4 5.5-5.5 5.5zm.5 8.2c0-3 2.5-5.5 5.5-5.5s5.5 2.5 5.5 5.5-2.5 5.5-5.5 5.5-5.5-2.5-5.5-5.5zm-30.3-41c0-2.8 2.2-5 5-5s5 2.2 5 5-2.2 5-5 5-5-2.2-5-5zm10.2 8.5c2.8 0 5 2.2 5 5s-2.2 5-5 5-5-2.2-5-5 2.2-5 5-5zm.7 17.6c0-2.8 2.2-5 5-5s5 2.2 5 5-2.2 5-5 5c-2.7 0-5-2.2-5-5zm5.9 13.1c0-2.8 2.2-5 5-5s5 2.2 5 5-2.2 5-5 5-5-2.3-5-5zm-30-38.7c0-2.6 2.1-4.7 4.7-4.7s4.7 2.1 4.7 4.7-2.1 4.7-4.7 4.7-4.7-2.1-4.7-4.7zm9.6 8c2.6 0 4.7 2.1 4.7 4.7s-2.1 4.7-4.7 4.7-4.7-2.1-4.7-4.7 2.1-4.7 4.7-4.7zm5.4 21.3c-2.6 0-4.7-2.1-4.7-4.7s2.1-4.7 4.7-4.7 4.7 2.1 4.7 4.7-2.1 4.7-4.7 4.7zm.9 7.6c0-2.6 2.1-4.7 4.7-4.7s4.7 2.1 4.7 4.7-2.1 4.7-4.7 4.7-4.7-2.1-4.7-4.7zM461 7.3c0-2.4 2-4.4 4.4-4.4 2.4 0 4.4 2 4.4 4.4s-2 4.4-4.4 4.4c-2.4 0-4.4-2-4.4-4.4zm9 7.5c2.4 0 4.4 2 4.4 4.4 0 2.4-2 4.4-4.4 4.4s-4.4-2-4.4-4.4c0-2.4 2-4.4 4.4-4.4zm5 19.9c-2.4 0-4.4-2-4.4-4.4 0-2.4 2-4.4 4.4-4.4 2.4 0 4.4 2 4.4 4.4.1 2.4-1.9 4.4-4.4 4.4zm.8 7.1c0-2.4 2-4.4 4.4-4.4 2.4 0 4.4 2 4.4 4.4 0 2.4-2 4.4-4.4 4.4-2.4 0-4.4-2-4.4-4.4zM446.5 8.6c0-2.3 1.8-4.1 4.1-4.1s4.1 1.8 4.1 4.1-1.8 4.1-4.1 4.1-4.1-1.9-4.1-4.1zm8.3 6.9c2.3 0 4.1 1.8 4.1 4.1s-1.8 4.1-4.1 4.1-4.1-1.8-4.1-4.1 1.9-4.1 4.1-4.1zm4.7 10.3c2.3 0 4.1 1.8 4.1 4.1s-1.8 4.1-4.1 4.1-4.1-1.8-4.1-4.1 1.8-4.1 4.1-4.1zm4.8 10.6c2.3 0 4.1 1.8 4.1 4.1s-1.8 4.1-4.1 4.1-4.1-1.8-4.1-4.1 1.8-4.1 4.1-4.1zm-30.8-26.1c0-2.1 1.7-3.7 3.7-3.7 2.1 0 3.7 1.7 3.7 3.7 0 2.1-1.7 3.7-3.7 3.7-2 .1-3.7-1.6-3.7-3.7zm7.6 6.4c2.1 0 3.7 1.7 3.7 3.7s-1.7 3.7-3.7 3.7-3.7-1.7-3.7-3.7 1.6-3.7 3.7-3.7zm4.3 9.4c2.1 0 3.7 1.7 3.7 3.7s-1.7 3.7-3.7 3.7c-2.1 0-3.7-1.7-3.7-3.7s1.6-3.7 3.7-3.7zm4.4 9.8c2.1 0 3.7 1.7 3.7 3.7 0 2.1-1.7 3.7-3.7 3.7-2.1 0-3.7-1.7-3.7-3.7-.1-2.1 1.6-3.7 3.7-3.7zm-30.1-23.3c0-1.9 1.5-3.4 3.4-3.4s3.4 1.5 3.4 3.4-1.5 3.4-3.4 3.4c-1.9-.1-3.4-1.6-3.4-3.4zm6.9 5.7c1.9 0 3.4 1.5 3.4 3.4s-1.5 3.4-3.4 3.4-3.4-1.5-3.4-3.4 1.5-3.4 3.4-3.4zm3.8 8.4c1.9 0 3.4 1.5 3.4 3.4s-1.5 3.4-3.4 3.4-3.4-1.5-3.4-3.4c.1-1.9 1.6-3.4 3.4-3.4zm7.3 12.1c0 1.9-1.5 3.4-3.4 3.4s-3.4-1.5-3.4-3.4 1.5-3.4 3.4-3.4 3.4 1.5 3.4 3.4zM407.1 15c0-1.7 1.4-3 3-3 1.7 0 3 1.4 3 3s-1.4 3-3 3c-1.7 0-3-1.4-3-3zm6.1 5.1c1.7 0 3 1.4 3 3 0 1.7-1.4 3-3 3-1.7 0-3-1.4-3-3s1.3-3 3-3zm3.5 7.7c1.7 0 3 1.4 3 3 0 1.7-1.4 3-3 3-1.7 0-3-1.4-3-3 0-1.7 1.3-3 3-3zm6.6 10.9c0 1.7-1.4 3-3 3s-3-1.4-3-3c0-1.7 1.4-3 3-3s3 1.3 3 3zm-28.2-21.3c0-1.5 1.2-2.7 2.7-2.7s2.7 1.2 2.7 2.7-1.2 2.7-2.7 2.7-2.7-1.2-2.7-2.7zm5.6 4.7c1.5 0 2.7 1.2 2.7 2.7s-1.2 2.7-2.7 2.7-2.7-1.2-2.7-2.7 1.2-2.7 2.7-2.7zm3.1 6.9c1.5 0 2.7 1.2 2.7 2.7s-1.2 2.7-2.7 2.7-2.7-1.2-2.7-2.7 1.2-2.7 2.7-2.7zm3.2 7.1c1.5 0 2.7 1.2 2.7 2.7s-1.2 2.7-2.7 2.7-2.7-1.2-2.7-2.7 1.2-2.7 2.7-2.7zm-23.5-15.8c0-1.4 1.1-2.5 2.5-2.5s2.5 1.1 2.5 2.5-1.1 2.5-2.5 2.5-2.5-1.1-2.5-2.5zm5 4.2c1.4 0 2.5 1.1 2.5 2.5s-1.1 2.5-2.5 2.5-2.5-1.1-2.5-2.5c.1-1.4 1.2-2.5 2.5-2.5zm2.8 6.2c1.4 0 2.5 1.1 2.5 2.5s-1.1 2.5-2.5 2.5-2.5-1.1-2.5-2.5 1.2-2.5 2.5-2.5zm2.9 6.4c1.4 0 2.5 1.1 2.5 2.5s-1.1 2.5-2.5 2.5-2.5-1.1-2.5-2.5c.1-1.4 1.2-2.5 2.5-2.5zm-21.3-13.9c0-1.2 1-2.1 2.1-2.1s2.1 1 2.1 2.1-1 2.1-2.1 2.1-2.1-.9-2.1-2.1zm4.4 3.6c1.2 0 2.1 1 2.1 2.1s-1 2.1-2.1 2.1-2.1-1-2.1-2.1.9-2.1 2.1-2.1zm2.4 5.4c1.2 0 2.1 1 2.1 2.1s-1 2.1-2.1 2.1-2.1-1-2.1-2.1.9-2.1 2.1-2.1zm2.5 5.5c1.2 0 2.1 1 2.1 2.1s-1 2.1-2.1 2.1-2.1-1-2.1-2.1.9-2.1 2.1-2.1zm-19.1-11.8c0-1.1.9-1.9 1.9-1.9 1.1 0 1.9.9 1.9 1.9s-.9 1.9-1.9 1.9c-1.1 0-1.9-.9-1.9-1.9zm3.8 3.2c1.1 0 1.9.9 1.9 1.9 0 1.1-.9 1.9-1.9 1.9S365 32 365 31c0-1.1.9-1.9 1.9-1.9zm2.2 4.8c1.1 0 1.9.9 1.9 1.9s-.9 1.9-1.9 1.9-1.9-.9-1.9-1.9.9-1.9 1.9-1.9zm2.2 4.9c1.1 0 1.9.9 1.9 1.9 0 1.1-.9 1.9-1.9 1.9-1.1 0-1.9-.9-1.9-1.9 0-1 .9-1.9 1.9-1.9zm-17.5-10.2c0-.9.8-1.7 1.7-1.7s1.7.8 1.7 1.7c0 .9-.8 1.7-1.7 1.7s-1.7-.8-1.7-1.7zm3.5 2.9c.9 0 1.7.8 1.7 1.7s-.8 1.7-1.7 1.7-1.7-.8-1.7-1.7.7-1.7 1.7-1.7zm1.9 4.2c.9 0 1.7.8 1.7 1.7s-.8 1.7-1.7 1.7-1.7-.8-1.7-1.7.8-1.7 1.7-1.7zm2 4.4c.9 0 1.7.8 1.7 1.7s-.8 1.7-1.7 1.7-1.7-.8-1.7-1.7.8-1.7 1.7-1.7zM345 31.8c0-.8.6-1.4 1.4-1.4.8 0 1.4.6 1.4 1.4 0 .8-.6 1.4-1.4 1.4-.7 0-1.4-.6-1.4-1.4zm2.9 2.4c.8 0 1.4.6 1.4 1.4 0 .8-.6 1.4-1.4 1.4s-1.4-.6-1.4-1.4c0-.7.6-1.4 1.4-1.4zm1.7 3.6c.8 0 1.4.6 1.4 1.4 0 .8-.6 1.4-1.4 1.4-.8 0-1.4-.6-1.4-1.4-.1-.7.6-1.4 1.4-1.4zm1.6 3.7c.8 0 1.4.6 1.4 1.4 0 .8-.6 1.4-1.4 1.4s-1.4-.6-1.4-1.4c0-.7.7-1.4 1.4-1.4zM337 34.3c0-.7.6-1.3 1.3-1.3s1.3.6 1.3 1.3c0 .7-.6 1.3-1.3 1.3s-1.3-.6-1.3-1.3zm2.5 2.2c.7 0 1.3.6 1.3 1.3s-.6 1.3-1.3 1.3-1.3-.6-1.3-1.3.6-1.3 1.3-1.3zm1.5 3.2c.7 0 1.3.6 1.3 1.3s-.6 1.3-1.3 1.3-1.3-.6-1.3-1.3.6-1.3 1.3-1.3zm1.5 3.3c.7 0 1.3.6 1.3 1.3s-.6 1.3-1.3 1.3c-.7 0-1.3-.6-1.3-1.3s.6-1.3 1.3-1.3zm-13.1-5.9c0-.6.5-1.1 1.1-1.1s1.1.5 1.1 1.1c0 .6-.5 1.1-1.1 1.1s-1.1-.5-1.1-1.1zm2.2 1.8c.6 0 1.1.5 1.1 1.1s-.5 1.1-1.1 1.1-1.1-.5-1.1-1.1.5-1.1 1.1-1.1zm1.2 2.8c.6 0 1.1.5 1.1 1.1s-.5 1.1-1.1 1.1c-.6 0-1.1-.5-1.1-1.1s.5-1.1 1.1-1.1zm1.3 2.8c.6 0 1.1.5 1.1 1.1 0 .6-.5 1.1-1.1 1.1-.6 0-1.1-.5-1.1-1.1 0-.6.5-1.1 1.1-1.1zm-11.9-4.8c0-.5.4-.9.9-.9s.9.4.9.9-.4.9-.9.9-.9-.4-.9-.9zm1.9 1.6c.5 0 .9.4.9.9s-.4.9-.9.9-.9-.4-.9-.9.4-.9.9-.9zm1.1 2.3c.5 0 .9.4.9.9s-.4.9-.9.9-.9-.4-.9-.9.4-.9.9-.9zm1 2.4c.5 0 .9.4.9.9s-.4.9-.9.9-.9-.4-.9-.9.4-.9.9-.9zm-11-3.4c0-.5.4-.9.9-.9s.9.4.9.9-.4.9-.9.9-.9-.4-.9-.9zm2.1 2c.5 0 .9.4.9.9s-.4.9-.9.9-.9-.4-.9-.9.4-.9.9-.9zm1.2 2.7c.5 0 .9.4.9.9s-.4.9-.9.9-.9-.4-.9-.9.4-.9.9-.9zm-10.1-2.2c0-.4.3-.7.7-.7s.7.3.7.7-.3.7-.7.7-.7-.3-.7-.7zm1.7 1.6c.4 0 .7.3.7.7s-.3.7-.7.7-.7-.3-.7-.7.3-.7.7-.7zm.9 2.2c.4 0 .7.3.7.7s-.3.7-.7.7-.7-.3-.7-.7.3-.7.7-.7zm-8.3-1.2c0-.4.3-.7.7-.7s.7.3.7.7-.3.7-.7.7-.7-.3-.7-.7zm1.4 3.4c0-.4.3-.7.7-.7s.7.3.7.7-.3.7-.7.7-.7-.3-.7-.7zm-7.5-1.1c0-.4.3-.7.7-.7s.7.3.7.7-.3.7-.7.7-.7-.3-.7-.7zm1.4 2.3c0-.4.3-.7.7-.7s.7.3.7.7-.3.7-.7.7-.7-.3-.7-.7zm-7.5.5c0-.3.2-.5.5-.5s.5.2.5.5-.2.5-.5.5-.5-.3-.5-.5zm.9 1.3c0-.3.2-.5.5-.5s.5.2.5.5-.2.5-.5.5-.5-.2-.5-.5zm-8.8 2.1c0-.3.2-.5.5-.5s.5.2.5.5-.2.5-.5.5-.5-.2-.5-.5zm13.5 18.2c-.5-.1-1.1-.2-1.6-.2h-.1c-.2 0-.5 0-.7-.1v.1c-2.8.3-5.1 2-6.3 4.4-.9-3.2-3.9-5.6-7.5-5.6-3.3 0-6.2 2.1-7.3 5.1-.7-3.4-3.8-5.9-7.4-5.9-4.2 0-7.6 3.4-7.6 7.6 0 4.2 3.4 7.6 7.6 7.6 3.3 0 6-2.1 7.1-4.9.7 3.5 3.9 6.1 7.6 6.1 3 0 5.7-1.8 6.9-4.3.9 3.3 4 5.8 7.6 5.8 1.6 0 3-.5 4.3-1.3 0 .1.1.3.1.4-2.7.4-4.9 2-6.1 4.4-.8-3.4-3.9-5.9-7.5-5.9-3.4 0-6.3 2.2-7.3 5.2-.6-3.6-3.7-6.4-7.5-6.4-3.3 0-6.1 2.1-7.2 5.1-.1-3.4-2.9-6-6.3-6-3.5 0-6.3 2.8-6.3 6.3s2.8 6.3 6.3 6.3c2.7 0 5-1.7 5.9-4 0 4.2 3.4 7.5 7.6 7.5 3.3 0 6.1-2.1 7.1-5 .6 3.7 3.8 6.6 7.7 6.6 3.1 0 5.7-1.8 7-4.4.4 1.7 1.4 3.2 2.8 4.3-1.2-.7-2.5-1.1-3.9-1.1-3.4 0-6.4 2.2-7.4 5.4-.4-3.8-3.6-6.8-7.5-6.8-3.1 0-5.8 1.9-7 4.6-.5-2.9-3.1-5.1-6.2-5.1-3.5 0-6.3 2.8-6.3 6.3s2.8 6.3 6.3 6.3c2.5 0 4.6-1.4 5.6-3.5.5 3.7 3.7 6.6 7.5 6.6.8 0 1.6-.1 2.3-.4-1.5 1-2.6 2.6-3.1 4.4-.6-2.9-3.1-5.1-6.2-5.1-3.5 0-6.3 2.8-6.3 6.3s2.8 6.3 6.3 6.3c2.8 0 5.2-1.8 6-4.4.5 3.7 3.7 6.5 7.5 6.5 3.5 0 6.4-2.4 7.3-5.6 0 4.3 3.5 7.7 7.8 7.7 3.1 0 5.8-1.9 7-4.5.6 3.7 3.7 6.6 7.6 6.7-.1 0-.1.1-.2.1 92.2 12.1 190.4 14.4 329.3-49.8l1.3-.9c-138.9 35.1-235.5 1.4-346.6-8.8zm3.9 30.4c1.6 0 3.1-.5 4.3-1.3 0 .1.1.2.1.3-2.5.5-4.6 2.1-5.6 4.4-.4-1.8-1.4-3.4-2.8-4.5 1.2.7 2.5 1.1 4 1.1zm-19.6 9.6c1.4-.9 2.5-2.3 3-3.9.1 1.5.7 2.8 1.5 3.9-.7-.2-1.4-.3-2.2-.3-.8-.1-1.5.1-2.3.3zm9.9 7.2c0-1.7-.6-3.2-1.5-4.4.7.2 1.5.3 2.3.3.8 0 1.6-.1 2.4-.4-1.5 1.1-2.7 2.6-3.2 4.5zm5.1-5.4c1.2-.8 2.1-1.8 2.7-3.1.2 1.1.6 2 1.2 2.9-.5-.1-1-.2-1.6-.2-.7 0-1.5.2-2.3.4zm10 6.2c-.2-1.1-.6-2.2-1.2-3.1.5.1 1.1.2 1.6.2.8 0 1.6-.1 2.4-.4-1.2.8-2.1 1.9-2.8 3.3zm-60.2-44.5c0-3.5 2.8-6.3 6.3-6.3s6.3 2.8 6.3 6.3-2.8 6.3-6.3 6.3c-3.5-.1-6.3-2.9-6.3-6.3zm-12.6-.1c0-3.4 2.8-6.2 6.2-6.2 3.4 0 6.2 2.8 6.2 6.2s-2.8 6.2-6.2 6.2c-3.4 0-6.2-2.8-6.2-6.2zm17.9 13.7c0 3.4-2.8 6.2-6.2 6.2-3.4 0-6.2-2.8-6.2-6.2 0-3.4 2.8-6.2 6.2-6.2 3.4 0 6.2 2.8 6.2 6.2zm-.2 7.5c3.4 0 6.2 2.8 6.2 6.2 0 3.4-2.8 6.2-6.2 6.2-3.4 0-6.2-2.8-6.2-6.2 0-3.5 2.7-6.2 6.2-6.2zm12.3 20.2c0 3.4-2.8 6.2-6.2 6.2-3.4 0-6.2-2.8-6.2-6.2 0-3.4 2.8-6.2 6.2-6.2 3.4 0 6.2 2.8 6.2 6.2zm-42.4-42c0-3 2.5-5.5 5.5-5.5s5.5 2.5 5.5 5.5-2.5 5.5-5.5 5.5-5.5-2.5-5.5-5.5zm10.7 8c3 0 5.5 2.5 5.5 5.5s-2.5 5.5-5.5 5.5-5.5-2.5-5.5-5.5 2.5-5.5 5.5-5.5zm6 24.8c-3 0-5.5-2.5-5.5-5.5s2.5-5.5 5.5-5.5 5.5 2.5 5.5 5.5-2.4 5.5-5.5 5.5zm11.5 8.2c0 3-2.5 5.5-5.5 5.5s-5.5-2.5-5.5-5.5 2.5-5.5 5.5-5.5c3.1 0 5.5 2.5 5.5 5.5zm-41.3-40.9c0-2.8 2.2-5 5-5s5 2.2 5 5-2.2 5-5 5c-2.7 0-5-2.3-5-5zm10.2 8.5c2.8 0 5 2.2 5 5s-2.2 5-5 5-5-2.2-5-5 2.2-5 5-5zm5.7 22.6c-2.8 0-5-2.2-5-5s2.2-5 5-5 5 2.2 5 5-2.2 5-5 5zm10.9 8c0 2.8-2.2 5-5 5s-5-2.2-5-5 2.2-5 5-5 5 2.3 5 5zm-40-38.6c0-2.6 2.1-4.7 4.7-4.7s4.7 2.1 4.7 4.7-2.1 4.7-4.7 4.7-4.7-2.1-4.7-4.7zm9.6 8c2.6 0 4.7 2.1 4.7 4.7s-2.1 4.7-4.7 4.7-4.7-2.1-4.7-4.7 2.1-4.7 4.7-4.7zm5.4 21.3c-2.6 0-4.7-2.1-4.7-4.7s2.1-4.7 4.7-4.7 4.7 2.1 4.7 4.7-2.1 4.7-4.7 4.7zm10.3 7.5c0 2.6-2.1 4.7-4.7 4.7s-4.7-2.1-4.7-4.7 2.1-4.7 4.7-4.7 4.7 2.1 4.7 4.7zm-38.7-35.7c0-2.4 2-4.4 4.4-4.4 2.4 0 4.4 2 4.4 4.4 0 2.4-2 4.4-4.4 4.4-2.4 0-4.4-2-4.4-4.4zm9 16.3c-2.4 0-4.4-2-4.4-4.4 0-2.4 2-4.4 4.4-4.4 2.4 0 4.4 2 4.4 4.4 0 2.4-2 4.4-4.4 4.4zm5 11.1c-2.4 0-4.4-2-4.4-4.4s2-4.4 4.4-4.4 4.4 2 4.4 4.4-1.9 4.4-4.4 4.4zm9.6 7c0 2.4-2 4.4-4.4 4.4s-4.4-2-4.4-4.4 2-4.4 4.4-4.4 4.4 2 4.4 4.4zM166 80.2c0-2.3 1.8-4.1 4.1-4.1s4.1 1.8 4.1 4.1-1.8 4.1-4.1 4.1-4.1-1.9-4.1-4.1zm8.3 15c-2.3 0-4.1-1.8-4.1-4.1s1.8-4.1 4.1-4.1 4.1 1.8 4.1 4.1-1.8 4.1-4.1 4.1zm4.7 10.3c-2.3 0-4.1-1.8-4.1-4.1s1.8-4.1 4.1-4.1 4.1 1.8 4.1 4.1-1.9 4.1-4.1 4.1zm8.9 6.5c0 2.3-1.8 4.1-4.1 4.1s-4.1-1.8-4.1-4.1 1.8-4.1 4.1-4.1 4.1 1.9 4.1 4.1zM153 81.9c0-2.1 1.7-3.7 3.7-3.7s3.7 1.7 3.7 3.7-1.7 3.7-3.7 3.7-3.7-1.6-3.7-3.7zm7.6 13.8c-2.1 0-3.7-1.7-3.7-3.7 0-2.1 1.7-3.7 3.7-3.7 2.1 0 3.7 1.7 3.7 3.7 0 2.1-1.6 3.7-3.7 3.7zm4.3 9.5c-2.1 0-3.7-1.7-3.7-3.7 0-2.1 1.7-3.7 3.7-3.7s3.7 1.7 3.7 3.7-1.6 3.7-3.7 3.7zm8.1 6c0 2.1-1.7 3.7-3.7 3.7-2.1 0-3.7-1.7-3.7-3.7s1.7-3.7 3.7-3.7c2-.1 3.7 1.6 3.7 3.7zm-33.8-27.1c0-1.9 1.5-3.4 3.4-3.4s3.4 1.5 3.4 3.4-1.5 3.4-3.4 3.4-3.4-1.5-3.4-3.4zm6.9 12.4c-1.9 0-3.4-1.5-3.4-3.4s1.5-3.4 3.4-3.4 3.4 1.5 3.4 3.4c-.1 1.9-1.6 3.4-3.4 3.4zm3.8 8.5c-1.9 0-3.4-1.5-3.4-3.4s1.5-3.4 3.4-3.4 3.4 1.5 3.4 3.4-1.5 3.4-3.4 3.4zm7.3 5.4c0 1.9-1.5 3.4-3.4 3.4s-3.4-1.5-3.4-3.4 1.5-3.4 3.4-3.4 3.4 1.5 3.4 3.4zm-27.6-20.8c-1.7 0-3-1.4-3-3 0-1.7 1.4-3 3-3 1.7 0 3 1.4 3 3s-1.3 3-3 3zm3.1 8.2c-1.7 0-3-1.4-3-3 0-1.7 1.4-3 3-3 1.7 0 3 1.4 3 3 .1 1.6-1.3 3-3 3zm3.5 7.6c-1.7 0-3-1.4-3-3s1.4-3 3-3c1.7 0 3 1.4 3 3s-1.3 3-3 3zm6.6 4.9c0 1.7-1.4 3-3 3-1.7 0-3-1.4-3-3 0-1.7 1.4-3 3-3 1.6-.1 3 1.3 3 3zm-25.5-18.6c-1.5 0-2.7-1.2-2.7-2.7s1.2-2.7 2.7-2.7 2.7 1.2 2.7 2.7-1.2 2.7-2.7 2.7zm2.9 7.4c-1.5 0-2.7-1.2-2.7-2.7s1.2-2.7 2.7-2.7c1.5 0 2.7 1.2 2.7 2.7s-1.2 2.7-2.7 2.7zm3.1 6.9c-1.5 0-2.7-1.2-2.7-2.7 0-1.5 1.2-2.7 2.7-2.7 1.5 0 2.7 1.2 2.7 2.7.1 1.5-1.2 2.7-2.7 2.7zm6 4.4c0 1.5-1.2 2.7-2.7 2.7-1.5 0-2.7-1.2-2.7-2.7 0-1.5 1.2-2.7 2.7-2.7 1.5 0 2.7 1.2 2.7 2.7zm-23.8-16.1c-1.4 0-2.5-1.1-2.5-2.5s1.1-2.5 2.5-2.5 2.5 1.1 2.5 2.5c-.1 1.4-1.2 2.5-2.5 2.5zm2.5 6.7c-1.4 0-2.5-1.1-2.5-2.5s1.1-2.5 2.5-2.5 2.5 1.1 2.5 2.5-1.1 2.5-2.5 2.5zm2.8 6.1c-1.4 0-2.5-1.1-2.5-2.5s1.1-2.5 2.5-2.5 2.5 1.1 2.5 2.5-1.1 2.5-2.5 2.5zm5.4 4c0 1.4-1.1 2.5-2.5 2.5s-2.5-1.1-2.5-2.5 1.1-2.5 2.5-2.5 2.5 1.1 2.5 2.5zM94.6 96.9c-1.2 0-2.1-1-2.1-2.1 0-1.2 1-2.1 2.1-2.1s2.1 1 2.1 2.1c0 1.2-1 2.1-2.1 2.1zm2.2 5.8c-1.2 0-2.1-1-2.1-2.1s1-2.1 2.1-2.1 2.1 1 2.1 2.1-1 2.1-2.1 2.1zm2.4 5.3c-1.2 0-2.1-1-2.1-2.1s1-2.1 2.1-2.1 2.1 1 2.1 2.1-.9 2.1-2.1 2.1zm4.6 3.4c0 1.2-1 2.1-2.1 2.1s-2.1-1-2.1-2.1 1-2.1 2.1-2.1 2.1 1 2.1 2.1zM84.5 99.3c-1.1 0-1.9-.9-1.9-1.9 0-1.1.9-1.9 1.9-1.9s1.9.9 1.9 1.9c0 1.1-.9 1.9-1.9 1.9zm1.9 5.2c-1.1 0-1.9-.9-1.9-1.9s.9-1.9 1.9-1.9c1.1 0 1.9.9 1.9 1.9s-.8 1.9-1.9 1.9zm2.2 4.7c-1.1 0-1.9-.9-1.9-1.9 0-1.1.9-1.9 1.9-1.9 1.1 0 1.9.9 1.9 1.9 0 1.1-.8 1.9-1.9 1.9zm4.1 3.1c0 1.1-.9 1.9-1.9 1.9s-1.9-.9-1.9-1.9.9-1.9 1.9-1.9 1.9.9 1.9 1.9zM75 101.8c-.9 0-1.7-.8-1.7-1.7s.8-1.7 1.7-1.7 1.7.8 1.7 1.7-.8 1.7-1.7 1.7zm1.8 4.6c-.9 0-1.7-.8-1.7-1.7s.8-1.7 1.7-1.7 1.7.8 1.7 1.7-.8 1.7-1.7 1.7zm1.9 4.3c-.9 0-1.7-.8-1.7-1.7s.8-1.7 1.7-1.7 1.7.8 1.7 1.7-.8 1.7-1.7 1.7zm3.7 2.7c0 .9-.8 1.7-1.7 1.7s-1.7-.8-1.7-1.7.8-1.7 1.7-1.7 1.7.8 1.7 1.7zM66 104.8c-.8 0-1.4-.6-1.4-1.4s.6-1.4 1.4-1.4 1.4.6 1.4 1.4-.7 1.4-1.4 1.4zm1.4 3.8c-.8 0-1.4-.6-1.4-1.4s.6-1.4 1.4-1.4c.8 0 1.4.6 1.4 1.4s-.6 1.4-1.4 1.4zm1.7 3.6c-.8 0-1.4-.6-1.4-1.4s.6-1.4 1.4-1.4 1.4.6 1.4 1.4-.6 1.4-1.4 1.4zm3.1 2.3c0 .8-.6 1.4-1.4 1.4-.8 0-1.4-.6-1.4-1.4s.6-1.4 1.4-1.4c.7 0 1.4.6 1.4 1.4zm-14.5-7.3c-.7 0-1.3-.6-1.3-1.3s.6-1.3 1.3-1.3 1.3.6 1.3 1.3-.6 1.3-1.3 1.3zm1.3 3.4c-.7 0-1.3-.6-1.3-1.3 0-.7.6-1.3 1.3-1.3s1.3.6 1.3 1.3c0 .7-.6 1.3-1.3 1.3zm1.5 3.2c-.7 0-1.3-.6-1.3-1.3 0-.7.6-1.3 1.3-1.3s1.3.6 1.3 1.3c-.1.7-.6 1.3-1.3 1.3zm2.7 2c0 .7-.6 1.3-1.3 1.3s-1.3-.6-1.3-1.3c0-.7.6-1.3 1.3-1.3s1.3.6 1.3 1.3zM50 109.7c-.6 0-1.1-.5-1.1-1.1s.5-1.1 1.1-1.1 1.1.5 1.1 1.1-.5 1.1-1.1 1.1zm1.1 3c-.6 0-1.1-.5-1.1-1.1s.5-1.1 1.1-1.1 1.1.5 1.1 1.1-.5 1.1-1.1 1.1zm1.2 2.7c-.6 0-1.1-.5-1.1-1.1 0-.6.5-1.1 1.1-1.1.6 0 1.1.5 1.1 1.1 0 .6-.5 1.1-1.1 1.1zm2.4 1.7c0 .6-.5 1.1-1.1 1.1s-1.1-.5-1.1-1.1.5-1.1 1.1-1.1 1.1.5 1.1 1.1zm-12-4.9c-.5 0-.9-.4-.9-.9s.4-.9.9-.9.9.4.9.9-.4.9-.9.9zm.9 2.5c-.5 0-.9-.4-.9-.9s.4-.9.9-.9.9.4.9.9-.4.9-.9.9zm1.1 2.3c-.5 0-.9-.4-.9-.9s.4-.9.9-.9.9.4.9.9-.4.9-.9.9zm2 1.5c0 .5-.4.9-.9.9s-.9-.4-.9-.9.4-.9.9-.9.9.4.9.9zm-11.1-3.4c-.5 0-.9-.4-.9-.9s.4-.9.9-.9.9.4.9.9-.4.9-.9.9zm1.2 2.9c-.5 0-.9-.4-.9-.9s.4-.9.9-.9.9.4.9.9-.4.9-.9.9zm2.2 1.8c0 .5-.4.9-.9.9s-.9-.4-.9-.9.4-.9.9-.9.9.4.9.9zm-10.4-2.4c-.4 0-.7-.3-.7-.7s.3-.7.7-.7.7.3.7.7-.3.7-.7.7zm1 2.3c-.4 0-.7-.3-.7-.7s.3-.7.7-.7.7.3.7.7-.3.7-.7.7zm1.7 1.5c0 .4-.3.7-.7.7s-.7-.3-.7-.7.3-.7.7-.7.7.3.7.7zm-7.7-2c0 .4-.3.7-.7.7s-.7-.3-.7-.7.3-.7.7-.7.7.3.7.7zm1.4 3.5c0 .4-.3.7-.7.7s-.7-.3-.7-.7.3-.7.7-.7.7.3.7.7zm-7.4-1.1c0 .4-.3.7-.7.7s-.7-.3-.7-.7.3-.7.7-.7.7.3.7.7zm1.4 2.3c0 .4-.3.7-.7.7s-.7-.3-.7-.7.3-.7.7-.7.7.3.7.7zm-8 .4c0 .3-.2.5-.5.5s-.5-.2-.5-.5.2-.5.5-.5.5.2.5.5zm.9 1.4c0 .3-.2.5-.5.5s-.5-.2-.5-.5.2-.5.5-.5.5.2.5.5zm-8.8 2.1c0 .3-.2.5-.5.5s-.5-.2-.5-.5.2-.5.5-.5.5.2.5.5z"/></svg>